<svg width="647" height="455" viewBox="0 0 647 455" fill="none" xmlns="http://www.w3.org/2000/svg">
<g clip-path="url(#clip0_473:10178)">
<path d="M330.436 454.036C349.896 454.036 365.671 438.294 365.671 418.875C365.671 399.456 349.896 383.714 330.436 383.714C310.976 383.714 295.201 399.456 295.201 418.875C295.201 438.294 310.976 454.036 330.436 454.036Z" fill="#65CAAE"/>
<path d="M540.932 452.06C560.644 446.153 581.6 439.993 597.233 425.949C611.203 413.399 620.634 394.236 614.847 375.415C609.071 356.633 591.772 344.109 573.912 337.88C563.782 334.348 553.184 332.388 542.59 330.848C531.074 329.174 519.506 327.803 507.945 326.483C461.13 321.14 414.139 317.876 366.972 316.691C343.698 316.106 320.428 316.12 297.151 316.457C276.363 316.758 254.469 316.751 235.185 307.934C220.188 301.078 206.577 288.604 202.398 272.212C197.575 253.291 206.472 234.022 219.234 220.318C225.962 213.094 233.824 207.015 241.935 201.425C250.734 195.36 259.84 189.725 269.143 184.465C287.466 174.11 306.622 165.297 326.412 158.118C336.175 154.576 346.083 151.519 356.077 148.7C364.516 146.319 372.981 143.935 381.136 140.691C396.903 134.421 411.899 123.799 415.908 106.385C419.707 89.8813 413.301 71.9651 402.07 59.7047C389.077 45.5203 369.486 39.3023 350.704 38.2962C329.618 37.1668 309.018 42.433 289.199 49.1165C268.06 56.2451 247.377 64.4416 225.793 70.2156C204.388 75.9357 182.569 79.9829 160.535 82.3206C149.748 83.4668 138.635 84.761 127.785 83.8835C118.69 83.1481 109.643 80.4792 102.941 74.0387C97.1941 68.5163 93.7707 60.9267 94.9476 52.9174C95.1614 51.4626 97.376 52.0811 97.1635 53.527C95.7308 63.2766 102.372 72.2606 110.556 76.8626C120.014 82.1814 131.524 82.1886 142.054 81.5803C164.887 80.2042 187.565 76.9327 209.854 71.7998C231.755 66.808 252.874 59.672 273.969 52.0491C294.004 44.8094 314.487 37.7434 335.891 36.1752C354.463 34.8146 373.999 37.5146 390.178 47.1999C404.398 55.7119 414.854 69.9072 418.186 86.1966C421.442 102.114 416.933 118.136 404.858 129.244C392.356 140.745 375.214 145.662 359.239 150.19C338.977 155.934 319.15 162.648 299.959 171.366C280.505 180.177 261.849 190.644 244.195 202.65C227.155 214.27 210.339 228.891 204.95 249.621C202.439 259.278 202.903 269.519 207.103 278.64C210.838 286.75 216.989 293.572 224.155 298.834C241.252 311.388 262.801 313.966 283.452 314.222C306.647 314.51 329.843 313.729 353.045 314.109C400.331 314.884 447.519 317.756 494.611 322.726C506.412 323.972 518.197 325.35 529.967 326.859C540.554 328.216 551.177 329.565 561.585 331.976C580.093 336.263 598.102 344.505 609.606 360.164C614.711 366.952 617.874 374.995 618.757 383.436C619.562 392.245 617.401 401.07 613.41 408.906C604.577 426.249 588.031 437.281 570.459 444.529C561.048 448.411 551.286 451.352 541.543 454.272C540.123 454.697 539.517 452.484 540.932 452.06L540.932 452.06Z" fill="#F2F2F2"/>
<path d="M96.4303 71.4686C106.583 71.4686 114.814 63.2553 114.814 53.1237C114.814 42.9921 106.583 34.7788 96.4303 34.7788C86.2774 34.7788 78.0469 42.9921 78.0469 53.1237C78.0469 63.2553 86.2774 71.4686 96.4303 71.4686Z" fill="#F2F2F2"/>
<path d="M223.965 106.247C234.118 106.247 242.349 98.0341 242.349 87.9025C242.349 77.7709 234.118 69.5576 223.965 69.5576C213.813 69.5576 205.582 77.7709 205.582 87.9025C205.582 98.0341 213.813 106.247 223.965 106.247Z" fill="#F2F2F2"/>
<path d="M331.967 36.6898C342.12 36.6898 350.351 28.4765 350.351 18.3449C350.351 8.21328 342.12 0 331.967 0C321.815 0 313.584 8.21328 313.584 18.3449C313.584 28.4765 321.815 36.6898 331.967 36.6898Z" fill="#F2F2F2"/>
<path d="M399.374 114.656C409.526 114.656 417.757 106.442 417.757 96.3107C417.757 86.1791 409.526 77.9658 399.374 77.9658C389.221 77.9658 380.99 86.1791 380.99 96.3107C380.99 106.442 389.221 114.656 399.374 114.656Z" fill="#F2F2F2"/>
<path d="M308.223 204.851C318.376 204.851 326.607 196.638 326.607 186.506C326.607 176.375 318.376 168.161 308.223 168.161C298.07 168.161 289.84 176.375 289.84 186.506C289.84 196.638 298.07 204.851 308.223 204.851Z" fill="#F2F2F2"/>
<path d="M192.561 248.42C202.714 248.42 210.945 240.207 210.945 230.075C210.945 219.944 202.714 211.73 192.561 211.73C182.408 211.73 174.178 219.944 174.178 230.075C174.178 240.207 182.408 248.42 192.561 248.42Z" fill="#F2F2F2"/>
<path d="M315.116 316.449C325.269 316.449 333.499 308.236 333.499 298.104C333.499 287.973 325.269 279.759 315.116 279.759C304.963 279.759 296.732 287.973 296.732 298.104C296.732 308.236 304.963 316.449 315.116 316.449Z" fill="#F2F2F2"/>
<path d="M446.864 354.668C457.017 354.668 465.247 346.454 465.247 336.323C465.247 326.191 457.017 317.978 446.864 317.978C436.711 317.978 428.48 326.191 428.48 336.323C428.48 346.454 436.711 354.668 446.864 354.668Z" fill="#F2F2F2"/>
<path d="M600.825 346.26C610.978 346.26 619.208 338.046 619.208 327.915C619.208 317.783 610.978 309.57 600.825 309.57C590.672 309.57 582.441 317.783 582.441 327.915C582.441 338.046 590.672 346.26 600.825 346.26Z" fill="#F2F2F2"/>
<path d="M326.661 51.9797C271.594 52.3679 226.505 97.0239 225.723 151.972C225.716 152.479 225.712 156.046 225.713 160.712C225.713 167.552 228.437 174.113 233.284 178.95C238.131 183.787 244.705 186.505 251.56 186.506H251.56C254.958 186.505 258.323 185.837 261.462 184.538C264.601 183.239 267.453 181.335 269.854 178.936C272.256 176.537 274.16 173.689 275.458 170.555C276.756 167.422 277.423 164.063 277.42 160.672C277.417 157.498 277.416 155.302 277.416 155.167C277.414 146.675 279.628 138.329 283.839 130.949C288.05 123.57 294.113 117.411 301.433 113.079C308.753 108.748 317.076 106.392 325.585 106.244C334.094 106.096 342.494 108.161 349.961 112.236C357.427 116.311 363.702 122.255 368.168 129.483C372.634 136.712 375.137 144.977 375.432 153.464C375.726 161.951 373.802 170.368 369.848 177.888C365.894 185.407 360.046 191.77 352.88 196.351L352.889 196.362C352.889 196.362 316.1 219.996 304.885 252.417L304.894 252.419C302.922 259.061 301.923 265.953 301.927 272.88C301.927 275.728 302.095 300.643 302.419 320.865C302.533 327.843 305.39 334.496 310.376 339.39C315.361 344.284 322.075 347.025 329.068 347.024H329.068C332.582 347.024 336.061 346.33 339.305 344.983C342.549 343.636 345.494 341.662 347.971 339.175C350.448 336.688 352.408 333.737 353.738 330.491C355.067 327.245 355.741 323.769 355.719 320.263C355.606 301.743 355.545 280.178 355.545 278.613C355.545 258.705 374.791 238.869 390.599 225.934C408.803 211.039 421.903 190.741 427.165 167.843C428.329 163.129 428.971 158.301 429.079 153.447C429.079 140.06 426.424 126.806 421.268 114.447C416.112 102.088 408.556 90.87 399.036 81.4383C389.516 72.0065 378.22 64.5479 365.799 59.492C353.377 54.4361 340.076 51.883 326.661 51.9797V51.9797Z" fill="#65CAAE"/>
<path d="M646.087 455H0.911349C0.669921 454.999 0.438625 454.903 0.268156 454.732C0.0976865 454.562 0.00195312 454.331 0.00195312 454.09C0.00195312 453.849 0.0976865 453.618 0.268156 453.447C0.438625 453.277 0.669921 453.18 0.911349 453.18H646.087C646.329 453.18 646.561 453.276 646.732 453.446C646.903 453.617 646.999 453.848 646.999 454.09C646.999 454.331 646.903 454.563 646.732 454.733C646.561 454.904 646.329 455 646.087 455V455Z" fill="#3F3D56"/>
<path d="M481.376 208.67C494.067 208.67 504.355 198.403 504.355 185.739C504.355 173.074 494.067 162.808 481.376 162.808C468.685 162.808 458.396 173.074 458.396 185.739C458.396 198.403 468.685 208.67 481.376 208.67Z" fill="#2F2E41"/>
<path d="M438.913 444.962H429.523L425.055 408.816H438.915L438.913 444.962Z" fill="#A0616A"/>
<path d="M422.815 442.284H440.926V453.663H411.412C411.412 452.169 411.707 450.689 412.28 449.308C412.853 447.928 413.693 446.673 414.752 445.617C415.811 444.56 417.068 443.722 418.451 443.15C419.835 442.578 421.318 442.284 422.815 442.284Z" fill="#2F2E41"/>
<path d="M511.68 444.962H502.29L497.822 408.816H511.683L511.68 444.962Z" fill="#A0616A"/>
<path d="M495.583 442.284H513.693V453.663H484.18C484.18 452.169 484.475 450.689 485.048 449.308C485.621 447.928 486.461 446.673 487.52 445.617C488.578 444.56 489.835 443.722 491.219 443.15C492.602 442.578 494.085 442.284 495.583 442.284V442.284Z" fill="#2F2E41"/>
<path d="M477.883 208.804C488.274 208.804 496.697 200.398 496.697 190.03C496.697 179.662 488.274 171.256 477.883 171.256C467.493 171.256 459.07 179.662 459.07 190.03C459.07 200.398 467.493 208.804 477.883 208.804Z" fill="#A0616A"/>
<path d="M489.096 269.368L497.514 250.068C499.559 245.54 500.145 240.491 499.191 235.617C498.238 230.743 495.792 226.284 492.191 222.856C491.451 222.127 490.666 221.445 489.839 220.816C485.686 217.573 480.567 215.806 475.293 215.794C471.748 215.807 468.247 216.584 465.029 218.072C464.753 218.194 464.486 218.324 464.21 218.454C463.681 218.706 463.161 218.981 462.655 219.264C459.357 221.153 456.551 223.79 454.462 226.96C452.373 230.131 451.06 233.747 450.629 237.517L446.914 268.581C445.98 271.019 412.644 359.075 424.303 426.301C424.427 427.019 424.777 427.679 425.304 428.183C425.83 428.688 426.505 429.011 427.229 429.106L439.048 430.712C439.911 430.829 440.786 430.617 441.498 430.116C442.21 429.615 442.706 428.864 442.885 428.013L462.716 333.682C462.84 333.096 463.157 332.569 463.616 332.183C464.076 331.798 464.652 331.578 465.251 331.558C465.851 331.537 466.441 331.718 466.925 332.072C467.41 332.425 467.762 332.93 467.925 333.507L495.944 432.707C496.144 433.427 496.575 434.063 497.171 434.516C497.767 434.969 498.496 435.214 499.245 435.214C499.469 435.212 499.692 435.192 499.912 435.153L514.35 432.378C515.19 432.221 515.94 431.758 516.455 431.077C516.969 430.397 517.21 429.55 517.131 428.701C515.009 405.09 503.734 286.819 489.096 269.368Z" fill="#2F2E41"/>
<path d="M404.771 205.654C404.64 206.77 404.756 207.901 405.111 208.967C405.466 210.034 406.051 211.01 406.825 211.826C407.598 212.642 408.542 213.28 409.589 213.693C410.636 214.106 411.762 214.285 412.886 214.217L423.402 239.436L431.356 227.669L420.151 205.525C419.911 203.648 418.991 201.924 417.563 200.68C416.135 199.435 414.299 198.756 412.403 198.772C410.508 198.788 408.683 199.497 407.277 200.766C405.87 202.034 404.978 203.773 404.771 205.654L404.771 205.654Z" fill="#A0616A"/>
<path d="M476.84 294.761C477.958 294.628 479.033 294.251 479.99 293.659C480.946 293.066 481.761 292.271 482.376 291.33C482.992 290.389 483.393 289.324 483.552 288.212C483.71 287.099 483.622 285.966 483.294 284.891L505.42 268.81L492.099 263.832L473.131 279.866C471.358 280.535 469.892 281.831 469.012 283.506C468.132 285.182 467.898 287.122 468.356 288.958C468.813 290.794 469.929 292.399 471.493 293.468C473.056 294.538 474.959 294.998 476.84 294.761V294.761Z" fill="#A0616A"/>
<path d="M440.773 256.248C439.925 256.247 439.078 256.164 438.246 256C436.234 255.617 434.346 254.747 432.751 253.465C431.155 252.183 429.899 250.53 429.095 248.649L414.362 230.722C414.05 230.343 413.824 229.902 413.697 229.429C413.57 228.955 413.546 228.46 413.627 227.977C413.707 227.493 413.891 227.032 414.164 226.625C414.438 226.218 414.795 225.874 415.213 225.616L425.695 219.141C426.082 218.902 426.512 218.742 426.962 218.67C427.411 218.598 427.87 218.615 428.313 218.721C428.756 218.827 429.173 219.019 429.541 219.287C429.908 219.554 430.219 219.892 430.455 220.28L440.839 237.352L460.725 222.686C462.308 221.858 464.138 221.625 465.878 222.032C467.619 222.438 469.155 223.455 470.207 224.899C471.258 226.342 471.753 228.114 471.603 229.892C471.453 231.669 470.667 233.334 469.388 234.581L449.54 252.648C447.208 254.955 444.057 256.249 440.773 256.248Z" fill="#2F2E41"/>
<path d="M494.506 283.209C494.479 283.209 494.452 283.209 494.425 283.208C493.942 283.197 493.466 283.084 493.029 282.877C492.593 282.67 492.204 282.374 491.889 282.008L482.57 271.159C482.253 270.79 482.018 270.357 481.88 269.89C481.743 269.423 481.706 268.933 481.773 268.451C481.839 267.969 482.008 267.506 482.267 267.094C482.526 266.681 482.869 266.329 483.275 266.059L500.725 254.45L484.917 235.484C483.997 233.954 483.66 232.145 483.966 230.387C484.273 228.63 485.203 227.041 486.586 225.911C487.97 224.781 489.715 224.186 491.502 224.234C493.289 224.282 494.999 224.97 496.32 226.172L515.533 244.909C517.045 246.287 518.2 248.011 518.897 249.933C519.595 251.855 519.814 253.917 519.538 255.942C519.261 257.967 518.496 259.895 517.308 261.56C516.12 263.225 514.545 264.577 512.718 265.501L497.015 282.129C496.692 282.47 496.303 282.742 495.872 282.927C495.441 283.113 494.976 283.209 494.506 283.209Z" fill="#2F2E41"/>
<path d="M473.1 243.233C472.95 243.233 472.801 243.224 472.653 243.205C472.004 243.126 471.391 242.864 470.887 242.448C470.384 242.032 470.01 241.481 469.811 240.859L462.808 219.435C462.632 218.893 462.659 218.306 462.884 217.783C463.108 217.26 463.515 216.835 464.029 216.588L464.256 216.481C464.462 216.383 464.666 216.286 464.874 216.194C468.14 214.682 471.694 213.894 475.294 213.883C479.967 213.891 484.535 215.261 488.439 217.824C488.962 218.172 489.328 218.711 489.457 219.325C489.586 219.939 489.469 220.579 489.13 221.107L475.993 241.644C475.685 242.132 475.258 242.533 474.752 242.811C474.246 243.089 473.678 243.235 473.1 243.233V243.233Z" fill="#E6E6E6"/>
<path d="M499.492 175.502C503.645 175.502 507.011 172.142 507.011 167.998C507.011 163.854 503.645 160.494 499.492 160.494C495.339 160.494 491.973 163.854 491.973 167.998C491.973 172.142 495.339 175.502 499.492 175.502Z" fill="#2F2E41"/>
<path d="M473.716 159.75C468.434 159.75 463.369 161.844 459.634 165.571C455.899 169.298 453.801 174.353 453.801 179.624V188.032H464.164L469.12 179.624L470.607 188.032H502.057L493.632 179.624C493.632 174.353 491.533 169.298 487.798 165.571C484.064 161.844 478.998 159.75 473.716 159.75V159.75Z" fill="#2F2E41"/>
<path d="M503.357 162.858C504.189 160.263 505.911 158.044 508.219 156.591C510.528 155.138 513.277 154.543 515.981 154.912C520.773 155.711 524.562 159.555 526.819 163.848C529.077 168.141 530.119 172.946 531.637 177.552C533.155 182.158 535.307 186.788 539.138 189.77C542.969 192.751 548.849 193.56 552.611 190.493C552.182 193.689 550.756 196.67 548.535 199.013C546.315 201.356 543.412 202.943 540.238 203.55C537.064 204.157 533.78 203.753 530.849 202.395C527.917 201.037 525.488 198.793 523.905 195.982C521.919 192.457 521.407 188.325 520.818 184.324C520.229 180.324 519.464 176.184 517.094 172.904C514.723 169.625 510.286 167.483 506.521 168.977L503.357 162.858Z" fill="#2F2E41"/>
<path d="M258.859 174.306C252.003 174.305 245.429 171.587 240.582 166.75C235.735 161.912 233.012 155.352 233.011 148.511C233.011 143.846 233.014 140.279 233.021 139.771C233.239 123.791 237.272 108.093 244.786 93.9788C232.441 110.843 225.653 131.119 225.362 152.001C225.355 152.508 225.351 156.076 225.352 160.741C225.352 167.582 228.075 174.142 232.922 178.98C237.77 183.817 244.344 186.535 251.199 186.536V186.536C256.832 186.533 262.31 184.697 266.802 181.304C271.293 177.911 274.552 173.149 276.084 167.739C271.351 171.974 265.216 174.313 258.859 174.306V174.306Z" fill="#3F3D56"/>
<path d="M328.414 106.331C336.339 106.709 344.053 109 350.895 113.008C357.737 117.017 363.502 122.622 367.695 129.344C371.888 136.065 374.383 143.702 374.967 151.597C375.551 159.493 374.206 167.413 371.047 174.675C375.616 169.321 378.974 163.046 380.893 156.279C382.811 149.511 383.245 142.411 382.164 135.461C381.084 128.512 378.514 121.876 374.631 116.007C370.747 110.139 365.641 105.174 359.661 101.453C353.681 97.732 346.967 95.3414 339.977 94.4443C332.987 93.5472 325.885 94.1647 319.156 96.2547C312.427 98.3448 306.228 101.858 300.983 106.555C295.738 111.253 291.569 117.023 288.762 123.474C293.614 117.777 299.713 113.269 306.588 110.297C313.463 107.325 320.93 105.968 328.414 106.331V106.331Z" fill="#3F3D56"/>
<path d="M336.367 334.823C329.374 334.825 322.66 332.083 317.675 327.189C312.69 322.295 309.832 315.642 309.718 308.665C309.394 288.442 309.226 263.527 309.226 260.679C309.222 253.752 310.221 246.861 312.193 240.219L312.184 240.216C313.348 236.883 314.755 233.638 316.392 230.508C311.366 237.192 307.366 244.586 304.524 252.446L304.533 252.449C302.561 259.091 301.562 265.982 301.566 272.909C301.566 275.757 301.734 300.672 302.059 320.895C302.172 327.872 305.03 334.525 310.015 339.419C315 344.313 321.714 347.055 328.707 347.053V347.053C334.473 347.052 340.083 345.186 344.696 341.734C349.309 338.282 352.676 333.43 354.292 327.907C349.392 332.365 342.998 334.833 336.367 334.823V334.823Z" fill="#3F3D56"/>
<path d="M96.9281 445.31L106.318 445.31L110.786 409.164L96.9258 409.165L96.9281 445.31Z" fill="#FFB8B8"/>
<path d="M124.428 454.011L94.9142 454.012L94.9137 442.633L113.024 442.632C116.049 442.632 118.949 443.831 121.088 445.965C123.226 448.099 124.428 450.993 124.428 454.011V454.011L124.428 454.011Z" fill="#2F2E41"/>
<path d="M63.225 445.31L72.615 445.31L77.083 409.164L63.2227 409.165L63.225 445.31Z" fill="#FFB8B8"/>
<path d="M90.7246 454.011L61.2111 454.012L61.2106 442.633L79.3211 442.632C82.3454 442.632 85.2458 443.831 87.3844 445.965C89.523 448.099 90.7245 450.993 90.7246 454.011V454.011L90.7246 454.011Z" fill="#2F2E41"/>
<path d="M71.4296 434.194L62.2571 433.712C61.7841 433.687 61.3208 433.569 60.8939 433.364C60.467 433.16 60.0852 432.872 59.7704 432.519C59.4556 432.166 59.2141 431.754 59.06 431.307C58.9059 430.86 58.8422 430.387 58.8726 429.916L69.8358 308.789L120.322 322.384L125.186 321.06L109.975 428.289C109.846 429.096 109.444 429.834 108.837 430.382C108.23 430.931 107.454 431.256 106.637 431.304L96.749 431.764C96.2545 431.791 95.7598 431.716 95.296 431.543C94.8322 431.37 94.4095 431.103 94.0545 430.758C93.6995 430.414 93.4199 429.999 93.2335 429.542C93.0471 429.084 92.9579 428.592 92.9716 428.098L94.7632 363.741C94.7715 363.444 94.6679 363.154 94.4727 362.928C94.2775 362.703 94.0049 362.559 93.7086 362.525C93.4123 362.49 93.1137 362.568 92.8718 362.742C92.6299 362.916 92.4621 363.174 92.4015 363.466L75.1235 431.351C74.9604 432.157 74.5224 432.881 73.8842 433.4C73.246 433.92 72.4471 434.202 71.6236 434.199C71.5594 434.199 71.4947 434.198 71.4296 434.194Z" fill="#2F2E41"/>
<path d="M98.6139 209.682C109.004 209.682 117.427 201.276 117.427 190.908C117.427 180.54 109.004 172.134 98.6139 172.134C88.2237 172.134 79.8008 180.54 79.8008 190.908C79.8008 201.276 88.2237 209.682 98.6139 209.682Z" fill="#FFB8B8"/>
<path d="M67.2908 246.064L69.3594 290.602L70.1071 306.806C70.1369 307.511 70.3769 308.192 70.7964 308.76C71.2159 309.329 71.7958 309.759 72.462 309.997L120.976 327.534C121.368 327.68 121.783 327.752 122.201 327.749C122.679 327.751 123.152 327.657 123.593 327.473C124.034 327.289 124.433 327.018 124.766 326.676C125.1 326.334 125.361 325.929 125.534 325.485C125.707 325.04 125.788 324.566 125.773 324.089L123.784 244.008C123.654 237.438 121.23 231.119 116.931 226.141C112.632 221.163 106.728 217.837 100.235 216.738C99.7662 216.666 99.2887 216.595 98.8113 216.531C94.7855 216.032 90.699 216.42 86.8394 217.667C82.9798 218.914 79.4409 220.989 76.4717 223.748C73.3971 226.57 70.9811 230.031 69.3947 233.887C67.8083 237.744 67.09 241.9 67.2908 246.064L67.2908 246.064Z" fill="#CCCCCC"/>
<path d="M144.15 318.648C143.002 318.292 141.954 317.674 141.089 316.843C140.223 316.011 139.564 314.989 139.165 313.859C138.765 312.728 138.636 311.52 138.788 310.33C138.939 309.141 139.367 308.004 140.038 307.009L123.586 285.178L137.783 284.302L151.229 305.167C152.668 306.277 153.67 307.858 154.058 309.632C154.446 311.406 154.196 313.26 153.352 314.868C152.507 316.476 151.122 317.736 149.44 318.428C147.757 319.119 145.884 319.197 144.15 318.648H144.15Z" fill="#FFB8B8"/>
<path d="M132.584 303.058C132.148 302.882 131.752 302.621 131.418 302.29C131.084 301.96 130.819 301.566 130.638 301.133L105.852 242.205C105.366 241.051 105.112 239.813 105.106 238.561C105.099 237.309 105.34 236.069 105.814 234.91C106.288 233.751 106.986 232.697 107.869 231.807C108.751 230.918 109.801 230.211 110.957 229.727C112.114 229.242 113.355 228.99 114.609 228.984C115.864 228.979 117.107 229.22 118.268 229.694C119.428 230.168 120.484 230.865 121.375 231.747C122.265 232.628 122.973 233.676 123.458 234.831L148.243 293.76C148.61 294.634 148.614 295.617 148.255 296.494C147.896 297.37 147.203 298.069 146.328 298.437L135.324 303.045C134.891 303.228 134.426 303.323 133.956 303.326C133.485 303.328 133.019 303.237 132.584 303.058L132.584 303.058Z" fill="#CCCCCC"/>
<path d="M92.5651 300.98L116.371 255.493C116.83 254.618 117.618 253.961 118.562 253.665C119.506 253.369 120.53 253.459 121.407 253.916L155.962 271.924C156.838 272.382 157.497 273.169 157.793 274.111C158.09 275.053 157.999 276.074 157.542 276.95L133.736 322.437C133.277 323.311 132.489 323.969 131.545 324.264C130.601 324.56 129.578 324.47 128.7 324.014L94.1457 306.005C93.2691 305.547 92.6103 304.761 92.314 303.819C92.0177 302.876 92.108 301.855 92.5651 300.98Z" fill="#3F3D56"/>
<path d="M108.529 280.198C108.106 279.076 107.425 278.068 106.543 277.255C105.66 276.442 104.599 275.846 103.444 275.515C102.289 275.183 101.073 275.126 99.8923 275.347C98.7116 275.569 97.5989 276.062 96.6432 276.789L73.8337 261.689L73.7949 275.883L95.4612 288.046C96.6572 289.414 98.2978 290.319 100.095 290.601C101.893 290.883 103.732 290.524 105.291 289.588C106.85 288.651 108.029 287.197 108.621 285.48C109.213 283.763 109.181 281.893 108.529 280.198V280.198Z" fill="#FFB8B8"/>
<path d="M79.6911 283.39L61.0498 268.654C59.0331 267.979 57.2109 266.825 55.7396 265.292C54.2683 263.758 53.1917 261.892 52.6024 259.852C52.0131 257.812 51.9286 255.66 52.3562 253.581C52.7838 251.501 53.7106 249.556 55.0572 247.913L71.9831 225.777C73.1593 224.343 74.8135 223.379 76.6433 223.062C78.473 222.744 80.3562 223.094 81.9485 224.048C83.5408 225.002 84.7359 226.496 85.3152 228.257C85.8946 230.018 85.8196 231.928 85.1039 233.638L71.7118 255.499L91.3927 264.815C91.8503 265.031 92.2567 265.342 92.585 265.727C92.9133 266.112 93.1559 266.562 93.297 267.048C93.438 267.533 93.4742 268.043 93.4032 268.543C93.3322 269.044 93.1555 269.524 92.8849 269.951L84.9404 282.497C84.6719 282.921 84.3172 283.283 83.8993 283.561C83.4815 283.839 83.0098 284.026 82.5148 284.111C82.4952 284.114 82.4754 284.117 82.4556 284.12C81.9692 284.194 81.473 284.167 80.9975 284.041C80.522 283.915 80.0774 283.694 79.6911 283.39V283.39Z" fill="#CCCCCC"/>
<path d="M84.3977 203.479C84.317 203.244 84.2914 202.993 84.3229 202.746C84.3544 202.499 84.4421 202.262 84.5793 202.054C84.7166 201.846 84.8997 201.672 85.1147 201.546C85.3297 201.419 85.5708 201.344 85.8197 201.325C86.3292 201.352 86.8278 201.483 87.2855 201.708C87.7431 201.933 88.1502 202.249 88.4823 202.635C89.1631 203.419 89.9558 204.098 90.8347 204.651C91.7448 205.109 92.9791 205.044 93.4979 204.171C93.9851 203.351 93.6512 202.254 93.3563 201.302C92.6058 198.88 92.1858 196.368 92.1078 193.834C92.0229 191.006 92.4228 188.054 93.9919 185.848C96.017 183.001 99.6382 181.92 103.065 181.998C106.492 182.077 109.864 183.132 113.258 183.8C114.43 184.03 115.808 184.148 116.591 183.241C117.425 182.278 117.119 180.718 116.764 179.417C115.844 176.04 114.868 172.549 112.731 169.822C110.42 166.988 107.119 165.134 103.493 164.632C100.011 164.202 96.4772 164.602 93.181 165.8C87.8106 167.489 83.0851 170.774 79.6364 175.216C76.0812 179.94 74.545 185.876 75.3637 191.727C76.1635 196.822 78.8694 201.426 82.936 204.61L84.3977 203.479Z" fill="#2F2E41"/>
<path d="M322.673 445.459C317.667 443.284 313.237 439.977 309.732 435.801C306.226 431.624 303.742 426.692 302.474 421.393C301.206 416.094 301.189 410.573 302.425 405.267C303.662 399.96 306.117 395.013 309.597 390.815C305.562 393.756 302.2 397.518 299.733 401.854C297.266 406.19 295.752 411 295.291 415.965C294.83 420.93 295.432 425.935 297.058 430.65C298.683 435.365 301.295 439.68 304.72 443.311C308.144 446.941 312.304 449.803 316.922 451.706C321.539 453.61 326.51 454.512 331.504 454.352C336.498 454.192 341.4 452.974 345.886 450.778C350.372 448.583 354.339 445.461 357.523 441.619C352.557 445.241 346.726 447.502 340.611 448.176C334.497 448.85 328.312 447.913 322.673 445.459V445.459Z" fill="#3F3D56"/>
</g>
<defs>
<clipPath id="clip0_473:10178">
<rect width="647" height="455" fill="white"/>
</clipPath>
</defs>
</svg>
