<svg width="865" height="822" viewBox="0 0 865 822" fill="none" xmlns="http://www.w3.org/2000/svg">
<path d="M865 554.5C865 327.511 527.638 0 391.5 0C255.362 0 0 178.011 0 405C0 631.989 255.362 822 391.5 822C527.638 822 865 781.489 865 554.5Z" fill="url(#paint0_linear_547:7987)"/>
<path d="M601 531H600.677V632.096H564V633H601V531Z" fill="#3F3D56"/>
<path d="M657.711 475.096H657.134V474.082H657.567C657.643 474.082 657.717 474.052 657.771 473.997C657.825 473.943 657.855 473.869 657.855 473.792V468.577C657.855 468.5 657.825 468.426 657.771 468.372C657.717 468.317 657.643 468.287 657.567 468.287H657.134V465.325C657.134 464.496 656.971 463.675 656.655 462.91C656.339 462.144 655.876 461.448 655.293 460.862C654.709 460.276 654.016 459.812 653.253 459.495C652.491 459.177 651.673 459.014 650.848 459.014H650.207V458.29C650.207 458.213 650.176 458.139 650.122 458.085C650.068 458.031 649.994 458 649.918 458H644.723C644.646 458 644.573 458.031 644.518 458.085C644.464 458.139 644.434 458.213 644.434 458.29V459.014H550.565C549.74 459.014 548.922 459.177 548.16 459.495C547.397 459.812 546.704 460.276 546.12 460.862C545.537 461.448 545.074 462.144 544.758 462.91C544.442 463.675 544.279 464.496 544.279 465.325V599.616C544.279 600.444 544.442 601.265 544.758 602.031C545.074 602.796 545.537 603.492 546.12 604.078C546.704 604.664 547.397 605.129 548.16 605.446C548.922 605.763 549.74 605.926 550.565 605.926H650.848C651.673 605.926 652.491 605.763 653.253 605.446C654.016 605.129 654.709 604.664 655.293 604.078C655.876 603.492 656.339 602.796 656.655 602.031C656.971 601.265 657.134 600.444 657.134 599.616V480.892H657.711C657.787 480.892 657.861 480.861 657.915 480.807C657.969 480.752 658 480.679 658 480.602V475.386C658 475.348 657.992 475.31 657.978 475.275C657.963 475.24 657.942 475.208 657.915 475.181C657.888 475.154 657.856 475.133 657.821 475.118C657.786 475.104 657.749 475.096 657.711 475.096V475.096Z" fill="#3F3D56"/>
<path d="M651.947 463.143H550.333C549.859 463.143 549.475 463.528 549.475 464.004V599.924C549.475 600.399 549.859 600.785 550.333 600.785H651.947C652.421 600.785 652.805 600.399 652.805 599.924V464.004C652.805 463.528 652.421 463.143 651.947 463.143Z" fill="white"/>
<path d="M556.443 627.648H543.832V640.309H556.443V627.648Z" fill="#80ABD8"/>
<path d="M564.1 633.075H548.787V617.701H564.1V633.075ZM549.453 632.406H563.435V618.37H549.453V632.406Z" fill="#3F3D56"/>
<path d="M559.517 472.899C559.172 472.899 558.841 473.036 558.598 473.28C558.354 473.523 558.217 473.854 558.216 474.198L558.25 554.781C558.251 555.125 558.388 555.456 558.632 555.699C558.876 555.943 559.207 556.08 559.552 556.081L642.825 556.101C643.17 556.101 643.501 555.964 643.745 555.72C643.988 555.477 644.126 555.146 644.126 554.802L644.092 474.219C644.091 473.875 643.954 473.544 643.71 473.301C643.466 473.057 643.135 472.92 642.79 472.919L559.517 472.899Z" fill="#3F3D56"/>
<path d="M561.468 553.316L640.605 553.199L640.705 476.307L561.567 476.424L561.468 553.316Z" fill="white"/>
<path d="M568.876 488.355C568.348 488.354 567.921 489.104 567.923 490.026C567.925 490.949 568.356 491.7 568.883 491.701L604.93 491.774C605.457 491.775 605.884 491.025 605.882 490.103C605.88 489.18 605.45 488.429 604.922 488.428L568.876 488.355Z" fill="#E6E6E6"/>
<path d="M568.579 498.995C568.051 498.994 567.624 499.744 567.626 500.666C567.628 501.589 568.059 502.34 568.586 502.341L604.633 502.413C605.16 502.415 605.588 501.665 605.586 500.742C605.583 499.82 605.153 499.068 604.626 499.067L568.579 498.995Z" fill="#E6E6E6"/>
<path d="M568.454 509.013C567.926 509.012 567.499 509.762 567.501 510.685C567.503 511.607 567.934 512.358 568.461 512.36L604.508 512.432C605.035 512.433 605.463 511.683 605.461 510.761C605.458 509.838 605.028 509.087 604.501 509.086L568.454 509.013Z" fill="#E6E6E6"/>
<path d="M568.778 519.827C568.251 519.826 567.823 520.576 567.825 521.498C567.827 522.421 568.258 523.172 568.785 523.173L604.832 523.246C605.359 523.247 605.787 522.497 605.785 521.574C605.783 520.652 605.352 519.9 604.825 519.899L568.778 519.827Z" fill="#E6E6E6"/>
<path d="M623.051 488.721C622.834 488.722 622.618 488.766 622.417 488.851C622.215 488.936 622.032 489.06 621.878 489.216C621.723 489.372 621.601 489.557 621.516 489.761C621.432 489.964 621.389 490.183 621.388 490.403C621.387 490.623 621.429 490.841 621.512 491.044C621.595 491.247 621.716 491.431 621.87 491.586C622.023 491.741 622.205 491.864 622.406 491.947C622.607 492.031 622.822 492.073 623.04 492.072L629.662 492.048C630.102 492.046 630.523 491.868 630.835 491.553C631.146 491.237 631.322 490.81 631.324 490.366C631.325 489.922 631.152 489.496 630.843 489.183C630.534 488.87 630.113 488.695 629.674 488.697L623.051 488.721Z" fill="#E6E6E6"/>
<path d="M623.006 498.762C622.775 498.758 622.547 498.799 622.334 498.881C622.122 498.962 621.93 499.084 621.768 499.238C621.607 499.392 621.48 499.576 621.394 499.78C621.308 499.983 621.266 500.201 621.269 500.422C621.272 500.644 621.32 500.863 621.412 501.069C621.503 501.274 621.635 501.462 621.801 501.62C621.966 501.778 622.162 501.905 622.377 501.992C622.591 502.079 622.821 502.126 623.052 502.128L630.083 502.218C630.55 502.224 630.994 502.053 631.32 501.741C631.645 501.43 631.824 501.004 631.818 500.558C631.812 500.111 631.621 499.681 631.287 499.361C630.953 499.041 630.504 498.858 630.038 498.852L623.006 498.762Z" fill="#E6E6E6"/>
<path d="M623.425 508.931C623.207 508.932 622.992 508.976 622.791 509.061C622.589 509.146 622.406 509.27 622.252 509.426C622.098 509.582 621.975 509.767 621.891 509.971C621.807 510.175 621.764 510.393 621.763 510.613C621.762 510.833 621.804 511.05 621.887 511.253C621.969 511.456 622.091 511.641 622.244 511.796C622.397 511.951 622.579 512.073 622.78 512.157C622.981 512.24 623.196 512.283 623.413 512.282L630.037 512.258C630.476 512.256 630.898 512.078 631.21 511.763C631.521 511.447 631.697 511.021 631.699 510.576C631.7 510.132 631.527 509.706 631.218 509.393C630.908 509.08 630.488 508.905 630.049 508.907L623.425 508.931Z" fill="#E6E6E6"/>
<path d="M623.235 519.175C622.792 519.192 622.361 519.405 622.037 519.767C621.713 520.129 621.521 520.61 621.505 521.106C621.49 521.602 621.65 522.071 621.952 522.41C622.254 522.749 622.672 522.931 623.115 522.916L629.802 522.674C630.246 522.657 630.677 522.445 631.001 522.083C631.325 521.721 631.517 521.239 631.532 520.743C631.548 520.248 631.388 519.779 631.086 519.439C630.784 519.1 630.366 518.918 629.923 518.934L623.235 519.175Z" fill="#E6E6E6"/>
<path d="M620.905 536.191C620.617 536.187 620.331 536.237 620.066 536.339C619.801 536.442 619.56 536.593 619.358 536.786C619.157 536.979 618.998 537.209 618.891 537.463C618.784 537.717 618.73 537.99 618.734 538.267C618.738 538.543 618.798 538.818 618.913 539.074C619.027 539.331 619.192 539.565 619.399 539.764C619.606 539.962 619.85 540.12 620.119 540.229C620.387 540.338 620.674 540.395 620.963 540.399L629.752 540.511C630.335 540.519 630.891 540.304 631.298 539.915C631.704 539.526 631.929 538.994 631.921 538.435C631.913 537.877 631.675 537.339 631.257 536.939C630.84 536.54 630.278 536.311 629.695 536.303V536.303L620.905 536.191Z" fill="#00BFA6"/>
<path d="M631.565 530.564L567.707 530.569L567.707 531.137L631.565 531.131L631.565 530.564Z" fill="#3F3D56"/>
<path d="M544 633H325.957V531H327.861V632.096H544V633Z" fill="#3F3D56"/>
<path d="M365.331 497.751H364.464V476.527C364.464 474.914 364.108 473.317 363.417 471.826C362.726 470.336 361.713 468.982 360.436 467.841C359.159 466.7 357.643 465.796 355.974 465.178C354.306 464.561 352.517 464.243 350.711 464.243H300.371C298.565 464.243 296.777 464.561 295.109 465.178C293.44 465.796 291.924 466.7 290.647 467.841C289.37 468.982 288.357 470.336 287.666 471.826C286.975 473.317 286.619 474.914 286.619 476.527V592.964C286.619 594.577 286.975 596.174 287.666 597.664C288.357 599.155 289.37 600.509 290.647 601.65C291.924 602.79 293.44 603.695 295.109 604.312C296.777 604.93 298.565 605.247 300.371 605.247H350.711C352.517 605.247 354.306 604.93 355.974 604.312C357.643 603.695 359.159 602.79 360.436 601.65C361.713 600.509 362.726 599.155 363.417 597.664C364.108 596.174 364.464 594.577 364.464 592.964V512.859H365.331V497.751Z" fill="#3F3D56"/>
<path d="M361.536 477.248V593.515C361.537 595.948 360.455 598.282 358.529 600.002C356.604 601.723 353.991 602.69 351.268 602.69H300.684C297.961 602.69 295.348 601.723 293.423 600.002C291.497 598.282 290.416 595.948 290.416 593.515V477.248C290.416 474.816 291.498 472.483 293.424 470.763C295.35 469.043 297.961 468.076 300.684 468.076H306.821C306.519 468.738 306.404 469.456 306.486 470.167C306.568 470.878 306.844 471.56 307.29 472.153C307.737 472.746 308.339 473.232 309.045 473.567C309.751 473.903 310.539 474.079 311.339 474.079H340.179C340.979 474.079 341.767 473.903 342.473 473.567C343.179 473.232 343.782 472.746 344.228 472.153C344.674 471.56 344.951 470.878 345.032 470.167C345.114 469.456 344.999 468.738 344.697 468.076H351.268C353.991 468.076 356.603 469.043 358.528 470.763C360.454 472.483 361.536 474.816 361.536 477.248Z" fill="white"/>
<path d="M325.931 587.056C333.986 587.056 340.516 581.224 340.516 574.028C340.516 566.833 333.986 561 325.931 561C317.876 561 311.346 566.833 311.346 574.028C311.346 581.224 317.876 587.056 325.931 587.056Z" fill="#00BFA6"/>
<path d="M375.461 627.648H361.287V640.309H375.461V627.648Z" fill="#80ABD8"/>
<path d="M384.067 633.075H366.855V617.701H384.067V633.075ZM367.604 632.406H383.318V618.37H367.604V632.406Z" fill="#3F3D56"/>
<path d="M296.579 496.48C296.34 496.48 296.111 496.564 295.942 496.714C295.774 496.864 295.679 497.067 295.679 497.279L295.702 546.881C295.703 547.093 295.798 547.297 295.967 547.447C296.135 547.597 296.364 547.681 296.603 547.681L354.213 547.694C354.452 547.694 354.681 547.609 354.849 547.46C355.018 547.31 355.113 547.106 355.113 546.894L355.089 497.292C355.089 497.08 354.994 496.877 354.825 496.727C354.656 496.577 354.428 496.492 354.189 496.492L296.579 496.48Z" fill="#3F3D56"/>
<path d="M297.928 545.979L352.678 545.907L352.746 498.577L297.997 498.649L297.928 545.979Z" fill="white"/>
<path d="M303.054 505.993C302.689 505.993 302.393 506.454 302.394 507.022C302.396 507.59 302.694 508.052 303.059 508.053L327.997 508.098C328.362 508.098 328.657 507.637 328.656 507.069C328.654 506.501 328.356 506.039 327.992 506.038L303.054 505.993Z" fill="#E6E6E6"/>
<path d="M302.846 512.543C302.482 512.542 302.186 513.004 302.187 513.572C302.189 514.139 302.487 514.602 302.852 514.603L327.79 514.647C328.154 514.648 328.45 514.186 328.449 513.619C328.447 513.051 328.149 512.588 327.785 512.588L302.846 512.543Z" fill="#E6E6E6"/>
<path d="M302.761 518.71C302.396 518.709 302.1 519.171 302.101 519.739C302.103 520.306 302.401 520.769 302.766 520.77L327.704 520.814C328.069 520.815 328.364 520.353 328.363 519.786C328.361 519.218 328.063 518.755 327.699 518.755L302.761 518.71Z" fill="#E6E6E6"/>
<path d="M302.985 525.366C302.62 525.366 302.325 525.827 302.326 526.395C302.327 526.963 302.625 527.425 302.99 527.426L327.928 527.471C328.293 527.471 328.589 527.01 328.587 526.442C328.586 525.874 328.288 525.412 327.923 525.411L302.985 525.366Z" fill="#E6E6E6"/>
<path d="M340.533 506.219C340.383 506.219 340.234 506.246 340.094 506.298C339.955 506.351 339.828 506.427 339.721 506.523C339.614 506.619 339.53 506.733 339.471 506.859C339.413 506.984 339.383 507.118 339.383 507.254C339.382 507.389 339.411 507.523 339.468 507.648C339.525 507.773 339.61 507.887 339.716 507.982C339.822 508.078 339.948 508.153 340.087 508.205C340.226 508.256 340.375 508.282 340.525 508.281L345.107 508.266C345.411 508.265 345.703 508.156 345.918 507.962C346.134 507.767 346.255 507.505 346.256 507.231C346.258 506.958 346.138 506.696 345.924 506.503C345.71 506.31 345.419 506.203 345.115 506.204L340.533 506.219Z" fill="#E6E6E6"/>
<path d="M340.501 512.399C340.341 512.397 340.183 512.422 340.036 512.472C339.89 512.523 339.756 512.598 339.645 512.692C339.533 512.787 339.445 512.901 339.386 513.026C339.327 513.151 339.297 513.285 339.299 513.421C339.301 513.558 339.335 513.693 339.398 513.819C339.461 513.946 339.553 514.061 339.667 514.159C339.782 514.256 339.917 514.334 340.066 514.388C340.214 514.441 340.373 514.47 340.533 514.471L345.397 514.527C345.72 514.531 346.028 514.425 346.253 514.233C346.478 514.042 346.602 513.779 346.598 513.505C346.594 513.23 346.461 512.965 346.23 512.768C345.999 512.571 345.688 512.458 345.366 512.455L340.501 512.399Z" fill="#E6E6E6"/>
<path d="M340.79 518.659C340.64 518.66 340.491 518.687 340.351 518.739C340.212 518.791 340.086 518.868 339.979 518.964C339.872 519.06 339.787 519.174 339.729 519.299C339.671 519.425 339.641 519.559 339.64 519.694C339.64 519.83 339.669 519.964 339.726 520.089C339.783 520.213 339.867 520.327 339.973 520.422C340.079 520.518 340.205 520.593 340.344 520.645C340.483 520.696 340.632 520.722 340.782 520.722L345.365 520.707C345.668 520.706 345.96 520.596 346.176 520.402C346.391 520.208 346.513 519.945 346.514 519.672C346.515 519.398 346.396 519.136 346.181 518.944C345.967 518.751 345.676 518.643 345.373 518.644L340.79 518.659Z" fill="#E6E6E6"/>
<path d="M340.66 524.964C340.353 524.975 340.055 525.106 339.83 525.328C339.606 525.551 339.474 525.848 339.463 526.153C339.452 526.458 339.563 526.747 339.772 526.955C339.98 527.164 340.27 527.276 340.576 527.267L345.203 527.118C345.509 527.108 345.808 526.977 346.032 526.754C346.256 526.531 346.389 526.235 346.4 525.93C346.411 525.625 346.3 525.336 346.091 525.127C345.882 524.918 345.593 524.806 345.286 524.816L340.66 524.964Z" fill="#E6E6E6"/>
<path d="M339.047 535.438C338.847 535.435 338.65 535.467 338.466 535.53C338.282 535.592 338.116 535.686 337.977 535.805C337.837 535.923 337.727 536.065 337.653 536.221C337.579 536.377 337.542 536.546 337.545 536.716C337.547 536.886 337.589 537.055 337.668 537.213C337.747 537.371 337.861 537.515 338.004 537.637C338.148 537.759 338.317 537.856 338.502 537.924C338.688 537.991 338.886 538.026 339.086 538.028L345.167 538.098C345.57 538.102 345.955 537.97 346.236 537.731C346.518 537.491 346.673 537.163 346.668 536.82C346.662 536.476 346.497 536.145 346.208 535.899C345.92 535.653 345.531 535.512 345.128 535.507V535.507L339.047 535.438Z" fill="#00BFA6"/>
<path d="M346.423 531.975L302.244 531.979L302.244 532.328L346.423 532.324L346.423 531.975Z" fill="#3F3D56"/>
<path fill-rule="evenodd" clip-rule="evenodd" d="M325.957 581.75L320.056 567.5L325.957 570.5L331.857 567.5L325.957 581.75Z" fill="white" stroke="white" stroke-linecap="round" stroke-linejoin="round"/>
<path d="M601.585 587.056C609.641 587.056 616.171 581.224 616.171 574.028C616.171 566.833 609.641 561 601.585 561C593.53 561 587 566.833 587 574.028C587 581.224 593.53 587.056 601.585 587.056Z" fill="#00BFA6"/>
<path fill-rule="evenodd" clip-rule="evenodd" d="M601.611 568.25L595.71 582.5L601.611 579.5L607.512 582.5L601.611 568.25Z" fill="white" stroke="white" stroke-linecap="round" stroke-linejoin="round"/>
<path fill-rule="evenodd" clip-rule="evenodd" d="M467.701 633L451.685 638.25L455.057 633L451.685 627.75L467.701 633Z" fill="#3F3D56" stroke="#3F3D56" stroke-linecap="round" stroke-linejoin="round"/>
<path d="M242.104 284.254H252.844V289H235.934V263.406H242.104V284.254ZM264.375 289.352C261.457 289.352 259.096 288.484 257.291 286.75C255.486 285.004 254.584 282.736 254.584 279.947V279.455C254.584 277.51 254.941 275.793 255.656 274.305C256.383 272.816 257.438 271.668 258.82 270.859C260.203 270.039 261.844 269.629 263.742 269.629C266.414 269.629 268.523 270.461 270.07 272.125C271.617 273.777 272.391 276.086 272.391 279.051V281.354H260.613C260.824 282.42 261.287 283.258 262.002 283.867C262.717 284.477 263.643 284.781 264.779 284.781C266.654 284.781 268.119 284.125 269.174 282.812L271.881 286.012C271.143 287.031 270.094 287.846 268.734 288.455C267.387 289.053 265.934 289.352 264.375 289.352ZM263.707 274.199C261.973 274.199 260.941 275.348 260.613 277.645H266.59V277.188C266.613 276.238 266.373 275.506 265.869 274.99C265.365 274.463 264.645 274.199 263.707 274.199ZM281.689 265.252V269.98H284.818V274.094H281.689V282.795C281.689 283.51 281.818 284.008 282.076 284.289C282.334 284.57 282.844 284.711 283.605 284.711C284.191 284.711 284.684 284.676 285.082 284.605V288.842C284.016 289.182 282.902 289.352 281.742 289.352C279.703 289.352 278.197 288.871 277.225 287.91C276.252 286.949 275.766 285.49 275.766 283.533V274.094H273.34V269.98H275.766V265.252H281.689ZM289.688 271.422L287.086 270.016C288.059 268.328 288.557 266.676 288.58 265.059V262H292.904V264.865C292.904 265.955 292.588 267.121 291.955 268.363C291.334 269.594 290.578 270.613 289.688 271.422ZM302.221 283.656C302.221 283.152 301.957 282.748 301.43 282.443C300.902 282.139 299.9 281.822 298.424 281.494C296.947 281.166 295.729 280.738 294.768 280.211C293.807 279.672 293.074 279.021 292.57 278.26C292.066 277.498 291.814 276.625 291.814 275.641C291.814 273.895 292.535 272.459 293.977 271.334C295.418 270.197 297.305 269.629 299.637 269.629C302.145 269.629 304.16 270.197 305.684 271.334C307.207 272.471 307.969 273.965 307.969 275.816H302.027C302.027 274.293 301.225 273.531 299.619 273.531C298.998 273.531 298.477 273.707 298.055 274.059C297.633 274.398 297.422 274.826 297.422 275.342C297.422 275.869 297.68 276.297 298.195 276.625C298.711 276.953 299.531 277.223 300.656 277.434C301.793 277.645 302.789 277.896 303.645 278.189C306.504 279.174 307.934 280.938 307.934 283.48C307.934 285.215 307.16 286.627 305.613 287.717C304.078 288.807 302.086 289.352 299.637 289.352C298.008 289.352 296.555 289.059 295.277 288.473C294 287.887 293.004 287.09 292.289 286.082C291.574 285.074 291.217 284.014 291.217 282.9H296.754C296.777 283.779 297.07 284.424 297.633 284.834C298.195 285.232 298.916 285.432 299.795 285.432C300.604 285.432 301.207 285.268 301.605 284.939C302.016 284.611 302.221 284.184 302.221 283.656ZM318.99 279.35C318.99 277.428 319.307 275.729 319.939 274.252C320.572 272.775 321.48 271.639 322.664 270.842C323.848 270.033 325.225 269.629 326.795 269.629C328.775 269.629 330.322 270.297 331.436 271.633L331.646 269.98H337.025V288.279C337.025 289.955 336.633 291.408 335.848 292.639C335.074 293.881 333.949 294.83 332.473 295.486C330.996 296.154 329.285 296.488 327.34 296.488C325.945 296.488 324.592 296.225 323.279 295.697C321.979 295.17 320.982 294.484 320.291 293.641L322.77 290.16C323.871 291.461 325.324 292.111 327.129 292.111C329.754 292.111 331.066 290.764 331.066 288.068V287.471C329.93 288.725 328.494 289.352 326.76 289.352C324.439 289.352 322.564 288.467 321.135 286.697C319.705 284.916 318.99 282.537 318.99 279.561V279.35ZM324.932 279.719C324.932 281.277 325.225 282.514 325.811 283.428C326.396 284.33 327.217 284.781 328.271 284.781C329.549 284.781 330.48 284.354 331.066 283.498V275.5C330.492 274.633 329.572 274.199 328.307 274.199C327.252 274.199 326.426 274.674 325.828 275.623C325.23 276.561 324.932 277.926 324.932 279.719ZM349.594 289.352C346.676 289.352 344.314 288.484 342.51 286.75C340.705 285.004 339.803 282.736 339.803 279.947V279.455C339.803 277.51 340.16 275.793 340.875 274.305C341.602 272.816 342.656 271.668 344.039 270.859C345.422 270.039 347.062 269.629 348.961 269.629C351.633 269.629 353.742 270.461 355.289 272.125C356.836 273.777 357.609 276.086 357.609 279.051V281.354H345.832C346.043 282.42 346.506 283.258 347.221 283.867C347.936 284.477 348.861 284.781 349.998 284.781C351.873 284.781 353.338 284.125 354.393 282.812L357.1 286.012C356.361 287.031 355.312 287.846 353.953 288.455C352.605 289.053 351.152 289.352 349.594 289.352ZM348.926 274.199C347.191 274.199 346.16 275.348 345.832 277.645H351.809V277.188C351.832 276.238 351.592 275.506 351.088 274.99C350.584 274.463 349.863 274.199 348.926 274.199ZM366.908 265.252V269.98H370.037V274.094H366.908V282.795C366.908 283.51 367.037 284.008 367.295 284.289C367.553 284.57 368.062 284.711 368.824 284.711C369.41 284.711 369.902 284.676 370.301 284.605V288.842C369.234 289.182 368.121 289.352 366.961 289.352C364.922 289.352 363.416 288.871 362.443 287.91C361.471 286.949 360.984 285.49 360.984 283.533V274.094H358.559V269.98H360.984V265.252H366.908ZM391.307 283.656C391.307 283.152 391.043 282.748 390.516 282.443C389.988 282.139 388.986 281.822 387.51 281.494C386.033 281.166 384.814 280.738 383.854 280.211C382.893 279.672 382.16 279.021 381.656 278.26C381.152 277.498 380.9 276.625 380.9 275.641C380.9 273.895 381.621 272.459 383.062 271.334C384.504 270.197 386.391 269.629 388.723 269.629C391.23 269.629 393.246 270.197 394.77 271.334C396.293 272.471 397.055 273.965 397.055 275.816H391.113C391.113 274.293 390.311 273.531 388.705 273.531C388.084 273.531 387.562 273.707 387.141 274.059C386.719 274.398 386.508 274.826 386.508 275.342C386.508 275.869 386.766 276.297 387.281 276.625C387.797 276.953 388.617 277.223 389.742 277.434C390.879 277.645 391.875 277.896 392.73 278.189C395.59 279.174 397.02 280.938 397.02 283.48C397.02 285.215 396.246 286.627 394.699 287.717C393.164 288.807 391.172 289.352 388.723 289.352C387.094 289.352 385.641 289.059 384.363 288.473C383.086 287.887 382.09 287.09 381.375 286.082C380.66 285.074 380.303 284.014 380.303 282.9H385.84C385.863 283.779 386.156 284.424 386.719 284.834C387.281 285.232 388.002 285.432 388.881 285.432C389.689 285.432 390.293 285.268 390.691 284.939C391.102 284.611 391.307 284.184 391.307 283.656ZM406.705 265.252V269.98H409.834V274.094H406.705V282.795C406.705 283.51 406.834 284.008 407.092 284.289C407.35 284.57 407.859 284.711 408.621 284.711C409.207 284.711 409.699 284.676 410.098 284.605V288.842C409.031 289.182 407.918 289.352 406.758 289.352C404.719 289.352 403.213 288.871 402.24 287.91C401.268 286.949 400.781 285.49 400.781 283.533V274.094H398.355V269.98H400.781V265.252H406.705ZM422.895 289C422.684 288.613 422.496 288.045 422.332 287.295C421.242 288.666 419.719 289.352 417.762 289.352C415.969 289.352 414.445 288.812 413.191 287.734C411.938 286.645 411.311 285.279 411.311 283.639C411.311 281.576 412.072 280.018 413.596 278.963C415.119 277.908 417.334 277.381 420.24 277.381H422.068V276.379C422.068 274.633 421.312 273.76 419.801 273.76C418.395 273.76 417.691 274.451 417.691 275.834H411.768C411.768 273.994 412.547 272.5 414.105 271.352C415.676 270.203 417.674 269.629 420.1 269.629C422.525 269.629 424.441 270.221 425.848 271.404C427.254 272.588 427.975 274.211 428.01 276.273V284.693C428.033 286.439 428.303 287.775 428.818 288.701V289H422.895ZM419.186 285.133C419.924 285.133 420.533 284.975 421.014 284.658C421.506 284.342 421.857 283.984 422.068 283.586V280.545H420.346C418.283 280.545 417.252 281.471 417.252 283.322C417.252 283.861 417.434 284.301 417.797 284.641C418.16 284.969 418.623 285.133 419.186 285.133ZM442.811 275.342L440.859 275.201C438.996 275.201 437.801 275.787 437.273 276.959V289H431.35V269.98H436.904L437.098 272.424C438.094 270.561 439.482 269.629 441.264 269.629C441.896 269.629 442.447 269.699 442.916 269.84L442.811 275.342ZM452.725 265.252V269.98H455.854V274.094H452.725V282.795C452.725 283.51 452.854 284.008 453.111 284.289C453.369 284.57 453.879 284.711 454.641 284.711C455.227 284.711 455.719 284.676 456.117 284.605V288.842C455.051 289.182 453.938 289.352 452.777 289.352C450.738 289.352 449.232 288.871 448.26 287.91C447.287 286.949 446.801 285.49 446.801 283.533V274.094H444.375V269.98H446.801V265.252H452.725ZM467.402 289.352C464.484 289.352 462.123 288.484 460.318 286.75C458.514 285.004 457.611 282.736 457.611 279.947V279.455C457.611 277.51 457.969 275.793 458.684 274.305C459.41 272.816 460.465 271.668 461.848 270.859C463.23 270.039 464.871 269.629 466.77 269.629C469.441 269.629 471.551 270.461 473.098 272.125C474.645 273.777 475.418 276.086 475.418 279.051V281.354H463.641C463.852 282.42 464.314 283.258 465.029 283.867C465.744 284.477 466.67 284.781 467.807 284.781C469.682 284.781 471.146 284.125 472.201 282.812L474.908 286.012C474.17 287.031 473.121 287.846 471.762 288.455C470.414 289.053 468.961 289.352 467.402 289.352ZM466.734 274.199C465 274.199 463.969 275.348 463.641 277.645H469.617V277.188C469.641 276.238 469.4 275.506 468.896 274.99C468.393 274.463 467.672 274.199 466.734 274.199ZM477.07 279.35C477.07 276.338 477.721 273.965 479.021 272.23C480.322 270.496 482.139 269.629 484.471 269.629C486.17 269.629 487.6 270.297 488.76 271.633V262H494.701V289H489.375L489.076 286.961C487.857 288.555 486.311 289.352 484.436 289.352C482.174 289.352 480.381 288.484 479.057 286.75C477.732 285.016 477.07 282.549 477.07 279.35ZM482.994 279.719C482.994 283.094 483.979 284.781 485.947 284.781C487.26 284.781 488.197 284.23 488.76 283.129V275.887C488.221 274.762 487.295 274.199 485.982 274.199C484.154 274.199 483.164 275.676 483.012 278.629L482.994 279.719ZM503.947 280.896H499.148L498.393 263.406H504.703L503.947 280.896ZM498.217 286.346C498.217 285.479 498.527 284.77 499.148 284.219C499.781 283.656 500.566 283.375 501.504 283.375C502.441 283.375 503.221 283.656 503.842 284.219C504.475 284.77 504.791 285.479 504.791 286.346C504.791 287.213 504.475 287.928 503.842 288.49C503.221 289.041 502.441 289.316 501.504 289.316C500.566 289.316 499.781 289.041 499.148 288.49C498.527 287.928 498.217 287.213 498.217 286.346Z" fill="white"/>
<path d="M241.184 328.504L245.637 319.938H248.191L242.309 330.637V337H240.059V330.637L234.176 319.938H236.754L241.184 328.504ZM248.707 330.543C248.707 329.301 248.949 328.184 249.434 327.191C249.926 326.199 250.605 325.434 251.473 324.895C252.348 324.355 253.344 324.086 254.461 324.086C256.188 324.086 257.582 324.684 258.645 325.879C259.715 327.074 260.25 328.664 260.25 330.648V330.801C260.25 332.035 260.012 333.145 259.535 334.129C259.066 335.105 258.391 335.867 257.508 336.414C256.633 336.961 255.625 337.234 254.484 337.234C252.766 337.234 251.371 336.637 250.301 335.441C249.238 334.246 248.707 332.664 248.707 330.695V330.543ZM250.887 330.801C250.887 332.207 251.211 333.336 251.859 334.188C252.516 335.039 253.391 335.465 254.484 335.465C255.586 335.465 256.461 335.035 257.109 334.176C257.758 333.309 258.082 332.098 258.082 330.543C258.082 329.152 257.75 328.027 257.086 327.168C256.43 326.301 255.555 325.867 254.461 325.867C253.391 325.867 252.527 326.293 251.871 327.145C251.215 327.996 250.887 329.215 250.887 330.801ZM270.797 335.746C269.953 336.738 268.715 337.234 267.082 337.234C265.73 337.234 264.699 336.844 263.988 336.062C263.285 335.273 262.93 334.109 262.922 332.57V324.32H265.09V332.512C265.09 334.434 265.871 335.395 267.434 335.395C269.09 335.395 270.191 334.777 270.738 333.543V324.32H272.906V337H270.844L270.797 335.746ZM289.547 333.637C289.547 333.051 289.324 332.598 288.879 332.277C288.441 331.949 287.672 331.668 286.57 331.434C285.477 331.199 284.605 330.918 283.957 330.59C283.316 330.262 282.84 329.871 282.527 329.418C282.223 328.965 282.07 328.426 282.07 327.801C282.07 326.762 282.508 325.883 283.383 325.164C284.266 324.445 285.391 324.086 286.758 324.086C288.195 324.086 289.359 324.457 290.25 325.199C291.148 325.941 291.598 326.891 291.598 328.047H289.418C289.418 327.453 289.164 326.941 288.656 326.512C288.156 326.082 287.523 325.867 286.758 325.867C285.969 325.867 285.352 326.039 284.906 326.383C284.461 326.727 284.238 327.176 284.238 327.73C284.238 328.254 284.445 328.648 284.859 328.914C285.273 329.18 286.02 329.434 287.098 329.676C288.184 329.918 289.062 330.207 289.734 330.543C290.406 330.879 290.902 331.285 291.223 331.762C291.551 332.23 291.715 332.805 291.715 333.484C291.715 334.617 291.262 335.527 290.355 336.215C289.449 336.895 288.273 337.234 286.828 337.234C285.812 337.234 284.914 337.055 284.133 336.695C283.352 336.336 282.738 335.836 282.293 335.195C281.855 334.547 281.637 333.848 281.637 333.098H283.805C283.844 333.824 284.133 334.402 284.672 334.832C285.219 335.254 285.938 335.465 286.828 335.465C287.648 335.465 288.305 335.301 288.797 334.973C289.297 334.637 289.547 334.191 289.547 333.637ZM302.367 335.746C301.523 336.738 300.285 337.234 298.652 337.234C297.301 337.234 296.27 336.844 295.559 336.062C294.855 335.273 294.5 334.109 294.492 332.57V324.32H296.66V332.512C296.66 334.434 297.441 335.395 299.004 335.395C300.66 335.395 301.762 334.777 302.309 333.543V324.32H304.477V337H302.414L302.367 335.746ZM318.516 330.801C318.516 332.738 318.07 334.297 317.18 335.477C316.289 336.648 315.094 337.234 313.594 337.234C311.992 337.234 310.754 336.668 309.879 335.535L309.773 337H307.781V319H309.949V325.715C310.824 324.629 312.031 324.086 313.57 324.086C315.109 324.086 316.316 324.668 317.191 325.832C318.074 326.996 318.516 328.59 318.516 330.613V330.801ZM316.348 330.555C316.348 329.078 316.062 327.938 315.492 327.133C314.922 326.328 314.102 325.926 313.031 325.926C311.602 325.926 310.574 326.59 309.949 327.918V333.402C310.613 334.73 311.648 335.395 313.055 335.395C314.094 335.395 314.902 334.992 315.48 334.188C316.059 333.383 316.348 332.172 316.348 330.555ZM323.297 324.32L323.355 325.727C324.285 324.633 325.539 324.086 327.117 324.086C328.891 324.086 330.098 324.766 330.738 326.125C331.16 325.516 331.707 325.023 332.379 324.648C333.059 324.273 333.859 324.086 334.781 324.086C337.562 324.086 338.977 325.559 339.023 328.504V337H336.855V328.633C336.855 327.727 336.648 327.051 336.234 326.605C335.82 326.152 335.125 325.926 334.148 325.926C333.344 325.926 332.676 326.168 332.145 326.652C331.613 327.129 331.305 327.773 331.219 328.586V337H329.039V328.691C329.039 326.848 328.137 325.926 326.332 325.926C324.91 325.926 323.938 326.531 323.414 327.742V337H321.246V324.32H323.297ZM344.66 337H342.492V324.32H344.66V337ZM342.316 320.957C342.316 320.605 342.422 320.309 342.633 320.066C342.852 319.824 343.172 319.703 343.594 319.703C344.016 319.703 344.336 319.824 344.555 320.066C344.773 320.309 344.883 320.605 344.883 320.957C344.883 321.309 344.773 321.602 344.555 321.836C344.336 322.07 344.016 322.188 343.594 322.188C343.172 322.188 342.852 322.07 342.633 321.836C342.422 321.602 342.316 321.309 342.316 320.957ZM351.082 321.25V324.32H353.449V325.996H351.082V333.859C351.082 334.367 351.188 334.75 351.398 335.008C351.609 335.258 351.969 335.383 352.477 335.383C352.727 335.383 353.07 335.336 353.508 335.242V337C352.938 337.156 352.383 337.234 351.844 337.234C350.875 337.234 350.145 336.941 349.652 336.355C349.16 335.77 348.914 334.938 348.914 333.859V325.996H346.605V324.32H348.914V321.25H351.082ZM366.094 333.824L369.047 324.32H371.367L366.27 338.957C365.48 341.066 364.227 342.121 362.508 342.121L362.098 342.086L361.289 341.934V340.176L361.875 340.223C362.609 340.223 363.18 340.074 363.586 339.777C364 339.48 364.34 338.938 364.605 338.148L365.086 336.859L360.562 324.32H362.93L366.094 333.824ZM372.551 330.543C372.551 329.301 372.793 328.184 373.277 327.191C373.77 326.199 374.449 325.434 375.316 324.895C376.191 324.355 377.188 324.086 378.305 324.086C380.031 324.086 381.426 324.684 382.488 325.879C383.559 327.074 384.094 328.664 384.094 330.648V330.801C384.094 332.035 383.855 333.145 383.379 334.129C382.91 335.105 382.234 335.867 381.352 336.414C380.477 336.961 379.469 337.234 378.328 337.234C376.609 337.234 375.215 336.637 374.145 335.441C373.082 334.246 372.551 332.664 372.551 330.695V330.543ZM374.73 330.801C374.73 332.207 375.055 333.336 375.703 334.188C376.359 335.039 377.234 335.465 378.328 335.465C379.43 335.465 380.305 335.035 380.953 334.176C381.602 333.309 381.926 332.098 381.926 330.543C381.926 329.152 381.594 328.027 380.93 327.168C380.273 326.301 379.398 325.867 378.305 325.867C377.234 325.867 376.371 326.293 375.715 327.145C375.059 327.996 374.73 329.215 374.73 330.801ZM394.641 335.746C393.797 336.738 392.559 337.234 390.926 337.234C389.574 337.234 388.543 336.844 387.832 336.062C387.129 335.273 386.773 334.109 386.766 332.57V324.32H388.934V332.512C388.934 334.434 389.715 335.395 391.277 335.395C392.934 335.395 394.035 334.777 394.582 333.543V324.32H396.75V337H394.688L394.641 335.746ZM406.184 326.266C405.855 326.211 405.5 326.184 405.117 326.184C403.695 326.184 402.73 326.789 402.223 328V337H400.055V324.32H402.164L402.199 325.785C402.91 324.652 403.918 324.086 405.223 324.086C405.645 324.086 405.965 324.141 406.184 324.25V326.266ZM421.523 333.637C421.523 333.051 421.301 332.598 420.855 332.277C420.418 331.949 419.648 331.668 418.547 331.434C417.453 331.199 416.582 330.918 415.934 330.59C415.293 330.262 414.816 329.871 414.504 329.418C414.199 328.965 414.047 328.426 414.047 327.801C414.047 326.762 414.484 325.883 415.359 325.164C416.242 324.445 417.367 324.086 418.734 324.086C420.172 324.086 421.336 324.457 422.227 325.199C423.125 325.941 423.574 326.891 423.574 328.047H421.395C421.395 327.453 421.141 326.941 420.633 326.512C420.133 326.082 419.5 325.867 418.734 325.867C417.945 325.867 417.328 326.039 416.883 326.383C416.438 326.727 416.215 327.176 416.215 327.73C416.215 328.254 416.422 328.648 416.836 328.914C417.25 329.18 417.996 329.434 419.074 329.676C420.16 329.918 421.039 330.207 421.711 330.543C422.383 330.879 422.879 331.285 423.199 331.762C423.527 332.23 423.691 332.805 423.691 333.484C423.691 334.617 423.238 335.527 422.332 336.215C421.426 336.895 420.25 337.234 418.805 337.234C417.789 337.234 416.891 337.055 416.109 336.695C415.328 336.336 414.715 335.836 414.27 335.195C413.832 334.547 413.613 333.848 413.613 333.098H415.781C415.82 333.824 416.109 334.402 416.648 334.832C417.195 335.254 417.914 335.465 418.805 335.465C419.625 335.465 420.281 335.301 420.773 334.973C421.273 334.637 421.523 334.191 421.523 333.637ZM434.344 335.746C433.5 336.738 432.262 337.234 430.629 337.234C429.277 337.234 428.246 336.844 427.535 336.062C426.832 335.273 426.477 334.109 426.469 332.57V324.32H428.637V332.512C428.637 334.434 429.418 335.395 430.98 335.395C432.637 335.395 433.738 334.777 434.285 333.543V324.32H436.453V337H434.391L434.344 335.746ZM450.469 330.801C450.469 332.73 450.027 334.285 449.145 335.465C448.262 336.645 447.066 337.234 445.559 337.234C444.02 337.234 442.809 336.746 441.926 335.77V341.875H439.758V324.32H441.738L441.844 325.727C442.727 324.633 443.953 324.086 445.523 324.086C447.047 324.086 448.25 324.66 449.133 325.809C450.023 326.957 450.469 328.555 450.469 330.602V330.801ZM448.301 330.555C448.301 329.125 447.996 327.996 447.387 327.168C446.777 326.34 445.941 325.926 444.879 325.926C443.566 325.926 442.582 326.508 441.926 327.672V333.73C442.574 334.887 443.566 335.465 444.902 335.465C445.941 335.465 446.766 335.055 447.375 334.234C447.992 333.406 448.301 332.18 448.301 330.555ZM463.945 330.801C463.945 332.73 463.504 334.285 462.621 335.465C461.738 336.645 460.543 337.234 459.035 337.234C457.496 337.234 456.285 336.746 455.402 335.77V341.875H453.234V324.32H455.215L455.32 325.727C456.203 324.633 457.43 324.086 459 324.086C460.523 324.086 461.727 324.66 462.609 325.809C463.5 326.957 463.945 328.555 463.945 330.602V330.801ZM461.777 330.555C461.777 329.125 461.473 327.996 460.863 327.168C460.254 326.34 459.418 325.926 458.355 325.926C457.043 325.926 456.059 326.508 455.402 327.672V333.73C456.051 334.887 457.043 335.465 458.379 335.465C459.418 335.465 460.242 335.055 460.852 334.234C461.469 333.406 461.777 332.18 461.777 330.555ZM469.066 337H466.898V319H469.066V337ZM474.902 337H472.734V324.32H474.902V337ZM472.559 320.957C472.559 320.605 472.664 320.309 472.875 320.066C473.094 319.824 473.414 319.703 473.836 319.703C474.258 319.703 474.578 319.824 474.797 320.066C475.016 320.309 475.125 320.605 475.125 320.957C475.125 321.309 475.016 321.602 474.797 321.836C474.578 322.07 474.258 322.188 473.836 322.188C473.414 322.188 473.094 322.07 472.875 321.836C472.664 321.602 472.559 321.309 472.559 320.957ZM483.645 337.234C481.926 337.234 480.527 336.672 479.449 335.547C478.371 334.414 477.832 332.902 477.832 331.012V330.613C477.832 329.355 478.07 328.234 478.547 327.25C479.031 326.258 479.703 325.484 480.562 324.93C481.43 324.367 482.367 324.086 483.375 324.086C485.023 324.086 486.305 324.629 487.219 325.715C488.133 326.801 488.59 328.355 488.59 330.379V331.281H480C480.031 332.531 480.395 333.543 481.09 334.316C481.793 335.082 482.684 335.465 483.762 335.465C484.527 335.465 485.176 335.309 485.707 334.996C486.238 334.684 486.703 334.27 487.102 333.754L488.426 334.785C487.363 336.418 485.77 337.234 483.645 337.234ZM483.375 325.867C482.5 325.867 481.766 326.188 481.172 326.828C480.578 327.461 480.211 328.352 480.07 329.5H486.422V329.336C486.359 328.234 486.062 327.383 485.531 326.781C485 326.172 484.281 325.867 483.375 325.867ZM497.238 326.266C496.91 326.211 496.555 326.184 496.172 326.184C494.75 326.184 493.785 326.789 493.277 328V337H491.109V324.32H493.219L493.254 325.785C493.965 324.652 494.973 324.086 496.277 324.086C496.699 324.086 497.02 324.141 497.238 324.25V326.266ZM499.582 324.742L498.352 323.898C499.078 322.883 499.453 321.812 499.477 320.688V319H501.621V320.523C501.613 321.305 501.418 322.086 501.035 322.867C500.66 323.641 500.176 324.266 499.582 324.742ZM510.305 333.637C510.305 333.051 510.082 332.598 509.637 332.277C509.199 331.949 508.43 331.668 507.328 331.434C506.234 331.199 505.363 330.918 504.715 330.59C504.074 330.262 503.598 329.871 503.285 329.418C502.98 328.965 502.828 328.426 502.828 327.801C502.828 326.762 503.266 325.883 504.141 325.164C505.023 324.445 506.148 324.086 507.516 324.086C508.953 324.086 510.117 324.457 511.008 325.199C511.906 325.941 512.355 326.891 512.355 328.047H510.176C510.176 327.453 509.922 326.941 509.414 326.512C508.914 326.082 508.281 325.867 507.516 325.867C506.727 325.867 506.109 326.039 505.664 326.383C505.219 326.727 504.996 327.176 504.996 327.73C504.996 328.254 505.203 328.648 505.617 328.914C506.031 329.18 506.777 329.434 507.855 329.676C508.941 329.918 509.82 330.207 510.492 330.543C511.164 330.879 511.66 331.285 511.98 331.762C512.309 332.23 512.473 332.805 512.473 333.484C512.473 334.617 512.02 335.527 511.113 336.215C510.207 336.895 509.031 337.234 507.586 337.234C506.57 337.234 505.672 337.055 504.891 336.695C504.109 336.336 503.496 335.836 503.051 335.195C502.613 334.547 502.395 333.848 502.395 333.098H504.562C504.602 333.824 504.891 334.402 505.43 334.832C505.977 335.254 506.695 335.465 507.586 335.465C508.406 335.465 509.062 335.301 509.555 334.973C510.055 334.637 510.305 334.191 510.305 333.637ZM523.605 337H521.438V324.32H523.605V337ZM521.262 320.957C521.262 320.605 521.367 320.309 521.578 320.066C521.797 319.824 522.117 319.703 522.539 319.703C522.961 319.703 523.281 319.824 523.5 320.066C523.719 320.309 523.828 320.605 523.828 320.957C523.828 321.309 523.719 321.602 523.5 321.836C523.281 322.07 522.961 322.188 522.539 322.188C522.117 322.188 521.797 322.07 521.578 321.836C521.367 321.602 521.262 321.309 521.262 320.957ZM529.137 324.32L529.207 325.914C530.176 324.695 531.441 324.086 533.004 324.086C535.684 324.086 537.035 325.598 537.059 328.621V337H534.891V328.609C534.883 327.695 534.672 327.02 534.258 326.582C533.852 326.145 533.215 325.926 532.348 325.926C531.645 325.926 531.027 326.113 530.496 326.488C529.965 326.863 529.551 327.355 529.254 327.965V337H527.086V324.32H529.137ZM544.512 334.059L547.652 324.32H549.867L545.32 337H543.668L539.074 324.32H541.289L544.512 334.059ZM551.191 330.543C551.191 329.301 551.434 328.184 551.918 327.191C552.41 326.199 553.09 325.434 553.957 324.895C554.832 324.355 555.828 324.086 556.945 324.086C558.672 324.086 560.066 324.684 561.129 325.879C562.199 327.074 562.734 328.664 562.734 330.648V330.801C562.734 332.035 562.496 333.145 562.02 334.129C561.551 335.105 560.875 335.867 559.992 336.414C559.117 336.961 558.109 337.234 556.969 337.234C555.25 337.234 553.855 336.637 552.785 335.441C551.723 334.246 551.191 332.664 551.191 330.695V330.543ZM553.371 330.801C553.371 332.207 553.695 333.336 554.344 334.188C555 335.039 555.875 335.465 556.969 335.465C558.07 335.465 558.945 335.035 559.594 334.176C560.242 333.309 560.566 332.098 560.566 330.543C560.566 329.152 560.234 328.027 559.57 327.168C558.914 326.301 558.039 325.867 556.945 325.867C555.875 325.867 555.012 326.293 554.355 327.145C553.699 327.996 553.371 329.215 553.371 330.801ZM567.809 337H565.641V324.32H567.809V337ZM565.465 320.957C565.465 320.605 565.57 320.309 565.781 320.066C566 319.824 566.32 319.703 566.742 319.703C567.164 319.703 567.484 319.824 567.703 320.066C567.922 320.309 568.031 320.605 568.031 320.957C568.031 321.309 567.922 321.602 567.703 321.836C567.484 322.07 567.164 322.188 566.742 322.188C566.32 322.188 566 322.07 565.781 321.836C565.57 321.602 565.465 321.309 565.465 320.957ZM576.375 335.465C577.148 335.465 577.824 335.23 578.402 334.762C578.98 334.293 579.301 333.707 579.363 333.004H581.414C581.375 333.73 581.125 334.422 580.664 335.078C580.203 335.734 579.586 336.258 578.812 336.648C578.047 337.039 577.234 337.234 576.375 337.234C574.648 337.234 573.273 336.66 572.25 335.512C571.234 334.355 570.727 332.777 570.727 330.777V330.414C570.727 329.18 570.953 328.082 571.406 327.121C571.859 326.16 572.508 325.414 573.352 324.883C574.203 324.352 575.207 324.086 576.363 324.086C577.785 324.086 578.965 324.512 579.902 325.363C580.848 326.215 581.352 327.32 581.414 328.68H579.363C579.301 327.859 578.988 327.188 578.426 326.664C577.871 326.133 577.184 325.867 576.363 325.867C575.262 325.867 574.406 326.266 573.797 327.062C573.195 327.852 572.895 328.996 572.895 330.496V330.906C572.895 332.367 573.195 333.492 573.797 334.281C574.398 335.07 575.258 335.465 576.375 335.465ZM589.113 337.234C587.395 337.234 585.996 336.672 584.918 335.547C583.84 334.414 583.301 332.902 583.301 331.012V330.613C583.301 329.355 583.539 328.234 584.016 327.25C584.5 326.258 585.172 325.484 586.031 324.93C586.898 324.367 587.836 324.086 588.844 324.086C590.492 324.086 591.773 324.629 592.688 325.715C593.602 326.801 594.059 328.355 594.059 330.379V331.281H585.469C585.5 332.531 585.863 333.543 586.559 334.316C587.262 335.082 588.152 335.465 589.23 335.465C589.996 335.465 590.645 335.309 591.176 334.996C591.707 334.684 592.172 334.27 592.57 333.754L593.895 334.785C592.832 336.418 591.238 337.234 589.113 337.234ZM588.844 325.867C587.969 325.867 587.234 326.188 586.641 326.828C586.047 327.461 585.68 328.352 585.539 329.5H591.891V329.336C591.828 328.234 591.531 327.383 591 326.781C590.469 326.172 589.75 325.867 588.844 325.867ZM596.508 340.398L595.277 339.555C596.012 338.531 596.395 337.477 596.426 336.391V334.434H598.547V336.133C598.547 336.922 598.352 337.711 597.961 338.5C597.578 339.289 597.094 339.922 596.508 340.398ZM243.469 361C243.344 360.75 243.242 360.305 243.164 359.664C242.156 360.711 240.953 361.234 239.555 361.234C238.305 361.234 237.277 360.883 236.473 360.18C235.676 359.469 235.277 358.57 235.277 357.484C235.277 356.164 235.777 355.141 236.777 354.414C237.785 353.68 239.199 353.312 241.02 353.312H243.129V352.316C243.129 351.559 242.902 350.957 242.449 350.512C241.996 350.059 241.328 349.832 240.445 349.832C239.672 349.832 239.023 350.027 238.5 350.418C237.977 350.809 237.715 351.281 237.715 351.836H235.535C235.535 351.203 235.758 350.594 236.203 350.008C236.656 349.414 237.266 348.945 238.031 348.602C238.805 348.258 239.652 348.086 240.574 348.086C242.035 348.086 243.18 348.453 244.008 349.188C244.836 349.914 245.266 350.918 245.297 352.199V358.035C245.297 359.199 245.445 360.125 245.742 360.812V361H243.469ZM239.871 359.348C240.551 359.348 241.195 359.172 241.805 358.82C242.414 358.469 242.855 358.012 243.129 357.449V354.848H241.43C238.773 354.848 237.445 355.625 237.445 357.18C237.445 357.859 237.672 358.391 238.125 358.773C238.578 359.156 239.16 359.348 239.871 359.348ZM250.746 348.32L250.816 349.914C251.785 348.695 253.051 348.086 254.613 348.086C257.293 348.086 258.645 349.598 258.668 352.621V361H256.5V352.609C256.492 351.695 256.281 351.02 255.867 350.582C255.461 350.145 254.824 349.926 253.957 349.926C253.254 349.926 252.637 350.113 252.105 350.488C251.574 350.863 251.16 351.355 250.863 351.965V361H248.695V348.32H250.746ZM261.41 354.555C261.41 352.609 261.871 351.047 262.793 349.867C263.715 348.68 264.922 348.086 266.414 348.086C267.898 348.086 269.074 348.594 269.941 349.609V343H272.109V361H270.117L270.012 359.641C269.145 360.703 267.938 361.234 266.391 361.234C264.922 361.234 263.723 360.633 262.793 359.43C261.871 358.227 261.41 356.656 261.41 354.719V354.555ZM263.578 354.801C263.578 356.238 263.875 357.363 264.469 358.176C265.062 358.988 265.883 359.395 266.93 359.395C268.305 359.395 269.309 358.777 269.941 357.543V351.719C269.293 350.523 268.297 349.926 266.953 349.926C265.891 349.926 265.062 350.336 264.469 351.156C263.875 351.977 263.578 353.191 263.578 354.801ZM292.664 358.012L295.102 348.32H297.27L293.578 361H291.82L288.738 351.391L285.738 361H283.98L280.301 348.32H282.457L284.953 357.812L287.906 348.32H289.652L292.664 358.012ZM304.746 361.234C303.027 361.234 301.629 360.672 300.551 359.547C299.473 358.414 298.934 356.902 298.934 355.012V354.613C298.934 353.355 299.172 352.234 299.648 351.25C300.133 350.258 300.805 349.484 301.664 348.93C302.531 348.367 303.469 348.086 304.477 348.086C306.125 348.086 307.406 348.629 308.32 349.715C309.234 350.801 309.691 352.355 309.691 354.379V355.281H301.102C301.133 356.531 301.496 357.543 302.191 358.316C302.895 359.082 303.785 359.465 304.863 359.465C305.629 359.465 306.277 359.309 306.809 358.996C307.34 358.684 307.805 358.27 308.203 357.754L309.527 358.785C308.465 360.418 306.871 361.234 304.746 361.234ZM304.477 349.867C303.602 349.867 302.867 350.188 302.273 350.828C301.68 351.461 301.312 352.352 301.172 353.5H307.523V353.336C307.461 352.234 307.164 351.383 306.633 350.781C306.102 350.172 305.383 349.867 304.477 349.867ZM311.426 348.742L310.195 347.898C310.922 346.883 311.297 345.812 311.32 344.688V343H313.465V344.523C313.457 345.305 313.262 346.086 312.879 346.867C312.504 347.641 312.02 348.266 311.426 348.742ZM318.809 361H316.641V343H318.809V361ZM324.645 361H322.477V343H324.645V361ZM339.164 359.465C339.938 359.465 340.613 359.23 341.191 358.762C341.77 358.293 342.09 357.707 342.152 357.004H344.203C344.164 357.73 343.914 358.422 343.453 359.078C342.992 359.734 342.375 360.258 341.602 360.648C340.836 361.039 340.023 361.234 339.164 361.234C337.438 361.234 336.062 360.66 335.039 359.512C334.023 358.355 333.516 356.777 333.516 354.777V354.414C333.516 353.18 333.742 352.082 334.195 351.121C334.648 350.16 335.297 349.414 336.141 348.883C336.992 348.352 337.996 348.086 339.152 348.086C340.574 348.086 341.754 348.512 342.691 349.363C343.637 350.215 344.141 351.32 344.203 352.68H342.152C342.09 351.859 341.777 351.188 341.215 350.664C340.66 350.133 339.973 349.867 339.152 349.867C338.051 349.867 337.195 350.266 336.586 351.062C335.984 351.852 335.684 352.996 335.684 354.496V354.906C335.684 356.367 335.984 357.492 336.586 358.281C337.188 359.07 338.047 359.465 339.164 359.465ZM352.77 350.266C352.441 350.211 352.086 350.184 351.703 350.184C350.281 350.184 349.316 350.789 348.809 352V361H346.641V348.32H348.75L348.785 349.785C349.496 348.652 350.504 348.086 351.809 348.086C352.23 348.086 352.551 348.141 352.77 348.25V350.266ZM359.801 361.234C358.082 361.234 356.684 360.672 355.605 359.547C354.527 358.414 353.988 356.902 353.988 355.012V354.613C353.988 353.355 354.227 352.234 354.703 351.25C355.188 350.258 355.859 349.484 356.719 348.93C357.586 348.367 358.523 348.086 359.531 348.086C361.18 348.086 362.461 348.629 363.375 349.715C364.289 350.801 364.746 352.355 364.746 354.379V355.281H356.156C356.188 356.531 356.551 357.543 357.246 358.316C357.949 359.082 358.84 359.465 359.918 359.465C360.684 359.465 361.332 359.309 361.863 358.996C362.395 358.684 362.859 358.27 363.258 357.754L364.582 358.785C363.52 360.418 361.926 361.234 359.801 361.234ZM359.531 349.867C358.656 349.867 357.922 350.188 357.328 350.828C356.734 351.461 356.367 352.352 356.227 353.5H362.578V353.336C362.516 352.234 362.219 351.383 361.688 350.781C361.156 350.172 360.438 349.867 359.531 349.867ZM375.094 361C374.969 360.75 374.867 360.305 374.789 359.664C373.781 360.711 372.578 361.234 371.18 361.234C369.93 361.234 368.902 360.883 368.098 360.18C367.301 359.469 366.902 358.57 366.902 357.484C366.902 356.164 367.402 355.141 368.402 354.414C369.41 353.68 370.824 353.312 372.645 353.312H374.754V352.316C374.754 351.559 374.527 350.957 374.074 350.512C373.621 350.059 372.953 349.832 372.07 349.832C371.297 349.832 370.648 350.027 370.125 350.418C369.602 350.809 369.34 351.281 369.34 351.836H367.16C367.16 351.203 367.383 350.594 367.828 350.008C368.281 349.414 368.891 348.945 369.656 348.602C370.43 348.258 371.277 348.086 372.199 348.086C373.66 348.086 374.805 348.453 375.633 349.188C376.461 349.914 376.891 350.918 376.922 352.199V358.035C376.922 359.199 377.07 360.125 377.367 360.812V361H375.094ZM371.496 359.348C372.176 359.348 372.82 359.172 373.43 358.82C374.039 358.469 374.48 358.012 374.754 357.449V354.848H373.055C370.398 354.848 369.07 355.625 369.07 357.18C369.07 357.859 369.297 358.391 369.75 358.773C370.203 359.156 370.785 359.348 371.496 359.348ZM383.262 345.25V348.32H385.629V349.996H383.262V357.859C383.262 358.367 383.367 358.75 383.578 359.008C383.789 359.258 384.148 359.383 384.656 359.383C384.906 359.383 385.25 359.336 385.688 359.242V361C385.117 361.156 384.562 361.234 384.023 361.234C383.055 361.234 382.324 360.941 381.832 360.355C381.34 359.77 381.094 358.938 381.094 357.859V349.996H378.785V348.32H381.094V345.25H383.262ZM393.434 361.234C391.715 361.234 390.316 360.672 389.238 359.547C388.16 358.414 387.621 356.902 387.621 355.012V354.613C387.621 353.355 387.859 352.234 388.336 351.25C388.82 350.258 389.492 349.484 390.352 348.93C391.219 348.367 392.156 348.086 393.164 348.086C394.812 348.086 396.094 348.629 397.008 349.715C397.922 350.801 398.379 352.355 398.379 354.379V355.281H389.789C389.82 356.531 390.184 357.543 390.879 358.316C391.582 359.082 392.473 359.465 393.551 359.465C394.316 359.465 394.965 359.309 395.496 358.996C396.027 358.684 396.492 358.27 396.891 357.754L398.215 358.785C397.152 360.418 395.559 361.234 393.434 361.234ZM393.164 349.867C392.289 349.867 391.555 350.188 390.961 350.828C390.367 351.461 390 352.352 389.859 353.5H396.211V353.336C396.148 352.234 395.852 351.383 395.32 350.781C394.789 350.172 394.07 349.867 393.164 349.867ZM414.68 361C414.555 360.75 414.453 360.305 414.375 359.664C413.367 360.711 412.164 361.234 410.766 361.234C409.516 361.234 408.488 360.883 407.684 360.18C406.887 359.469 406.488 358.57 406.488 357.484C406.488 356.164 406.988 355.141 407.988 354.414C408.996 353.68 410.41 353.312 412.23 353.312H414.34V352.316C414.34 351.559 414.113 350.957 413.66 350.512C413.207 350.059 412.539 349.832 411.656 349.832C410.883 349.832 410.234 350.027 409.711 350.418C409.188 350.809 408.926 351.281 408.926 351.836H406.746C406.746 351.203 406.969 350.594 407.414 350.008C407.867 349.414 408.477 348.945 409.242 348.602C410.016 348.258 410.863 348.086 411.785 348.086C413.246 348.086 414.391 348.453 415.219 349.188C416.047 349.914 416.477 350.918 416.508 352.199V358.035C416.508 359.199 416.656 360.125 416.953 360.812V361H414.68ZM411.082 359.348C411.762 359.348 412.406 359.172 413.016 358.82C413.625 358.469 414.066 358.012 414.34 357.449V354.848H412.641C409.984 354.848 408.656 355.625 408.656 357.18C408.656 357.859 408.883 358.391 409.336 358.773C409.789 359.156 410.371 359.348 411.082 359.348ZM426.199 361V343.938H431.016C432.5 343.938 433.812 344.266 434.953 344.922C436.094 345.578 436.973 346.512 437.59 347.723C438.215 348.934 438.531 350.324 438.539 351.895V352.984C438.539 354.594 438.227 356.004 437.602 357.215C436.984 358.426 436.098 359.355 434.941 360.004C433.793 360.652 432.453 360.984 430.922 361H426.199ZM428.449 345.789V359.16H430.816C432.551 359.16 433.898 358.621 434.859 357.543C435.828 356.465 436.312 354.93 436.312 352.938V351.941C436.312 350.004 435.855 348.5 434.941 347.43C434.035 346.352 432.746 345.805 431.074 345.789H428.449ZM443.848 348.32V362.465C443.848 364.902 442.742 366.121 440.531 366.121C440.055 366.121 439.613 366.051 439.207 365.91V364.176C439.457 364.238 439.785 364.27 440.191 364.27C440.676 364.27 441.043 364.137 441.293 363.871C441.551 363.613 441.68 363.16 441.68 362.512V348.32H443.848ZM441.457 344.957C441.457 344.613 441.562 344.32 441.773 344.078C441.992 343.828 442.309 343.703 442.723 343.703C443.145 343.703 443.465 343.824 443.684 344.066C443.902 344.309 444.012 344.605 444.012 344.957C444.012 345.309 443.902 345.602 443.684 345.836C443.465 346.07 443.145 346.188 442.723 346.188C442.301 346.188 441.984 346.07 441.773 345.836C441.562 345.602 441.457 345.309 441.457 344.957ZM449.707 361H447.539V348.32H449.707V361ZM447.363 344.957C447.363 344.605 447.469 344.309 447.68 344.066C447.898 343.824 448.219 343.703 448.641 343.703C449.062 343.703 449.383 343.824 449.602 344.066C449.82 344.309 449.93 344.605 449.93 344.957C449.93 345.309 449.82 345.602 449.602 345.836C449.383 346.07 449.062 346.188 448.641 346.188C448.219 346.188 447.898 346.07 447.68 345.836C447.469 345.602 447.363 345.309 447.363 344.957ZM456.727 355.129L455.367 356.547V361H453.199V343H455.367V353.887L456.527 352.492L460.477 348.32H463.113L458.18 353.617L463.688 361H461.145L456.727 355.129ZM470.379 361.234C468.66 361.234 467.262 360.672 466.184 359.547C465.105 358.414 464.566 356.902 464.566 355.012V354.613C464.566 353.355 464.805 352.234 465.281 351.25C465.766 350.258 466.438 349.484 467.297 348.93C468.164 348.367 469.102 348.086 470.109 348.086C471.758 348.086 473.039 348.629 473.953 349.715C474.867 350.801 475.324 352.355 475.324 354.379V355.281H466.734C466.766 356.531 467.129 357.543 467.824 358.316C468.527 359.082 469.418 359.465 470.496 359.465C471.262 359.465 471.91 359.309 472.441 358.996C472.973 358.684 473.438 358.27 473.836 357.754L475.16 358.785C474.098 360.418 472.504 361.234 470.379 361.234ZM470.109 349.867C469.234 349.867 468.5 350.188 467.906 350.828C467.312 351.461 466.945 352.352 466.805 353.5H473.156V353.336C473.094 352.234 472.797 351.383 472.266 350.781C471.734 350.172 471.016 349.867 470.109 349.867ZM471.164 343H473.789L470.648 346.445H468.902L471.164 343ZM478.91 361V349.996H476.906V348.32H478.91V347.02C478.91 345.66 479.273 344.609 480 343.867C480.727 343.125 481.754 342.754 483.082 342.754C483.582 342.754 484.078 342.82 484.57 342.953L484.453 344.711C484.086 344.641 483.695 344.605 483.281 344.605C482.578 344.605 482.035 344.812 481.652 345.227C481.27 345.633 481.078 346.219 481.078 346.984V348.32H483.785V349.996H481.078V361H478.91ZM494.016 361C493.891 360.75 493.789 360.305 493.711 359.664C492.703 360.711 491.5 361.234 490.102 361.234C488.852 361.234 487.824 360.883 487.02 360.18C486.223 359.469 485.824 358.57 485.824 357.484C485.824 356.164 486.324 355.141 487.324 354.414C488.332 353.68 489.746 353.312 491.566 353.312H493.676V352.316C493.676 351.559 493.449 350.957 492.996 350.512C492.543 350.059 491.875 349.832 490.992 349.832C490.219 349.832 489.57 350.027 489.047 350.418C488.523 350.809 488.262 351.281 488.262 351.836H486.082C486.082 351.203 486.305 350.594 486.75 350.008C487.203 349.414 487.812 348.945 488.578 348.602C489.352 348.258 490.199 348.086 491.121 348.086C492.582 348.086 493.727 348.453 494.555 349.188C495.383 349.914 495.812 350.918 495.844 352.199V358.035C495.844 359.199 495.992 360.125 496.289 360.812V361H494.016ZM490.418 359.348C491.098 359.348 491.742 359.172 492.352 358.82C492.961 358.469 493.402 358.012 493.676 357.449V354.848H491.977C489.32 354.848 487.992 355.625 487.992 357.18C487.992 357.859 488.219 358.391 488.672 358.773C489.125 359.156 489.707 359.348 490.418 359.348ZM504.328 359.465C505.102 359.465 505.777 359.23 506.355 358.762C506.934 358.293 507.254 357.707 507.316 357.004H509.367C509.328 357.73 509.078 358.422 508.617 359.078C508.156 359.734 507.539 360.258 506.766 360.648C506 361.039 505.188 361.234 504.328 361.234C502.602 361.234 501.227 360.66 500.203 359.512C499.188 358.355 498.68 356.777 498.68 354.777V354.414C498.68 353.18 498.906 352.082 499.359 351.121C499.812 350.16 500.461 349.414 501.305 348.883C502.156 348.352 503.16 348.086 504.316 348.086C505.738 348.086 506.918 348.512 507.855 349.363C508.801 350.215 509.305 351.32 509.367 352.68H507.316C507.254 351.859 506.941 351.188 506.379 350.664C505.824 350.133 505.137 349.867 504.316 349.867C503.215 349.867 502.359 350.266 501.75 351.062C501.148 351.852 500.848 352.996 500.848 354.496V354.906C500.848 356.367 501.148 357.492 501.75 358.281C502.352 359.07 503.211 359.465 504.328 359.465ZM514.746 345.25V348.32H517.113V349.996H514.746V357.859C514.746 358.367 514.852 358.75 515.062 359.008C515.273 359.258 515.633 359.383 516.141 359.383C516.391 359.383 516.734 359.336 517.172 359.242V361C516.602 361.156 516.047 361.234 515.508 361.234C514.539 361.234 513.809 360.941 513.316 360.355C512.824 359.77 512.578 358.938 512.578 357.859V349.996H510.27V348.32H512.578V345.25H514.746ZM518.848 354.543C518.848 353.301 519.09 352.184 519.574 351.191C520.066 350.199 520.746 349.434 521.613 348.895C522.488 348.355 523.484 348.086 524.602 348.086C526.328 348.086 527.723 348.684 528.785 349.879C529.855 351.074 530.391 352.664 530.391 354.648V354.801C530.391 356.035 530.152 357.145 529.676 358.129C529.207 359.105 528.531 359.867 527.648 360.414C526.773 360.961 525.766 361.234 524.625 361.234C522.906 361.234 521.512 360.637 520.441 359.441C519.379 358.246 518.848 356.664 518.848 354.695V354.543ZM521.027 354.801C521.027 356.207 521.352 357.336 522 358.188C522.656 359.039 523.531 359.465 524.625 359.465C525.727 359.465 526.602 359.035 527.25 358.176C527.898 357.309 528.223 356.098 528.223 354.543C528.223 353.152 527.891 352.027 527.227 351.168C526.57 350.301 525.695 349.867 524.602 349.867C523.531 349.867 522.668 350.293 522.012 351.145C521.355 351.996 521.027 353.215 521.027 354.801ZM539.238 350.266C538.91 350.211 538.555 350.184 538.172 350.184C536.75 350.184 535.785 350.789 535.277 352V361H533.109V348.32H535.219L535.254 349.785C535.965 348.652 536.973 348.086 538.277 348.086C538.699 348.086 539.02 348.141 539.238 348.25V350.266ZM549.551 361H547.383V348.32H549.551V361ZM547.207 344.957C547.207 344.605 547.312 344.309 547.523 344.066C547.742 343.824 548.062 343.703 548.484 343.703C548.906 343.703 549.227 343.824 549.445 344.066C549.664 344.309 549.773 344.605 549.773 344.957C549.773 345.309 549.664 345.602 549.445 345.836C549.227 346.07 548.906 346.188 548.484 346.188C548.062 346.188 547.742 346.07 547.523 345.836C547.312 345.602 547.207 345.309 547.207 344.957ZM555.082 348.32L555.152 349.914C556.121 348.695 557.387 348.086 558.949 348.086C561.629 348.086 562.98 349.598 563.004 352.621V361H560.836V352.609C560.828 351.695 560.617 351.02 560.203 350.582C559.797 350.145 559.16 349.926 558.293 349.926C557.59 349.926 556.973 350.113 556.441 350.488C555.91 350.863 555.496 351.355 555.199 351.965V361H553.031V348.32H555.082ZM570.457 358.059L573.598 348.32H575.812L571.266 361H569.613L565.02 348.32H567.234L570.457 358.059ZM577.137 354.543C577.137 353.301 577.379 352.184 577.863 351.191C578.355 350.199 579.035 349.434 579.902 348.895C580.777 348.355 581.773 348.086 582.891 348.086C584.617 348.086 586.012 348.684 587.074 349.879C588.145 351.074 588.68 352.664 588.68 354.648V354.801C588.68 356.035 588.441 357.145 587.965 358.129C587.496 359.105 586.82 359.867 585.938 360.414C585.062 360.961 584.055 361.234 582.914 361.234C581.195 361.234 579.801 360.637 578.73 359.441C577.668 358.246 577.137 356.664 577.137 354.695V354.543ZM579.316 354.801C579.316 356.207 579.641 357.336 580.289 358.188C580.945 359.039 581.82 359.465 582.914 359.465C584.016 359.465 584.891 359.035 585.539 358.176C586.188 357.309 586.512 356.098 586.512 354.543C586.512 353.152 586.18 352.027 585.516 351.168C584.859 350.301 583.984 349.867 582.891 349.867C581.82 349.867 580.957 350.293 580.301 351.145C579.645 351.996 579.316 353.215 579.316 354.801ZM593.754 361H591.586V348.32H593.754V361ZM591.41 344.957C591.41 344.605 591.516 344.309 591.727 344.066C591.945 343.824 592.266 343.703 592.688 343.703C593.109 343.703 593.43 343.824 593.648 344.066C593.867 344.309 593.977 344.605 593.977 344.957C593.977 345.309 593.867 345.602 593.648 345.836C593.43 346.07 593.109 346.188 592.688 346.188C592.266 346.188 591.945 346.07 591.727 345.836C591.516 345.602 591.41 345.309 591.41 344.957ZM602.32 359.465C603.094 359.465 603.77 359.23 604.348 358.762C604.926 358.293 605.246 357.707 605.309 357.004H607.359C607.32 357.73 607.07 358.422 606.609 359.078C606.148 359.734 605.531 360.258 604.758 360.648C603.992 361.039 603.18 361.234 602.32 361.234C600.594 361.234 599.219 360.66 598.195 359.512C597.18 358.355 596.672 356.777 596.672 354.777V354.414C596.672 353.18 596.898 352.082 597.352 351.121C597.805 350.16 598.453 349.414 599.297 348.883C600.148 348.352 601.152 348.086 602.309 348.086C603.73 348.086 604.91 348.512 605.848 349.363C606.793 350.215 607.297 351.32 607.359 352.68H605.309C605.246 351.859 604.934 351.188 604.371 350.664C603.816 350.133 603.129 349.867 602.309 349.867C601.207 349.867 600.352 350.266 599.742 351.062C599.141 351.852 598.84 352.996 598.84 354.496V354.906C598.84 356.367 599.141 357.492 599.742 358.281C600.344 359.07 601.203 359.465 602.32 359.465ZM615.059 361.234C613.34 361.234 611.941 360.672 610.863 359.547C609.785 358.414 609.246 356.902 609.246 355.012V354.613C609.246 353.355 609.484 352.234 609.961 351.25C610.445 350.258 611.117 349.484 611.977 348.93C612.844 348.367 613.781 348.086 614.789 348.086C616.438 348.086 617.719 348.629 618.633 349.715C619.547 350.801 620.004 352.355 620.004 354.379V355.281H611.414C611.445 356.531 611.809 357.543 612.504 358.316C613.207 359.082 614.098 359.465 615.176 359.465C615.941 359.465 616.59 359.309 617.121 358.996C617.652 358.684 618.117 358.27 618.516 357.754L619.84 358.785C618.777 360.418 617.184 361.234 615.059 361.234ZM614.789 349.867C613.914 349.867 613.18 350.188 612.586 350.828C611.992 351.461 611.625 352.352 611.484 353.5H617.836V353.336C617.773 352.234 617.477 351.383 616.945 350.781C616.414 350.172 615.695 349.867 614.789 349.867ZM236.707 385V373.996H234.703V372.32H236.707V371.02C236.707 369.66 237.07 368.609 237.797 367.867C238.523 367.125 239.551 366.754 240.879 366.754C241.379 366.754 241.875 366.82 242.367 366.953L242.25 368.711C241.883 368.641 241.492 368.605 241.078 368.605C240.375 368.605 239.832 368.812 239.449 369.227C239.066 369.633 238.875 370.219 238.875 370.984V372.32H241.582V373.996H238.875V385H236.707ZM243.41 378.543C243.41 377.301 243.652 376.184 244.137 375.191C244.629 374.199 245.309 373.434 246.176 372.895C247.051 372.355 248.047 372.086 249.164 372.086C250.891 372.086 252.285 372.684 253.348 373.879C254.418 375.074 254.953 376.664 254.953 378.648V378.801C254.953 380.035 254.715 381.145 254.238 382.129C253.77 383.105 253.094 383.867 252.211 384.414C251.336 384.961 250.328 385.234 249.188 385.234C247.469 385.234 246.074 384.637 245.004 383.441C243.941 382.246 243.41 380.664 243.41 378.695V378.543ZM245.59 378.801C245.59 380.207 245.914 381.336 246.562 382.188C247.219 383.039 248.094 383.465 249.188 383.465C250.289 383.465 251.164 383.035 251.812 382.176C252.461 381.309 252.785 380.098 252.785 378.543C252.785 377.152 252.453 376.027 251.789 375.168C251.133 374.301 250.258 373.867 249.164 373.867C248.094 373.867 247.23 374.293 246.574 375.145C245.918 375.996 245.59 377.215 245.59 378.801ZM263.801 374.266C263.473 374.211 263.117 374.184 262.734 374.184C261.312 374.184 260.348 374.789 259.84 376V385H257.672V372.32H259.781L259.816 373.785C260.527 372.652 261.535 372.086 262.84 372.086C263.262 372.086 263.582 372.141 263.801 372.25V374.266ZM275.906 381.824L278.859 372.32H281.18L276.082 386.957C275.293 389.066 274.039 390.121 272.32 390.121L271.91 390.086L271.102 389.934V388.176L271.688 388.223C272.422 388.223 272.992 388.074 273.398 387.777C273.812 387.48 274.152 386.938 274.418 386.148L274.898 384.859L270.375 372.32H272.742L275.906 381.824ZM282.363 378.543C282.363 377.301 282.605 376.184 283.09 375.191C283.582 374.199 284.262 373.434 285.129 372.895C286.004 372.355 287 372.086 288.117 372.086C289.844 372.086 291.238 372.684 292.301 373.879C293.371 375.074 293.906 376.664 293.906 378.648V378.801C293.906 380.035 293.668 381.145 293.191 382.129C292.723 383.105 292.047 383.867 291.164 384.414C290.289 384.961 289.281 385.234 288.141 385.234C286.422 385.234 285.027 384.637 283.957 383.441C282.895 382.246 282.363 380.664 282.363 378.695V378.543ZM284.543 378.801C284.543 380.207 284.867 381.336 285.516 382.188C286.172 383.039 287.047 383.465 288.141 383.465C289.242 383.465 290.117 383.035 290.766 382.176C291.414 381.309 291.738 380.098 291.738 378.543C291.738 377.152 291.406 376.027 290.742 375.168C290.086 374.301 289.211 373.867 288.117 373.867C287.047 373.867 286.184 374.293 285.527 375.145C284.871 375.996 284.543 377.215 284.543 378.801ZM304.453 383.746C303.609 384.738 302.371 385.234 300.738 385.234C299.387 385.234 298.355 384.844 297.645 384.062C296.941 383.273 296.586 382.109 296.578 380.57V372.32H298.746V380.512C298.746 382.434 299.527 383.395 301.09 383.395C302.746 383.395 303.848 382.777 304.395 381.543V372.32H306.562V385H304.5L304.453 383.746Z" fill="#F7F7F7"/>
<defs>
<linearGradient id="paint0_linear_547:7987" x1="432.5" y1="0" x2="432.5" y2="822" gradientUnits="userSpaceOnUse">
<stop stop-color="#C680DF"/>
<stop offset="1" stop-color="#CB5555"/>
</linearGradient>
</defs>
</svg>
