<svg width="865" height="822" viewBox="0 0 865 822" fill="none" xmlns="http://www.w3.org/2000/svg">
<path d="M0 267.5C0 494.489 337.362 822 473.5 822C609.638 822 865 643.989 865 417C865 190.011 609.638 0 473.5 0C337.362 0 0 40.511 0 267.5Z" fill="url(#paint0_linear_547:7988)"/>
<path d="M391.735 559H321.862V549.259L358.776 508.243C364.245 502.042 368.005 497.013 370.056 493.155C372.155 489.249 373.205 485.221 373.205 481.07C373.205 475.504 371.521 470.938 368.151 467.374C364.782 463.81 360.29 462.027 354.675 462.027C347.937 462.027 342.688 463.956 338.928 467.813C335.217 471.622 333.361 476.944 333.361 483.78H319.812C319.812 473.966 322.961 466.031 329.26 459.977C335.607 453.922 344.079 450.895 354.675 450.895C364.587 450.895 372.424 453.507 378.186 458.731C383.947 463.907 386.828 470.816 386.828 479.459C386.828 489.957 380.139 502.457 366.76 516.959L338.195 547.94H391.735V559ZM397.316 505.533L402.736 452.359H457.375V464.884H414.235L411.013 493.961C416.237 490.885 422.17 489.347 428.811 489.347C438.527 489.347 446.242 492.569 451.955 499.015C457.668 505.411 460.524 514.078 460.524 525.016C460.524 536.002 457.546 544.669 451.589 551.017C445.681 557.315 437.404 560.465 426.76 560.465C417.336 560.465 409.646 557.853 403.688 552.628C397.731 547.403 394.338 540.177 393.508 530.948H406.325C407.155 537.052 409.328 541.666 412.844 544.791C416.359 547.867 420.998 549.405 426.76 549.405C433.059 549.405 437.99 547.257 441.555 542.96C445.168 538.663 446.975 532.73 446.975 525.162C446.975 518.033 445.021 512.32 441.115 508.023C437.258 503.678 432.106 501.505 425.661 501.505C419.753 501.505 415.114 502.799 411.745 505.387L408.156 508.316L397.316 505.533Z" fill="#363449"/>
<g opacity="0.1">
<path opacity="0.1" d="M578.547 608.067C582.373 608.067 585.474 604.008 585.474 599.001C585.474 593.994 582.373 589.935 578.547 589.935C574.721 589.935 571.619 593.994 571.619 599.001C571.619 604.008 574.721 608.067 578.547 608.067Z" fill="#3F3D56"/>
<path opacity="0.1" d="M584.029 560.213C585 558.529 585.503 556.616 585.487 554.672C585.487 549.654 582.386 545.605 578.56 545.605C574.734 545.605 571.635 549.664 571.635 554.672C571.616 556.615 572.115 558.528 573.081 560.213C572.133 561.906 571.635 563.813 571.635 565.753C571.635 567.693 572.133 569.601 573.081 571.293C572.133 572.986 571.635 574.894 571.635 576.835C571.635 578.775 572.133 580.683 573.081 582.376C572.115 584.062 571.616 585.975 571.635 587.917C571.635 592.935 574.737 596.984 578.56 596.984C582.383 596.984 585.487 592.926 585.487 587.917C585.507 585.975 585.008 584.062 584.042 582.376C584.99 580.683 585.487 578.775 585.487 576.835C585.487 574.894 584.99 572.986 584.042 571.293C584.99 569.601 585.487 567.693 585.487 565.753C585.487 563.813 584.99 561.906 584.042 560.213H584.029Z" fill="#3F3D56"/>
<path opacity="0.1" d="M578.547 552.658C582.373 552.658 585.474 548.599 585.474 543.592C585.474 538.585 582.373 534.525 578.547 534.525C574.721 534.525 571.619 538.585 571.619 543.592C571.619 548.599 574.721 552.658 578.547 552.658Z" fill="#3F3D56"/>
<path opacity="0.1" d="M578.547 541.576C582.373 541.576 585.474 537.517 585.474 532.51C585.474 527.503 582.373 523.443 578.547 523.443C574.721 523.443 571.619 527.503 571.619 532.51C571.619 537.517 574.721 541.576 578.547 541.576Z" fill="#3F3D56"/>
<path opacity="0.1" d="M604.476 456.673C605.421 455.467 606.283 454.199 607.054 452.875L588.864 449.886L608.55 450.034C610.436 445.925 611.465 441.475 611.573 436.955C611.681 432.435 610.865 427.941 609.177 423.747L582.765 437.439L607.126 419.545C604.843 415.605 601.773 412.177 598.108 409.475C594.443 406.772 590.262 404.853 585.823 403.837C581.384 402.821 576.784 402.729 572.308 403.567C567.832 404.406 563.577 406.156 559.807 408.71C556.038 411.264 552.834 414.567 550.396 418.413C547.957 422.258 546.337 426.565 545.634 431.064C544.932 435.563 545.164 440.158 546.315 444.564C547.465 448.97 549.51 453.092 552.323 456.673C550.849 458.548 549.581 460.576 548.541 462.722L572.165 474.997L546.976 466.529C545.203 471.756 544.763 477.342 545.694 482.782C546.624 488.222 548.898 493.344 552.307 497.683C548.458 502.577 546.063 508.455 545.397 514.645C544.731 520.836 545.821 527.089 548.541 532.689C551.261 538.29 555.502 543.012 560.78 546.315C566.057 549.619 572.158 551.371 578.384 551.371C584.61 551.371 590.71 549.619 595.988 546.315C601.265 543.012 605.506 538.29 608.226 532.689C610.947 527.089 612.036 520.836 611.37 514.645C610.704 508.455 608.309 502.577 604.46 497.683C609.06 491.836 611.561 484.612 611.561 477.172C611.561 469.732 609.06 462.508 604.46 456.66L604.476 456.673Z" fill="#00BFA6"/>
<path opacity="0.1" d="M545.223 477.186C545.211 484.627 547.713 491.854 552.323 497.696C548.474 502.589 546.079 508.467 545.413 514.658C544.747 520.848 545.836 527.101 548.557 532.701C551.277 538.302 555.518 543.024 560.795 546.328C566.073 549.631 572.173 551.383 578.399 551.383C584.625 551.383 590.726 549.631 596.003 546.328C601.281 543.024 605.522 538.302 608.242 532.701C610.962 527.101 612.052 520.848 611.386 514.658C610.72 508.467 608.325 502.589 604.476 497.696C608.923 492.051 545.223 473.46 545.223 477.186Z" fill="black"/>
</g>
<g opacity="0.1">
<path opacity="0.1" d="M384.248 598.37C386.576 598.37 388.463 595.899 388.463 592.851C388.463 589.802 386.576 587.331 384.248 587.331C381.92 587.331 380.033 589.802 380.033 592.851C380.033 595.899 381.92 598.37 384.248 598.37Z" fill="#3F3D56"/>
<path opacity="0.1" d="M387.601 569.24C388.189 568.213 388.493 567.048 388.482 565.865C388.482 562.817 386.6 560.346 384.264 560.346C381.928 560.346 380.049 562.817 380.049 565.865C380.037 567.048 380.34 568.213 380.927 569.24C380.352 570.271 380.049 571.432 380.049 572.612C380.049 573.793 380.352 574.954 380.927 575.985C380.352 577.016 380.049 578.177 380.049 579.358C380.049 580.539 380.352 581.7 380.927 582.731C380.34 583.757 380.036 584.92 380.049 586.102C380.049 589.154 381.931 591.625 384.264 591.625C386.597 591.625 388.482 589.154 388.482 586.102C388.494 584.92 388.19 583.756 387.601 582.731C388.178 581.701 388.482 580.539 388.482 579.358C388.482 578.177 388.178 577.016 387.601 575.985C388.178 574.955 388.482 573.794 388.482 572.612C388.482 571.431 388.178 570.27 387.601 569.24V569.24Z" fill="#3F3D56"/>
<path opacity="0.1" d="M384.248 564.639C386.576 564.639 388.463 562.167 388.463 559.119C388.463 556.071 386.576 553.6 384.248 553.6C381.92 553.6 380.033 556.071 380.033 559.119C380.033 562.167 381.92 564.639 384.248 564.639Z" fill="#3F3D56"/>
<path opacity="0.1" d="M384.248 557.893C386.576 557.893 388.463 555.421 388.463 552.373C388.463 549.325 386.576 546.854 384.248 546.854C381.92 546.854 380.033 549.325 380.033 552.373C380.033 555.421 381.92 557.893 384.248 557.893Z" fill="#3F3D56"/>
<path opacity="0.1" d="M368.471 506.204C367.895 505.471 367.371 504.699 366.903 503.893L377.982 502.074L365.999 502.165C364.852 499.665 364.226 496.957 364.16 494.207C364.094 491.458 364.588 488.723 365.614 486.171L381.68 494.516L366.856 483.602C368.246 481.205 370.115 479.12 372.346 477.477C374.576 475.833 377.122 474.666 379.823 474.048C382.524 473.431 385.324 473.375 388.047 473.886C390.771 474.397 393.36 475.462 395.654 477.016C397.948 478.571 399.897 480.58 401.381 482.92C402.865 485.261 403.852 487.881 404.28 490.619C404.707 493.356 404.567 496.153 403.868 498.834C403.168 501.515 401.925 504.024 400.214 506.204C401.111 507.344 401.883 508.577 402.516 509.883L388.134 517.359L403.469 512.213C404.546 515.396 404.813 518.797 404.244 522.109C403.676 525.42 402.291 528.538 400.214 531.18C402.557 534.159 404.015 537.737 404.42 541.505C404.825 545.274 404.162 549.08 402.506 552.489C400.85 555.898 398.268 558.773 395.055 560.784C391.843 562.795 388.129 563.861 384.339 563.861C380.549 563.861 376.836 562.795 373.623 560.784C370.41 558.773 367.829 555.898 366.173 552.489C364.517 549.08 363.853 545.274 364.259 541.505C364.664 537.737 366.121 534.159 368.464 531.18C365.665 527.619 364.143 523.221 364.143 518.692C364.143 514.162 365.665 509.764 368.464 506.204H368.471Z" fill="#00BFA6"/>
<path opacity="0.1" d="M404.535 518.692C404.542 523.222 403.019 527.622 400.214 531.18C402.557 534.159 404.014 537.737 404.42 541.505C404.825 545.274 404.162 549.08 402.506 552.489C400.85 555.899 398.268 558.773 395.055 560.784C391.843 562.795 388.129 563.861 384.339 563.861C380.549 563.861 376.835 562.795 373.623 560.784C370.41 558.773 367.828 555.899 366.172 552.489C364.516 549.08 363.853 545.274 364.258 541.505C364.664 537.737 366.121 534.159 368.464 531.18C365.758 527.758 404.535 516.425 404.535 518.692Z" fill="black"/>
</g>
<g opacity="0.1">
<path opacity="0.1" d="M479.271 603.175C482.387 603.175 484.913 599.869 484.913 595.79C484.913 591.711 482.387 588.404 479.271 588.404C476.155 588.404 473.629 591.711 473.629 595.79C473.629 599.869 476.155 603.175 479.271 603.175Z" fill="#3F3D56"/>
<path opacity="0.1" d="M483.737 564.19C484.524 562.816 484.93 561.258 484.913 559.675C484.913 555.598 482.405 552.289 479.268 552.289C476.132 552.289 473.624 555.598 473.624 559.675C473.607 561.258 474.014 562.817 474.803 564.19C474.03 565.57 473.624 567.124 473.624 568.705C473.624 570.286 474.03 571.84 474.803 573.219C474.03 574.598 473.624 576.152 473.624 577.732C473.624 579.313 474.03 580.866 474.803 582.245C474.014 583.618 473.607 585.177 473.624 586.761C473.624 590.838 476.151 594.146 479.268 594.146C482.386 594.146 484.913 590.838 484.913 586.761C484.93 585.178 484.524 583.619 483.737 582.245C484.509 580.866 484.914 579.312 484.914 577.732C484.914 576.152 484.509 574.598 483.737 573.219C484.509 571.84 484.914 570.285 484.914 568.705C484.914 567.124 484.509 565.57 483.737 564.19V564.19Z" fill="#3F3D56"/>
<path opacity="0.1" d="M479.271 558.034C482.387 558.034 484.913 554.727 484.913 550.648C484.913 546.569 482.387 543.263 479.271 543.263C476.155 543.263 473.629 546.569 473.629 550.648C473.629 554.727 476.155 558.034 479.271 558.034Z" fill="#3F3D56"/>
<path opacity="0.1" d="M479.271 549.005C482.387 549.005 484.913 545.699 484.913 541.62C484.913 537.541 482.387 534.234 479.271 534.234C476.155 534.234 473.629 537.541 473.629 541.62C473.629 545.699 476.155 549.005 479.271 549.005Z" fill="#3F3D56"/>
<path opacity="0.1" d="M458.163 479.839C457.392 478.858 456.689 477.825 456.062 476.747L470.886 474.313L454.854 474.432C453.316 471.086 452.477 467.46 452.388 463.778C452.299 460.095 452.962 456.433 454.337 453.016L475.85 464.174L456.008 449.592C457.862 446.37 460.36 443.566 463.347 441.353C466.333 439.141 469.744 437.568 473.366 436.733C476.988 435.899 480.743 435.82 484.397 436.502C488.05 437.184 491.524 438.612 494.601 440.698C497.678 442.783 500.291 445.48 502.278 448.621C504.266 451.762 505.584 455.279 506.15 458.953C506.717 462.626 506.52 466.377 505.571 469.97C504.623 473.564 502.943 476.924 500.638 479.839C501.838 481.367 502.871 483.02 503.717 484.769L484.474 494.767L504.994 487.867C506.435 492.127 506.792 496.678 506.031 501.109C505.271 505.541 503.417 509.713 500.638 513.248C503.773 517.234 505.723 522.023 506.266 527.066C506.808 532.108 505.92 537.202 503.704 541.764C501.488 546.326 498.033 550.173 493.734 552.864C489.435 555.555 484.466 556.982 479.394 556.982C474.322 556.982 469.353 555.555 465.054 552.864C460.755 550.173 457.3 546.326 455.083 541.764C452.867 537.202 451.98 532.108 452.522 527.066C453.064 522.023 455.015 517.234 458.15 513.248C454.404 508.483 452.367 502.598 452.367 496.537C452.367 490.476 454.404 484.591 458.15 479.827L458.163 479.839Z" fill="#00BFA6"/>
<path opacity="0.1" d="M506.421 496.551C506.43 502.613 504.392 508.501 500.638 513.26C503.773 517.247 505.723 522.035 506.266 527.078C506.808 532.121 505.92 537.214 503.704 541.776C501.488 546.339 498.033 550.185 493.734 552.876C489.435 555.567 484.466 556.994 479.394 556.994C474.322 556.994 469.353 555.567 465.054 552.876C460.755 550.185 457.3 546.339 455.083 541.776C452.867 537.214 451.98 532.121 452.522 527.078C453.064 522.035 455.015 517.247 458.15 513.26C454.528 508.663 506.421 493.515 506.421 496.551Z" fill="black"/>
</g>
<path d="M673.455 602.509C673.455 604.664 657.705 606.633 631.666 608.154C626.931 608.427 621.857 608.687 616.475 608.932C611.825 609.141 606.952 609.339 601.855 609.525C596.916 609.7 591.789 609.863 586.472 610.014C569.682 610.494 551.119 610.839 531.4 611.011C526.614 611.055 521.764 611.089 516.851 611.112C511.733 611.135 506.557 611.145 501.321 611.143C406.254 611.143 329.191 607.282 329.191 602.519C329.191 597.755 406.254 593.895 501.321 593.895C542.25 593.895 579.836 594.613 609.378 595.804L612.608 595.936H612.627C649.84 597.514 673.455 599.888 673.455 602.509Z" fill="#3F3D56"/>
<path opacity="0.15" d="M673.455 602.509C673.455 604.664 657.705 606.633 631.666 608.154C626.931 608.427 621.857 608.687 616.475 608.932C611.825 609.141 606.952 609.339 601.855 609.525C596.916 609.7 591.789 609.863 586.472 610.014C569.682 610.494 551.119 610.839 531.4 611.011C526.614 611.055 521.764 611.089 516.851 611.112C511.733 611.135 506.557 611.145 501.321 611.143C406.254 611.143 329.191 607.282 329.191 602.519C329.191 597.755 406.254 593.895 501.321 593.895C542.25 593.895 579.836 594.613 609.378 595.804L612.608 595.936H612.627C649.84 597.514 673.455 599.888 673.455 602.509Z" fill="black"/>
<path d="M659.263 600.992C659.263 602.792 643.514 604.442 617.475 605.696C612.743 605.925 607.665 606.141 602.287 606.345C597.635 606.521 592.762 606.686 587.666 606.841C582.728 606.987 577.601 607.124 572.284 607.252C555.49 607.653 536.928 607.941 517.208 608.086C512.427 608.121 507.577 608.148 502.66 608.167C497.542 608.186 492.366 608.195 487.133 608.195C392.066 608.195 315 604.968 315 600.983C315 596.997 392.066 593.77 487.133 593.77C528.059 593.77 565.645 594.369 595.187 595.366L598.417 595.476H598.439C635.664 596.815 659.263 598.787 659.263 600.992Z" fill="#3F3D56"/>
<path d="M529.229 515.139C518.528 515.139 510.095 510.891 503.93 502.397C497.764 493.902 494.682 483.612 494.682 471.525C494.682 459.357 497.663 449.087 503.626 440.716C509.588 432.345 517.999 428.164 528.859 428.172C540.374 428.172 549.051 432.582 554.888 441.403C560.725 450.224 563.645 460.433 563.647 472.03C563.647 483.544 560.626 493.608 554.584 502.224C548.542 510.84 540.09 515.145 529.229 515.139ZM529.542 505.583C536.582 505.583 541.843 502.515 545.326 496.378C548.809 490.242 550.551 482.507 550.551 473.171C550.551 462.781 548.769 454.272 545.204 447.647C541.639 441.021 536.172 437.708 528.802 437.706C514.794 437.706 507.79 448.832 507.79 471.086C507.79 494.086 515.039 505.585 529.536 505.583H529.542ZM533.067 597.091H517.591L618.911 429.875H634.096L533.067 597.091ZM622.703 598.806C611.841 598.806 603.374 594.52 597.3 585.948C591.227 577.376 588.178 567.085 588.152 555.073C588.152 542.987 591.113 532.758 597.034 524.387C602.955 516.016 611.387 511.834 622.329 511.842C633.764 511.842 642.38 516.253 648.177 525.074C653.975 533.894 656.874 544.102 656.877 555.697C656.877 567.136 653.875 577.182 647.873 585.835C641.87 594.489 633.478 598.812 622.696 598.806H622.703ZM622.885 589.006C629.891 589.006 635.124 585.99 638.584 579.958C642.044 573.926 643.774 566.222 643.774 556.845C643.774 546.81 642.023 538.394 638.521 531.597C635.019 524.8 629.563 521.396 622.154 521.386C608.065 521.386 601.02 532.512 601.02 554.766C601.016 577.595 608.302 589.008 622.878 589.006H622.885Z" fill="#3F3D56"/>
<path d="M529.229 515.139C518.528 515.139 510.095 510.891 503.93 502.397C497.764 493.902 494.682 483.612 494.682 471.525C494.682 459.357 497.663 449.087 503.626 440.716C509.588 432.345 517.999 428.164 528.859 428.172C540.374 428.172 549.051 432.582 554.888 441.403C560.725 450.224 563.645 460.433 563.647 472.03C563.647 483.544 560.626 493.608 554.584 502.224C548.542 510.84 540.09 515.145 529.229 515.139ZM529.542 505.583C536.582 505.583 541.843 502.515 545.326 496.378C548.809 490.242 550.551 482.507 550.551 473.171C550.551 462.781 548.769 454.272 545.204 447.647C541.639 441.021 536.172 437.708 528.802 437.706C514.794 437.706 507.79 448.832 507.79 471.086C507.79 494.086 515.039 505.585 529.536 505.583H529.542ZM533.067 597.091H517.591L618.911 429.875H634.096L533.067 597.091ZM622.703 598.806C611.841 598.806 603.374 594.52 597.3 585.948C591.227 577.376 588.178 567.085 588.152 555.073C588.152 542.987 591.113 532.758 597.034 524.387C602.955 516.016 611.387 511.834 622.329 511.842C633.764 511.842 642.38 516.253 648.177 525.074C653.975 533.894 656.874 544.102 656.877 555.697C656.877 567.136 653.875 577.182 647.873 585.835C641.87 594.489 633.478 598.812 622.696 598.806H622.703ZM622.885 589.006C629.891 589.006 635.124 585.99 638.584 579.958C642.044 573.926 643.774 566.222 643.774 556.845C643.774 546.81 642.023 538.394 638.521 531.597C635.019 524.8 629.563 521.396 622.154 521.386C608.065 521.386 601.02 532.512 601.02 554.766C601.016 577.595 608.302 589.008 622.878 589.006H622.885Z" fill="#3F3D56"/>
<path opacity="0.15" d="M529.229 515.139C518.528 515.139 510.095 510.891 503.93 502.397C497.764 493.902 494.682 483.612 494.682 471.525C494.682 459.357 497.663 449.087 503.626 440.716C509.588 432.345 517.999 428.164 528.859 428.172C540.374 428.172 549.051 432.582 554.888 441.403C560.725 450.224 563.645 460.433 563.647 472.03C563.647 483.544 560.626 493.608 554.584 502.224C548.542 510.84 540.09 515.145 529.229 515.139ZM529.542 505.583C536.582 505.583 541.843 502.515 545.326 496.378C548.809 490.242 550.551 482.507 550.551 473.171C550.551 462.781 548.769 454.272 545.204 447.647C541.639 441.021 536.172 437.708 528.802 437.706C514.794 437.706 507.79 448.832 507.79 471.086C507.79 494.086 515.039 505.585 529.536 505.583H529.542ZM533.067 597.091H517.591L618.911 429.875H634.096L533.067 597.091ZM622.703 598.806C611.841 598.806 603.374 594.52 597.3 585.948C591.227 577.376 588.178 567.085 588.152 555.073C588.152 542.987 591.113 532.758 597.034 524.387C602.955 516.016 611.387 511.834 622.329 511.842C633.764 511.842 642.38 516.253 648.177 525.074C653.975 533.894 656.874 544.102 656.877 555.697C656.877 567.136 653.875 577.182 647.873 585.835C641.87 594.489 633.478 598.812 622.696 598.806H622.703ZM622.885 589.006C629.891 589.006 635.124 585.99 638.584 579.958C642.044 573.926 643.774 566.222 643.774 556.845C643.774 546.81 642.023 538.394 638.521 531.597C635.019 524.8 629.563 521.396 622.154 521.386C608.065 521.386 601.02 532.512 601.02 554.766C601.016 577.595 608.302 589.008 622.878 589.006H622.885Z" fill="black"/>
<path d="M553.363 601.286C554.655 598.89 553.187 595.955 551.5 593.816C549.813 591.677 547.756 589.457 547.8 586.732C547.862 582.821 552.014 580.51 555.326 578.434C557.789 576.895 560.061 575.07 562.094 572.996C562.945 572.197 563.649 571.254 564.173 570.211C564.86 568.681 564.838 566.94 564.8 565.265C564.656 559.679 564.38 554.101 563.972 548.531" stroke="#3F3D56" stroke-width="4" stroke-miterlimit="10"/>
<path d="M570.283 548.225C570.236 547.203 569.932 546.209 569.4 545.336C568.868 544.462 568.124 543.736 567.238 543.226L565.87 545.929L565.911 542.655C565.259 542.464 564.58 542.383 563.901 542.414C562.695 542.47 561.534 542.883 560.562 543.6C559.591 544.316 558.855 545.305 558.445 546.441C558.036 547.576 557.973 548.807 558.263 549.979C558.554 551.15 559.186 552.209 560.078 553.022C560.97 553.835 562.084 554.364 563.277 554.544C564.471 554.724 565.691 554.546 566.783 554.033C567.875 553.519 568.791 552.693 569.414 551.659C570.037 550.626 570.339 549.43 570.283 548.225V548.225Z" fill="#00BFA6"/>
<path d="M559.402 589.539C558.762 590.784 557.713 591.77 556.432 592.333C555.151 592.895 553.715 593.001 552.366 592.631C551.016 592.261 549.835 591.438 549.02 590.3C548.205 589.163 547.806 587.78 547.89 586.383C547.974 584.986 548.535 583.661 549.48 582.629C550.425 581.597 551.696 580.921 553.08 580.715C554.465 580.509 555.877 580.785 557.082 581.497C558.287 582.209 559.21 583.313 559.697 584.625L555.883 587.727L560.086 586.748C560.084 587.72 559.85 588.677 559.402 589.539V589.539Z" fill="#00BFA6"/>
<path d="M556.387 577.682C555.587 577.719 554.787 577.599 554.033 577.327C553.279 577.055 552.585 576.638 551.993 576.098C551.4 575.558 550.92 574.907 550.579 574.182C550.238 573.457 550.043 572.671 550.005 571.871C549.958 570.915 550.139 569.961 550.532 569.089C550.897 568.274 551.436 567.548 552.111 566.964C552.786 566.379 553.581 565.949 554.44 565.705L554.405 568.214L555.788 565.479C557.405 565.404 558.986 565.973 560.183 567.063C561.38 568.153 562.095 569.674 562.17 571.29C562.246 572.907 561.676 574.488 560.586 575.685C559.497 576.882 557.976 577.597 556.359 577.672L556.387 577.682Z" fill="#00BFA6"/>
<path d="M571.202 567.824C570.392 567.878 569.579 567.77 568.811 567.506C568.044 567.242 567.336 566.827 566.731 566.287C566.125 565.746 565.633 565.09 565.284 564.357C564.935 563.624 564.736 562.828 564.698 562.017C564.66 561.206 564.784 560.396 565.063 559.634C565.342 558.871 565.771 558.172 566.323 557.577C566.876 556.982 567.541 556.503 568.281 556.169C569.021 555.834 569.82 555.65 570.631 555.628C571.772 555.573 572.905 555.841 573.899 556.403L572.82 559.357L575.041 557.228C576.232 558.314 576.944 559.829 577.019 561.439C577.047 562.004 576.994 562.57 576.863 563.12C576.559 564.413 575.842 565.572 574.821 566.421C573.799 567.27 572.529 567.763 571.202 567.824V567.824Z" fill="#00BFA6"/>
<path opacity="0.1" d="M569.462 549.852C568.054 550.006 566.687 550.445 565.272 550.533C563.858 550.62 562.306 550.282 561.412 549.181C560.929 548.591 560.691 547.842 560.283 547.196C559.898 546.594 559.37 546.098 558.746 545.75C558.354 546.524 558.132 547.372 558.094 548.238C558.056 549.104 558.202 549.969 558.524 550.774C558.846 551.579 559.336 552.306 559.961 552.907C560.587 553.508 561.333 553.969 562.15 554.259C562.967 554.549 563.836 554.661 564.701 554.589C565.565 554.516 566.403 554.26 567.161 553.838C567.918 553.417 568.577 552.838 569.093 552.141C569.61 551.445 569.972 550.646 570.155 549.799C569.923 549.811 569.694 549.827 569.462 549.852Z" fill="black"/>
<path opacity="0.1" d="M571.202 567.825C570.15 567.873 569.104 567.648 568.165 567.173C567.225 566.697 566.425 565.987 565.841 565.111C565.257 564.235 564.909 563.223 564.831 562.174C564.753 561.124 564.948 560.072 565.397 559.119C565.88 559.447 566.296 559.864 566.623 560.348C567.059 561.004 567.322 561.763 567.833 562.365C568.774 563.485 570.408 563.848 571.879 563.782C573.35 563.717 574.774 563.296 576.241 563.155C576.445 563.136 576.652 563.124 576.869 563.118C576.565 564.412 575.848 565.573 574.825 566.422C573.802 567.272 572.53 567.764 571.202 567.825V567.825Z" fill="black"/>
<path opacity="0.1" d="M556.387 577.682C555.587 577.719 554.787 577.599 554.033 577.327C553.279 577.055 552.585 576.638 551.993 576.098C551.4 575.558 550.92 574.907 550.579 574.182C550.238 573.457 550.043 572.671 550.005 571.871C549.958 570.915 550.139 569.961 550.532 569.089C551.036 569.424 551.473 569.849 551.821 570.343C552.295 571.011 552.593 571.783 553.148 572.401C554.176 573.545 555.908 573.95 557.466 573.912C559.025 573.875 560.433 573.511 561.935 573.395C561.563 574.593 560.831 575.647 559.838 576.414C558.845 577.181 557.641 577.624 556.387 577.682V577.682Z" fill="black"/>
<path opacity="0.1" d="M559.401 589.539C558.691 590.934 557.472 592.004 555.995 592.525C554.519 593.047 552.898 592.981 551.469 592.341C550.04 591.702 548.911 590.537 548.316 589.088C547.722 587.64 547.707 586.018 548.275 584.559C548.777 584.889 549.228 585.292 549.614 585.753C550.194 586.462 550.576 587.265 551.248 587.924C552.502 589.147 554.509 589.652 556.303 589.699C557.338 589.707 558.373 589.654 559.401 589.539V589.539Z" fill="black"/>
<path d="M526.216 567.508C526.222 566.748 526.05 565.997 525.713 565.315C525.377 564.633 524.885 564.039 524.278 563.582C524.203 560.706 522.152 558.357 519.514 557.993C519.311 557.016 518.853 556.11 518.188 555.366C517.523 554.621 516.674 554.065 515.726 553.753V553.753C515.495 553.68 515.259 553.625 515.02 553.587H514.951L514.829 553.571H514.725H514.622H514.487H514.406H514.183C511.492 553.571 509.253 555.629 508.792 558.341C507.052 557.94 505.455 558.46 505.17 559.561C505.096 559.853 505.113 560.16 505.217 560.442C505.512 561.295 506.471 562.111 507.773 562.515L507.942 562.566C508.027 562.591 508.112 562.609 508.196 562.628H508.253C507.774 563.648 507.706 564.814 508.063 565.882C508.42 566.951 509.174 567.842 510.169 568.37C510.13 568.392 510.092 568.416 510.056 568.443C509.895 568.59 509.767 568.77 509.68 568.969C509.365 569.521 509.121 570.11 508.952 570.723C508.827 571.246 508.805 571.795 508.638 572.313C508.353 573.253 507.619 574.078 507.534 575.079C507.497 575.524 507.569 576.048 507.252 576.352C507.173 576.42 507.089 576.482 507.001 576.537C506.779 576.689 506.591 576.885 506.449 577.114C506.357 577.303 506.233 577.475 506.082 577.622C505.797 577.838 505.327 577.816 505.186 578.149C505.044 578.481 505.408 578.873 505.324 579.237C505.255 579.532 504.932 579.667 504.696 579.864C504.433 580.15 504.249 580.499 504.163 580.877C503.695 580.967 503.212 580.953 502.75 580.836C502.287 580.718 501.856 580.5 501.488 580.197C501.614 580.52 501.707 580.855 501.764 581.197C501.391 580.799 500.776 580.683 500.321 580.476C499.735 580.207 499.211 579.818 498.785 579.334L499.606 579.221L495.969 573.702L494.896 573.482L495.859 575.329C495.78 575.367 495.711 575.422 495.657 575.491C495.602 575.559 495.564 575.639 495.545 575.725C495.493 575.929 495.481 576.142 495.508 576.352C495.559 576.847 495.641 577.338 495.755 577.823L496.034 579.121C496.058 579.243 496.088 579.363 496.125 579.482C495.762 579.468 495.398 579.51 495.047 579.604C494.326 579.337 493.575 579.159 492.811 579.074C492.643 579.044 492.47 579.053 492.306 579.099C492.119 579.185 491.957 579.317 491.835 579.482C491.208 580.207 490.651 580.99 490.173 581.821C488.219 585.221 485.61 588.187 483.167 591.261C481.48 591.947 479.78 592.6 478.077 593.246L474.417 594.641C473.687 594.921 472.928 595.206 472.15 595.156C471.799 595.134 471.372 595.08 471.175 595.378C471.079 595.526 471.004 595.687 470.952 595.855C470.824 595.855 470.695 595.886 470.576 595.893H470.554C470.322 595.316 470.121 594.698 469.676 594.278C469.586 594.291 469.501 594.327 469.429 594.382C469.357 594.437 469.299 594.509 469.262 594.591C469.174 594.754 469.121 594.933 469.02 595.084C468.823 595.372 468.481 595.513 468.236 595.758C467.992 596.002 467.838 596.385 467.575 596.623C467.206 596.892 466.773 597.059 466.32 597.109C465.641 597.269 464.986 597.518 464.373 597.85C464.146 597.989 463.904 598.1 463.651 598.182C463.373 598.235 463.089 598.245 462.808 598.21L460.87 598.069C460.697 598.047 460.522 598.054 460.352 598.091C460.152 598.164 459.983 598.301 459.869 598.481C459.756 598.661 459.705 598.874 459.725 599.085C459.749 599.295 459.815 599.498 459.92 599.682C460.025 599.865 460.167 600.025 460.336 600.151C460.673 600.398 461.045 600.592 461.44 600.725C463.125 601.378 464.861 601.886 466.631 602.246V602.638C467.857 603.256 469.212 603.578 470.585 603.579C470.686 603.587 470.788 603.569 470.88 603.526C471.007 603.431 471.095 603.292 471.128 603.137C471.539 601.907 471.799 600.632 471.902 599.339C472.145 599.324 472.382 599.263 472.602 599.16C473.27 598.979 473.931 599.436 474.618 599.512C475.465 599.603 476.252 599.11 477.052 598.806C477.168 598.762 477.284 598.725 477.4 598.687C477.172 598.982 476.902 599.243 476.6 599.462C476.268 599.7 475.895 599.876 475.568 600.123C475.297 600.371 475.007 600.596 474.7 600.798C474.483 600.898 474.26 600.984 474.032 601.055C473.701 601.175 473.385 601.334 473.091 601.528C472.827 601.683 472.604 601.898 472.439 602.155C472.355 602.275 472.304 602.415 472.29 602.56C472.276 602.706 472.299 602.852 472.357 602.986C472.416 603.12 472.507 603.237 472.624 603.325C472.74 603.414 472.877 603.471 473.022 603.491C473.284 603.538 473.551 603.545 473.815 603.513C474.863 603.435 475.907 603.338 476.951 603.244C477.394 603.214 477.833 603.151 478.265 603.055C478.494 602.999 478.72 602.924 478.949 602.864C479.34 602.761 479.74 602.701 480.144 602.685C480.261 602.676 480.379 602.688 480.492 602.72C480.737 602.798 480.909 603.034 481.157 603.096C481.318 603.112 481.48 603.089 481.63 603.03C482.395 602.864 483.175 602.781 483.957 602.783C484.299 602.764 484.701 602.698 484.861 602.381C485.055 601.989 484.729 601.55 484.6 601.127C484.535 600.858 484.499 600.582 484.494 600.305C484.434 599.622 484.238 598.957 483.917 598.351C483.746 598.069 483.602 597.77 483.487 597.461C484.986 596.891 486.42 596.163 487.765 595.291C488.536 594.811 489.333 594.293 490.204 594.118C491.221 593.914 492.268 594.184 493.268 594.472C495.651 595.161 497.995 595.979 500.29 596.921C501.388 597.37 502.485 597.846 503.608 598.176C503.936 598.619 504.333 599.006 504.784 599.324C505.537 599.81 506.456 599.951 507.34 600.02C508.535 600.129 509.734 600.174 510.934 600.155C511.85 600.139 512.794 600.076 513.612 599.659C513.812 599.556 514 599.432 514.174 599.289C514.801 599.402 515.444 599.066 515.936 598.637C516.588 598.082 517.058 597.345 517.285 596.52C517.573 595.388 517.35 594.067 518.047 593.142C518.232 592.895 518.473 592.694 518.655 592.443C518.879 592.107 518.989 591.708 518.969 591.305L519 591.258C519.158 590.894 519.263 590.509 519.314 590.116C519.396 589.809 519.501 589.508 519.627 589.216C519.981 588.341 520.289 587.448 520.549 586.541C520.73 585.939 520.873 585.326 520.976 584.706C521.051 584.211 521.095 583.712 521.136 583.214C521.186 582.433 521.338 581.662 521.587 580.921C522.206 579.152 522.556 577.3 522.625 575.427C522.625 575.389 522.625 575.355 522.625 575.317C523.536 575.217 524.376 574.781 524.982 574.094C525.588 573.408 525.917 572.52 525.902 571.604C525.903 571.052 525.788 570.506 525.564 570.001C525.996 569.242 526.221 568.382 526.216 567.508V567.508ZM508.482 589.056C508.535 589.247 508.598 589.439 508.66 589.63C508.372 589.345 508.086 589.05 507.795 588.768C507.911 588.802 508.027 588.84 508.14 588.88C508.26 588.928 508.375 588.987 508.485 589.056H508.482ZM507.077 588.115C505.364 586.629 503.382 585.475 501.629 584.038C502.57 584.512 503.511 585.061 504.452 585.588C505.547 586.215 506.655 586.815 507.776 587.388C507.592 587.667 507.358 587.909 507.086 588.103L507.077 588.115ZM507.807 584.371L507.889 584.286C507.889 584.496 507.889 584.694 507.889 584.872C507.735 584.822 507.575 584.772 507.428 584.716C507.563 584.605 507.691 584.486 507.81 584.358L507.807 584.371ZM492.732 588.397C493.437 587.6 494.051 586.726 494.561 585.791C495.238 586.98 496.342 587.836 497.283 588.83C495.771 588.617 494.256 588.451 492.735 588.385L492.732 588.397Z" fill="url(#paint1_linear_547:7988)"/>
<path d="M495.176 573.94L496.258 574.16L499.943 579.604L498.315 579.824L495.176 573.94Z" fill="#2F2E41"/>
<path d="M468.975 596.037C469.266 597.002 469.626 597.945 470.05 598.86C471.271 598.604 472.472 598.262 473.644 597.834C473.417 597.481 473.168 597.143 472.898 596.821C472.61 596.501 472.265 596.236 471.882 596.04C471.509 595.877 471.048 596 470.649 596.022C470.091 596.043 469.533 596.048 468.975 596.037Z" fill="#FBBEBE"/>
<path d="M471.889 597.492C471.28 597.301 470.907 596.686 470.659 596.094C470.412 595.501 470.211 594.855 469.74 594.419C469.651 594.433 469.566 594.469 469.494 594.524C469.422 594.578 469.364 594.65 469.327 594.733C469.236 594.889 469.182 595.068 469.079 595.219C468.884 595.501 468.539 595.639 468.292 595.88C468.044 596.122 467.89 596.489 467.624 596.73C467.254 596.996 466.822 597.162 466.369 597.213C465.686 597.368 465.025 597.613 464.406 597.941C464.177 598.074 463.932 598.179 463.678 598.254C463.398 598.308 463.112 598.317 462.829 598.283L460.875 598.141C460.701 598.12 460.525 598.128 460.354 598.167C460.155 598.236 459.985 598.37 459.871 598.547C459.758 598.725 459.707 598.935 459.727 599.145C459.753 599.354 459.822 599.555 459.93 599.736C460.038 599.917 460.182 600.074 460.354 600.196C460.694 600.438 461.068 600.629 461.464 600.76C463.167 601.4 464.918 601.9 466.702 602.256V602.642C467.941 603.255 469.305 603.577 470.688 603.583C470.795 603.592 470.903 603.574 471.001 603.529C471.128 603.436 471.217 603.3 471.252 603.147C471.721 601.776 471.994 600.347 472.064 598.9C472.1 598.535 472.073 598.165 471.983 597.809C471.876 597.458 472.24 597.605 471.901 597.467" fill="#2F2E41"/>
<path d="M509.346 590.128C503.553 590.48 497.833 588.78 492.031 588.598C491.311 588.554 490.589 588.601 489.88 588.736C489.141 588.934 488.426 589.212 487.747 589.564C484.64 591.01 481.422 592.208 478.207 593.406L474.519 594.779C473.779 595.052 473.017 595.331 472.23 595.284C471.879 595.262 471.449 595.209 471.248 595.504C470.649 596.391 470.935 597.699 471.33 598.696C471.459 599.01 471.675 599.37 472.02 599.408C472.264 599.391 472.503 599.331 472.726 599.229C473.397 599.051 474.068 599.502 474.758 599.574C475.614 599.665 476.407 599.179 477.213 598.881C478.549 598.389 480.011 598.405 481.416 598.169C483.774 597.777 485.957 596.683 488.001 595.435C488.779 594.961 489.569 594.453 490.46 594.281C491.486 594.08 492.542 594.343 493.549 594.629C495.949 595.308 498.312 596.113 500.627 597.04C501.832 597.564 503.068 598.014 504.328 598.389C507.073 599.112 509.977 598.943 512.62 597.906C513.56 597.539 514.551 596.893 514.605 595.893C514.636 595.322 514.194 594.82 513.899 594.324C513.708 594.011 513.52 593.697 513.313 593.399C512.315 591.944 511.105 590.022 509.346 590.128Z" fill="#2F2E41"/>
<path opacity="0.1" d="M509.346 590.128C503.553 590.48 497.833 588.78 492.031 588.598C491.311 588.554 490.589 588.601 489.88 588.736C489.141 588.934 488.426 589.212 487.747 589.564C484.64 591.01 481.422 592.208 478.207 593.406L474.519 594.779C473.779 595.052 473.017 595.331 472.23 595.284C471.879 595.262 471.449 595.209 471.248 595.504C470.649 596.391 470.935 597.699 471.33 598.696C471.459 599.01 471.675 599.37 472.02 599.408C472.264 599.391 472.503 599.331 472.726 599.229C473.397 599.051 474.068 599.502 474.758 599.574C475.614 599.665 476.407 599.179 477.213 598.881C478.549 598.389 480.011 598.405 481.416 598.169C483.774 597.777 485.957 596.683 488.001 595.435C488.779 594.961 489.569 594.453 490.46 594.281C491.486 594.08 492.542 594.343 493.549 594.629C495.949 595.308 498.312 596.113 500.627 597.04C501.832 597.564 503.068 598.014 504.328 598.389C507.073 599.112 509.977 598.943 512.62 597.906C513.56 597.539 514.551 596.893 514.605 595.893C514.636 595.322 514.194 594.82 513.899 594.324C513.708 594.011 513.52 593.697 513.313 593.399C512.315 591.944 511.105 590.022 509.346 590.128Z" fill="black"/>
<path d="M480.092 596.319C480.999 596.626 481.913 596.911 482.833 597.172C483.35 596.322 484.316 595.733 484.536 594.764C484.548 594.722 484.548 594.677 484.536 594.635C484.512 594.594 484.475 594.561 484.432 594.541C483.771 594.176 483.037 593.962 482.284 593.914C481.688 593.876 481.418 594.497 481.149 594.933C481.055 595.109 480.333 596.401 480.092 596.319Z" fill="#FBBEBE"/>
<path d="M481.37 595.698C481.099 595.653 480.84 595.552 480.611 595.401C480.381 595.251 480.186 595.054 480.037 594.823C479.908 594.6 479.773 594.299 479.516 594.315C479.259 594.331 479.171 594.613 479.118 594.848C478.944 595.727 478.693 596.588 478.368 597.423C478.04 598.26 477.485 598.989 476.766 599.527C476.43 599.759 476.057 599.935 475.728 600.18C475.453 600.424 475.16 600.647 474.85 600.844C474.631 600.944 474.406 601.028 474.175 601.095C473.837 601.213 473.514 601.37 473.213 601.563C472.948 601.717 472.724 601.932 472.557 602.19C472.477 602.32 472.43 602.469 472.42 602.622C472.41 602.775 472.438 602.928 472.501 603.068C472.568 603.181 472.659 603.28 472.767 603.356C472.875 603.432 472.998 603.485 473.128 603.51C473.392 603.554 473.661 603.56 473.928 603.529C474.984 603.45 476.038 603.356 477.092 603.262C477.538 603.235 477.981 603.174 478.418 603.08C478.651 603.024 478.876 602.949 479.105 602.889C479.5 602.788 479.905 602.73 480.313 602.713C480.431 602.705 480.55 602.716 480.664 602.748C480.909 602.826 481.081 603.062 481.332 603.118C481.493 603.135 481.657 603.113 481.809 603.055C482.58 602.892 483.366 602.81 484.154 602.811C484.499 602.792 484.907 602.726 485.064 602.416C485.261 602.03 484.935 601.597 484.804 601.183C484.738 600.918 484.702 600.647 484.694 600.374C484.634 599.7 484.437 599.046 484.114 598.452C483.844 597.956 483.486 597.41 483.665 596.883C483.761 596.719 483.822 596.536 483.844 596.347C483.8 595.497 481.846 595.811 481.37 595.698Z" fill="#2F2E41"/>
<path d="M500.662 580.839C499.636 580.387 498.813 579.57 498.354 578.547C498.26 578.327 498.178 578.098 498.087 577.876C497.782 577.14 497.309 576.485 496.707 575.963C496.643 575.892 496.564 575.836 496.475 575.798C496.387 575.761 496.292 575.743 496.196 575.746C496.103 575.774 496.02 575.826 495.954 575.896C495.887 575.967 495.841 576.054 495.82 576.148C495.766 576.352 495.752 576.565 495.779 576.775C495.832 577.262 495.916 577.745 496.03 578.221L496.312 579.5C496.348 579.697 496.407 579.889 496.488 580.071C496.608 580.286 496.768 580.476 496.958 580.632C497.215 580.871 497.476 581.1 497.739 581.322C497.884 581.454 498.043 581.569 498.213 581.667C498.491 581.799 498.788 581.886 499.094 581.925C500.245 582.138 501.414 582.445 502.383 583.179C502.383 583.179 502.383 582.323 502.362 582.238C502.35 581.99 502.265 581.751 502.117 581.551C501.753 581.159 501.126 581.043 500.662 580.839Z" fill="#FBBEBE"/>
<path opacity="0.1" d="M500.662 580.839C499.636 580.387 498.813 579.57 498.354 578.547C498.26 578.327 498.178 578.098 498.087 577.876C497.782 577.14 497.309 576.485 496.707 575.963C496.643 575.892 496.564 575.836 496.475 575.798C496.387 575.761 496.292 575.743 496.196 575.746C496.103 575.774 496.02 575.826 495.954 575.896C495.887 575.967 495.841 576.054 495.82 576.148C495.766 576.352 495.752 576.565 495.779 576.775C495.832 577.262 495.916 577.745 496.03 578.221L496.312 579.5C496.348 579.697 496.407 579.889 496.488 580.071C496.608 580.286 496.768 580.476 496.958 580.632C497.215 580.871 497.476 581.1 497.739 581.322C497.884 581.454 498.043 581.569 498.213 581.667C498.491 581.799 498.788 581.886 499.094 581.925C500.245 582.138 501.414 582.445 502.383 583.179C502.383 583.179 502.383 582.323 502.362 582.238C502.35 581.99 502.265 581.751 502.117 581.551C501.753 581.159 501.126 581.043 500.662 580.839Z" fill="black"/>
<path d="M512.453 571.055C513.231 571.055 513.861 570.42 513.861 569.637C513.861 568.854 513.231 568.22 512.453 568.22C511.675 568.22 511.045 568.854 511.045 569.637C511.045 570.42 511.675 571.055 512.453 571.055Z" fill="#2F2E41"/>
<path d="M511.581 568.781C511.203 568.695 510.806 568.752 510.468 568.941C510.305 569.085 510.175 569.263 510.088 569.462C509.771 570.003 509.525 570.583 509.354 571.187C509.229 571.704 509.207 572.244 509.041 572.755C508.752 573.696 508.012 574.495 507.927 575.477C507.89 575.916 507.962 576.433 507.642 576.731C507.563 576.798 507.478 576.858 507.388 576.91C507.165 577.06 506.976 577.254 506.833 577.481C506.737 577.685 506.604 577.869 506.441 578.023C506.152 578.237 505.679 578.215 505.538 578.544C505.397 578.873 505.76 579.256 505.676 579.613C505.607 579.905 505.281 580.04 505.049 580.241C504.784 580.521 504.599 580.866 504.512 581.241C504.041 581.33 503.556 581.315 503.091 581.199C502.626 581.083 502.192 580.867 501.818 580.567C502.21 581.536 502.22 582.605 502.235 583.65C502.281 583.984 502.192 584.322 501.988 584.59C503.11 584.615 504.202 584.904 505.296 585.164C505.764 585.321 506.271 585.321 506.739 585.164C506.989 585.03 507.213 584.851 507.401 584.637C507.996 584.032 508.621 583.383 508.765 582.539C508.803 582.065 508.811 581.588 508.79 581.112C508.847 580.525 508.968 579.946 509.151 579.384C509.465 578.219 509.675 577.028 509.778 575.825C509.844 575.082 510.483 574.486 510.822 573.821C511.449 572.567 512.108 571.265 512.158 569.86C512.202 569.402 512.045 568.841 511.581 568.781Z" fill="#2F2E41"/>
<path opacity="0.1" d="M511.581 568.781C511.203 568.695 510.806 568.752 510.468 568.941C510.305 569.085 510.175 569.263 510.088 569.462C509.771 570.003 509.525 570.583 509.354 571.187C509.229 571.704 509.207 572.244 509.041 572.755C508.752 573.696 508.012 574.495 507.927 575.477C507.89 575.916 507.962 576.433 507.642 576.731C507.563 576.798 507.478 576.858 507.388 576.91C507.165 577.06 506.976 577.254 506.833 577.481C506.737 577.685 506.604 577.869 506.441 578.023C506.152 578.237 505.679 578.215 505.538 578.544C505.397 578.873 505.76 579.256 505.676 579.613C505.607 579.905 505.281 580.04 505.049 580.241C504.784 580.521 504.599 580.866 504.512 581.241C504.041 581.33 503.556 581.315 503.091 581.199C502.626 581.083 502.192 580.867 501.818 580.567C502.21 581.536 502.22 582.605 502.235 583.65C502.281 583.984 502.192 584.322 501.988 584.59C503.11 584.615 504.202 584.904 505.296 585.164C505.764 585.321 506.271 585.321 506.739 585.164C506.989 585.03 507.213 584.851 507.401 584.637C507.996 584.032 508.621 583.383 508.765 582.539C508.803 582.065 508.811 581.588 508.79 581.112C508.847 580.525 508.968 579.946 509.151 579.384C509.465 578.219 509.675 577.028 509.778 575.825C509.844 575.082 510.483 574.486 510.822 573.821C511.449 572.567 512.108 571.265 512.158 569.86C512.202 569.402 512.045 568.841 511.581 568.781Z" fill="black"/>
<path d="M510.265 591.348C509.058 590.774 508.177 589.705 507.201 588.789C505.339 587.039 503.062 585.804 501.105 584.164C499.81 583.078 498.649 581.815 497.222 580.905C495.967 580.105 494.544 579.605 493.064 579.447C492.895 579.417 492.721 579.426 492.556 579.472C492.369 579.556 492.206 579.685 492.082 579.848C491.45 580.561 490.888 581.333 490.405 582.153C487.924 586.362 484.402 589.903 481.482 593.82C481.389 593.912 481.333 594.036 481.327 594.167C481.32 594.298 481.364 594.427 481.448 594.528L482.041 595.692C482.373 596.341 482.906 597.1 483.609 596.971C483.931 596.878 484.22 596.694 484.44 596.441L487.105 593.892L489.9 591.22C491.537 589.652 493.202 588.052 494.271 586.051C495.105 587.497 496.586 588.444 497.602 589.771C497.988 590.273 498.301 590.828 498.646 591.361C499.201 592.217 499.828 593.02 500.456 593.82L503.664 597.912C504.069 598.495 504.57 599.004 505.147 599.417C505.906 599.897 506.831 600.026 507.725 600.104C508.929 600.214 510.138 600.258 511.347 600.236C512.269 600.22 513.229 600.161 514.044 599.75C514.86 599.339 515.553 598.495 515.509 597.577C515.459 597.095 515.301 596.631 515.048 596.219C513.916 594.117 512.417 592.361 510.265 591.348Z" fill="#2F2E41"/>
<path d="M513.32 571.708C513.918 571.708 514.402 571.22 514.402 570.619C514.402 570.018 513.918 569.531 513.32 569.531C512.723 569.531 512.238 570.018 512.238 570.619C512.238 571.22 512.723 571.708 513.32 571.708Z" fill="#E8E8F0"/>
<path d="M513.081 569.801C513.325 570.288 513.368 570.851 513.2 571.369C513.033 571.878 512.799 572.364 512.504 572.812C512.25 573.274 511.946 573.707 511.598 574.104C513.269 574.185 514.891 573.53 516.365 572.733C517.553 572.106 518.739 571.306 519.372 570.111C519.183 570.156 518.988 570.161 518.797 570.126C518.606 570.091 518.425 570.017 518.265 569.908C517.946 569.685 517.66 569.419 517.415 569.117L516.578 568.176C516.38 567.97 516.206 567.742 516.06 567.496C515.877 567.162 515.799 566.78 515.838 566.401C515.504 566.75 515.132 567.06 514.727 567.323C514.128 567.715 513.473 567.998 512.868 568.383C512.655 568.521 512.181 568.744 512.303 569.011C512.426 569.277 512.912 569.5 513.081 569.801Z" fill="#FBBEBE"/>
<path opacity="0.1" d="M513.081 569.801C513.325 570.288 513.368 570.851 513.2 571.369C513.033 571.878 512.799 572.364 512.504 572.812C512.25 573.274 511.946 573.707 511.598 574.104C513.269 574.185 514.891 573.53 516.365 572.733C517.553 572.106 518.739 571.306 519.372 570.111C519.183 570.156 518.988 570.161 518.797 570.126C518.606 570.091 518.425 570.017 518.265 569.908C517.946 569.685 517.66 569.419 517.415 569.117L516.578 568.176C516.38 567.97 516.206 567.742 516.06 567.496C515.877 567.162 515.799 566.78 515.838 566.401C515.504 566.75 515.132 567.06 514.727 567.323C514.128 567.715 513.473 567.998 512.868 568.383C512.655 568.521 512.181 568.744 512.303 569.011C512.426 569.277 512.912 569.5 513.081 569.801Z" fill="black"/>
<path d="M513.103 569.963C512.934 570.202 512.844 570.487 512.844 570.78C512.844 571.073 512.934 571.358 513.103 571.597C513.15 571.657 513.329 572.03 513.417 572.033C513.491 572.027 513.56 571.992 513.608 571.936C513.987 571.54 514.341 571.121 514.668 570.681C514.999 570.236 515.477 569.923 516.017 569.797C516.672 569.693 517.303 570.042 517.877 570.374C518.123 570.496 518.338 570.675 518.504 570.895C518.625 571.113 518.696 571.355 518.714 571.603C518.879 573.098 518.941 574.603 518.902 576.107C518.933 577.191 518.861 578.275 518.689 579.346C518.582 579.898 518.422 580.438 518.347 580.996C518.292 581.487 518.27 581.982 518.281 582.476V584.546C518.267 584.925 518.295 585.305 518.363 585.678C518.492 586.123 518.644 586.562 518.817 586.992C518.97 587.504 519.075 588.029 519.131 588.56L519.413 590.702C519.504 591.379 519.57 592.116 519.159 592.659C518.977 592.907 518.733 593.101 518.532 593.346C517.826 594.243 518.062 595.544 517.748 596.657C517.516 597.474 517.041 598.202 516.387 598.743C515.888 599.166 515.242 599.502 514.596 599.37C513.728 599.207 513.204 598.301 512.965 597.445C512.727 596.588 512.652 595.654 512.128 594.936C511.708 594.343 511.059 593.973 510.472 593.55C509.886 593.126 509.309 592.584 509.18 591.869C509.124 591.555 509.158 591.241 509.127 590.928C509.08 590.528 508.927 590.148 508.683 589.828C508.439 589.508 508.114 589.26 507.741 589.109C507.295 588.936 506.743 588.874 506.486 588.482C507.125 588.081 507.59 587.455 507.791 586.729C507.986 586.013 508.091 585.275 508.105 584.533L508.255 582.043C508.321 580.93 508.352 579.826 508.842 578.826C509.061 578.38 509.334 577.96 509.56 577.518C509.862 576.897 510.12 576.256 510.331 575.599C510.686 574.579 511.043 573.557 511.36 572.525C511.487 572.026 511.676 571.544 511.924 571.092C512.216 570.622 512.602 570.057 513.103 569.963Z" fill="#E8E8F0"/>
<path d="M507.574 586.143L508.232 586.165L508.373 585.171C508.392 584.972 508.439 584.776 508.511 584.59C508.621 584.394 508.748 584.208 508.891 584.035C509.54 583.12 509.493 581.903 509.653 580.789C509.866 579.306 510.487 577.914 511.102 576.546L512.381 573.696C512.495 573.461 512.587 573.217 512.654 572.965C512.71 572.687 512.736 572.404 512.733 572.121C512.733 571.682 512.877 570.08 512.886 569.638C512.886 569.474 512.529 569.565 512.454 569.421C512.294 569.108 512.074 569.961 511.773 570.149C511.489 570.366 511.283 570.668 511.183 571.011C510.907 571.729 510.738 572.485 510.481 573.206C510.255 573.945 509.844 574.613 509.286 575.148C509.026 575.38 508.722 575.562 508.474 575.806C507.677 576.593 507.602 577.835 507.574 578.942C507.555 579.629 507.426 586.143 507.574 586.143Z" fill="#2F2E41"/>
<path d="M517.062 568.775C516.435 569.026 516.071 569.716 515.892 570.387C515.713 571.058 515.638 571.767 515.293 572.363C514.49 573.761 512.442 574.169 511.875 575.681C511.73 576.191 511.653 576.718 511.646 577.249C511.545 578.331 511.188 579.378 511.081 580.46C511.026 581.302 511.046 582.146 511.141 582.984L511.859 591.524C511.998 592.782 511.925 594.054 511.643 595.287C512.379 595.393 513.13 595.27 513.794 594.933C514.468 594.619 515.083 594.205 515.729 593.848C516.842 593.221 518.072 592.797 519.044 591.966C519.22 591.829 519.372 591.662 519.492 591.474C519.648 591.115 519.754 590.736 519.806 590.348C519.888 590.046 519.993 589.75 520.12 589.464C520.48 588.603 520.794 587.723 521.06 586.829C521.243 586.236 521.386 585.632 521.49 585.02C521.568 584.534 521.609 584.041 521.653 583.552C521.703 582.783 521.856 582.023 522.108 581.294C522.73 579.555 523.082 577.73 523.152 575.884C523.174 575.618 523.156 575.349 523.099 575.088C522.99 574.771 522.845 574.468 522.666 574.185C522.368 573.623 522.189 573.005 521.907 572.438C521.28 571.152 520.154 570.177 518.978 569.358C518.376 568.96 517.714 568.527 517.062 568.775Z" fill="#2F2E41"/>
<path d="M502.09 582.709C501.58 582.443 501.119 582.093 500.725 581.674C500.547 581.464 500.412 581.229 500.217 581.022C499.757 580.531 499.159 580.19 498.502 580.043C497.849 579.9 497.182 579.835 496.514 579.852C496.067 579.821 495.619 579.876 495.193 580.012C494.979 580.082 494.787 580.205 494.633 580.369C494.48 580.534 494.37 580.735 494.315 580.953C494.218 581.486 494.566 582.003 494.983 582.342C495.371 582.659 495.827 582.881 496.316 582.991C496.715 583.06 497.117 583.107 497.52 583.132C499.891 583.38 502.008 584.669 504.084 585.845C505.909 586.876 507.77 587.841 509.666 588.74C509.742 588.172 509.773 587.6 509.76 587.027C509.76 586.601 509.729 585.949 509.325 585.698C508.854 585.403 508.07 585.337 507.55 585.162C506.327 584.763 505.134 584.281 503.978 583.719C503.322 583.402 502.695 583.067 502.09 582.709Z" fill="#FBBEBE"/>
<path d="M512.453 569.314C514.786 569.314 516.677 567.412 516.677 565.065C516.677 562.718 514.786 560.815 512.453 560.815C510.12 560.815 508.229 562.718 508.229 565.065C508.229 567.412 510.12 569.314 512.453 569.314Z" fill="#FBBEBE"/>
<path d="M518.268 573.592C517.931 574.064 517.656 574.578 517.449 575.119C516.925 576.195 516.107 577.117 515.699 578.255C515.266 579.438 515.282 580.846 514.445 581.777C514.276 581.918 514.15 582.103 514.078 582.31C514.073 582.44 514.058 582.569 514.034 582.696C513.915 583.035 513.36 583.05 513.256 583.395C513.228 583.496 513.256 583.605 513.206 583.709C513.121 583.932 512.83 583.963 512.632 584.098C512.221 584.377 512.319 585.023 512.005 585.424C511.877 585.573 511.713 585.686 511.528 585.751C511.343 585.816 511.144 585.831 510.951 585.794C510.567 585.713 510.197 585.575 509.854 585.384C509.733 585.316 509.599 585.274 509.462 585.261C509.298 585.265 509.139 585.318 509.007 585.415C508.226 585.91 507.859 586.895 507.865 587.823C507.92 588.752 508.14 589.663 508.514 590.514C508.559 590.661 508.632 590.798 508.731 590.916C508.988 591.188 509.44 591.145 509.785 590.991C510.108 590.8 510.452 590.646 510.81 590.533C511.462 590.414 512.102 590.865 512.764 590.828C513.248 590.754 513.704 590.553 514.084 590.244C514.756 589.837 515.357 589.323 515.865 588.724C516.154 588.344 516.367 587.911 516.621 587.507C516.946 587.01 517.302 586.534 517.688 586.083L520.124 583.1C520.369 582.818 520.588 582.515 520.78 582.194C520.999 581.761 521.171 581.304 521.291 580.833C521.552 580.047 521.721 579.234 521.796 578.409C521.808 577.726 521.748 577.044 521.617 576.374C521.535 575.707 521.359 575.055 521.093 574.439C520.551 573.341 519.262 572.432 518.268 573.592Z" fill="#2F2E41"/>
<path d="M526.754 568.057C526.758 567.304 526.582 566.56 526.242 565.888C525.901 565.216 525.406 564.634 524.797 564.19C524.779 562.853 524.286 561.565 523.407 560.557C522.527 559.549 521.319 558.886 519.996 558.687C519.74 557.42 519.046 556.284 518.034 555.479C517.023 554.674 515.76 554.251 514.468 554.286C513.176 554.321 511.938 554.811 510.972 555.669C510.005 556.527 509.373 557.699 509.186 558.978C507.43 558.583 505.824 559.097 505.532 560.179C505.219 561.312 506.473 562.635 508.33 563.137C508.912 563.301 509.518 563.362 510.121 563.315C510.552 563.949 511.112 564.486 511.763 564.891C512.414 565.296 513.143 565.561 513.903 565.668C514.126 566.69 514.63 567.631 515.358 568.383C516.087 569.135 517.011 569.668 518.027 569.923C518.308 570.602 518.744 571.206 519.3 571.686C519.3 571.817 519.278 571.952 519.278 572.09C519.258 572.572 519.335 573.054 519.506 573.505C519.676 573.956 519.936 574.368 520.27 574.717C520.604 575.065 521.005 575.342 521.449 575.531C521.893 575.721 522.37 575.818 522.853 575.818C523.336 575.818 523.813 575.721 524.257 575.531C524.701 575.342 525.102 575.065 525.436 574.717C525.77 574.368 526.03 573.956 526.2 573.505C526.371 573.054 526.448 572.572 526.428 572.09C526.428 571.549 526.312 571.014 526.086 570.522C526.527 569.776 526.758 568.924 526.754 568.057V568.057Z" fill="#F86D70"/>
<path opacity="0.1" d="M506.723 560.395C507.015 559.313 508.605 558.799 510.377 559.194C510.583 557.895 511.241 556.711 512.235 555.85C513.23 554.989 514.496 554.508 515.811 554.49C515.934 554.49 516.056 554.49 516.175 554.49C515.667 554.335 515.138 554.257 514.607 554.258C513.292 554.276 512.026 554.757 511.031 555.618C510.037 556.479 509.378 557.663 509.172 558.962C507.416 558.567 505.81 559.081 505.519 560.163C505.205 561.295 506.46 562.619 508.316 563.12C508.661 563.216 509.016 563.277 509.373 563.302C507.611 562.788 506.425 561.502 506.723 560.395Z" fill="black"/>
<path opacity="0.1" d="M520.469 572.31C520.469 572.172 520.469 572.037 520.491 571.902C519.934 571.424 519.498 570.821 519.218 570.143C518.203 569.885 517.28 569.351 516.552 568.599C515.823 567.846 515.319 566.907 515.094 565.884C514.334 565.778 513.605 565.514 512.954 565.109C512.302 564.703 511.743 564.166 511.312 563.532C510.96 563.56 510.607 563.55 510.258 563.504C510.691 564.088 511.237 564.581 511.862 564.952C512.488 565.324 513.181 565.567 513.902 565.668C514.125 566.691 514.629 567.631 515.358 568.383C516.086 569.135 517.01 569.668 518.026 569.923C518.307 570.602 518.743 571.206 519.299 571.686C519.299 571.818 519.277 571.953 519.277 572.09C519.261 573.052 519.626 573.981 520.292 574.674C520.959 575.367 521.872 575.769 522.833 575.791C522.132 575.52 521.53 575.042 521.107 574.42C520.685 573.798 520.462 573.062 520.469 572.31Z" fill="black"/>
<path d="M514.387 566.622C514.674 566.404 514.671 565.917 514.381 565.535C514.091 565.153 513.623 565.02 513.336 565.238C513.049 565.456 513.052 565.943 513.342 566.325C513.632 566.707 514.1 566.84 514.387 566.622Z" fill="#FBBEBE"/>
<path d="M209.762 254.455L212.697 238.406H218.814L213.383 264H206.984L203.557 249.41L200.199 264H193.818L188.369 238.406H194.504L197.439 254.455L200.955 238.406H206.193L209.762 254.455ZM229.59 264.352C226.672 264.352 224.311 263.484 222.506 261.75C220.701 260.004 219.799 257.736 219.799 254.947V254.455C219.799 252.51 220.156 250.793 220.871 249.305C221.598 247.816 222.652 246.668 224.035 245.859C225.418 245.039 227.059 244.629 228.957 244.629C231.629 244.629 233.738 245.461 235.285 247.125C236.832 248.777 237.605 251.086 237.605 254.051V256.354H225.828C226.039 257.42 226.502 258.258 227.217 258.867C227.932 259.477 228.857 259.781 229.994 259.781C231.869 259.781 233.334 259.125 234.389 257.812L237.096 261.012C236.357 262.031 235.309 262.846 233.949 263.455C232.602 264.053 231.148 264.352 229.59 264.352ZM228.922 249.199C227.188 249.199 226.156 250.348 225.828 252.645H231.805V252.188C231.828 251.238 231.588 250.506 231.084 249.99C230.58 249.463 229.859 249.199 228.922 249.199ZM254.41 244.98L254.604 247.213C255.916 245.49 257.727 244.629 260.035 244.629C262.016 244.629 263.492 245.221 264.465 246.404C265.449 247.588 265.959 249.369 265.994 251.748V264H260.053V251.994C260.053 251.033 259.859 250.33 259.473 249.885C259.086 249.428 258.383 249.199 257.363 249.199C256.203 249.199 255.342 249.656 254.779 250.57V264H248.855V244.98H254.41ZM278.492 264.352C275.574 264.352 273.213 263.484 271.408 261.75C269.604 260.004 268.701 257.736 268.701 254.947V254.455C268.701 252.51 269.059 250.793 269.773 249.305C270.5 247.816 271.555 246.668 272.938 245.859C274.32 245.039 275.961 244.629 277.859 244.629C280.531 244.629 282.641 245.461 284.188 247.125C285.734 248.777 286.508 251.086 286.508 254.051V256.354H274.73C274.941 257.42 275.404 258.258 276.119 258.867C276.834 259.477 277.76 259.781 278.896 259.781C280.771 259.781 282.236 259.125 283.291 257.812L285.998 261.012C285.26 262.031 284.211 262.846 282.852 263.455C281.504 264.053 280.051 264.352 278.492 264.352ZM277.824 249.199C276.09 249.199 275.059 250.348 274.73 252.645H280.707V252.188C280.73 251.238 280.49 250.506 279.986 249.99C279.482 249.463 278.762 249.199 277.824 249.199ZM298.109 264.352C295.191 264.352 292.83 263.484 291.025 261.75C289.221 260.004 288.318 257.736 288.318 254.947V254.455C288.318 252.51 288.676 250.793 289.391 249.305C290.117 247.816 291.172 246.668 292.555 245.859C293.938 245.039 295.578 244.629 297.477 244.629C300.148 244.629 302.258 245.461 303.805 247.125C305.352 248.777 306.125 251.086 306.125 254.051V256.354H294.348C294.559 257.42 295.021 258.258 295.736 258.867C296.451 259.477 297.377 259.781 298.514 259.781C300.389 259.781 301.854 259.125 302.908 257.812L305.615 261.012C304.877 262.031 303.828 262.846 302.469 263.455C301.121 264.053 299.668 264.352 298.109 264.352ZM297.441 249.199C295.707 249.199 294.676 250.348 294.348 252.645H300.324V252.188C300.348 251.238 300.107 250.506 299.604 249.99C299.1 249.463 298.379 249.199 297.441 249.199ZM307.777 254.35C307.777 251.338 308.428 248.965 309.729 247.23C311.029 245.496 312.846 244.629 315.178 244.629C316.877 244.629 318.307 245.297 319.467 246.633V237H325.408V264H320.082L319.783 261.961C318.564 263.555 317.018 264.352 315.143 264.352C312.881 264.352 311.088 263.484 309.764 261.75C308.439 260.016 307.777 257.549 307.777 254.35ZM313.701 254.719C313.701 258.094 314.686 259.781 316.654 259.781C317.967 259.781 318.904 259.23 319.467 258.129V250.887C318.928 249.762 318.002 249.199 316.689 249.199C314.861 249.199 313.871 250.676 313.719 253.629L313.701 254.719ZM336.992 254.314C336.992 252.416 337.361 250.729 338.1 249.252C338.838 247.764 339.898 246.621 341.281 245.824C342.664 245.027 344.287 244.629 346.15 244.629C348.998 244.629 351.242 245.514 352.883 247.283C354.523 249.041 355.344 251.438 355.344 254.473V254.684C355.344 257.648 354.518 260.004 352.865 261.75C351.225 263.484 348.998 264.352 346.186 264.352C343.479 264.352 341.305 263.543 339.664 261.926C338.023 260.297 337.139 258.094 337.01 255.316L336.992 254.314ZM342.916 254.684C342.916 256.441 343.191 257.73 343.742 258.551C344.293 259.371 345.107 259.781 346.186 259.781C348.295 259.781 349.373 258.158 349.42 254.912V254.314C349.42 250.904 348.33 249.199 346.15 249.199C344.17 249.199 343.098 250.67 342.934 253.611L342.916 254.684ZM363.395 244.98L363.588 247.213C364.9 245.49 366.711 244.629 369.02 244.629C371 244.629 372.477 245.221 373.449 246.404C374.434 247.588 374.943 249.369 374.979 251.748V264H369.037V251.994C369.037 251.033 368.844 250.33 368.457 249.885C368.07 249.428 367.367 249.199 366.348 249.199C365.188 249.199 364.326 249.656 363.764 250.57V264H357.84V244.98H363.395ZM387.477 264.352C384.559 264.352 382.197 263.484 380.393 261.75C378.588 260.004 377.686 257.736 377.686 254.947V254.455C377.686 252.51 378.043 250.793 378.758 249.305C379.484 247.816 380.539 246.668 381.922 245.859C383.305 245.039 384.945 244.629 386.844 244.629C389.516 244.629 391.625 245.461 393.172 247.125C394.719 248.777 395.492 251.086 395.492 254.051V256.354H383.715C383.926 257.42 384.389 258.258 385.104 258.867C385.818 259.477 386.744 259.781 387.881 259.781C389.756 259.781 391.221 259.125 392.275 257.812L394.982 261.012C394.244 262.031 393.195 262.846 391.836 263.455C390.488 264.053 389.035 264.352 387.477 264.352ZM386.809 249.199C385.074 249.199 384.043 250.348 383.715 252.645H389.691V252.188C389.715 251.238 389.475 250.506 388.971 249.99C388.467 249.463 387.746 249.199 386.809 249.199ZM413.756 240.252V244.98H416.885V249.094H413.756V257.795C413.756 258.51 413.885 259.008 414.143 259.289C414.4 259.57 414.91 259.711 415.672 259.711C416.258 259.711 416.75 259.676 417.148 259.605V263.842C416.082 264.182 414.969 264.352 413.809 264.352C411.77 264.352 410.264 263.871 409.291 262.91C408.318 261.949 407.832 260.49 407.832 258.533V249.094H405.406V244.98H407.832V240.252H413.756ZM425.023 247.02C426.289 245.426 427.906 244.629 429.875 244.629C431.973 244.629 433.555 245.25 434.621 246.492C435.688 247.734 436.232 249.568 436.256 251.994V264H430.314V252.135C430.314 251.127 430.109 250.389 429.699 249.92C429.289 249.439 428.592 249.199 427.607 249.199C426.389 249.199 425.527 249.586 425.023 250.359V264H419.1V237H425.023V247.02ZM445.801 264H439.859V244.98H445.801V264ZM439.508 240.076C439.508 239.232 439.812 238.541 440.422 238.002C441.031 237.463 441.822 237.193 442.795 237.193C443.768 237.193 444.559 237.463 445.168 238.002C445.777 238.541 446.082 239.232 446.082 240.076C446.082 240.92 445.777 241.611 445.168 242.15C444.559 242.689 443.768 242.959 442.795 242.959C441.822 242.959 441.031 242.689 440.422 242.15C439.812 241.611 439.508 240.92 439.508 240.076ZM454.906 244.98L455.1 247.213C456.412 245.49 458.223 244.629 460.531 244.629C462.512 244.629 463.988 245.221 464.961 246.404C465.945 247.588 466.455 249.369 466.49 251.748V264H460.549V251.994C460.549 251.033 460.355 250.33 459.969 249.885C459.582 249.428 458.879 249.199 457.859 249.199C456.699 249.199 455.838 249.656 455.275 250.57V264H449.352V244.98H454.906ZM469.092 254.35C469.092 252.428 469.408 250.729 470.041 249.252C470.674 247.775 471.582 246.639 472.766 245.842C473.949 245.033 475.326 244.629 476.896 244.629C478.877 244.629 480.424 245.297 481.537 246.633L481.748 244.98H487.127V263.279C487.127 264.955 486.734 266.408 485.949 267.639C485.176 268.881 484.051 269.83 482.574 270.486C481.098 271.154 479.387 271.488 477.441 271.488C476.047 271.488 474.693 271.225 473.381 270.697C472.08 270.17 471.084 269.484 470.393 268.641L472.871 265.16C473.973 266.461 475.426 267.111 477.23 267.111C479.855 267.111 481.168 265.764 481.168 263.068V262.471C480.031 263.725 478.596 264.352 476.861 264.352C474.541 264.352 472.666 263.467 471.236 261.697C469.807 259.916 469.092 257.537 469.092 254.561V254.35ZM475.033 254.719C475.033 256.277 475.326 257.514 475.912 258.428C476.498 259.33 477.318 259.781 478.373 259.781C479.65 259.781 480.582 259.354 481.168 258.498V250.5C480.594 249.633 479.674 249.199 478.408 249.199C477.354 249.199 476.527 249.674 475.93 250.623C475.332 251.561 475.033 252.926 475.033 254.719ZM500.768 264V249.094H498.008V244.98H500.768V243.469C500.768 241.301 501.406 239.619 502.684 238.424C503.961 237.229 505.754 236.631 508.062 236.631C508.906 236.631 509.832 236.754 510.84 237L510.857 241.359C510.494 241.254 510.008 241.201 509.398 241.201C507.605 241.201 506.709 241.975 506.709 243.521V244.98H510.418V249.094H506.709V264H500.768ZM524.006 250.342L522.055 250.201C520.191 250.201 518.996 250.787 518.469 251.959V264H512.545V244.98H518.1L518.293 247.424C519.289 245.561 520.678 244.629 522.459 244.629C523.092 244.629 523.643 244.699 524.111 244.84L524.006 250.342ZM524.762 254.314C524.762 252.416 525.131 250.729 525.869 249.252C526.607 247.764 527.668 246.621 529.051 245.824C530.434 245.027 532.057 244.629 533.92 244.629C536.768 244.629 539.012 245.514 540.652 247.283C542.293 249.041 543.113 251.438 543.113 254.473V254.684C543.113 257.648 542.287 260.004 540.635 261.75C538.994 263.484 536.768 264.352 533.955 264.352C531.248 264.352 529.074 263.543 527.434 261.926C525.793 260.297 524.908 258.094 524.779 255.316L524.762 254.314ZM530.686 254.684C530.686 256.441 530.961 257.73 531.512 258.551C532.062 259.371 532.877 259.781 533.955 259.781C536.064 259.781 537.143 258.158 537.189 254.912V254.314C537.189 250.904 536.1 249.199 533.92 249.199C531.939 249.199 530.867 250.67 530.703 253.611L530.686 254.684ZM551.322 244.98L551.516 247.213C552.863 245.49 554.674 244.629 556.947 244.629C559.35 244.629 560.973 245.584 561.816 247.494C563.105 245.584 564.969 244.629 567.406 244.629C571.262 244.629 573.242 246.961 573.348 251.625V264H567.406V251.994C567.406 251.021 567.242 250.312 566.914 249.867C566.586 249.422 565.988 249.199 565.121 249.199C563.949 249.199 563.076 249.721 562.502 250.764L562.52 251.01V264H556.578V252.029C556.578 251.033 556.42 250.312 556.104 249.867C555.787 249.422 555.184 249.199 554.293 249.199C553.156 249.199 552.289 249.721 551.691 250.764V264H545.768V244.98H551.322ZM197.264 303.703L200.428 292.98H206.773L199.021 315.182L198.688 315.99C197.586 318.451 195.641 319.682 192.852 319.682C192.078 319.682 191.264 319.564 190.408 319.33V315.094H191.182C192.014 315.094 192.646 314.971 193.08 314.725C193.525 314.49 193.854 314.062 194.064 313.441L194.539 312.176L187.93 292.98H194.258L197.264 303.703ZM207.301 302.314C207.301 300.416 207.67 298.729 208.408 297.252C209.146 295.764 210.207 294.621 211.59 293.824C212.973 293.027 214.596 292.629 216.459 292.629C219.307 292.629 221.551 293.514 223.191 295.283C224.832 297.041 225.652 299.438 225.652 302.473V302.684C225.652 305.648 224.826 308.004 223.174 309.75C221.533 311.484 219.307 312.352 216.494 312.352C213.787 312.352 211.613 311.543 209.973 309.926C208.332 308.297 207.447 306.094 207.318 303.316L207.301 302.314ZM213.225 302.684C213.225 304.441 213.5 305.73 214.051 306.551C214.602 307.371 215.416 307.781 216.494 307.781C218.604 307.781 219.682 306.158 219.729 302.912V302.314C219.729 298.904 218.639 297.199 216.459 297.199C214.479 297.199 213.406 298.67 213.242 301.611L213.225 302.684ZM239.592 309.943C238.338 311.549 236.645 312.352 234.512 312.352C232.426 312.352 230.844 311.748 229.766 310.541C228.699 309.322 228.166 307.576 228.166 305.303V292.98H234.09V305.338C234.09 306.967 234.881 307.781 236.463 307.781C237.822 307.781 238.789 307.295 239.363 306.322V292.98H245.322V312H239.768L239.592 309.943ZM252.248 306.252C253.186 306.252 253.965 306.533 254.586 307.096C255.207 307.646 255.518 308.355 255.518 309.223C255.518 310.09 255.207 310.805 254.586 311.367C253.965 311.918 253.186 312.193 252.248 312.193C251.299 312.193 250.514 311.912 249.893 311.35C249.283 310.787 248.979 310.078 248.979 309.223C248.979 308.367 249.283 307.658 249.893 307.096C250.514 306.533 251.299 306.252 252.248 306.252ZM263.146 306.252C264.084 306.252 264.863 306.533 265.484 307.096C266.105 307.646 266.416 308.355 266.416 309.223C266.416 310.09 266.105 310.805 265.484 311.367C264.863 311.918 264.084 312.193 263.146 312.193C262.197 312.193 261.412 311.912 260.791 311.35C260.182 310.787 259.877 310.078 259.877 309.223C259.877 308.367 260.182 307.658 260.791 307.096C261.412 306.533 262.197 306.252 263.146 306.252ZM274.045 306.252C274.982 306.252 275.762 306.533 276.383 307.096C277.004 307.646 277.314 308.355 277.314 309.223C277.314 310.09 277.004 310.805 276.383 311.367C275.762 311.918 274.982 312.193 274.045 312.193C273.096 312.193 272.311 311.912 271.689 311.35C271.08 310.787 270.775 310.078 270.775 309.223C270.775 308.367 271.08 307.658 271.689 307.096C272.311 306.533 273.096 306.252 274.045 306.252Z" fill="white"/>
<path d="M195.184 351.504L199.637 342.938H202.191L196.309 353.637V360H194.059V353.637L188.176 342.938H190.754L195.184 351.504ZM202.707 353.543C202.707 352.301 202.949 351.184 203.434 350.191C203.926 349.199 204.605 348.434 205.473 347.895C206.348 347.355 207.344 347.086 208.461 347.086C210.188 347.086 211.582 347.684 212.645 348.879C213.715 350.074 214.25 351.664 214.25 353.648V353.801C214.25 355.035 214.012 356.145 213.535 357.129C213.066 358.105 212.391 358.867 211.508 359.414C210.633 359.961 209.625 360.234 208.484 360.234C206.766 360.234 205.371 359.637 204.301 358.441C203.238 357.246 202.707 355.664 202.707 353.695V353.543ZM204.887 353.801C204.887 355.207 205.211 356.336 205.859 357.188C206.516 358.039 207.391 358.465 208.484 358.465C209.586 358.465 210.461 358.035 211.109 357.176C211.758 356.309 212.082 355.098 212.082 353.543C212.082 352.152 211.75 351.027 211.086 350.168C210.43 349.301 209.555 348.867 208.461 348.867C207.391 348.867 206.527 349.293 205.871 350.145C205.215 350.996 204.887 352.215 204.887 353.801ZM224.797 358.746C223.953 359.738 222.715 360.234 221.082 360.234C219.73 360.234 218.699 359.844 217.988 359.062C217.285 358.273 216.93 357.109 216.922 355.57V347.32H219.09V355.512C219.09 357.434 219.871 358.395 221.434 358.395C223.09 358.395 224.191 357.777 224.738 356.543V347.32H226.906V360H224.844L224.797 358.746ZM246.875 353.801C246.875 355.73 246.434 357.285 245.551 358.465C244.668 359.645 243.473 360.234 241.965 360.234C240.426 360.234 239.215 359.746 238.332 358.77V364.875H236.164V347.32H238.145L238.25 348.727C239.133 347.633 240.359 347.086 241.93 347.086C243.453 347.086 244.656 347.66 245.539 348.809C246.43 349.957 246.875 351.555 246.875 353.602V353.801ZM244.707 353.555C244.707 352.125 244.402 350.996 243.793 350.168C243.184 349.34 242.348 348.926 241.285 348.926C239.973 348.926 238.988 349.508 238.332 350.672V356.73C238.98 357.887 239.973 358.465 241.309 358.465C242.348 358.465 243.172 358.055 243.781 357.234C244.398 356.406 244.707 355.18 244.707 353.555ZM257.469 360C257.344 359.75 257.242 359.305 257.164 358.664C256.156 359.711 254.953 360.234 253.555 360.234C252.305 360.234 251.277 359.883 250.473 359.18C249.676 358.469 249.277 357.57 249.277 356.484C249.277 355.164 249.777 354.141 250.777 353.414C251.785 352.68 253.199 352.312 255.02 352.312H257.129V351.316C257.129 350.559 256.902 349.957 256.449 349.512C255.996 349.059 255.328 348.832 254.445 348.832C253.672 348.832 253.023 349.027 252.5 349.418C251.977 349.809 251.715 350.281 251.715 350.836H249.535C249.535 350.203 249.758 349.594 250.203 349.008C250.656 348.414 251.266 347.945 252.031 347.602C252.805 347.258 253.652 347.086 254.574 347.086C256.035 347.086 257.18 347.453 258.008 348.188C258.836 348.914 259.266 349.918 259.297 351.199V357.035C259.297 358.199 259.445 359.125 259.742 359.812V360H257.469ZM253.871 358.348C254.551 358.348 255.195 358.172 255.805 357.82C256.414 357.469 256.855 357.012 257.129 356.449V353.848H255.43C252.773 353.848 251.445 354.625 251.445 356.18C251.445 356.859 251.672 357.391 252.125 357.773C252.578 358.156 253.16 358.348 253.871 358.348ZM266.656 356.824L269.609 347.32H271.93L266.832 361.957C266.043 364.066 264.789 365.121 263.07 365.121L262.66 365.086L261.852 364.934V363.176L262.438 363.223C263.172 363.223 263.742 363.074 264.148 362.777C264.562 362.48 264.902 361.938 265.168 361.148L265.648 359.859L261.125 347.32H263.492L266.656 356.824ZM290.785 360H279.605V358.441L285.512 351.879C286.387 350.887 286.988 350.082 287.316 349.465C287.652 348.84 287.82 348.195 287.82 347.531C287.82 346.641 287.551 345.91 287.012 345.34C286.473 344.77 285.754 344.484 284.855 344.484C283.777 344.484 282.938 344.793 282.336 345.41C281.742 346.02 281.445 346.871 281.445 347.965H279.277C279.277 346.395 279.781 345.125 280.789 344.156C281.805 343.188 283.16 342.703 284.855 342.703C286.441 342.703 287.695 343.121 288.617 343.957C289.539 344.785 290 345.891 290 347.273C290 348.953 288.93 350.953 286.789 353.273L282.219 358.23H290.785V360ZM294.078 351.445L294.945 342.938H303.688V344.941H296.785L296.27 349.594C297.105 349.102 298.055 348.855 299.117 348.855C300.672 348.855 301.906 349.371 302.82 350.402C303.734 351.426 304.191 352.812 304.191 354.562C304.191 356.32 303.715 357.707 302.762 358.723C301.816 359.73 300.492 360.234 298.789 360.234C297.281 360.234 296.051 359.816 295.098 358.98C294.145 358.145 293.602 356.988 293.469 355.512H295.52C295.652 356.488 296 357.227 296.562 357.727C297.125 358.219 297.867 358.465 298.789 358.465C299.797 358.465 300.586 358.121 301.156 357.434C301.734 356.746 302.023 355.797 302.023 354.586C302.023 353.445 301.711 352.531 301.086 351.844C300.469 351.148 299.645 350.801 298.613 350.801C297.668 350.801 296.926 351.008 296.387 351.422L295.812 351.891L294.078 351.445ZM306.371 346.219C306.371 345.195 306.695 344.352 307.344 343.688C308 343.023 308.84 342.691 309.863 342.691C310.902 342.691 311.742 343.027 312.383 343.699C313.031 344.363 313.355 345.227 313.355 346.289V347.121C313.355 348.152 313.027 348.996 312.371 349.652C311.723 350.301 310.895 350.625 309.887 350.625C308.871 350.625 308.031 350.301 307.367 349.652C306.703 348.996 306.371 348.125 306.371 347.039V346.219ZM307.988 347.121C307.988 347.73 308.16 348.234 308.504 348.633C308.848 349.023 309.309 349.219 309.887 349.219C310.441 349.219 310.887 349.027 311.223 348.645C311.566 348.262 311.738 347.738 311.738 347.074V346.219C311.738 345.609 311.57 345.105 311.234 344.707C310.898 344.309 310.441 344.109 309.863 344.109C309.285 344.109 308.828 344.309 308.492 344.707C308.156 345.105 307.988 345.625 307.988 346.266V347.121ZM314.68 355.816C314.68 354.793 315.004 353.953 315.652 353.297C316.309 352.633 317.148 352.301 318.172 352.301C319.195 352.301 320.035 352.629 320.691 353.285C321.348 353.941 321.676 354.812 321.676 355.898V356.73C321.676 357.754 321.348 358.598 320.691 359.262C320.043 359.918 319.211 360.246 318.195 360.246C317.18 360.246 316.34 359.922 315.676 359.273C315.012 358.617 314.68 357.746 314.68 356.66V355.816ZM316.297 356.73C316.297 357.348 316.469 357.855 316.812 358.254C317.156 358.645 317.617 358.84 318.195 358.84C318.758 358.84 319.207 358.648 319.543 358.266C319.879 357.875 320.047 357.348 320.047 356.684V355.816C320.047 355.199 319.875 354.695 319.531 354.305C319.195 353.914 318.742 353.719 318.172 353.719C317.617 353.719 317.164 353.914 316.812 354.305C316.469 354.688 316.297 355.207 316.297 355.863V356.73ZM310.379 358.711L309.148 357.938L317.48 344.602L318.711 345.375L310.379 358.711ZM329.738 353.543C329.738 352.301 329.98 351.184 330.465 350.191C330.957 349.199 331.637 348.434 332.504 347.895C333.379 347.355 334.375 347.086 335.492 347.086C337.219 347.086 338.613 347.684 339.676 348.879C340.746 350.074 341.281 351.664 341.281 353.648V353.801C341.281 355.035 341.043 356.145 340.566 357.129C340.098 358.105 339.422 358.867 338.539 359.414C337.664 359.961 336.656 360.234 335.516 360.234C333.797 360.234 332.402 359.637 331.332 358.441C330.27 357.246 329.738 355.664 329.738 353.695V353.543ZM331.918 353.801C331.918 355.207 332.242 356.336 332.891 357.188C333.547 358.039 334.422 358.465 335.516 358.465C336.617 358.465 337.492 358.035 338.141 357.176C338.789 356.309 339.113 355.098 339.113 353.543C339.113 352.152 338.781 351.027 338.117 350.168C337.461 349.301 336.586 348.867 335.492 348.867C334.422 348.867 333.559 349.293 332.902 350.145C332.246 350.996 331.918 352.215 331.918 353.801ZM345.066 360V348.996H343.062V347.32H345.066V346.02C345.066 344.66 345.43 343.609 346.156 342.867C346.883 342.125 347.91 341.754 349.238 341.754C349.738 341.754 350.234 341.82 350.727 341.953L350.609 343.711C350.242 343.641 349.852 343.605 349.438 343.605C348.734 343.605 348.191 343.812 347.809 344.227C347.426 344.633 347.234 345.219 347.234 345.984V347.32H349.941V348.996H347.234V360H345.066ZM361.238 344.25V347.32H363.605V348.996H361.238V356.859C361.238 357.367 361.344 357.75 361.555 358.008C361.766 358.258 362.125 358.383 362.633 358.383C362.883 358.383 363.227 358.336 363.664 358.242V360C363.094 360.156 362.539 360.234 362 360.234C361.031 360.234 360.301 359.941 359.809 359.355C359.316 358.77 359.07 357.938 359.07 356.859V348.996H356.762V347.32H359.07V344.25H361.238ZM368.316 348.855C369.277 347.676 370.527 347.086 372.066 347.086C374.746 347.086 376.098 348.598 376.121 351.621V360H373.953V351.609C373.945 350.695 373.734 350.02 373.32 349.582C372.914 349.145 372.277 348.926 371.41 348.926C370.707 348.926 370.09 349.113 369.559 349.488C369.027 349.863 368.613 350.355 368.316 350.965V360H366.148V342H368.316V348.855ZM384.629 360.234C382.91 360.234 381.512 359.672 380.434 358.547C379.355 357.414 378.816 355.902 378.816 354.012V353.613C378.816 352.355 379.055 351.234 379.531 350.25C380.016 349.258 380.688 348.484 381.547 347.93C382.414 347.367 383.352 347.086 384.359 347.086C386.008 347.086 387.289 347.629 388.203 348.715C389.117 349.801 389.574 351.355 389.574 353.379V354.281H380.984C381.016 355.531 381.379 356.543 382.074 357.316C382.777 358.082 383.668 358.465 384.746 358.465C385.512 358.465 386.16 358.309 386.691 357.996C387.223 357.684 387.688 357.27 388.086 356.754L389.41 357.785C388.348 359.418 386.754 360.234 384.629 360.234ZM384.359 348.867C383.484 348.867 382.75 349.188 382.156 349.828C381.562 350.461 381.195 351.352 381.055 352.5H387.406V352.336C387.344 351.234 387.047 350.383 386.516 349.781C385.984 349.172 385.266 348.867 384.359 348.867ZM400.988 344.25V347.32H403.355V348.996H400.988V356.859C400.988 357.367 401.094 357.75 401.305 358.008C401.516 358.258 401.875 358.383 402.383 358.383C402.633 358.383 402.977 358.336 403.414 358.242V360C402.844 360.156 402.289 360.234 401.75 360.234C400.781 360.234 400.051 359.941 399.559 359.355C399.066 358.77 398.82 357.938 398.82 356.859V348.996H396.512V347.32H398.82V344.25H400.988ZM405.09 353.543C405.09 352.301 405.332 351.184 405.816 350.191C406.309 349.199 406.988 348.434 407.855 347.895C408.73 347.355 409.727 347.086 410.844 347.086C412.57 347.086 413.965 347.684 415.027 348.879C416.098 350.074 416.633 351.664 416.633 353.648V353.801C416.633 355.035 416.395 356.145 415.918 357.129C415.449 358.105 414.773 358.867 413.891 359.414C413.016 359.961 412.008 360.234 410.867 360.234C409.148 360.234 407.754 359.637 406.684 358.441C405.621 357.246 405.09 355.664 405.09 353.695V353.543ZM407.27 353.801C407.27 355.207 407.594 356.336 408.242 357.188C408.898 358.039 409.773 358.465 410.867 358.465C411.969 358.465 412.844 358.035 413.492 357.176C414.141 356.309 414.465 355.098 414.465 353.543C414.465 352.152 414.133 351.027 413.469 350.168C412.812 349.301 411.938 348.867 410.844 348.867C409.773 348.867 408.91 349.293 408.254 350.145C407.598 350.996 407.27 352.215 407.27 353.801ZM422.293 344.25V347.32H424.66V348.996H422.293V356.859C422.293 357.367 422.398 357.75 422.609 358.008C422.82 358.258 423.18 358.383 423.688 358.383C423.938 358.383 424.281 358.336 424.719 358.242V360C424.148 360.156 423.594 360.234 423.055 360.234C422.086 360.234 421.355 359.941 420.863 359.355C420.371 358.77 420.125 357.938 420.125 356.859V348.996H417.816V347.32H420.125V344.25H422.293ZM435.031 360C434.906 359.75 434.805 359.305 434.727 358.664C433.719 359.711 432.516 360.234 431.117 360.234C429.867 360.234 428.84 359.883 428.035 359.18C427.238 358.469 426.84 357.57 426.84 356.484C426.84 355.164 427.34 354.141 428.34 353.414C429.348 352.68 430.762 352.312 432.582 352.312H434.691V351.316C434.691 350.559 434.465 349.957 434.012 349.512C433.559 349.059 432.891 348.832 432.008 348.832C431.234 348.832 430.586 349.027 430.062 349.418C429.539 349.809 429.277 350.281 429.277 350.836H427.098C427.098 350.203 427.32 349.594 427.766 349.008C428.219 348.414 428.828 347.945 429.594 347.602C430.367 347.258 431.215 347.086 432.137 347.086C433.598 347.086 434.742 347.453 435.57 348.188C436.398 348.914 436.828 349.918 436.859 351.199V357.035C436.859 358.199 437.008 359.125 437.305 359.812V360H435.031ZM431.434 358.348C432.113 358.348 432.758 358.172 433.367 357.82C433.977 357.469 434.418 357.012 434.691 356.449V353.848H432.992C430.336 353.848 429.008 354.625 429.008 356.18C429.008 356.859 429.234 357.391 429.688 357.773C430.141 358.156 430.723 358.348 431.434 358.348ZM442.613 360H440.445V342H442.613V360ZM457.133 358.465C457.906 358.465 458.582 358.23 459.16 357.762C459.738 357.293 460.059 356.707 460.121 356.004H462.172C462.133 356.73 461.883 357.422 461.422 358.078C460.961 358.734 460.344 359.258 459.57 359.648C458.805 360.039 457.992 360.234 457.133 360.234C455.406 360.234 454.031 359.66 453.008 358.512C451.992 357.355 451.484 355.777 451.484 353.777V353.414C451.484 352.18 451.711 351.082 452.164 350.121C452.617 349.16 453.266 348.414 454.109 347.883C454.961 347.352 455.965 347.086 457.121 347.086C458.543 347.086 459.723 347.512 460.66 348.363C461.605 349.215 462.109 350.32 462.172 351.68H460.121C460.059 350.859 459.746 350.188 459.184 349.664C458.629 349.133 457.941 348.867 457.121 348.867C456.02 348.867 455.164 349.266 454.555 350.062C453.953 350.852 453.652 351.996 453.652 353.496V353.906C453.652 355.367 453.953 356.492 454.555 357.281C455.156 358.07 456.016 358.465 457.133 358.465ZM464.035 353.543C464.035 352.301 464.277 351.184 464.762 350.191C465.254 349.199 465.934 348.434 466.801 347.895C467.676 347.355 468.672 347.086 469.789 347.086C471.516 347.086 472.91 347.684 473.973 348.879C475.043 350.074 475.578 351.664 475.578 353.648V353.801C475.578 355.035 475.34 356.145 474.863 357.129C474.395 358.105 473.719 358.867 472.836 359.414C471.961 359.961 470.953 360.234 469.812 360.234C468.094 360.234 466.699 359.637 465.629 358.441C464.566 357.246 464.035 355.664 464.035 353.695V353.543ZM466.215 353.801C466.215 355.207 466.539 356.336 467.188 357.188C467.844 358.039 468.719 358.465 469.812 358.465C470.914 358.465 471.789 358.035 472.438 357.176C473.086 356.309 473.41 355.098 473.41 353.543C473.41 352.152 473.078 351.027 472.414 350.168C471.758 349.301 470.883 348.867 469.789 348.867C468.719 348.867 467.855 349.293 467.199 350.145C466.543 350.996 466.215 352.215 466.215 353.801ZM485.68 356.637C485.68 356.051 485.457 355.598 485.012 355.277C484.574 354.949 483.805 354.668 482.703 354.434C481.609 354.199 480.738 353.918 480.09 353.59C479.449 353.262 478.973 352.871 478.66 352.418C478.355 351.965 478.203 351.426 478.203 350.801C478.203 349.762 478.641 348.883 479.516 348.164C480.398 347.445 481.523 347.086 482.891 347.086C484.328 347.086 485.492 347.457 486.383 348.199C487.281 348.941 487.73 349.891 487.73 351.047H485.551C485.551 350.453 485.297 349.941 484.789 349.512C484.289 349.082 483.656 348.867 482.891 348.867C482.102 348.867 481.484 349.039 481.039 349.383C480.594 349.727 480.371 350.176 480.371 350.73C480.371 351.254 480.578 351.648 480.992 351.914C481.406 352.18 482.152 352.434 483.23 352.676C484.316 352.918 485.195 353.207 485.867 353.543C486.539 353.879 487.035 354.285 487.355 354.762C487.684 355.23 487.848 355.805 487.848 356.484C487.848 357.617 487.395 358.527 486.488 359.215C485.582 359.895 484.406 360.234 482.961 360.234C481.945 360.234 481.047 360.055 480.266 359.695C479.484 359.336 478.871 358.836 478.426 358.195C477.988 357.547 477.77 356.848 477.77 356.098H479.938C479.977 356.824 480.266 357.402 480.805 357.832C481.352 358.254 482.07 358.465 482.961 358.465C483.781 358.465 484.438 358.301 484.93 357.973C485.43 357.637 485.68 357.191 485.68 356.637ZM493.613 344.25V347.32H495.98V348.996H493.613V356.859C493.613 357.367 493.719 357.75 493.93 358.008C494.141 358.258 494.5 358.383 495.008 358.383C495.258 358.383 495.602 358.336 496.039 358.242V360C495.469 360.156 494.914 360.234 494.375 360.234C493.406 360.234 492.676 359.941 492.184 359.355C491.691 358.77 491.445 357.938 491.445 356.859V348.996H489.137V347.32H491.445V344.25H493.613ZM512.305 358.746C511.461 359.738 510.223 360.234 508.59 360.234C507.238 360.234 506.207 359.844 505.496 359.062C504.793 358.273 504.438 357.109 504.43 355.57V347.32H506.598V355.512C506.598 357.434 507.379 358.395 508.941 358.395C510.598 358.395 511.699 357.777 512.246 356.543V347.32H514.414V360H512.352L512.305 358.746ZM528.43 353.801C528.43 355.73 527.988 357.285 527.105 358.465C526.223 359.645 525.027 360.234 523.52 360.234C521.98 360.234 520.77 359.746 519.887 358.77V364.875H517.719V347.32H519.699L519.805 348.727C520.688 347.633 521.914 347.086 523.484 347.086C525.008 347.086 526.211 347.66 527.094 348.809C527.984 349.957 528.43 351.555 528.43 353.602V353.801ZM526.262 353.555C526.262 352.125 525.957 350.996 525.348 350.168C524.738 349.34 523.902 348.926 522.84 348.926C521.527 348.926 520.543 349.508 519.887 350.672V356.73C520.535 357.887 521.527 358.465 522.863 358.465C523.902 358.465 524.727 358.055 525.336 357.234C525.953 356.406 526.262 355.18 526.262 353.555ZM532.262 360V348.996H530.258V347.32H532.262V346.02C532.262 344.66 532.625 343.609 533.352 342.867C534.078 342.125 535.105 341.754 536.434 341.754C536.934 341.754 537.43 341.82 537.922 341.953L537.805 343.711C537.438 343.641 537.047 343.605 536.633 343.605C535.93 343.605 535.387 343.812 535.004 344.227C534.621 344.633 534.43 345.219 534.43 345.984V347.32H537.137V348.996H534.43V360H532.262ZM545.668 349.266C545.34 349.211 544.984 349.184 544.602 349.184C543.18 349.184 542.215 349.789 541.707 351V360H539.539V347.32H541.648L541.684 348.785C542.395 347.652 543.402 347.086 544.707 347.086C545.129 347.086 545.449 347.141 545.668 347.25V349.266ZM546.863 353.543C546.863 352.301 547.105 351.184 547.59 350.191C548.082 349.199 548.762 348.434 549.629 347.895C550.504 347.355 551.5 347.086 552.617 347.086C554.344 347.086 555.738 347.684 556.801 348.879C557.871 350.074 558.406 351.664 558.406 353.648V353.801C558.406 355.035 558.168 356.145 557.691 357.129C557.223 358.105 556.547 358.867 555.664 359.414C554.789 359.961 553.781 360.234 552.641 360.234C550.922 360.234 549.527 359.637 548.457 358.441C547.395 357.246 546.863 355.664 546.863 353.695V353.543ZM549.043 353.801C549.043 355.207 549.367 356.336 550.016 357.188C550.672 358.039 551.547 358.465 552.641 358.465C553.742 358.465 554.617 358.035 555.266 357.176C555.914 356.309 556.238 355.098 556.238 353.543C556.238 352.152 555.906 351.027 555.242 350.168C554.586 349.301 553.711 348.867 552.617 348.867C551.547 348.867 550.684 349.293 550.027 350.145C549.371 350.996 549.043 352.215 549.043 353.801ZM563.176 347.32L563.246 348.914C564.215 347.695 565.48 347.086 567.043 347.086C569.723 347.086 571.074 348.598 571.098 351.621V360H568.93V351.609C568.922 350.695 568.711 350.02 568.297 349.582C567.891 349.145 567.254 348.926 566.387 348.926C565.684 348.926 565.066 349.113 564.535 349.488C564.004 349.863 563.59 350.355 563.293 350.965V360H561.125V347.32H563.176ZM577.309 344.25V347.32H579.676V348.996H577.309V356.859C577.309 357.367 577.414 357.75 577.625 358.008C577.836 358.258 578.195 358.383 578.703 358.383C578.953 358.383 579.297 358.336 579.734 358.242V360C579.164 360.156 578.609 360.234 578.07 360.234C577.102 360.234 576.371 359.941 575.879 359.355C575.387 358.77 575.141 357.938 575.141 356.859V348.996H572.832V347.32H575.141V344.25H577.309Z" fill="#F5F5F5"/>
<defs>
<linearGradient id="paint0_linear_547:7988" x1="432.5" y1="0" x2="432.5" y2="822" gradientUnits="userSpaceOnUse">
<stop offset="0.0001" stop-color="#A9B86F"/>
<stop offset="1" stop-color="#FFB0C3"/>
</linearGradient>
<linearGradient id="paint1_linear_547:7988" x1="492.974" y1="603.582" x2="492.974" y2="553.518" gradientUnits="userSpaceOnUse">
<stop stop-color="#808080" stop-opacity="0.25"/>
<stop offset="0.54" stop-color="#808080" stop-opacity="0.12"/>
<stop offset="1" stop-color="#808080" stop-opacity="0.1"/>
</linearGradient>
</defs>
</svg>
