<svg width="865" height="822" viewBox="0 0 865 822" fill="none" xmlns="http://www.w3.org/2000/svg">
<path d="M0 267.5C0 494.489 337.362 822 473.5 822C609.638 822 865 643.989 865 417C865 190.011 609.638 0 473.5 0C337.362 0 0 40.511 0 267.5Z" fill="url(#paint0_linear_547:7990)"/>
<path d="M500 670C576.768 670 639 665.747 639 660.5C639 655.253 576.768 651 500 651C423.232 651 361 655.253 361 660.5C361 665.747 423.232 670 500 670Z" fill="#3F3D56"/>
<path d="M505.822 652.104L448.776 664.275L447.479 664.14L397.348 658.866V592.599L458.715 581.78L503.229 587.19L503.241 587.483L503.246 587.627L505.822 652.104Z" fill="#00BFA6"/>
<path opacity="0.1" d="M505.819 652.103L448.773 664.275L447.477 664.14V596.205L503.239 587.482L505.819 652.103Z" fill="black"/>
<path opacity="0.05" d="M503.246 587.627L503.229 587.641L447.479 596.206L397.348 592.599L458.715 581.78L503.229 587.19L503.241 587.483L503.246 587.627Z" fill="black"/>
<path d="M568.486 654.808L511.44 666.979L510.143 666.844L460.012 661.57V595.303L521.379 584.484L565.893 589.894L565.906 590.187L565.91 590.331L568.486 654.808Z" fill="#3F3D56"/>
<path opacity="0.1" d="M568.485 654.809L511.439 666.98L510.143 666.845V598.91L565.905 590.188L568.485 654.809Z" fill="black"/>
<path opacity="0.05" d="M565.91 590.331L565.893 590.345L510.143 598.91L460.012 595.303L521.379 584.484L565.893 589.894L565.906 590.187L565.91 590.331Z" fill="black"/>
<path d="M529.157 589.894L472.111 602.065L470.815 601.93L420.684 596.656V530.389L482.051 519.57L526.564 524.98L526.577 525.273L526.582 525.417L529.157 589.894Z" fill="#3F3D56"/>
<path opacity="0.1" d="M529.159 589.894L472.113 602.066L470.816 601.931V533.996L526.579 525.273L529.159 589.894Z" fill="black"/>
<path opacity="0.05" d="M526.582 525.417L526.564 525.431L470.815 533.996L420.684 530.389L482.051 519.57L526.564 524.98L526.577 525.273L526.582 525.417Z" fill="black"/>
<path d="M561.571 592.671L531.799 599.027L531.12 598.955L504.957 596.201V561.616L536.985 555.968L560.218 558.794L560.227 558.948V559.02L561.571 592.671Z" fill="#3F3D56"/>
<path opacity="0.1" d="M561.57 592.671L531.798 599.027L531.119 598.955V563.5L560.226 558.947L561.57 592.671Z" fill="black"/>
<path opacity="0.05" d="M560.227 559.02L560.218 559.029L531.12 563.501L504.957 561.616L536.985 555.968L560.218 558.794L560.227 558.948V559.02Z" fill="black"/>
<path d="M481.62 525.503L451.848 531.855L451.169 531.787L425.006 529.033V494.448L457.034 488.8L480.267 491.626L480.276 491.78V491.852L481.62 525.503Z" fill="#3F3D56"/>
<path opacity="0.1" d="M481.618 525.503L451.846 531.855L451.168 531.787V496.332L480.274 491.779L481.618 525.503Z" fill="black"/>
<path opacity="0.05" d="M480.276 491.852L480.267 491.861L451.169 496.333L425.006 494.448L457.034 488.8L480.267 491.626L480.276 491.78V491.852Z" fill="black"/>
<path d="M533.913 524.151L504.141 530.502L503.462 530.435L477.299 527.68V493.096L509.327 487.447L532.56 490.274L532.569 490.427V490.499L533.913 524.151Z" fill="#00BFA6"/>
<path opacity="0.1" d="M533.911 524.151L504.139 530.502L503.461 530.435V494.98L532.567 490.427L533.911 524.151Z" fill="black"/>
<path opacity="0.05" d="M532.569 490.499L532.56 490.508L503.462 494.98L477.299 493.096L509.327 487.447L532.56 490.274L532.569 490.427V490.499Z" fill="black"/>
<path d="M549.471 489.44L519.699 495.791L519.021 495.724L492.857 492.97V458.385L524.885 452.736L548.119 455.563L548.127 455.716V455.788L549.471 489.44Z" fill="#3F3D56"/>
<path opacity="0.1" d="M549.468 489.44L519.696 495.791L519.018 495.724V460.269L548.124 455.716L549.468 489.44Z" fill="black"/>
<path opacity="0.05" d="M548.127 455.788L548.119 455.797L519.021 460.269L492.857 458.385L524.885 452.736L548.119 455.563L548.127 455.716V455.788Z" fill="black"/>
<path d="M569.744 418.738C569.429 421.668 567.285 424.03 566.49 426.852C565.297 431.112 567.354 435.688 570.189 439.023C572.474 441.674 575.24 443.825 578.328 445.353C581.415 446.88 584.763 447.754 588.176 447.922C589.179 448.012 590.189 447.897 591.149 447.584C592.005 447.221 592.776 446.67 593.41 445.97C595.536 443.739 596.681 440.651 597.135 437.536C597.589 434.421 597.416 431.252 597.239 428.11C597.238 427.459 597.124 426.815 596.902 426.207C596.612 425.63 596.214 425.119 595.73 424.706C594.198 423.237 592.508 421.956 590.696 420.888C589.918 420.437 589.084 419.986 588.587 419.207C588.246 418.586 588.024 417.901 587.934 417.192L587.377 414.234C587.278 413.382 586.999 412.563 586.56 411.836C585.579 410.457 583.699 410.267 582.052 410.2L576.002 409.952C574.122 409.875 571.65 409.312 569.813 409.699C568.085 410.055 568.668 411.705 568.979 413.202C569.429 415.012 569.686 416.869 569.744 418.738V418.738Z" fill="#FFC0C6"/>
<path opacity="0.1" d="M569.744 418.738C569.429 421.668 567.285 424.03 566.49 426.852C565.297 431.112 567.354 435.688 570.189 439.023C572.474 441.674 575.24 443.825 578.328 445.353C581.415 446.88 584.763 447.754 588.176 447.922C589.179 448.012 590.189 447.897 591.149 447.584C592.005 447.221 592.776 446.67 593.41 445.97C595.536 443.739 596.681 440.651 597.135 437.536C597.589 434.421 597.416 431.252 597.239 428.11C597.238 427.459 597.124 426.815 596.902 426.207C596.612 425.63 596.214 425.119 595.73 424.706C594.198 423.237 592.508 421.956 590.696 420.888C589.918 420.437 589.084 419.986 588.587 419.207C588.246 418.586 588.024 417.901 587.934 417.192L587.377 414.234C587.278 413.382 586.999 412.563 586.56 411.836C585.579 410.457 583.699 410.267 582.052 410.2L576.002 409.952C574.122 409.875 571.65 409.312 569.813 409.699C568.085 410.055 568.668 411.705 568.979 413.202C569.429 415.012 569.686 416.869 569.744 418.738V418.738Z" fill="black"/>
<path d="M608.169 550.712L605.602 580.068C604.932 587.767 604.249 595.498 602.936 603.099C602.503 605.718 601.95 608.323 601.319 610.906C599.565 618.078 597.019 625.088 596.198 632.441C596.172 632.652 596.151 632.891 596.129 633.085C595.96 634.708 595.814 636.349 595.265 637.864C594.832 638.986 594.223 640.009 593.778 641.118C592.914 643.336 592.775 645.789 592.667 648.191C589.552 646.357 586.14 645.134 582.602 644.585C580.873 644.319 578.994 644.134 577.848 642.782C576.552 641.312 576.703 639.063 576.919 637.088C577.599 630.957 578.276 624.83 578.95 618.705C579.175 616.069 579.609 613.458 580.247 610.897C580.48 610.045 580.761 609.207 581.046 608.368C581.44 607.214 581.837 606.06 582.135 604.875C582.549 602.97 582.835 601.037 582.991 599.091C583.687 592.924 584.525 586.771 585.26 580.609L585.299 580.284C586.401 570.944 587.239 561.558 586.997 552.15C586.963 550.757 586.907 549.364 586.82 547.967C586.699 545.943 586.522 544.87 588.117 543.603C589.893 542.206 592.231 541.227 594.262 540.312C595.355 539.816 607.396 535.353 607.659 536.336C608.218 538.424 608.509 540.579 608.524 542.746C608.548 545.406 608.43 548.066 608.169 550.712V550.712Z" fill="#605D82"/>
<path opacity="0.1" d="M602.938 603.098C602.506 605.717 601.953 608.322 601.322 610.906C599.567 618.078 597.022 625.087 596.201 632.44C596.175 632.652 596.153 632.891 596.132 633.084C590.764 625.087 586.244 616.486 581.006 608.404C581.399 607.25 581.797 606.096 582.095 604.91C582.525 602.994 582.825 601.05 582.994 599.09C583.69 592.923 584.528 586.77 585.263 580.608L585.302 580.283C585.605 581.591 586.039 582.862 586.598 584.074C590.116 591.53 598.474 595.299 602.562 602.435C602.698 602.658 602.823 602.878 602.938 603.098Z" fill="black"/>
<path d="M559.381 537.544C559.559 543.521 560.475 549.449 561.391 555.355L563.28 567.526C564.312 574.198 565.393 581 568.418 586.973C570.683 591.445 573.941 595.259 576.893 599.266C584.145 609.121 589.594 620.287 596.47 630.43C598.471 633.378 601.328 636.569 604.737 635.952C606.976 635.551 608.601 633.603 610.355 632.107C612.43 630.34 614.928 629.046 616.561 626.828C618.195 624.61 618.515 620.931 616.302 619.354C615.546 618.817 614.625 618.614 613.77 618.272C610.342 616.919 608.121 613.421 606.712 609.887C605.303 606.353 604.443 602.562 602.563 599.275C598.475 592.139 590.113 588.371 586.595 580.91C584.624 576.736 584.434 571.894 584.287 567.265L583.903 555.404C583.859 554.106 583.829 552.758 584.335 551.573C585.679 548.417 589.741 548.12 593.034 547.718C596.769 547.263 600.387 546.073 603.696 544.211C605.593 543.143 607.443 541.781 608.45 539.798C609.374 537.995 609.5 535.871 609.608 533.825L610.749 512.327C610.848 510.478 610.935 508.563 610.317 506.831C608.748 502.477 603.475 501.052 599.02 501.26C590.731 501.647 583.081 505.366 575.251 507.882C573.31 508.504 571.361 509.063 569.36 509.482C567.631 509.847 565.471 509.699 563.811 510.285C560.838 511.33 560.911 518.119 560.492 520.932C559.627 526.421 559.255 531.983 559.381 537.544V537.544Z" fill="#605D82"/>
<path d="M603.615 636.863C604.346 637.633 604.583 638.76 604.774 639.824C605.83 645.729 606.379 651.719 606.416 657.725C606.368 658.286 606.475 658.848 606.723 659.348C606.93 659.644 607.209 659.878 607.531 660.024C609.644 661.075 612.094 659.61 613.858 658C617.121 655.021 619.882 651.018 620.068 646.496C620.115 645.333 619.99 644.156 620.185 643.007C620.47 641.303 621.425 639.82 622.263 638.332C623.698 635.797 624.857 633.102 625.721 630.299C626.04 629.244 626.257 627.919 625.461 627.184C625.183 626.953 624.865 626.78 624.524 626.675L614.973 622.978C614.143 622.658 612.086 628.171 611.762 628.775C610.962 630.25 610.167 631.083 608.564 631.426C606.96 631.769 604.981 631.273 603.451 632.125C600.858 633.563 602.15 635.325 603.615 636.863Z" fill="#535070"/>
<path d="M588.887 640.265C588.71 639.897 588.463 639.57 588.161 639.305C587.72 639.012 587.217 638.834 586.696 638.787C584.881 638.462 582.729 638.25 581.471 639.661C580.296 640.982 580.499 643.132 579.518 644.62C579.207 645.071 578.783 645.476 578.515 645.972C578.182 646.731 578.034 647.564 578.083 648.398C578.031 650.692 577.979 652.996 578.135 655.286C578.26 657.206 578.567 659.221 579.721 660.727C581.571 663.143 584.907 663.49 587.863 663.643L590.262 663.774C590.921 663.855 591.589 663.79 592.224 663.585C592.617 663.396 592.969 663.127 593.26 662.793C593.551 662.459 593.775 662.068 593.918 661.642C595.167 658.405 593.192 654.92 591.973 651.675C590.568 647.938 590.819 643.795 588.887 640.265Z" fill="#535070"/>
<path d="M569.054 402.215C569.023 401.887 569.069 401.556 569.188 401.251C569.538 400.606 570.454 400.8 571.146 400.962C573.924 401.693 576.854 401.03 579.72 401.201C582.585 401.373 585.809 402.865 586.384 405.795C588.462 404.26 590.254 402.341 591.669 400.133C592.464 398.893 593.156 397.473 593.048 395.986C592.892 393.84 591.168 392.235 589.59 390.874L584.837 386.816C584.21 386.217 583.488 385.738 582.702 385.401C581.604 385.009 580.403 385.198 579.244 385.198C575.787 385.198 572.079 383.553 568.998 385.198C567.701 385.888 566.737 387.073 565.804 388.227L561.556 393.475C561.234 393.809 560.999 394.223 560.873 394.678C560.752 395.318 561.067 395.949 561.18 396.594C561.379 397.766 560.894 399.019 561.266 400.146C561.884 402.013 564.062 402.279 565.393 403.351C565.886 403.748 566.664 405.105 567.256 405.087C568.298 405.064 569.024 403.081 569.054 402.215Z" fill="#3F3D56"/>
<path d="M576.266 417.692C583.784 417.692 589.879 411.334 589.879 403.492C589.879 395.65 583.784 389.292 576.266 389.292C568.747 389.292 562.652 395.65 562.652 403.492C562.652 411.334 568.747 417.692 576.266 417.692Z" fill="#FFC0C6"/>
<path d="M579.454 434.565C578.993 433.189 578.124 432.001 576.974 431.173C575.824 430.345 574.451 429.92 573.054 429.958C572.653 430.038 572.238 429.983 571.869 429.801C571.66 429.634 571.493 429.418 571.381 429.169C570.556 427.615 569.891 425.974 569.397 424.274C569.181 423.521 568.883 422.633 568.153 422.439C567.565 422.281 566.964 422.678 566.571 423.16C566.222 423.678 565.844 424.173 565.439 424.644C563.71 426.239 560.685 424.783 558.874 426.248C558.576 426.487 558.33 426.794 558.01 427.015C557.699 427.212 557.363 427.364 557.012 427.465C553.497 428.658 550.051 430.063 546.691 431.671C547.901 439.263 549.137 446.998 551.972 454.098C553.321 457.479 554.846 460.793 555.927 464.277C558.321 471.999 558.425 480.262 558.455 488.381C558.455 493.935 558.455 499.606 556.726 504.862C556.337 506.052 555.862 507.233 555.754 508.468C555.646 509.704 556 511.101 556.973 511.84C557.536 512.228 558.181 512.464 558.853 512.53C561.839 512.981 564.847 512.16 567.785 511.448C575.664 509.546 583.702 508.455 591.719 507.391L605.159 505.588C606.123 505.517 607.067 505.262 607.942 504.835C610.401 503.433 610.635 499.574 609.105 497.122C608.375 495.945 607.342 494.981 606.724 493.736C606.106 492.492 606.058 490.743 607.117 489.882C609.278 488.124 608.63 484.865 608.733 482.016C609.021 474.046 608.982 466.082 608.617 458.124C608.507 456.474 608.481 454.818 608.539 453.165C608.69 450.361 609.356 447.616 610.021 444.889L614.105 428.119C613.038 426.361 610.994 425.243 609.062 424.738C607.13 424.233 605.112 424.085 603.206 423.467C599.316 422.205 595.824 419.004 591.749 419.302C591.44 419.307 591.136 419.384 590.859 419.527C589.943 420.073 590.085 421.452 590.029 422.552C589.899 424.991 588.179 427.024 586.287 428.453C584.394 429.882 582.224 430.919 580.483 432.546C580.18 432.784 579.931 433.088 579.754 433.437C579.576 433.786 579.474 434.171 579.454 434.565V434.565Z" fill="#3F3D56"/>
<path d="M525.513 450.473C524.611 451.084 523.653 451.599 522.652 452.01C521.701 452.402 520.686 452.713 519.908 453.399C519.523 453.747 519.199 454.164 518.953 454.629C518.492 455.482 518.259 456.447 518.278 457.426C518.298 458.404 518.568 459.359 519.062 460.191C519.555 461.023 520.254 461.702 521.084 462.156C521.915 462.611 522.847 462.824 523.784 462.775C525.033 462.707 526.213 462.18 527.358 461.662L536.961 457.302C538.586 456.568 540.341 455.711 541.11 454.043C541.198 453.887 541.232 453.704 541.205 453.525C541.131 453.328 540.989 453.168 540.807 453.074C538.643 451.605 536.751 449.743 535.219 447.574C534.826 447.015 534.355 445.699 533.785 445.361C531.753 444.184 527.142 449.373 525.513 450.473Z" fill="#FFC0C6"/>
<path d="M628.163 446.935L631.702 451.154C632.463 452.056 633.223 452.957 633.915 453.931C635.617 456.375 636.981 459.057 637.969 461.896C638.738 464.002 639.378 466.246 639.11 468.482C638.93 469.629 638.633 470.752 638.224 471.832C637.575 473.908 636.77 475.928 635.816 477.872C635.02 479.348 634.12 480.759 633.124 482.096C630.383 485.885 627.383 489.464 624.148 492.803C622.938 494.051 622.419 496.075 621.905 497.761C620.933 500.876 618.621 503.306 616.386 505.605C615.668 506.398 614.873 507.111 614.014 507.733C612.727 508.599 611.223 509.044 609.692 509.013C609.024 509.017 608.363 508.874 607.752 508.594C606.222 507.837 605.444 505.993 605.284 504.235C605.143 502.637 605.399 501.029 606.027 499.565C608.058 494.872 613.275 492.839 616.961 489.413C619.122 487.407 620.777 484.882 622.411 482.389C623.517 480.831 624.441 479.141 625.164 477.354C625.985 475.059 625.665 472.346 626.387 470.02C626.689 469.032 627.251 468.144 627.558 467.166C627.865 466.188 627.968 465.029 627.394 464.186C626.963 463.647 626.412 463.227 625.79 462.96C623.435 461.716 620.799 460.111 620.349 457.393C620.169 455.888 620.546 454.367 621.404 453.142C622.256 451.932 623.254 450.841 624.373 449.896C625.397 448.932 627.13 447.863 628.163 446.935Z" fill="#FFC0C6"/>
<path d="M523.242 456.36C522.619 455.044 521.837 453.7 520.575 453.047C519.961 452.77 519.299 452.628 518.63 452.628C517.962 452.628 517.3 452.77 516.686 453.047C515.463 453.598 514.317 454.32 513.28 455.193L510.229 457.541C509.537 458.015 508.926 458.604 508.418 459.286C507.934 460.113 507.614 461.032 507.476 461.991C507.044 464.186 506.694 466.444 506.996 468.667C507.48 472.273 509.555 475.393 511.837 478.133C513.263 479.837 515.026 481.559 517.196 481.636C518.133 481.668 519.175 481.28 519.564 480.392C519.699 480.039 519.771 479.663 519.776 479.283C520.009 475.28 518.635 471.372 517.036 467.725C516.604 466.733 516.137 465.705 516.171 464.619C516.158 464.434 516.204 464.25 516.301 464.096C516.438 463.946 516.622 463.852 516.82 463.83C519.011 463.379 522.788 465.155 524.322 462.617C525.316 460.94 523.95 457.852 523.242 456.36Z" fill="#FFC0C6"/>
<path d="M568.338 397.749C568.311 397.42 568.358 397.09 568.476 396.784C568.826 396.135 569.743 396.333 570.434 396.495C573.213 397.226 576.143 396.563 579.008 396.734C581.874 396.906 585.093 398.398 585.672 401.328C587.749 399.791 589.54 397.872 590.958 395.666C591.753 394.422 592.444 393.002 592.336 391.514C592.181 389.368 590.452 387.764 588.879 386.407L584.125 382.35C583.501 381.751 582.779 381.271 581.995 380.934C580.893 380.542 579.695 380.731 578.537 380.731C575.08 380.731 571.372 379.086 568.291 380.731C566.994 381.421 566.03 382.607 565.097 383.761L560.844 389.008C560.525 389.343 560.291 389.757 560.166 390.211C560.045 390.852 560.36 391.483 560.473 392.127C560.672 393.299 560.187 394.553 560.559 395.675C561.177 397.546 563.355 397.812 564.686 398.885C565.179 399.281 565.957 400.638 566.549 400.62C567.573 400.598 568.299 398.614 568.338 397.749Z" fill="#3F3D56"/>
<path d="M539.425 436.661C538.877 437.032 538.394 437.501 537.999 438.045C537.502 438.833 537.399 439.848 536.971 440.659C536.054 442.435 533.907 443.071 532.571 444.527C532.355 444.726 532.204 444.991 532.139 445.284C532.131 445.681 532.258 446.067 532.498 446.375L538.954 456.96C541.115 457.158 543.164 455.752 545.316 455.941C546.115 456.009 546.941 456.297 547.71 456.049C548.26 455.794 548.776 455.465 549.244 455.071C550.541 454.224 552.235 454.124 553.311 453.011C554.387 451.897 554.478 450.261 554.465 448.742C554.484 447.423 554.355 446.107 554.08 444.82C553.129 440.763 550.152 437.634 548.285 434.037C547.373 432.283 546.88 431.26 544.957 432.464C543.034 433.667 541.245 435.272 539.425 436.661Z" fill="#3F3D56"/>
<path d="M617.824 431.31C619.037 432.132 620.132 433.131 621.074 434.276C622.055 435.597 622.612 437.22 623.559 438.572C624.505 439.925 625.719 440.898 626.757 442.106C628.334 443.937 629.401 446.164 630.447 448.377C627.887 451.852 625.097 455.135 622.098 458.204C621.763 458.615 621.322 458.915 620.827 459.07C620.492 459.107 620.153 459.057 619.84 458.924C619.528 458.791 619.252 458.58 619.038 458.308C618.571 457.803 618.243 457.172 617.798 456.644C616.749 455.516 615.351 454.812 613.852 454.656C612.365 454.505 610.869 454.483 609.379 454.589C609.052 454.629 608.721 454.571 608.424 454.422C608.203 454.264 608.025 454.05 607.906 453.8C606.177 450.699 606.717 446.804 607.335 443.26L608.748 435.146C608.954 433.597 609.351 432.082 609.928 430.638C610.464 429.444 611.657 427.415 613.135 427.776C614.613 428.136 616.575 430.372 617.824 431.31Z" fill="#3F3D56"/>
<path d="M494.585 490.792L464.813 497.144L464.134 497.076L437.971 494.322V459.737L469.999 454.089L493.232 456.915L493.241 457.069V457.141L494.585 490.792Z" fill="#00BFA6"/>
<path opacity="0.1" d="M494.583 490.792L464.811 497.144L464.133 497.076V461.621L493.239 457.068L494.583 490.792Z" fill="black"/>
<path opacity="0.05" d="M493.241 457.141L493.232 457.15L464.134 461.622L437.971 459.737L469.999 454.089L493.232 456.915L493.241 457.069V457.141Z" fill="black"/>
<path d="M510.143 456.532L480.371 462.888L479.693 462.816L453.529 460.061V425.477L485.557 419.828L508.79 422.655L508.799 422.808V422.88L510.143 456.532Z" fill="#3F3D56"/>
<path opacity="0.1" d="M510.14 456.531L480.368 462.888L479.689 462.815V427.361L508.796 422.808L510.14 456.531Z" fill="black"/>
<path opacity="0.05" d="M508.799 422.88L508.79 422.889L479.693 427.361L453.529 425.477L485.557 419.828L508.79 422.655L508.799 422.808V422.88Z" fill="black"/>
<path d="M233.104 177.254H243.844V182H226.934V156.406H233.104V177.254ZM255.375 182.352C252.457 182.352 250.096 181.484 248.291 179.75C246.486 178.004 245.584 175.736 245.584 172.947V172.455C245.584 170.51 245.941 168.793 246.656 167.305C247.383 165.816 248.438 164.668 249.82 163.859C251.203 163.039 252.844 162.629 254.742 162.629C257.414 162.629 259.523 163.461 261.07 165.125C262.617 166.777 263.391 169.086 263.391 172.051V174.354H251.613C251.824 175.42 252.287 176.258 253.002 176.867C253.717 177.477 254.643 177.781 255.779 177.781C257.654 177.781 259.119 177.125 260.174 175.812L262.881 179.012C262.143 180.031 261.094 180.846 259.734 181.455C258.387 182.053 256.934 182.352 255.375 182.352ZM254.707 167.199C252.973 167.199 251.941 168.348 251.613 170.645H257.59V170.188C257.613 169.238 257.373 168.506 256.869 167.99C256.365 167.463 255.645 167.199 254.707 167.199ZM272.689 158.252V162.98H275.818V167.094H272.689V175.795C272.689 176.51 272.818 177.008 273.076 177.289C273.334 177.57 273.844 177.711 274.605 177.711C275.191 177.711 275.684 177.676 276.082 177.605V181.842C275.016 182.182 273.902 182.352 272.742 182.352C270.703 182.352 269.197 181.871 268.225 180.91C267.252 179.949 266.766 178.49 266.766 176.533V167.094H264.34V162.98H266.766V158.252H272.689ZM298.459 179.943C297.205 181.549 295.512 182.352 293.379 182.352C291.293 182.352 289.711 181.748 288.633 180.541C287.566 179.322 287.033 177.576 287.033 175.303V162.98H292.957V175.338C292.957 176.967 293.748 177.781 295.33 177.781C296.689 177.781 297.656 177.295 298.23 176.322V162.98H304.189V182H298.635L298.459 179.943ZM317.408 176.656C317.408 176.152 317.145 175.748 316.617 175.443C316.09 175.139 315.088 174.822 313.611 174.494C312.135 174.166 310.916 173.738 309.955 173.211C308.994 172.672 308.262 172.021 307.758 171.26C307.254 170.498 307.002 169.625 307.002 168.641C307.002 166.895 307.723 165.459 309.164 164.334C310.605 163.197 312.492 162.629 314.824 162.629C317.332 162.629 319.348 163.197 320.871 164.334C322.395 165.471 323.156 166.965 323.156 168.816H317.215C317.215 167.293 316.412 166.531 314.807 166.531C314.186 166.531 313.664 166.707 313.242 167.059C312.82 167.398 312.609 167.826 312.609 168.342C312.609 168.869 312.867 169.297 313.383 169.625C313.898 169.953 314.719 170.223 315.844 170.434C316.98 170.645 317.977 170.896 318.832 171.189C321.691 172.174 323.121 173.938 323.121 176.48C323.121 178.215 322.348 179.627 320.801 180.717C319.266 181.807 317.273 182.352 314.824 182.352C313.195 182.352 311.742 182.059 310.465 181.473C309.188 180.887 308.191 180.09 307.477 179.082C306.762 178.074 306.404 177.014 306.404 175.9H311.941C311.965 176.779 312.258 177.424 312.82 177.834C313.383 178.232 314.104 178.432 314.982 178.432C315.791 178.432 316.395 178.268 316.793 177.939C317.203 177.611 317.408 177.184 317.408 176.656ZM334.125 172.35C334.125 169.338 334.775 166.965 336.076 165.23C337.377 163.496 339.193 162.629 341.525 162.629C343.225 162.629 344.654 163.297 345.814 164.633V155H351.756V182H346.43L346.131 179.961C344.912 181.555 343.365 182.352 341.49 182.352C339.229 182.352 337.436 181.484 336.111 179.75C334.787 178.016 334.125 175.549 334.125 172.35ZM340.049 172.719C340.049 176.094 341.033 177.781 343.002 177.781C344.314 177.781 345.252 177.23 345.814 176.129V168.887C345.275 167.762 344.35 167.199 343.037 167.199C341.209 167.199 340.219 168.676 340.066 171.629L340.049 172.719ZM354.375 172.314C354.375 170.416 354.744 168.729 355.482 167.252C356.221 165.764 357.281 164.621 358.664 163.824C360.047 163.027 361.67 162.629 363.533 162.629C366.381 162.629 368.625 163.514 370.266 165.283C371.906 167.041 372.727 169.438 372.727 172.473V172.684C372.727 175.648 371.9 178.004 370.248 179.75C368.607 181.484 366.381 182.352 363.568 182.352C360.861 182.352 358.688 181.543 357.047 179.926C355.406 178.297 354.521 176.094 354.393 173.316L354.375 172.314ZM360.299 172.684C360.299 174.441 360.574 175.73 361.125 176.551C361.676 177.371 362.49 177.781 363.568 177.781C365.678 177.781 366.756 176.158 366.803 172.912V172.314C366.803 168.904 365.713 167.199 363.533 167.199C361.553 167.199 360.48 168.67 360.316 171.611L360.299 172.684ZM391.201 158.252V162.98H394.33V167.094H391.201V175.795C391.201 176.51 391.33 177.008 391.588 177.289C391.846 177.57 392.355 177.711 393.117 177.711C393.703 177.711 394.195 177.676 394.594 177.605V181.842C393.527 182.182 392.414 182.352 391.254 182.352C389.215 182.352 387.709 181.871 386.736 180.91C385.764 179.949 385.277 178.49 385.277 176.533V167.094H382.852V162.98H385.277V158.252H391.201ZM402.469 165.02C403.734 163.426 405.352 162.629 407.32 162.629C409.418 162.629 411 163.25 412.066 164.492C413.133 165.734 413.678 167.568 413.701 169.994V182H407.76V170.135C407.76 169.127 407.555 168.389 407.145 167.92C406.734 167.439 406.037 167.199 405.053 167.199C403.834 167.199 402.973 167.586 402.469 168.359V182H396.545V155H402.469V165.02ZM426.199 182.352C423.281 182.352 420.92 181.484 419.115 179.75C417.311 178.004 416.408 175.736 416.408 172.947V172.455C416.408 170.51 416.766 168.793 417.48 167.305C418.207 165.816 419.262 164.668 420.645 163.859C422.027 163.039 423.668 162.629 425.566 162.629C428.238 162.629 430.348 163.461 431.895 165.125C433.441 166.777 434.215 169.086 434.215 172.051V174.354H422.438C422.648 175.42 423.111 176.258 423.826 176.867C424.541 177.477 425.467 177.781 426.604 177.781C428.479 177.781 429.943 177.125 430.998 175.812L433.705 179.012C432.967 180.031 431.918 180.846 430.559 181.455C429.211 182.053 427.758 182.352 426.199 182.352ZM425.531 167.199C423.797 167.199 422.766 168.348 422.438 170.645H428.414V170.188C428.438 169.238 428.197 168.506 427.693 167.99C427.189 167.463 426.469 167.199 425.531 167.199ZM451.371 165.02C452.637 163.426 454.254 162.629 456.223 162.629C458.32 162.629 459.902 163.25 460.969 164.492C462.035 165.734 462.58 167.568 462.604 169.994V182H456.662V170.135C456.662 169.127 456.457 168.389 456.047 167.92C455.637 167.439 454.939 167.199 453.955 167.199C452.736 167.199 451.875 167.586 451.371 168.359V182H445.447V155H451.371V165.02ZM475.102 182.352C472.184 182.352 469.822 181.484 468.018 179.75C466.213 178.004 465.311 175.736 465.311 172.947V172.455C465.311 170.51 465.668 168.793 466.383 167.305C467.109 165.816 468.164 164.668 469.547 163.859C470.93 163.039 472.57 162.629 474.469 162.629C477.141 162.629 479.25 163.461 480.797 165.125C482.344 166.777 483.117 169.086 483.117 172.051V174.354H471.34C471.551 175.42 472.014 176.258 472.729 176.867C473.443 177.477 474.369 177.781 475.506 177.781C477.381 177.781 478.846 177.125 479.9 175.812L482.607 179.012C481.869 180.031 480.82 180.846 479.461 181.455C478.113 182.053 476.66 182.352 475.102 182.352ZM474.434 167.199C472.699 167.199 471.668 168.348 471.34 170.645H477.316V170.188C477.34 169.238 477.1 168.506 476.596 167.99C476.092 167.463 475.371 167.199 474.434 167.199ZM496.23 182C496.02 181.613 495.832 181.045 495.668 180.295C494.578 181.666 493.055 182.352 491.098 182.352C489.305 182.352 487.781 181.812 486.527 180.734C485.273 179.645 484.646 178.279 484.646 176.639C484.646 174.576 485.408 173.018 486.932 171.963C488.455 170.908 490.67 170.381 493.576 170.381H495.404V169.379C495.404 167.633 494.648 166.76 493.137 166.76C491.73 166.76 491.027 167.451 491.027 168.834H485.104C485.104 166.994 485.883 165.5 487.441 164.352C489.012 163.203 491.01 162.629 493.436 162.629C495.861 162.629 497.777 163.221 499.184 164.404C500.59 165.588 501.311 167.211 501.346 169.273V177.693C501.369 179.439 501.639 180.775 502.154 181.701V182H496.23ZM492.521 178.133C493.26 178.133 493.869 177.975 494.35 177.658C494.842 177.342 495.193 176.984 495.404 176.586V173.545H493.682C491.619 173.545 490.588 174.471 490.588 176.322C490.588 176.861 490.77 177.301 491.133 177.641C491.496 177.969 491.959 178.133 492.521 178.133ZM511.945 174.951L514.951 162.98H521.191L514.986 182H508.939L502.734 162.98H508.992L511.945 174.951ZM530.561 173.703L533.725 162.98H540.07L532.318 185.182L531.984 185.99C530.883 188.451 528.938 189.682 526.148 189.682C525.375 189.682 524.561 189.564 523.705 189.33V185.094H524.479C525.311 185.094 525.943 184.971 526.377 184.725C526.822 184.49 527.15 184.062 527.361 183.441L527.836 182.176L521.227 162.98H527.555L530.561 173.703ZM232.91 230H226.969V203H232.91V230ZM242.824 230H236.883V210.98H242.824V230ZM236.531 206.076C236.531 205.232 236.836 204.541 237.445 204.002C238.055 203.463 238.846 203.193 239.818 203.193C240.791 203.193 241.582 203.463 242.191 204.002C242.801 204.541 243.105 205.232 243.105 206.076C243.105 206.92 242.801 207.611 242.191 208.15C241.582 208.689 240.791 208.959 239.818 208.959C238.846 208.959 238.055 208.689 237.445 208.15C236.836 207.611 236.531 206.92 236.531 206.076ZM247.799 230V215.094H245.039V210.98H247.799V209.469C247.799 207.301 248.438 205.619 249.715 204.424C250.992 203.229 252.785 202.631 255.094 202.631C255.938 202.631 256.863 202.754 257.871 203L257.889 207.359C257.525 207.254 257.039 207.201 256.43 207.201C254.637 207.201 253.74 207.975 253.74 209.521V210.98H257.449V215.094H253.74V230H247.799ZM266.432 206.252V210.98H269.561V215.094H266.432V223.795C266.432 224.51 266.561 225.008 266.818 225.289C267.076 225.57 267.586 225.711 268.348 225.711C268.934 225.711 269.426 225.676 269.824 225.605V229.842C268.758 230.182 267.645 230.352 266.484 230.352C264.445 230.352 262.939 229.871 261.967 228.91C260.994 227.949 260.508 226.49 260.508 224.533V215.094H258.082V210.98H260.508V206.252H266.432ZM278.156 230H272.215V210.98H278.156V230ZM271.863 206.076C271.863 205.232 272.168 204.541 272.777 204.002C273.387 203.463 274.178 203.193 275.15 203.193C276.123 203.193 276.914 203.463 277.523 204.002C278.133 204.541 278.438 205.232 278.438 206.076C278.438 206.92 278.133 207.611 277.523 208.15C276.914 208.689 276.123 208.959 275.15 208.959C274.178 208.959 273.387 208.689 272.777 208.15C272.168 207.611 271.863 206.92 271.863 206.076ZM287.262 210.98L287.455 213.213C288.768 211.49 290.578 210.629 292.887 210.629C294.867 210.629 296.344 211.221 297.316 212.404C298.301 213.588 298.811 215.369 298.846 217.748V230H292.904V217.994C292.904 217.033 292.711 216.33 292.324 215.885C291.938 215.428 291.234 215.199 290.215 215.199C289.055 215.199 288.193 215.656 287.631 216.57V230H281.707V210.98H287.262ZM301.447 220.35C301.447 218.428 301.764 216.729 302.396 215.252C303.029 213.775 303.938 212.639 305.121 211.842C306.305 211.033 307.682 210.629 309.252 210.629C311.232 210.629 312.779 211.297 313.893 212.633L314.104 210.98H319.482V229.279C319.482 230.955 319.09 232.408 318.305 233.639C317.531 234.881 316.406 235.83 314.93 236.486C313.453 237.154 311.742 237.488 309.797 237.488C308.402 237.488 307.049 237.225 305.736 236.697C304.436 236.17 303.439 235.484 302.748 234.641L305.227 231.16C306.328 232.461 307.781 233.111 309.586 233.111C312.211 233.111 313.523 231.764 313.523 229.068V228.471C312.387 229.725 310.951 230.352 309.217 230.352C306.896 230.352 305.021 229.467 303.592 227.697C302.162 225.916 301.447 223.537 301.447 220.561V220.35ZM307.389 220.719C307.389 222.277 307.682 223.514 308.268 224.428C308.854 225.33 309.674 225.781 310.729 225.781C312.006 225.781 312.938 225.354 313.523 224.498V216.5C312.949 215.633 312.029 215.199 310.764 215.199C309.709 215.199 308.883 215.674 308.285 216.623C307.688 217.561 307.389 218.926 307.389 220.719ZM333.123 230V215.094H330.363V210.98H333.123V209.469C333.123 207.301 333.762 205.619 335.039 204.424C336.316 203.229 338.109 202.631 340.418 202.631C341.262 202.631 342.188 202.754 343.195 203L343.213 207.359C342.85 207.254 342.363 207.201 341.754 207.201C339.961 207.201 339.064 207.975 339.064 209.521V210.98H342.773V215.094H339.064V230H333.123ZM344.109 220.314C344.109 218.416 344.479 216.729 345.217 215.252C345.955 213.764 347.016 212.621 348.398 211.824C349.781 211.027 351.404 210.629 353.268 210.629C356.115 210.629 358.359 211.514 360 213.283C361.641 215.041 362.461 217.438 362.461 220.473V220.684C362.461 223.648 361.635 226.004 359.982 227.75C358.342 229.484 356.115 230.352 353.303 230.352C350.596 230.352 348.422 229.543 346.781 227.926C345.141 226.297 344.256 224.094 344.127 221.316L344.109 220.314ZM350.033 220.684C350.033 222.441 350.309 223.73 350.859 224.551C351.41 225.371 352.225 225.781 353.303 225.781C355.412 225.781 356.49 224.158 356.537 220.912V220.314C356.537 216.904 355.447 215.199 353.268 215.199C351.287 215.199 350.215 216.67 350.051 219.611L350.033 220.684ZM376.576 216.342L374.625 216.201C372.762 216.201 371.566 216.787 371.039 217.959V230H365.115V210.98H370.67L370.863 213.424C371.859 211.561 373.248 210.629 375.029 210.629C375.662 210.629 376.213 210.699 376.682 210.84L376.576 216.342ZM395.279 221.703L398.443 210.98H404.789L397.037 233.182L396.703 233.99C395.602 236.451 393.656 237.682 390.867 237.682C390.094 237.682 389.279 237.564 388.424 237.33V233.094H389.197C390.029 233.094 390.662 232.971 391.096 232.725C391.541 232.49 391.869 232.062 392.08 231.441L392.555 230.176L385.945 210.98H392.273L395.279 221.703ZM405.316 220.314C405.316 218.416 405.686 216.729 406.424 215.252C407.162 213.764 408.223 212.621 409.605 211.824C410.988 211.027 412.611 210.629 414.475 210.629C417.322 210.629 419.566 211.514 421.207 213.283C422.848 215.041 423.668 217.438 423.668 220.473V220.684C423.668 223.648 422.842 226.004 421.189 227.75C419.549 229.484 417.322 230.352 414.51 230.352C411.803 230.352 409.629 229.543 407.988 227.926C406.348 226.297 405.463 224.094 405.334 221.316L405.316 220.314ZM411.24 220.684C411.24 222.441 411.516 223.73 412.066 224.551C412.617 225.371 413.432 225.781 414.51 225.781C416.619 225.781 417.697 224.158 417.744 220.912V220.314C417.744 216.904 416.654 215.199 414.475 215.199C412.494 215.199 411.422 216.67 411.258 219.611L411.24 220.684ZM437.607 227.943C436.354 229.549 434.66 230.352 432.527 230.352C430.441 230.352 428.859 229.748 427.781 228.541C426.715 227.322 426.182 225.576 426.182 223.303V210.98H432.105V223.338C432.105 224.967 432.896 225.781 434.479 225.781C435.838 225.781 436.805 225.295 437.379 224.322V210.98H443.338V230H437.783L437.607 227.943ZM450.264 224.252C451.201 224.252 451.98 224.533 452.602 225.096C453.223 225.646 453.533 226.355 453.533 227.223C453.533 228.09 453.223 228.805 452.602 229.367C451.98 229.918 451.201 230.193 450.264 230.193C449.314 230.193 448.529 229.912 447.908 229.35C447.299 228.787 446.994 228.078 446.994 227.223C446.994 226.367 447.299 225.658 447.908 225.096C448.529 224.533 449.314 224.252 450.264 224.252ZM461.162 224.252C462.1 224.252 462.879 224.533 463.5 225.096C464.121 225.646 464.432 226.355 464.432 227.223C464.432 228.09 464.121 228.805 463.5 229.367C462.879 229.918 462.1 230.193 461.162 230.193C460.213 230.193 459.428 229.912 458.807 229.35C458.197 228.787 457.893 228.078 457.893 227.223C457.893 226.367 458.197 225.658 458.807 225.096C459.428 224.533 460.213 224.252 461.162 224.252ZM472.061 224.252C472.998 224.252 473.777 224.533 474.398 225.096C475.02 225.646 475.33 226.355 475.33 227.223C475.33 228.09 475.02 228.805 474.398 229.367C473.777 229.918 472.998 230.193 472.061 230.193C471.111 230.193 470.326 229.912 469.705 229.35C469.096 228.787 468.791 228.078 468.791 227.223C468.791 226.367 469.096 225.658 469.705 225.096C470.326 224.533 471.111 224.252 472.061 224.252Z" fill="white"/>
<path d="M230.66 272.621L230.988 274.871L231.469 272.844L234.844 260.938H236.742L240.035 272.844L240.504 274.906L240.867 272.609L243.516 260.938H245.777L241.641 278H239.59L236.074 265.566L235.805 264.266L235.535 265.566L231.891 278H229.84L225.715 260.938H227.965L230.66 272.621ZM252.832 278.234C251.113 278.234 249.715 277.672 248.637 276.547C247.559 275.414 247.02 273.902 247.02 272.012V271.613C247.02 270.355 247.258 269.234 247.734 268.25C248.219 267.258 248.891 266.484 249.75 265.93C250.617 265.367 251.555 265.086 252.562 265.086C254.211 265.086 255.492 265.629 256.406 266.715C257.32 267.801 257.777 269.355 257.777 271.379V272.281H249.188C249.219 273.531 249.582 274.543 250.277 275.316C250.98 276.082 251.871 276.465 252.949 276.465C253.715 276.465 254.363 276.309 254.895 275.996C255.426 275.684 255.891 275.27 256.289 274.754L257.613 275.785C256.551 277.418 254.957 278.234 252.832 278.234ZM252.562 266.867C251.688 266.867 250.953 267.188 250.359 267.828C249.766 268.461 249.398 269.352 249.258 270.5H255.609V270.336C255.547 269.234 255.25 268.383 254.719 267.781C254.188 267.172 253.469 266.867 252.562 266.867ZM269.191 262.25V265.32H271.559V266.996H269.191V274.859C269.191 275.367 269.297 275.75 269.508 276.008C269.719 276.258 270.078 276.383 270.586 276.383C270.836 276.383 271.18 276.336 271.617 276.242V278C271.047 278.156 270.492 278.234 269.953 278.234C268.984 278.234 268.254 277.941 267.762 277.355C267.27 276.77 267.023 275.938 267.023 274.859V266.996H264.715V265.32H267.023V262.25H269.191ZM280.23 267.266C279.902 267.211 279.547 267.184 279.164 267.184C277.742 267.184 276.777 267.789 276.27 269V278H274.102V265.32H276.211L276.246 266.785C276.957 265.652 277.965 265.086 279.27 265.086C279.691 265.086 280.012 265.141 280.23 265.25V267.266ZM289.594 278C289.469 277.75 289.367 277.305 289.289 276.664C288.281 277.711 287.078 278.234 285.68 278.234C284.43 278.234 283.402 277.883 282.598 277.18C281.801 276.469 281.402 275.57 281.402 274.484C281.402 273.164 281.902 272.141 282.902 271.414C283.91 270.68 285.324 270.312 287.145 270.312H289.254V269.316C289.254 268.559 289.027 267.957 288.574 267.512C288.121 267.059 287.453 266.832 286.57 266.832C285.797 266.832 285.148 267.027 284.625 267.418C284.102 267.809 283.84 268.281 283.84 268.836H281.66C281.66 268.203 281.883 267.594 282.328 267.008C282.781 266.414 283.391 265.945 284.156 265.602C284.93 265.258 285.777 265.086 286.699 265.086C288.16 265.086 289.305 265.453 290.133 266.188C290.961 266.914 291.391 267.918 291.422 269.199V275.035C291.422 276.199 291.57 277.125 291.867 277.812V278H289.594ZM285.996 276.348C286.676 276.348 287.32 276.172 287.93 275.82C288.539 275.469 288.98 275.012 289.254 274.449V271.848H287.555C284.898 271.848 283.57 272.625 283.57 274.18C283.57 274.859 283.797 275.391 284.25 275.773C284.703 276.156 285.285 276.348 285.996 276.348ZM296.871 265.32L296.941 266.914C297.91 265.695 299.176 265.086 300.738 265.086C303.418 265.086 304.77 266.598 304.793 269.621V278H302.625V269.609C302.617 268.695 302.406 268.02 301.992 267.582C301.586 267.145 300.949 266.926 300.082 266.926C299.379 266.926 298.762 267.113 298.23 267.488C297.699 267.863 297.285 268.355 296.988 268.965V278H294.82V265.32H296.871ZM315.445 274.637C315.445 274.051 315.223 273.598 314.777 273.277C314.34 272.949 313.57 272.668 312.469 272.434C311.375 272.199 310.504 271.918 309.855 271.59C309.215 271.262 308.738 270.871 308.426 270.418C308.121 269.965 307.969 269.426 307.969 268.801C307.969 267.762 308.406 266.883 309.281 266.164C310.164 265.445 311.289 265.086 312.656 265.086C314.094 265.086 315.258 265.457 316.148 266.199C317.047 266.941 317.496 267.891 317.496 269.047H315.316C315.316 268.453 315.062 267.941 314.555 267.512C314.055 267.082 313.422 266.867 312.656 266.867C311.867 266.867 311.25 267.039 310.805 267.383C310.359 267.727 310.137 268.176 310.137 268.73C310.137 269.254 310.344 269.648 310.758 269.914C311.172 270.18 311.918 270.434 312.996 270.676C314.082 270.918 314.961 271.207 315.633 271.543C316.305 271.879 316.801 272.285 317.121 272.762C317.449 273.23 317.613 273.805 317.613 274.484C317.613 275.617 317.16 276.527 316.254 277.215C315.348 277.895 314.172 278.234 312.727 278.234C311.711 278.234 310.812 278.055 310.031 277.695C309.25 277.336 308.637 276.836 308.191 276.195C307.754 275.547 307.535 274.848 307.535 274.098H309.703C309.742 274.824 310.031 275.402 310.57 275.832C311.117 276.254 311.836 276.465 312.727 276.465C313.547 276.465 314.203 276.301 314.695 275.973C315.195 275.637 315.445 275.191 315.445 274.637ZM331.148 271.801C331.148 273.73 330.707 275.285 329.824 276.465C328.941 277.645 327.746 278.234 326.238 278.234C324.699 278.234 323.488 277.746 322.605 276.77V282.875H320.438V265.32H322.418L322.523 266.727C323.406 265.633 324.633 265.086 326.203 265.086C327.727 265.086 328.93 265.66 329.812 266.809C330.703 267.957 331.148 269.555 331.148 271.602V271.801ZM328.98 271.555C328.98 270.125 328.676 268.996 328.066 268.168C327.457 267.34 326.621 266.926 325.559 266.926C324.246 266.926 323.262 267.508 322.605 268.672V274.73C323.254 275.887 324.246 276.465 325.582 276.465C326.621 276.465 327.445 276.055 328.055 275.234C328.672 274.406 328.98 273.18 328.98 271.555ZM333.34 271.543C333.34 270.301 333.582 269.184 334.066 268.191C334.559 267.199 335.238 266.434 336.105 265.895C336.98 265.355 337.977 265.086 339.094 265.086C340.82 265.086 342.215 265.684 343.277 266.879C344.348 268.074 344.883 269.664 344.883 271.648V271.801C344.883 273.035 344.645 274.145 344.168 275.129C343.699 276.105 343.023 276.867 342.141 277.414C341.266 277.961 340.258 278.234 339.117 278.234C337.398 278.234 336.004 277.637 334.934 276.441C333.871 275.246 333.34 273.664 333.34 271.695V271.543ZM335.52 271.801C335.52 273.207 335.844 274.336 336.492 275.188C337.148 276.039 338.023 276.465 339.117 276.465C340.219 276.465 341.094 276.035 341.742 275.176C342.391 274.309 342.715 273.098 342.715 271.543C342.715 270.152 342.383 269.027 341.719 268.168C341.062 267.301 340.188 266.867 339.094 266.867C338.023 266.867 337.16 267.293 336.504 268.145C335.848 268.996 335.52 270.215 335.52 271.801ZM353.73 267.266C353.402 267.211 353.047 267.184 352.664 267.184C351.242 267.184 350.277 267.789 349.77 269V278H347.602V265.32H349.711L349.746 266.785C350.457 265.652 351.465 265.086 352.77 265.086C353.191 265.086 353.512 265.141 353.73 265.25V267.266ZM359.262 262.25V265.32H361.629V266.996H359.262V274.859C359.262 275.367 359.367 275.75 359.578 276.008C359.789 276.258 360.148 276.383 360.656 276.383C360.906 276.383 361.25 276.336 361.688 276.242V278C361.117 278.156 360.562 278.234 360.023 278.234C359.055 278.234 358.324 277.941 357.832 277.355C357.34 276.77 357.094 275.938 357.094 274.859V266.996H354.785V265.32H357.094V262.25H359.262ZM374.273 274.824L377.227 265.32H379.547L374.449 279.957C373.66 282.066 372.406 283.121 370.688 283.121L370.277 283.086L369.469 282.934V281.176L370.055 281.223C370.789 281.223 371.359 281.074 371.766 280.777C372.18 280.48 372.52 279.938 372.785 279.148L373.266 277.859L368.742 265.32H371.109L374.273 274.824ZM380.73 271.543C380.73 270.301 380.973 269.184 381.457 268.191C381.949 267.199 382.629 266.434 383.496 265.895C384.371 265.355 385.367 265.086 386.484 265.086C388.211 265.086 389.605 265.684 390.668 266.879C391.738 268.074 392.273 269.664 392.273 271.648V271.801C392.273 273.035 392.035 274.145 391.559 275.129C391.09 276.105 390.414 276.867 389.531 277.414C388.656 277.961 387.648 278.234 386.508 278.234C384.789 278.234 383.395 277.637 382.324 276.441C381.262 275.246 380.73 273.664 380.73 271.695V271.543ZM382.91 271.801C382.91 273.207 383.234 274.336 383.883 275.188C384.539 276.039 385.414 276.465 386.508 276.465C387.609 276.465 388.484 276.035 389.133 275.176C389.781 274.309 390.105 273.098 390.105 271.543C390.105 270.152 389.773 269.027 389.109 268.168C388.453 267.301 387.578 266.867 386.484 266.867C385.414 266.867 384.551 267.293 383.895 268.145C383.238 268.996 382.91 270.215 382.91 271.801ZM402.82 276.746C401.977 277.738 400.738 278.234 399.105 278.234C397.754 278.234 396.723 277.844 396.012 277.062C395.309 276.273 394.953 275.109 394.945 273.57V265.32H397.113V273.512C397.113 275.434 397.895 276.395 399.457 276.395C401.113 276.395 402.215 275.777 402.762 274.543V265.32H404.93V278H402.867L402.82 276.746ZM414.363 267.266C414.035 267.211 413.68 267.184 413.297 267.184C411.875 267.184 410.91 267.789 410.402 269V278H408.234V265.32H410.344L410.379 266.785C411.09 265.652 412.098 265.086 413.402 265.086C413.824 265.086 414.145 265.141 414.363 265.25V267.266ZM421.805 271.555C421.805 269.578 422.262 268.008 423.176 266.844C424.09 265.672 425.301 265.086 426.809 265.086C428.355 265.086 429.562 265.633 430.43 266.727L430.535 265.32H432.516V277.695C432.516 279.336 432.027 280.629 431.051 281.574C430.082 282.52 428.777 282.992 427.137 282.992C426.223 282.992 425.328 282.797 424.453 282.406C423.578 282.016 422.91 281.48 422.449 280.801L423.574 279.5C424.504 280.648 425.641 281.223 426.984 281.223C428.039 281.223 428.859 280.926 429.445 280.332C430.039 279.738 430.336 278.902 430.336 277.824V276.734C429.469 277.734 428.285 278.234 426.785 278.234C425.301 278.234 424.098 277.637 423.176 276.441C422.262 275.246 421.805 273.617 421.805 271.555ZM423.984 271.801C423.984 273.23 424.277 274.355 424.863 275.176C425.449 275.988 426.27 276.395 427.324 276.395C428.691 276.395 429.695 275.773 430.336 274.531V268.742C429.672 267.531 428.676 266.926 427.348 266.926C426.293 266.926 425.469 267.336 424.875 268.156C424.281 268.977 423.984 270.191 423.984 271.801ZM435.223 271.543C435.223 270.301 435.465 269.184 435.949 268.191C436.441 267.199 437.121 266.434 437.988 265.895C438.863 265.355 439.859 265.086 440.977 265.086C442.703 265.086 444.098 265.684 445.16 266.879C446.23 268.074 446.766 269.664 446.766 271.648V271.801C446.766 273.035 446.527 274.145 446.051 275.129C445.582 276.105 444.906 276.867 444.023 277.414C443.148 277.961 442.141 278.234 441 278.234C439.281 278.234 437.887 277.637 436.816 276.441C435.754 275.246 435.223 273.664 435.223 271.695V271.543ZM437.402 271.801C437.402 273.207 437.727 274.336 438.375 275.188C439.031 276.039 439.906 276.465 441 276.465C442.102 276.465 442.977 276.035 443.625 275.176C444.273 274.309 444.598 273.098 444.598 271.543C444.598 270.152 444.266 269.027 443.602 268.168C442.945 267.301 442.07 266.867 440.977 266.867C439.906 266.867 439.043 267.293 438.387 268.145C437.73 268.996 437.402 270.215 437.402 271.801ZM448.91 271.543C448.91 270.301 449.152 269.184 449.637 268.191C450.129 267.199 450.809 266.434 451.676 265.895C452.551 265.355 453.547 265.086 454.664 265.086C456.391 265.086 457.785 265.684 458.848 266.879C459.918 268.074 460.453 269.664 460.453 271.648V271.801C460.453 273.035 460.215 274.145 459.738 275.129C459.27 276.105 458.594 276.867 457.711 277.414C456.836 277.961 455.828 278.234 454.688 278.234C452.969 278.234 451.574 277.637 450.504 276.441C449.441 275.246 448.91 273.664 448.91 271.695V271.543ZM451.09 271.801C451.09 273.207 451.414 274.336 452.062 275.188C452.719 276.039 453.594 276.465 454.688 276.465C455.789 276.465 456.664 276.035 457.312 275.176C457.961 274.309 458.285 273.098 458.285 271.543C458.285 270.152 457.953 269.027 457.289 268.168C456.633 267.301 455.758 266.867 454.664 266.867C453.594 266.867 452.73 267.293 452.074 268.145C451.418 268.996 451.09 270.215 451.09 271.801ZM462.645 271.555C462.645 269.609 463.105 268.047 464.027 266.867C464.949 265.68 466.156 265.086 467.648 265.086C469.133 265.086 470.309 265.594 471.176 266.609V260H473.344V278H471.352L471.246 276.641C470.379 277.703 469.172 278.234 467.625 278.234C466.156 278.234 464.957 277.633 464.027 276.43C463.105 275.227 462.645 273.656 462.645 271.719V271.555ZM464.812 271.801C464.812 273.238 465.109 274.363 465.703 275.176C466.297 275.988 467.117 276.395 468.164 276.395C469.539 276.395 470.543 275.777 471.176 274.543V268.719C470.527 267.523 469.531 266.926 468.188 266.926C467.125 266.926 466.297 267.336 465.703 268.156C465.109 268.977 464.812 270.191 464.812 271.801ZM484.102 274.637C484.102 274.051 483.879 273.598 483.434 273.277C482.996 272.949 482.227 272.668 481.125 272.434C480.031 272.199 479.16 271.918 478.512 271.59C477.871 271.262 477.395 270.871 477.082 270.418C476.777 269.965 476.625 269.426 476.625 268.801C476.625 267.762 477.062 266.883 477.938 266.164C478.82 265.445 479.945 265.086 481.312 265.086C482.75 265.086 483.914 265.457 484.805 266.199C485.703 266.941 486.152 267.891 486.152 269.047H483.973C483.973 268.453 483.719 267.941 483.211 267.512C482.711 267.082 482.078 266.867 481.312 266.867C480.523 266.867 479.906 267.039 479.461 267.383C479.016 267.727 478.793 268.176 478.793 268.73C478.793 269.254 479 269.648 479.414 269.914C479.828 270.18 480.574 270.434 481.652 270.676C482.738 270.918 483.617 271.207 484.289 271.543C484.961 271.879 485.457 272.285 485.777 272.762C486.105 273.23 486.27 273.805 486.27 274.484C486.27 275.617 485.816 276.527 484.91 277.215C484.004 277.895 482.828 278.234 481.383 278.234C480.367 278.234 479.469 278.055 478.688 277.695C477.906 277.336 477.293 276.836 476.848 276.195C476.41 275.547 476.191 274.848 476.191 274.098H478.359C478.398 274.824 478.688 275.402 479.227 275.832C479.773 276.254 480.492 276.465 481.383 276.465C482.203 276.465 482.859 276.301 483.352 275.973C483.852 275.637 484.102 275.191 484.102 274.637ZM502.875 278C502.75 277.75 502.648 277.305 502.57 276.664C501.562 277.711 500.359 278.234 498.961 278.234C497.711 278.234 496.684 277.883 495.879 277.18C495.082 276.469 494.684 275.57 494.684 274.484C494.684 273.164 495.184 272.141 496.184 271.414C497.191 270.68 498.605 270.312 500.426 270.312H502.535V269.316C502.535 268.559 502.309 267.957 501.855 267.512C501.402 267.059 500.734 266.832 499.852 266.832C499.078 266.832 498.43 267.027 497.906 267.418C497.383 267.809 497.121 268.281 497.121 268.836H494.941C494.941 268.203 495.164 267.594 495.609 267.008C496.062 266.414 496.672 265.945 497.438 265.602C498.211 265.258 499.059 265.086 499.98 265.086C501.441 265.086 502.586 265.453 503.414 266.188C504.242 266.914 504.672 267.918 504.703 269.199V275.035C504.703 276.199 504.852 277.125 505.148 277.812V278H502.875ZM499.277 276.348C499.957 276.348 500.602 276.172 501.211 275.82C501.82 275.469 502.262 275.012 502.535 274.449V271.848H500.836C498.18 271.848 496.852 272.625 496.852 274.18C496.852 274.859 497.078 275.391 497.531 275.773C497.984 276.156 498.566 276.348 499.277 276.348ZM510.457 278H508.289V260H510.457V278ZM516.293 278H514.125V260H516.293V278ZM528.668 262.25V265.32H531.035V266.996H528.668V274.859C528.668 275.367 528.773 275.75 528.984 276.008C529.195 276.258 529.555 276.383 530.062 276.383C530.312 276.383 530.656 276.336 531.094 276.242V278C530.523 278.156 529.969 278.234 529.43 278.234C528.461 278.234 527.73 277.941 527.238 277.355C526.746 276.77 526.5 275.938 526.5 274.859V266.996H524.191V265.32H526.5V262.25H528.668ZM535.746 266.855C536.707 265.676 537.957 265.086 539.496 265.086C542.176 265.086 543.527 266.598 543.551 269.621V278H541.383V269.609C541.375 268.695 541.164 268.02 540.75 267.582C540.344 267.145 539.707 266.926 538.84 266.926C538.137 266.926 537.52 267.113 536.988 267.488C536.457 267.863 536.043 268.355 535.746 268.965V278H533.578V260H535.746V266.855ZM552.059 278.234C550.34 278.234 548.941 277.672 547.863 276.547C546.785 275.414 546.246 273.902 546.246 272.012V271.613C546.246 270.355 546.484 269.234 546.961 268.25C547.445 267.258 548.117 266.484 548.977 265.93C549.844 265.367 550.781 265.086 551.789 265.086C553.438 265.086 554.719 265.629 555.633 266.715C556.547 267.801 557.004 269.355 557.004 271.379V272.281H548.414C548.445 273.531 548.809 274.543 549.504 275.316C550.207 276.082 551.098 276.465 552.176 276.465C552.941 276.465 553.59 276.309 554.121 275.996C554.652 275.684 555.117 275.27 555.516 274.754L556.84 275.785C555.777 277.418 554.184 278.234 552.059 278.234ZM551.789 266.867C550.914 266.867 550.18 267.188 549.586 267.828C548.992 268.461 548.625 269.352 548.484 270.5H554.836V270.336C554.773 269.234 554.477 268.383 553.945 267.781C553.414 267.172 552.695 266.867 551.789 266.867ZM576.703 275.012L579.141 265.32H581.309L577.617 278H575.859L572.777 268.391L569.777 278H568.02L564.34 265.32H566.496L568.992 274.812L571.945 265.32H573.691L576.703 275.012ZM591.352 278C591.227 277.75 591.125 277.305 591.047 276.664C590.039 277.711 588.836 278.234 587.438 278.234C586.188 278.234 585.16 277.883 584.355 277.18C583.559 276.469 583.16 275.57 583.16 274.484C583.16 273.164 583.66 272.141 584.66 271.414C585.668 270.68 587.082 270.312 588.902 270.312H591.012V269.316C591.012 268.559 590.785 267.957 590.332 267.512C589.879 267.059 589.211 266.832 588.328 266.832C587.555 266.832 586.906 267.027 586.383 267.418C585.859 267.809 585.598 268.281 585.598 268.836H583.418C583.418 268.203 583.641 267.594 584.086 267.008C584.539 266.414 585.148 265.945 585.914 265.602C586.688 265.258 587.535 265.086 588.457 265.086C589.918 265.086 591.062 265.453 591.891 266.188C592.719 266.914 593.148 267.918 593.18 269.199V275.035C593.18 276.199 593.328 277.125 593.625 277.812V278H591.352ZM587.754 276.348C588.434 276.348 589.078 276.172 589.688 275.82C590.297 275.469 590.738 275.012 591.012 274.449V271.848H589.312C586.656 271.848 585.328 272.625 585.328 274.18C585.328 274.859 585.555 275.391 586.008 275.773C586.461 276.156 587.043 276.348 587.754 276.348ZM600.539 274.824L603.492 265.32H605.812L600.715 279.957C599.926 282.066 598.672 283.121 596.953 283.121L596.543 283.086L595.734 282.934V281.176L596.32 281.223C597.055 281.223 597.625 281.074 598.031 280.777C598.445 280.48 598.785 279.938 599.051 279.148L599.531 277.859L595.008 265.32H597.375L600.539 274.824ZM616.652 262.25V265.32H619.02V266.996H616.652V274.859C616.652 275.367 616.758 275.75 616.969 276.008C617.18 276.258 617.539 276.383 618.047 276.383C618.297 276.383 618.641 276.336 619.078 276.242V278C618.508 278.156 617.953 278.234 617.414 278.234C616.445 278.234 615.715 277.941 615.223 277.355C614.73 276.77 614.484 275.938 614.484 274.859V266.996H612.176V265.32H614.484V262.25H616.652ZM620.754 271.543C620.754 270.301 620.996 269.184 621.48 268.191C621.973 267.199 622.652 266.434 623.52 265.895C624.395 265.355 625.391 265.086 626.508 265.086C628.234 265.086 629.629 265.684 630.691 266.879C631.762 268.074 632.297 269.664 632.297 271.648V271.801C632.297 273.035 632.059 274.145 631.582 275.129C631.113 276.105 630.438 276.867 629.555 277.414C628.68 277.961 627.672 278.234 626.531 278.234C624.812 278.234 623.418 277.637 622.348 276.441C621.285 275.246 620.754 273.664 620.754 271.695V271.543ZM622.934 271.801C622.934 273.207 623.258 274.336 623.906 275.188C624.562 276.039 625.438 276.465 626.531 276.465C627.633 276.465 628.508 276.035 629.156 275.176C629.805 274.309 630.129 273.098 630.129 271.543C630.129 270.152 629.797 269.027 629.133 268.168C628.477 267.301 627.602 266.867 626.508 266.867C625.438 266.867 624.574 267.293 623.918 268.145C623.262 268.996 622.934 270.215 622.934 271.801ZM230.789 298.824L233.742 289.32H236.062L230.965 303.957C230.176 306.066 228.922 307.121 227.203 307.121L226.793 307.086L225.984 306.934V305.176L226.57 305.223C227.305 305.223 227.875 305.074 228.281 304.777C228.695 304.48 229.035 303.938 229.301 303.148L229.781 301.859L225.258 289.32H227.625L230.789 298.824ZM237.246 295.543C237.246 294.301 237.488 293.184 237.973 292.191C238.465 291.199 239.145 290.434 240.012 289.895C240.887 289.355 241.883 289.086 243 289.086C244.727 289.086 246.121 289.684 247.184 290.879C248.254 292.074 248.789 293.664 248.789 295.648V295.801C248.789 297.035 248.551 298.145 248.074 299.129C247.605 300.105 246.93 300.867 246.047 301.414C245.172 301.961 244.164 302.234 243.023 302.234C241.305 302.234 239.91 301.637 238.84 300.441C237.777 299.246 237.246 297.664 237.246 295.695V295.543ZM239.426 295.801C239.426 297.207 239.75 298.336 240.398 299.188C241.055 300.039 241.93 300.465 243.023 300.465C244.125 300.465 245 300.035 245.648 299.176C246.297 298.309 246.621 297.098 246.621 295.543C246.621 294.152 246.289 293.027 245.625 292.168C244.969 291.301 244.094 290.867 243 290.867C241.93 290.867 241.066 291.293 240.41 292.145C239.754 292.996 239.426 294.215 239.426 295.801ZM259.336 300.746C258.492 301.738 257.254 302.234 255.621 302.234C254.27 302.234 253.238 301.844 252.527 301.062C251.824 300.273 251.469 299.109 251.461 297.57V289.32H253.629V297.512C253.629 299.434 254.41 300.395 255.973 300.395C257.629 300.395 258.73 299.777 259.277 298.543V289.32H261.445V302H259.383L259.336 300.746ZM270.879 291.266C270.551 291.211 270.195 291.184 269.812 291.184C268.391 291.184 267.426 291.789 266.918 293V302H264.75V289.32H266.859L266.895 290.785C267.605 289.652 268.613 289.086 269.918 289.086C270.34 289.086 270.66 289.141 270.879 289.25V291.266ZM290.062 299.012L292.5 289.32H294.668L290.977 302H289.219L286.137 292.391L283.137 302H281.379L277.699 289.32H279.855L282.352 298.812L285.305 289.32H287.051L290.062 299.012ZM304.711 302C304.586 301.75 304.484 301.305 304.406 300.664C303.398 301.711 302.195 302.234 300.797 302.234C299.547 302.234 298.52 301.883 297.715 301.18C296.918 300.469 296.52 299.57 296.52 298.484C296.52 297.164 297.02 296.141 298.02 295.414C299.027 294.68 300.441 294.312 302.262 294.312H304.371V293.316C304.371 292.559 304.145 291.957 303.691 291.512C303.238 291.059 302.57 290.832 301.688 290.832C300.914 290.832 300.266 291.027 299.742 291.418C299.219 291.809 298.957 292.281 298.957 292.836H296.777C296.777 292.203 297 291.594 297.445 291.008C297.898 290.414 298.508 289.945 299.273 289.602C300.047 289.258 300.895 289.086 301.816 289.086C303.277 289.086 304.422 289.453 305.25 290.188C306.078 290.914 306.508 291.918 306.539 293.199V299.035C306.539 300.199 306.688 301.125 306.984 301.812V302H304.711ZM301.113 300.348C301.793 300.348 302.438 300.172 303.047 299.82C303.656 299.469 304.098 299.012 304.371 298.449V295.848H302.672C300.016 295.848 298.688 296.625 298.688 298.18C298.688 298.859 298.914 299.391 299.367 299.773C299.82 300.156 300.402 300.348 301.113 300.348ZM316.066 291.266C315.738 291.211 315.383 291.184 315 291.184C313.578 291.184 312.613 291.789 312.105 293V302H309.938V289.32H312.047L312.082 290.785C312.793 289.652 313.801 289.086 315.105 289.086C315.527 289.086 315.848 289.141 316.066 289.25V291.266ZM323.098 302.234C321.379 302.234 319.98 301.672 318.902 300.547C317.824 299.414 317.285 297.902 317.285 296.012V295.613C317.285 294.355 317.523 293.234 318 292.25C318.484 291.258 319.156 290.484 320.016 289.93C320.883 289.367 321.82 289.086 322.828 289.086C324.477 289.086 325.758 289.629 326.672 290.715C327.586 291.801 328.043 293.355 328.043 295.379V296.281H319.453C319.484 297.531 319.848 298.543 320.543 299.316C321.246 300.082 322.137 300.465 323.215 300.465C323.98 300.465 324.629 300.309 325.16 299.996C325.691 299.684 326.156 299.27 326.555 298.754L327.879 299.785C326.816 301.418 325.223 302.234 323.098 302.234ZM322.828 290.867C321.953 290.867 321.219 291.188 320.625 291.828C320.031 292.461 319.664 293.352 319.523 294.5H325.875V294.336C325.812 293.234 325.516 292.383 324.984 291.781C324.453 291.172 323.734 290.867 322.828 290.867ZM332.73 290.855C333.691 289.676 334.941 289.086 336.48 289.086C339.16 289.086 340.512 290.598 340.535 293.621V302H338.367V293.609C338.359 292.695 338.148 292.02 337.734 291.582C337.328 291.145 336.691 290.926 335.824 290.926C335.121 290.926 334.504 291.113 333.973 291.488C333.441 291.863 333.027 292.355 332.73 292.965V302H330.562V284H332.73V290.855ZM343.207 295.543C343.207 294.301 343.449 293.184 343.934 292.191C344.426 291.199 345.105 290.434 345.973 289.895C346.848 289.355 347.844 289.086 348.961 289.086C350.688 289.086 352.082 289.684 353.145 290.879C354.215 292.074 354.75 293.664 354.75 295.648V295.801C354.75 297.035 354.512 298.145 354.035 299.129C353.566 300.105 352.891 300.867 352.008 301.414C351.133 301.961 350.125 302.234 348.984 302.234C347.266 302.234 345.871 301.637 344.801 300.441C343.738 299.246 343.207 297.664 343.207 295.695V295.543ZM345.387 295.801C345.387 297.207 345.711 298.336 346.359 299.188C347.016 300.039 347.891 300.465 348.984 300.465C350.086 300.465 350.961 300.035 351.609 299.176C352.258 298.309 352.582 297.098 352.582 295.543C352.582 294.152 352.25 293.027 351.586 292.168C350.93 291.301 350.055 290.867 348.961 290.867C347.891 290.867 347.027 291.293 346.371 292.145C345.715 292.996 345.387 294.215 345.387 295.801ZM365.297 300.746C364.453 301.738 363.215 302.234 361.582 302.234C360.23 302.234 359.199 301.844 358.488 301.062C357.785 300.273 357.43 299.109 357.422 297.57V289.32H359.59V297.512C359.59 299.434 360.371 300.395 361.934 300.395C363.59 300.395 364.691 299.777 365.238 298.543V289.32H367.406V302H365.344L365.297 300.746ZM378.094 298.637C378.094 298.051 377.871 297.598 377.426 297.277C376.988 296.949 376.219 296.668 375.117 296.434C374.023 296.199 373.152 295.918 372.504 295.59C371.863 295.262 371.387 294.871 371.074 294.418C370.77 293.965 370.617 293.426 370.617 292.801C370.617 291.762 371.055 290.883 371.93 290.164C372.812 289.445 373.938 289.086 375.305 289.086C376.742 289.086 377.906 289.457 378.797 290.199C379.695 290.941 380.145 291.891 380.145 293.047H377.965C377.965 292.453 377.711 291.941 377.203 291.512C376.703 291.082 376.07 290.867 375.305 290.867C374.516 290.867 373.898 291.039 373.453 291.383C373.008 291.727 372.785 292.176 372.785 292.73C372.785 293.254 372.992 293.648 373.406 293.914C373.82 294.18 374.566 294.434 375.645 294.676C376.73 294.918 377.609 295.207 378.281 295.543C378.953 295.879 379.449 296.285 379.77 296.762C380.098 297.23 380.262 297.805 380.262 298.484C380.262 299.617 379.809 300.527 378.902 301.215C377.996 301.895 376.82 302.234 375.375 302.234C374.359 302.234 373.461 302.055 372.68 301.695C371.898 301.336 371.285 300.836 370.84 300.195C370.402 299.547 370.184 298.848 370.184 298.098H372.352C372.391 298.824 372.68 299.402 373.219 299.832C373.766 300.254 374.484 300.465 375.375 300.465C376.195 300.465 376.852 300.301 377.344 299.973C377.844 299.637 378.094 299.191 378.094 298.637ZM388.348 302.234C386.629 302.234 385.23 301.672 384.152 300.547C383.074 299.414 382.535 297.902 382.535 296.012V295.613C382.535 294.355 382.773 293.234 383.25 292.25C383.734 291.258 384.406 290.484 385.266 289.93C386.133 289.367 387.07 289.086 388.078 289.086C389.727 289.086 391.008 289.629 391.922 290.715C392.836 291.801 393.293 293.355 393.293 295.379V296.281H384.703C384.734 297.531 385.098 298.543 385.793 299.316C386.496 300.082 387.387 300.465 388.465 300.465C389.23 300.465 389.879 300.309 390.41 299.996C390.941 299.684 391.406 299.27 391.805 298.754L393.129 299.785C392.066 301.418 390.473 302.234 388.348 302.234ZM388.078 290.867C387.203 290.867 386.469 291.188 385.875 291.828C385.281 292.461 384.914 293.352 384.773 294.5H391.125V294.336C391.062 293.234 390.766 292.383 390.234 291.781C389.703 291.172 388.984 290.867 388.078 290.867Z" fill="#F4F4F4"/>
<defs>
<linearGradient id="paint0_linear_547:7990" x1="432.5" y1="0" x2="432.5" y2="822" gradientUnits="userSpaceOnUse">
<stop offset="0.0001" stop-color="#A7915A"/>
<stop offset="1" stop-color="#FFB0C3"/>
</linearGradient>
</defs>
</svg>
