<svg width="872" height="839" viewBox="0 0 872 839" fill="none" xmlns="http://www.w3.org/2000/svg">
<path d="M865 554.5C865 327.511 527.638 0 391.5 0C255.362 0 0 178.011 0 405C0 631.989 255.362 822 391.5 822C527.638 822 865 781.489 865 554.5Z" fill="url(#paint0_linear_513:7777)"/>
<path d="M239.471 223.219H231.016L229.539 228H222.947L232.334 202.406H238.135L247.592 228H240.965L239.471 223.219ZM232.492 218.455H237.994L235.234 209.578L232.492 218.455ZM260.705 214.342L258.754 214.201C256.891 214.201 255.695 214.787 255.168 215.959V228H249.244V208.98H254.799L254.992 211.424C255.988 209.561 257.377 208.629 259.158 208.629C259.791 208.629 260.342 208.699 260.811 208.84L260.705 214.342ZM271.691 228.352C268.773 228.352 266.412 227.484 264.607 225.75C262.803 224.004 261.9 221.736 261.9 218.947V218.455C261.9 216.51 262.258 214.793 262.973 213.305C263.699 211.816 264.754 210.668 266.137 209.859C267.52 209.039 269.16 208.629 271.059 208.629C273.73 208.629 275.84 209.461 277.387 211.125C278.934 212.777 279.707 215.086 279.707 218.051V220.354H267.93C268.141 221.42 268.604 222.258 269.318 222.867C270.033 223.477 270.959 223.781 272.096 223.781C273.971 223.781 275.436 223.125 276.49 221.812L279.197 225.012C278.459 226.031 277.41 226.846 276.051 227.455C274.703 228.053 273.25 228.352 271.691 228.352ZM271.023 213.199C269.289 213.199 268.258 214.348 267.93 216.645H273.906V216.188C273.93 215.238 273.689 214.506 273.186 213.99C272.682 213.463 271.961 213.199 271.023 213.199ZM307.498 220.195L309.414 208.98H315.092L310.609 228H305.6L302.453 216.715L299.289 228H294.279L289.797 208.98H295.475L297.355 220.459L300.379 208.98H304.51L307.498 220.195ZM326.43 228.352C323.512 228.352 321.15 227.484 319.346 225.75C317.541 224.004 316.639 221.736 316.639 218.947V218.455C316.639 216.51 316.996 214.793 317.711 213.305C318.438 211.816 319.492 210.668 320.875 209.859C322.258 209.039 323.898 208.629 325.797 208.629C328.469 208.629 330.578 209.461 332.125 211.125C333.672 212.777 334.445 215.086 334.445 218.051V220.354H322.668C322.879 221.42 323.342 222.258 324.057 222.867C324.771 223.477 325.697 223.781 326.834 223.781C328.709 223.781 330.174 223.125 331.229 221.812L333.936 225.012C333.197 226.031 332.148 226.846 330.789 227.455C329.441 228.053 327.988 228.352 326.43 228.352ZM325.762 213.199C324.027 213.199 322.996 214.348 322.668 216.645H328.645V216.188C328.668 215.238 328.428 214.506 327.924 213.99C327.42 213.463 326.699 213.199 325.762 213.199ZM356.523 228C356.312 227.613 356.125 227.045 355.961 226.295C354.871 227.666 353.348 228.352 351.391 228.352C349.598 228.352 348.074 227.812 346.82 226.734C345.566 225.645 344.939 224.279 344.939 222.639C344.939 220.576 345.701 219.018 347.225 217.963C348.748 216.908 350.963 216.381 353.869 216.381H355.697V215.379C355.697 213.633 354.941 212.76 353.43 212.76C352.023 212.76 351.32 213.451 351.32 214.834H345.396C345.396 212.994 346.176 211.5 347.734 210.352C349.305 209.203 351.303 208.629 353.729 208.629C356.154 208.629 358.07 209.221 359.477 210.404C360.883 211.588 361.604 213.211 361.639 215.273V223.693C361.662 225.439 361.932 226.775 362.447 227.701V228H356.523ZM352.814 224.133C353.553 224.133 354.162 223.975 354.643 223.658C355.135 223.342 355.486 222.984 355.697 222.586V219.545H353.975C351.912 219.545 350.881 220.471 350.881 222.322C350.881 222.861 351.062 223.301 351.426 223.641C351.789 223.969 352.252 224.133 352.814 224.133ZM373.205 218.35C373.205 216.428 373.521 214.729 374.154 213.252C374.787 211.775 375.695 210.639 376.879 209.842C378.062 209.033 379.439 208.629 381.01 208.629C382.99 208.629 384.537 209.297 385.65 210.633L385.861 208.98H391.24V227.279C391.24 228.955 390.848 230.408 390.062 231.639C389.289 232.881 388.164 233.83 386.688 234.486C385.211 235.154 383.5 235.488 381.555 235.488C380.16 235.488 378.807 235.225 377.494 234.697C376.193 234.17 375.197 233.484 374.506 232.641L376.984 229.16C378.086 230.461 379.539 231.111 381.344 231.111C383.969 231.111 385.281 229.764 385.281 227.068V226.471C384.145 227.725 382.709 228.352 380.975 228.352C378.654 228.352 376.779 227.467 375.35 225.697C373.92 223.916 373.205 221.537 373.205 218.561V218.35ZM379.146 218.719C379.146 220.277 379.439 221.514 380.025 222.428C380.611 223.33 381.432 223.781 382.486 223.781C383.764 223.781 384.695 223.354 385.281 222.498V214.5C384.707 213.633 383.787 213.199 382.521 213.199C381.467 213.199 380.641 213.674 380.043 214.623C379.445 215.561 379.146 216.926 379.146 218.719ZM393.859 218.314C393.859 216.416 394.229 214.729 394.967 213.252C395.705 211.764 396.766 210.621 398.148 209.824C399.531 209.027 401.154 208.629 403.018 208.629C405.865 208.629 408.109 209.514 409.75 211.283C411.391 213.041 412.211 215.438 412.211 218.473V218.684C412.211 221.648 411.385 224.004 409.732 225.75C408.092 227.484 405.865 228.352 403.053 228.352C400.346 228.352 398.172 227.543 396.531 225.926C394.891 224.297 394.006 222.094 393.877 219.316L393.859 218.314ZM399.783 218.684C399.783 220.441 400.059 221.73 400.609 222.551C401.16 223.371 401.975 223.781 403.053 223.781C405.162 223.781 406.24 222.158 406.287 218.912V218.314C406.287 214.904 405.197 213.199 403.018 213.199C401.037 213.199 399.965 214.67 399.801 217.611L399.783 218.684ZM414.074 218.314C414.074 216.416 414.443 214.729 415.182 213.252C415.92 211.764 416.98 210.621 418.363 209.824C419.746 209.027 421.369 208.629 423.232 208.629C426.08 208.629 428.324 209.514 429.965 211.283C431.605 213.041 432.426 215.438 432.426 218.473V218.684C432.426 221.648 431.6 224.004 429.947 225.75C428.307 227.484 426.08 228.352 423.268 228.352C420.561 228.352 418.387 227.543 416.746 225.926C415.105 224.297 414.221 222.094 414.092 219.316L414.074 218.314ZM419.998 218.684C419.998 220.441 420.273 221.73 420.824 222.551C421.375 223.371 422.189 223.781 423.268 223.781C425.377 223.781 426.455 222.158 426.502 218.912V218.314C426.502 214.904 425.412 213.199 423.232 213.199C421.252 213.199 420.18 214.67 420.016 217.611L419.998 218.684ZM434.289 218.35C434.289 215.338 434.939 212.965 436.24 211.23C437.541 209.496 439.357 208.629 441.689 208.629C443.389 208.629 444.818 209.297 445.979 210.633V201H451.92V228H446.594L446.295 225.961C445.076 227.555 443.529 228.352 441.654 228.352C439.393 228.352 437.6 227.484 436.275 225.75C434.951 224.016 434.289 221.549 434.289 218.35ZM440.213 218.719C440.213 222.094 441.197 223.781 443.166 223.781C444.479 223.781 445.416 223.23 445.979 222.129V214.887C445.439 213.762 444.514 213.199 443.201 213.199C441.373 213.199 440.383 214.676 440.23 217.629L440.213 218.719ZM465.631 228V213.094H462.871V208.98H465.631V208.348C465.666 205.816 466.498 203.877 468.127 202.529C469.674 201.264 471.836 200.631 474.613 200.631C476.359 200.631 478.422 200.971 480.801 201.65L479.992 206.326L479.008 206.062C477.73 205.723 476.383 205.553 474.965 205.553C472.703 205.553 471.572 206.584 471.572 208.646V208.98H475.299V213.094H471.572V228H465.631ZM483.525 228H477.566V208.98H483.525V228ZM494.037 204.252V208.98H497.166V213.094H494.037V221.795C494.037 222.51 494.166 223.008 494.424 223.289C494.682 223.57 495.191 223.711 495.953 223.711C496.539 223.711 497.031 223.676 497.43 223.605V227.842C496.363 228.182 495.25 228.352 494.09 228.352C492.051 228.352 490.545 227.871 489.572 226.91C488.6 225.949 488.113 224.49 488.113 222.533V213.094H485.688V208.98H488.113V204.252H494.037ZM503.898 219.896C503.898 218.186 504.092 216.838 504.479 215.854C504.865 214.857 505.492 213.996 506.359 213.27C507.227 212.543 507.883 211.881 508.328 211.283C508.785 210.674 509.014 210.006 509.014 209.279C509.014 207.51 508.252 206.625 506.729 206.625C506.025 206.625 505.457 206.883 505.023 207.398C504.59 207.914 504.361 208.611 504.338 209.49H498.396C498.42 207.146 499.158 205.324 500.611 204.023C502.064 202.711 504.104 202.055 506.729 202.055C509.342 202.055 511.363 202.658 512.793 203.865C514.234 205.072 514.955 206.789 514.955 209.016C514.955 209.988 514.762 210.873 514.375 211.67C513.988 212.467 513.367 213.281 512.512 214.113L510.49 215.994C509.916 216.545 509.518 217.113 509.295 217.699C509.072 218.273 508.949 219.006 508.926 219.896H503.898ZM503.178 225.24C503.178 224.373 503.488 223.664 504.109 223.113C504.742 222.551 505.527 222.27 506.465 222.27C507.402 222.27 508.182 222.551 508.803 223.113C509.436 223.664 509.752 224.373 509.752 225.24C509.752 226.107 509.436 226.822 508.803 227.385C508.182 227.936 507.402 228.211 506.465 228.211C505.527 228.211 504.742 227.936 504.109 227.385C503.488 226.822 503.178 226.107 503.178 225.24Z" fill="white"/>
<path d="M230.184 267.504L234.637 258.938H237.191L231.309 269.637V276H229.059V269.637L223.176 258.938H225.754L230.184 267.504ZM237.707 269.543C237.707 268.301 237.949 267.184 238.434 266.191C238.926 265.199 239.605 264.434 240.473 263.895C241.348 263.355 242.344 263.086 243.461 263.086C245.188 263.086 246.582 263.684 247.645 264.879C248.715 266.074 249.25 267.664 249.25 269.648V269.801C249.25 271.035 249.012 272.145 248.535 273.129C248.066 274.105 247.391 274.867 246.508 275.414C245.633 275.961 244.625 276.234 243.484 276.234C241.766 276.234 240.371 275.637 239.301 274.441C238.238 273.246 237.707 271.664 237.707 269.695V269.543ZM239.887 269.801C239.887 271.207 240.211 272.336 240.859 273.188C241.516 274.039 242.391 274.465 243.484 274.465C244.586 274.465 245.461 274.035 246.109 273.176C246.758 272.309 247.082 271.098 247.082 269.543C247.082 268.152 246.75 267.027 246.086 266.168C245.43 265.301 244.555 264.867 243.461 264.867C242.391 264.867 241.527 265.293 240.871 266.145C240.215 266.996 239.887 268.215 239.887 269.801ZM259.797 274.746C258.953 275.738 257.715 276.234 256.082 276.234C254.73 276.234 253.699 275.844 252.988 275.062C252.285 274.273 251.93 273.109 251.922 271.57V263.32H254.09V271.512C254.09 273.434 254.871 274.395 256.434 274.395C258.09 274.395 259.191 273.777 259.738 272.543V263.32H261.906V276H259.844L259.797 274.746ZM270.648 269.555C270.648 267.578 271.105 266.008 272.02 264.844C272.934 263.672 274.145 263.086 275.652 263.086C277.199 263.086 278.406 263.633 279.273 264.727L279.379 263.32H281.359V275.695C281.359 277.336 280.871 278.629 279.895 279.574C278.926 280.52 277.621 280.992 275.98 280.992C275.066 280.992 274.172 280.797 273.297 280.406C272.422 280.016 271.754 279.48 271.293 278.801L272.418 277.5C273.348 278.648 274.484 279.223 275.828 279.223C276.883 279.223 277.703 278.926 278.289 278.332C278.883 277.738 279.18 276.902 279.18 275.824V274.734C278.312 275.734 277.129 276.234 275.629 276.234C274.145 276.234 272.941 275.637 272.02 274.441C271.105 273.246 270.648 271.617 270.648 269.555ZM272.828 269.801C272.828 271.23 273.121 272.355 273.707 273.176C274.293 273.988 275.113 274.395 276.168 274.395C277.535 274.395 278.539 273.773 279.18 272.531V266.742C278.516 265.531 277.52 264.926 276.191 264.926C275.137 264.926 274.312 265.336 273.719 266.156C273.125 266.977 272.828 268.191 272.828 269.801ZM289.902 276.234C288.184 276.234 286.785 275.672 285.707 274.547C284.629 273.414 284.09 271.902 284.09 270.012V269.613C284.09 268.355 284.328 267.234 284.805 266.25C285.289 265.258 285.961 264.484 286.82 263.93C287.688 263.367 288.625 263.086 289.633 263.086C291.281 263.086 292.562 263.629 293.477 264.715C294.391 265.801 294.848 267.355 294.848 269.379V270.281H286.258C286.289 271.531 286.652 272.543 287.348 273.316C288.051 274.082 288.941 274.465 290.02 274.465C290.785 274.465 291.434 274.309 291.965 273.996C292.496 273.684 292.961 273.27 293.359 272.754L294.684 273.785C293.621 275.418 292.027 276.234 289.902 276.234ZM289.633 264.867C288.758 264.867 288.023 265.188 287.43 265.828C286.836 266.461 286.469 267.352 286.328 268.5H292.68V268.336C292.617 267.234 292.32 266.383 291.789 265.781C291.258 265.172 290.539 264.867 289.633 264.867ZM300.309 260.25V263.32H302.676V264.996H300.309V272.859C300.309 273.367 300.414 273.75 300.625 274.008C300.836 274.258 301.195 274.383 301.703 274.383C301.953 274.383 302.297 274.336 302.734 274.242V276C302.164 276.156 301.609 276.234 301.07 276.234C300.102 276.234 299.371 275.941 298.879 275.355C298.387 274.77 298.141 273.938 298.141 272.859V264.996H295.832V263.32H298.141V260.25H300.309ZM313.527 276H311.359V263.32H313.527V276ZM311.184 259.957C311.184 259.605 311.289 259.309 311.5 259.066C311.719 258.824 312.039 258.703 312.461 258.703C312.883 258.703 313.203 258.824 313.422 259.066C313.641 259.309 313.75 259.605 313.75 259.957C313.75 260.309 313.641 260.602 313.422 260.836C313.203 261.07 312.883 261.188 312.461 261.188C312.039 261.188 311.719 261.07 311.5 260.836C311.289 260.602 311.184 260.309 311.184 259.957ZM319.059 263.32L319.129 264.914C320.098 263.695 321.363 263.086 322.926 263.086C325.605 263.086 326.957 264.598 326.98 267.621V276H324.812V267.609C324.805 266.695 324.594 266.02 324.18 265.582C323.773 265.145 323.137 264.926 322.27 264.926C321.566 264.926 320.949 265.113 320.418 265.488C319.887 265.863 319.473 266.355 319.176 266.965V276H317.008V263.32H319.059ZM339.145 260.25V263.32H341.512V264.996H339.145V272.859C339.145 273.367 339.25 273.75 339.461 274.008C339.672 274.258 340.031 274.383 340.539 274.383C340.789 274.383 341.133 274.336 341.57 274.242V276C341 276.156 340.445 276.234 339.906 276.234C338.938 276.234 338.207 275.941 337.715 275.355C337.223 274.77 336.977 273.938 336.977 272.859V264.996H334.668V263.32H336.977V260.25H339.145ZM343.246 269.543C343.246 268.301 343.488 267.184 343.973 266.191C344.465 265.199 345.145 264.434 346.012 263.895C346.887 263.355 347.883 263.086 349 263.086C350.727 263.086 352.121 263.684 353.184 264.879C354.254 266.074 354.789 267.664 354.789 269.648V269.801C354.789 271.035 354.551 272.145 354.074 273.129C353.605 274.105 352.93 274.867 352.047 275.414C351.172 275.961 350.164 276.234 349.023 276.234C347.305 276.234 345.91 275.637 344.84 274.441C343.777 273.246 343.246 271.664 343.246 269.695V269.543ZM345.426 269.801C345.426 271.207 345.75 272.336 346.398 273.188C347.055 274.039 347.93 274.465 349.023 274.465C350.125 274.465 351 274.035 351.648 273.176C352.297 272.309 352.621 271.098 352.621 269.543C352.621 268.152 352.289 267.027 351.625 266.168C350.969 265.301 350.094 264.867 349 264.867C347.93 264.867 347.066 265.293 346.41 266.145C345.754 266.996 345.426 268.215 345.426 269.801ZM365.336 274.746C364.492 275.738 363.254 276.234 361.621 276.234C360.27 276.234 359.238 275.844 358.527 275.062C357.824 274.273 357.469 273.109 357.461 271.57V263.32H359.629V271.512C359.629 273.434 360.41 274.395 361.973 274.395C363.629 274.395 364.73 273.777 365.277 272.543V263.32H367.445V276H365.383L365.336 274.746ZM375.836 274.465C376.609 274.465 377.285 274.23 377.863 273.762C378.441 273.293 378.762 272.707 378.824 272.004H380.875C380.836 272.73 380.586 273.422 380.125 274.078C379.664 274.734 379.047 275.258 378.273 275.648C377.508 276.039 376.695 276.234 375.836 276.234C374.109 276.234 372.734 275.66 371.711 274.512C370.695 273.355 370.188 271.777 370.188 269.777V269.414C370.188 268.18 370.414 267.082 370.867 266.121C371.32 265.16 371.969 264.414 372.812 263.883C373.664 263.352 374.668 263.086 375.824 263.086C377.246 263.086 378.426 263.512 379.363 264.363C380.309 265.215 380.812 266.32 380.875 267.68H378.824C378.762 266.859 378.449 266.188 377.887 265.664C377.332 265.133 376.645 264.867 375.824 264.867C374.723 264.867 373.867 265.266 373.258 266.062C372.656 266.852 372.355 267.996 372.355 269.496V269.906C372.355 271.367 372.656 272.492 373.258 273.281C373.859 274.07 374.719 274.465 375.836 274.465ZM385.48 264.855C386.441 263.676 387.691 263.086 389.23 263.086C391.91 263.086 393.262 264.598 393.285 267.621V276H391.117V267.609C391.109 266.695 390.898 266.02 390.484 265.582C390.078 265.145 389.441 264.926 388.574 264.926C387.871 264.926 387.254 265.113 386.723 265.488C386.191 265.863 385.777 266.355 385.48 266.965V276H383.312V258H385.48V264.855ZM410.312 276C410.188 275.75 410.086 275.305 410.008 274.664C409 275.711 407.797 276.234 406.398 276.234C405.148 276.234 404.121 275.883 403.316 275.18C402.52 274.469 402.121 273.57 402.121 272.484C402.121 271.164 402.621 270.141 403.621 269.414C404.629 268.68 406.043 268.312 407.863 268.312H409.973V267.316C409.973 266.559 409.746 265.957 409.293 265.512C408.84 265.059 408.172 264.832 407.289 264.832C406.516 264.832 405.867 265.027 405.344 265.418C404.82 265.809 404.559 266.281 404.559 266.836H402.379C402.379 266.203 402.602 265.594 403.047 265.008C403.5 264.414 404.109 263.945 404.875 263.602C405.648 263.258 406.496 263.086 407.418 263.086C408.879 263.086 410.023 263.453 410.852 264.188C411.68 264.914 412.109 265.918 412.141 267.199V273.035C412.141 274.199 412.289 275.125 412.586 275.812V276H410.312ZM406.715 274.348C407.395 274.348 408.039 274.172 408.648 273.82C409.258 273.469 409.699 273.012 409.973 272.449V269.848H408.273C405.617 269.848 404.289 270.625 404.289 272.18C404.289 272.859 404.516 273.391 404.969 273.773C405.422 274.156 406.004 274.348 406.715 274.348ZM417.59 263.32L417.66 264.914C418.629 263.695 419.895 263.086 421.457 263.086C424.137 263.086 425.488 264.598 425.512 267.621V276H423.344V267.609C423.336 266.695 423.125 266.02 422.711 265.582C422.305 265.145 421.668 264.926 420.801 264.926C420.098 264.926 419.48 265.113 418.949 265.488C418.418 265.863 418.004 266.355 417.707 266.965V276H415.539V263.32H417.59ZM428.254 269.555C428.254 267.609 428.715 266.047 429.637 264.867C430.559 263.68 431.766 263.086 433.258 263.086C434.742 263.086 435.918 263.594 436.785 264.609V258H438.953V276H436.961L436.855 274.641C435.988 275.703 434.781 276.234 433.234 276.234C431.766 276.234 430.566 275.633 429.637 274.43C428.715 273.227 428.254 271.656 428.254 269.719V269.555ZM430.422 269.801C430.422 271.238 430.719 272.363 431.312 273.176C431.906 273.988 432.727 274.395 433.773 274.395C435.148 274.395 436.152 273.777 436.785 272.543V266.719C436.137 265.523 435.141 264.926 433.797 264.926C432.734 264.926 431.906 265.336 431.312 266.156C430.719 266.977 430.422 268.191 430.422 269.801ZM459.508 273.012L461.945 263.32H464.113L460.422 276H458.664L455.582 266.391L452.582 276H450.824L447.145 263.32H449.301L451.797 272.812L454.75 263.32H456.496L459.508 273.012ZM471.59 276.234C469.871 276.234 468.473 275.672 467.395 274.547C466.316 273.414 465.777 271.902 465.777 270.012V269.613C465.777 268.355 466.016 267.234 466.492 266.25C466.977 265.258 467.648 264.484 468.508 263.93C469.375 263.367 470.312 263.086 471.32 263.086C472.969 263.086 474.25 263.629 475.164 264.715C476.078 265.801 476.535 267.355 476.535 269.379V270.281H467.945C467.977 271.531 468.34 272.543 469.035 273.316C469.738 274.082 470.629 274.465 471.707 274.465C472.473 274.465 473.121 274.309 473.652 273.996C474.184 273.684 474.648 273.27 475.047 272.754L476.371 273.785C475.309 275.418 473.715 276.234 471.59 276.234ZM471.32 264.867C470.445 264.867 469.711 265.188 469.117 265.828C468.523 266.461 468.156 267.352 468.016 268.5H474.367V268.336C474.305 267.234 474.008 266.383 473.477 265.781C472.945 265.172 472.227 264.867 471.32 264.867ZM492.391 272.637C492.391 272.051 492.168 271.598 491.723 271.277C491.285 270.949 490.516 270.668 489.414 270.434C488.32 270.199 487.449 269.918 486.801 269.59C486.16 269.262 485.684 268.871 485.371 268.418C485.066 267.965 484.914 267.426 484.914 266.801C484.914 265.762 485.352 264.883 486.227 264.164C487.109 263.445 488.234 263.086 489.602 263.086C491.039 263.086 492.203 263.457 493.094 264.199C493.992 264.941 494.441 265.891 494.441 267.047H492.262C492.262 266.453 492.008 265.941 491.5 265.512C491 265.082 490.367 264.867 489.602 264.867C488.812 264.867 488.195 265.039 487.75 265.383C487.305 265.727 487.082 266.176 487.082 266.73C487.082 267.254 487.289 267.648 487.703 267.914C488.117 268.18 488.863 268.434 489.941 268.676C491.027 268.918 491.906 269.207 492.578 269.543C493.25 269.879 493.746 270.285 494.066 270.762C494.395 271.23 494.559 271.805 494.559 272.484C494.559 273.617 494.105 274.527 493.199 275.215C492.293 275.895 491.117 276.234 489.672 276.234C488.656 276.234 487.758 276.055 486.977 275.695C486.195 275.336 485.582 274.836 485.137 274.195C484.699 273.547 484.48 272.848 484.48 272.098H486.648C486.688 272.824 486.977 273.402 487.516 273.832C488.062 274.254 488.781 274.465 489.672 274.465C490.492 274.465 491.148 274.301 491.641 273.973C492.141 273.637 492.391 273.191 492.391 272.637ZM502.645 276.234C500.926 276.234 499.527 275.672 498.449 274.547C497.371 273.414 496.832 271.902 496.832 270.012V269.613C496.832 268.355 497.07 267.234 497.547 266.25C498.031 265.258 498.703 264.484 499.562 263.93C500.43 263.367 501.367 263.086 502.375 263.086C504.023 263.086 505.305 263.629 506.219 264.715C507.133 265.801 507.59 267.355 507.59 269.379V270.281H499C499.031 271.531 499.395 272.543 500.09 273.316C500.793 274.082 501.684 274.465 502.762 274.465C503.527 274.465 504.176 274.309 504.707 273.996C505.238 273.684 505.703 273.27 506.102 272.754L507.426 273.785C506.363 275.418 504.77 276.234 502.645 276.234ZM502.375 264.867C501.5 264.867 500.766 265.188 500.172 265.828C499.578 266.461 499.211 267.352 499.07 268.5H505.422V268.336C505.359 267.234 505.062 266.383 504.531 265.781C504 265.172 503.281 264.867 502.375 264.867ZM513.051 260.25V263.32H515.418V264.996H513.051V272.859C513.051 273.367 513.156 273.75 513.367 274.008C513.578 274.258 513.938 274.383 514.445 274.383C514.695 274.383 515.039 274.336 515.477 274.242V276C514.906 276.156 514.352 276.234 513.812 276.234C512.844 276.234 512.113 275.941 511.621 275.355C511.129 274.77 510.883 273.938 510.883 272.859V264.996H508.574V263.32H510.883V260.25H513.051ZM531.742 274.746C530.898 275.738 529.66 276.234 528.027 276.234C526.676 276.234 525.645 275.844 524.934 275.062C524.23 274.273 523.875 273.109 523.867 271.57V263.32H526.035V271.512C526.035 273.434 526.816 274.395 528.379 274.395C530.035 274.395 531.137 273.777 531.684 272.543V263.32H533.852V276H531.789L531.742 274.746ZM547.867 269.801C547.867 271.73 547.426 273.285 546.543 274.465C545.66 275.645 544.465 276.234 542.957 276.234C541.418 276.234 540.207 275.746 539.324 274.77V280.875H537.156V263.32H539.137L539.242 264.727C540.125 263.633 541.352 263.086 542.922 263.086C544.445 263.086 545.648 263.66 546.531 264.809C547.422 265.957 547.867 267.555 547.867 269.602V269.801ZM545.699 269.555C545.699 268.125 545.395 266.996 544.785 266.168C544.176 265.34 543.34 264.926 542.277 264.926C540.965 264.926 539.98 265.508 539.324 266.672V272.73C539.973 273.887 540.965 274.465 542.301 274.465C543.34 274.465 544.164 274.055 544.773 273.234C545.391 272.406 545.699 271.18 545.699 269.555ZM564.414 276C564.289 275.75 564.188 275.305 564.109 274.664C563.102 275.711 561.898 276.234 560.5 276.234C559.25 276.234 558.223 275.883 557.418 275.18C556.621 274.469 556.223 273.57 556.223 272.484C556.223 271.164 556.723 270.141 557.723 269.414C558.73 268.68 560.145 268.312 561.965 268.312H564.074V267.316C564.074 266.559 563.848 265.957 563.395 265.512C562.941 265.059 562.273 264.832 561.391 264.832C560.617 264.832 559.969 265.027 559.445 265.418C558.922 265.809 558.66 266.281 558.66 266.836H556.48C556.48 266.203 556.703 265.594 557.148 265.008C557.602 264.414 558.211 263.945 558.977 263.602C559.75 263.258 560.598 263.086 561.52 263.086C562.98 263.086 564.125 263.453 564.953 264.188C565.781 264.914 566.211 265.918 566.242 267.199V273.035C566.242 274.199 566.391 275.125 566.688 275.812V276H564.414ZM560.816 274.348C561.496 274.348 562.141 274.172 562.75 273.82C563.359 273.469 563.801 273.012 564.074 272.449V269.848H562.375C559.719 269.848 558.391 270.625 558.391 272.18C558.391 272.859 558.617 273.391 559.07 273.773C559.523 274.156 560.105 274.348 560.816 274.348ZM226.68 287.32L226.738 288.727C227.668 287.633 228.922 287.086 230.5 287.086C232.273 287.086 233.48 287.766 234.121 289.125C234.543 288.516 235.09 288.023 235.762 287.648C236.441 287.273 237.242 287.086 238.164 287.086C240.945 287.086 242.359 288.559 242.406 291.504V300H240.238V291.633C240.238 290.727 240.031 290.051 239.617 289.605C239.203 289.152 238.508 288.926 237.531 288.926C236.727 288.926 236.059 289.168 235.527 289.652C234.996 290.129 234.688 290.773 234.602 291.586V300H232.422V291.691C232.422 289.848 231.52 288.926 229.715 288.926C228.293 288.926 227.32 289.531 226.797 290.742V300H224.629V287.32H226.68ZM250.949 300.234C249.23 300.234 247.832 299.672 246.754 298.547C245.676 297.414 245.137 295.902 245.137 294.012V293.613C245.137 292.355 245.375 291.234 245.852 290.25C246.336 289.258 247.008 288.484 247.867 287.93C248.734 287.367 249.672 287.086 250.68 287.086C252.328 287.086 253.609 287.629 254.523 288.715C255.438 289.801 255.895 291.355 255.895 293.379V294.281H247.305C247.336 295.531 247.699 296.543 248.395 297.316C249.098 298.082 249.988 298.465 251.066 298.465C251.832 298.465 252.48 298.309 253.012 297.996C253.543 297.684 254.008 297.27 254.406 296.754L255.73 297.785C254.668 299.418 253.074 300.234 250.949 300.234ZM250.68 288.867C249.805 288.867 249.07 289.188 248.477 289.828C247.883 290.461 247.516 291.352 247.375 292.5H253.727V292.336C253.664 291.234 253.367 290.383 252.836 289.781C252.305 289.172 251.586 288.867 250.68 288.867ZM263.676 300.234C261.957 300.234 260.559 299.672 259.48 298.547C258.402 297.414 257.863 295.902 257.863 294.012V293.613C257.863 292.355 258.102 291.234 258.578 290.25C259.062 289.258 259.734 288.484 260.594 287.93C261.461 287.367 262.398 287.086 263.406 287.086C265.055 287.086 266.336 287.629 267.25 288.715C268.164 289.801 268.621 291.355 268.621 293.379V294.281H260.031C260.062 295.531 260.426 296.543 261.121 297.316C261.824 298.082 262.715 298.465 263.793 298.465C264.559 298.465 265.207 298.309 265.738 297.996C266.27 297.684 266.734 297.27 267.133 296.754L268.457 297.785C267.395 299.418 265.801 300.234 263.676 300.234ZM263.406 288.867C262.531 288.867 261.797 289.188 261.203 289.828C260.609 290.461 260.242 291.352 260.102 292.5H266.453V292.336C266.391 291.234 266.094 290.383 265.562 289.781C265.031 289.172 264.312 288.867 263.406 288.867ZM274.082 284.25V287.32H276.449V288.996H274.082V296.859C274.082 297.367 274.188 297.75 274.398 298.008C274.609 298.258 274.969 298.383 275.477 298.383C275.727 298.383 276.07 298.336 276.508 298.242V300C275.938 300.156 275.383 300.234 274.844 300.234C273.875 300.234 273.145 299.941 272.652 299.355C272.16 298.77 271.914 297.938 271.914 296.859V288.996H269.605V287.32H271.914V284.25H274.082ZM281.348 300H279.18V287.32H281.348V300ZM279.004 283.957C279.004 283.605 279.109 283.309 279.32 283.066C279.539 282.824 279.859 282.703 280.281 282.703C280.703 282.703 281.023 282.824 281.242 283.066C281.461 283.309 281.57 283.605 281.57 283.957C281.57 284.309 281.461 284.602 281.242 284.836C281.023 285.07 280.703 285.188 280.281 285.188C279.859 285.188 279.539 285.07 279.32 284.836C279.109 284.602 279.004 284.309 279.004 283.957ZM286.879 287.32L286.949 288.914C287.918 287.695 289.184 287.086 290.746 287.086C293.426 287.086 294.777 288.598 294.801 291.621V300H292.633V291.609C292.625 290.695 292.414 290.02 292 289.582C291.594 289.145 290.957 288.926 290.09 288.926C289.387 288.926 288.77 289.113 288.238 289.488C287.707 289.863 287.293 290.355 286.996 290.965V300H284.828V287.32H286.879ZM297.555 293.555C297.555 291.578 298.012 290.008 298.926 288.844C299.84 287.672 301.051 287.086 302.559 287.086C304.105 287.086 305.312 287.633 306.18 288.727L306.285 287.32H308.266V299.695C308.266 301.336 307.777 302.629 306.801 303.574C305.832 304.52 304.527 304.992 302.887 304.992C301.973 304.992 301.078 304.797 300.203 304.406C299.328 304.016 298.66 303.48 298.199 302.801L299.324 301.5C300.254 302.648 301.391 303.223 302.734 303.223C303.789 303.223 304.609 302.926 305.195 302.332C305.789 301.738 306.086 300.902 306.086 299.824V298.734C305.219 299.734 304.035 300.234 302.535 300.234C301.051 300.234 299.848 299.637 298.926 298.441C298.012 297.246 297.555 295.617 297.555 293.555ZM299.734 293.801C299.734 295.23 300.027 296.355 300.613 297.176C301.199 297.988 302.02 298.395 303.074 298.395C304.441 298.395 305.445 297.773 306.086 296.531V290.742C305.422 289.531 304.426 288.926 303.098 288.926C302.043 288.926 301.219 289.336 300.625 290.156C300.031 290.977 299.734 292.191 299.734 293.801ZM328.727 297.012L331.164 287.32H333.332L329.641 300H327.883L324.801 290.391L321.801 300H320.043L316.363 287.32H318.52L321.016 296.812L323.969 287.32H325.715L328.727 297.012ZM337.902 300H335.734V287.32H337.902V300ZM335.559 283.957C335.559 283.605 335.664 283.309 335.875 283.066C336.094 282.824 336.414 282.703 336.836 282.703C337.258 282.703 337.578 282.824 337.797 283.066C338.016 283.309 338.125 283.605 338.125 283.957C338.125 284.309 338.016 284.602 337.797 284.836C337.578 285.07 337.258 285.188 336.836 285.188C336.414 285.188 336.094 285.07 335.875 284.836C335.664 284.602 335.559 284.309 335.559 283.957ZM344.324 284.25V287.32H346.691V288.996H344.324V296.859C344.324 297.367 344.43 297.75 344.641 298.008C344.852 298.258 345.211 298.383 345.719 298.383C345.969 298.383 346.312 298.336 346.75 298.242V300C346.18 300.156 345.625 300.234 345.086 300.234C344.117 300.234 343.387 299.941 342.895 299.355C342.402 298.77 342.156 297.938 342.156 296.859V288.996H339.848V287.32H342.156V284.25H344.324ZM351.402 288.855C352.363 287.676 353.613 287.086 355.152 287.086C357.832 287.086 359.184 288.598 359.207 291.621V300H357.039V291.609C357.031 290.695 356.82 290.02 356.406 289.582C356 289.145 355.363 288.926 354.496 288.926C353.793 288.926 353.176 289.113 352.645 289.488C352.113 289.863 351.699 290.355 351.402 290.965V300H349.234V282H351.402V288.855ZM367.832 293.543C367.832 292.301 368.074 291.184 368.559 290.191C369.051 289.199 369.73 288.434 370.598 287.895C371.473 287.355 372.469 287.086 373.586 287.086C375.312 287.086 376.707 287.684 377.77 288.879C378.84 290.074 379.375 291.664 379.375 293.648V293.801C379.375 295.035 379.137 296.145 378.66 297.129C378.191 298.105 377.516 298.867 376.633 299.414C375.758 299.961 374.75 300.234 373.609 300.234C371.891 300.234 370.496 299.637 369.426 298.441C368.363 297.246 367.832 295.664 367.832 293.695V293.543ZM370.012 293.801C370.012 295.207 370.336 296.336 370.984 297.188C371.641 298.039 372.516 298.465 373.609 298.465C374.711 298.465 375.586 298.035 376.234 297.176C376.883 296.309 377.207 295.098 377.207 293.543C377.207 292.152 376.875 291.027 376.211 290.168C375.555 289.301 374.68 288.867 373.586 288.867C372.516 288.867 371.652 289.293 370.996 290.145C370.34 290.996 370.012 292.215 370.012 293.801ZM389.922 298.746C389.078 299.738 387.84 300.234 386.207 300.234C384.855 300.234 383.824 299.844 383.113 299.062C382.41 298.273 382.055 297.109 382.047 295.57V287.32H384.215V295.512C384.215 297.434 384.996 298.395 386.559 298.395C388.215 298.395 389.316 297.777 389.863 296.543V287.32H392.031V300H389.969L389.922 298.746ZM401.465 289.266C401.137 289.211 400.781 289.184 400.398 289.184C398.977 289.184 398.012 289.789 397.504 291V300H395.336V287.32H397.445L397.48 288.785C398.191 287.652 399.199 287.086 400.504 287.086C400.926 287.086 401.246 287.141 401.465 287.25V289.266ZM415.551 289.266C415.223 289.211 414.867 289.184 414.484 289.184C413.062 289.184 412.098 289.789 411.59 291V300H409.422V287.32H411.531L411.566 288.785C412.277 287.652 413.285 287.086 414.59 287.086C415.012 287.086 415.332 287.141 415.551 287.25V289.266ZM422.582 300.234C420.863 300.234 419.465 299.672 418.387 298.547C417.309 297.414 416.77 295.902 416.77 294.012V293.613C416.77 292.355 417.008 291.234 417.484 290.25C417.969 289.258 418.641 288.484 419.5 287.93C420.367 287.367 421.305 287.086 422.312 287.086C423.961 287.086 425.242 287.629 426.156 288.715C427.07 289.801 427.527 291.355 427.527 293.379V294.281H418.938C418.969 295.531 419.332 296.543 420.027 297.316C420.73 298.082 421.621 298.465 422.699 298.465C423.465 298.465 424.113 298.309 424.645 297.996C425.176 297.684 425.641 297.27 426.039 296.754L427.363 297.785C426.301 299.418 424.707 300.234 422.582 300.234ZM422.312 288.867C421.438 288.867 420.703 289.188 420.109 289.828C419.516 290.461 419.148 291.352 419.008 292.5H425.359V292.336C425.297 291.234 425 290.383 424.469 289.781C423.938 289.172 423.219 288.867 422.312 288.867ZM440.758 293.801C440.758 295.73 440.316 297.285 439.434 298.465C438.551 299.645 437.355 300.234 435.848 300.234C434.309 300.234 433.098 299.746 432.215 298.77V304.875H430.047V287.32H432.027L432.133 288.727C433.016 287.633 434.242 287.086 435.812 287.086C437.336 287.086 438.539 287.66 439.422 288.809C440.312 289.957 440.758 291.555 440.758 293.602V293.801ZM438.59 293.555C438.59 292.125 438.285 290.996 437.676 290.168C437.066 289.34 436.23 288.926 435.168 288.926C433.855 288.926 432.871 289.508 432.215 290.672V296.73C432.863 297.887 433.855 298.465 435.191 298.465C436.23 298.465 437.055 298.055 437.664 297.234C438.281 296.406 438.59 295.18 438.59 293.555ZM449.652 289.266C449.324 289.211 448.969 289.184 448.586 289.184C447.164 289.184 446.199 289.789 445.691 291V300H443.523V287.32H445.633L445.668 288.785C446.379 287.652 447.387 287.086 448.691 287.086C449.113 287.086 449.434 287.141 449.652 287.25V289.266ZM456.684 300.234C454.965 300.234 453.566 299.672 452.488 298.547C451.41 297.414 450.871 295.902 450.871 294.012V293.613C450.871 292.355 451.109 291.234 451.586 290.25C452.07 289.258 452.742 288.484 453.602 287.93C454.469 287.367 455.406 287.086 456.414 287.086C458.062 287.086 459.344 287.629 460.258 288.715C461.172 289.801 461.629 291.355 461.629 293.379V294.281H453.039C453.07 295.531 453.434 296.543 454.129 297.316C454.832 298.082 455.723 298.465 456.801 298.465C457.566 298.465 458.215 298.309 458.746 297.996C459.277 297.684 459.742 297.27 460.141 296.754L461.465 297.785C460.402 299.418 458.809 300.234 456.684 300.234ZM456.414 288.867C455.539 288.867 454.805 289.188 454.211 289.828C453.617 290.461 453.25 291.352 453.109 292.5H459.461V292.336C459.398 291.234 459.102 290.383 458.57 289.781C458.039 289.172 457.32 288.867 456.414 288.867ZM471.531 296.637C471.531 296.051 471.309 295.598 470.863 295.277C470.426 294.949 469.656 294.668 468.555 294.434C467.461 294.199 466.59 293.918 465.941 293.59C465.301 293.262 464.824 292.871 464.512 292.418C464.207 291.965 464.055 291.426 464.055 290.801C464.055 289.762 464.492 288.883 465.367 288.164C466.25 287.445 467.375 287.086 468.742 287.086C470.18 287.086 471.344 287.457 472.234 288.199C473.133 288.941 473.582 289.891 473.582 291.047H471.402C471.402 290.453 471.148 289.941 470.641 289.512C470.141 289.082 469.508 288.867 468.742 288.867C467.953 288.867 467.336 289.039 466.891 289.383C466.445 289.727 466.223 290.176 466.223 290.73C466.223 291.254 466.43 291.648 466.844 291.914C467.258 292.18 468.004 292.434 469.082 292.676C470.168 292.918 471.047 293.207 471.719 293.543C472.391 293.879 472.887 294.285 473.207 294.762C473.535 295.23 473.699 295.805 473.699 296.484C473.699 297.617 473.246 298.527 472.34 299.215C471.434 299.895 470.258 300.234 468.812 300.234C467.797 300.234 466.898 300.055 466.117 299.695C465.336 299.336 464.723 298.836 464.277 298.195C463.84 297.547 463.621 296.848 463.621 296.098H465.789C465.828 296.824 466.117 297.402 466.656 297.832C467.203 298.254 467.922 298.465 468.812 298.465C469.633 298.465 470.289 298.301 470.781 297.973C471.281 297.637 471.531 297.191 471.531 296.637ZM481.785 300.234C480.066 300.234 478.668 299.672 477.59 298.547C476.512 297.414 475.973 295.902 475.973 294.012V293.613C475.973 292.355 476.211 291.234 476.688 290.25C477.172 289.258 477.844 288.484 478.703 287.93C479.57 287.367 480.508 287.086 481.516 287.086C483.164 287.086 484.445 287.629 485.359 288.715C486.273 289.801 486.73 291.355 486.73 293.379V294.281H478.141C478.172 295.531 478.535 296.543 479.23 297.316C479.934 298.082 480.824 298.465 481.902 298.465C482.668 298.465 483.316 298.309 483.848 297.996C484.379 297.684 484.844 297.27 485.242 296.754L486.566 297.785C485.504 299.418 483.91 300.234 481.785 300.234ZM481.516 288.867C480.641 288.867 479.906 289.188 479.312 289.828C478.719 290.461 478.352 291.352 478.211 292.5H484.562V292.336C484.5 291.234 484.203 290.383 483.672 289.781C483.141 289.172 482.422 288.867 481.516 288.867ZM491.301 287.32L491.371 288.914C492.34 287.695 493.605 287.086 495.168 287.086C497.848 287.086 499.199 288.598 499.223 291.621V300H497.055V291.609C497.047 290.695 496.836 290.02 496.422 289.582C496.016 289.145 495.379 288.926 494.512 288.926C493.809 288.926 493.191 289.113 492.66 289.488C492.129 289.863 491.715 290.355 491.418 290.965V300H489.25V287.32H491.301ZM505.434 284.25V287.32H507.801V288.996H505.434V296.859C505.434 297.367 505.539 297.75 505.75 298.008C505.961 298.258 506.32 298.383 506.828 298.383C507.078 298.383 507.422 298.336 507.859 298.242V300C507.289 300.156 506.734 300.234 506.195 300.234C505.227 300.234 504.496 299.941 504.004 299.355C503.512 298.77 503.266 297.938 503.266 296.859V288.996H500.957V287.32H503.266V284.25H505.434ZM518.172 300C518.047 299.75 517.945 299.305 517.867 298.664C516.859 299.711 515.656 300.234 514.258 300.234C513.008 300.234 511.98 299.883 511.176 299.18C510.379 298.469 509.98 297.57 509.98 296.484C509.98 295.164 510.48 294.141 511.48 293.414C512.488 292.68 513.902 292.312 515.723 292.312H517.832V291.316C517.832 290.559 517.605 289.957 517.152 289.512C516.699 289.059 516.031 288.832 515.148 288.832C514.375 288.832 513.727 289.027 513.203 289.418C512.68 289.809 512.418 290.281 512.418 290.836H510.238C510.238 290.203 510.461 289.594 510.906 289.008C511.359 288.414 511.969 287.945 512.734 287.602C513.508 287.258 514.355 287.086 515.277 287.086C516.738 287.086 517.883 287.453 518.711 288.188C519.539 288.914 519.969 289.918 520 291.199V297.035C520 298.199 520.148 299.125 520.445 299.812V300H518.172ZM514.574 298.348C515.254 298.348 515.898 298.172 516.508 297.82C517.117 297.469 517.559 297.012 517.832 296.449V293.848H516.133C513.477 293.848 512.148 294.625 512.148 296.18C512.148 296.859 512.375 297.391 512.828 297.773C513.281 298.156 513.863 298.348 514.574 298.348ZM526.34 284.25V287.32H528.707V288.996H526.34V296.859C526.34 297.367 526.445 297.75 526.656 298.008C526.867 298.258 527.227 298.383 527.734 298.383C527.984 298.383 528.328 298.336 528.766 298.242V300C528.195 300.156 527.641 300.234 527.102 300.234C526.133 300.234 525.402 299.941 524.91 299.355C524.418 298.77 524.172 297.938 524.172 296.859V288.996H521.863V287.32H524.172V284.25H526.34ZM533.605 300H531.438V287.32H533.605V300ZM531.262 283.957C531.262 283.605 531.367 283.309 531.578 283.066C531.797 282.824 532.117 282.703 532.539 282.703C532.961 282.703 533.281 282.824 533.5 283.066C533.719 283.309 533.828 283.605 533.828 283.957C533.828 284.309 533.719 284.602 533.5 284.836C533.281 285.07 532.961 285.188 532.539 285.188C532.117 285.188 531.797 285.07 531.578 284.836C531.367 284.602 531.262 284.309 531.262 283.957ZM541.27 297.059L544.41 287.32H546.625L542.078 300H540.426L535.832 287.32H538.047L541.27 297.059ZM553.809 300.234C552.09 300.234 550.691 299.672 549.613 298.547C548.535 297.414 547.996 295.902 547.996 294.012V293.613C547.996 292.355 548.234 291.234 548.711 290.25C549.195 289.258 549.867 288.484 550.727 287.93C551.594 287.367 552.531 287.086 553.539 287.086C555.188 287.086 556.469 287.629 557.383 288.715C558.297 289.801 558.754 291.355 558.754 293.379V294.281H550.164C550.195 295.531 550.559 296.543 551.254 297.316C551.957 298.082 552.848 298.465 553.926 298.465C554.691 298.465 555.34 298.309 555.871 297.996C556.402 297.684 556.867 297.27 557.266 296.754L558.59 297.785C557.527 299.418 555.934 300.234 553.809 300.234ZM553.539 288.867C552.664 288.867 551.93 289.188 551.336 289.828C550.742 290.461 550.375 291.352 550.234 292.5H556.586V292.336C556.523 291.234 556.227 290.383 555.695 289.781C555.164 289.172 554.445 288.867 553.539 288.867Z" fill="#EAEAEA"/>
<path d="M667.917 598.584H637.757C637.757 599.447 606.673 600.147 606.673 600.147C606.185 600.513 605.74 600.932 605.347 601.398C604.167 602.799 603.521 604.571 603.525 606.4V607.651C603.526 609.724 604.354 611.711 605.826 613.177C607.299 614.642 609.296 615.466 611.378 615.467H667.917C669.999 615.465 671.995 614.641 673.467 613.176C674.94 611.71 675.767 609.723 675.769 607.651V606.4C675.766 604.328 674.938 602.342 673.466 600.876C671.994 599.411 669.998 598.587 667.917 598.584V598.584Z" fill="#3F3D56"/>
<path d="M644.044 615.156H635.877V667.681H644.044V615.156Z" fill="#3F3D56"/>
<path d="M667.288 667.396C667.288 668.274 654.913 667.735 639.647 667.735C624.381 667.735 612.006 668.274 612.006 667.396C612.006 666.517 624.381 659.552 639.647 659.552C654.913 659.552 667.288 666.517 667.288 667.396Z" fill="#3F3D56"/>
<path d="M598.808 660.488L591.106 660.487L587.441 630.918L598.809 630.919L598.808 660.488Z" fill="#FFB8B8"/>
<path d="M585.604 658.296H600.457V667.605H576.252C576.252 665.136 577.237 662.769 578.991 661.023C580.745 659.277 583.124 658.296 585.604 658.296V658.296Z" fill="#2F2E41"/>
<path d="M586.786 656.208L579.438 653.913L584.835 624.608L595.68 627.996L586.786 656.208Z" fill="#FFB8B8"/>
<path d="M574.847 650.184L589.019 654.61L586.218 663.492L563.124 656.278C563.491 655.112 564.086 654.029 564.874 653.091C565.663 652.154 566.629 651.38 567.717 650.814C568.806 650.248 569.996 649.901 571.219 649.793C572.442 649.685 573.675 649.818 574.847 650.184V650.184Z" fill="#2F2E41"/>
<path d="M647.291 593.458C647.113 591.968 646.794 590.498 646.336 589.068L644.898 587.268L641.154 582.59L640.99 582.597C640.714 582.609 639.564 582.672 637.786 582.809H637.767C636.668 582.897 635.324 583.009 633.797 583.153C633.395 583.197 632.974 583.234 632.541 583.278V589.806H640.393C640.775 589.807 641.144 589.945 641.43 590.196C641.717 590.447 641.902 590.793 641.951 591.169C641.958 591.238 641.964 591.301 641.964 591.369C641.964 591.784 641.798 592.182 641.504 592.475C641.209 592.768 640.81 592.933 640.393 592.933H594.786C594.204 593.317 593.646 593.734 593.114 594.183C591.508 595.421 590.35 597.147 589.816 599.098C587.153 610.754 582.297 632.489 580.864 638.873C580.761 639.354 580.784 639.854 580.933 640.323C581.082 640.792 581.35 641.215 581.713 641.549C581.98 641.798 582.294 641.991 582.636 642.119L588.303 644.232C588.535 644.318 588.778 644.374 589.025 644.401C589.056 644.401 589.081 644.407 589.113 644.407C589.171 644.412 589.23 644.414 589.289 644.413C589.862 644.411 590.421 644.237 590.892 643.913C591.364 643.59 591.727 643.132 591.933 642.6L596.406 630.919L603.298 612.911L606.024 605.789C609.184 606.527 635.695 612.367 644.571 602.956C645.447 602.029 646.137 600.945 646.607 599.761C647.354 597.748 647.589 595.583 647.291 593.458Z" fill="#2F2E41"/>
<path d="M654.982 595.159C654.844 594.603 654.686 594.027 654.504 593.446L649.322 586.968L649.158 586.974C648.831 586.993 647.28 587.074 644.899 587.268C642.198 587.493 638.422 587.856 634.182 588.425C634.056 588.437 633.924 588.456 633.799 588.475C633.384 588.531 632.963 588.587 632.542 588.65V589.807H640.395C640.776 589.807 641.145 589.946 641.431 590.196C641.718 590.447 641.903 590.793 641.953 591.17C641.959 591.239 641.965 591.301 641.965 591.37C641.965 591.784 641.8 592.182 641.505 592.475C641.211 592.768 640.811 592.933 640.395 592.933H612.64C611.428 593.327 610.26 593.74 609.141 594.184C603.274 596.497 598.883 599.53 597.984 603.476C597.683 604.801 597.35 606.258 596.998 607.809C595.691 613.574 594.102 620.634 592.664 627.049V627.055C592.368 628.381 592.073 629.669 591.79 630.92C590.59 636.297 589.573 640.856 589.032 643.251C589.02 643.319 589.008 643.382 588.995 643.451V643.463C588.932 643.948 588.993 644.44 589.171 644.895L589.177 644.901V644.908C589.35 645.343 589.631 645.729 589.994 646.027C590.236 646.226 590.51 646.385 590.804 646.496L596.471 648.609C596.786 648.727 597.12 648.788 597.457 648.791C597.929 648.792 598.394 648.674 598.807 648.447C599.401 648.127 599.86 647.605 600.101 646.977L612.301 615.112L614.192 610.166C617.352 610.904 643.862 616.738 652.739 607.334C654.493 605.444 655.493 602.983 655.553 600.412C655.615 598.643 655.423 596.874 654.982 595.159V595.159Z" fill="#2F2E41"/>
<path d="M654.284 539.995C654.184 539.877 654.077 539.758 653.964 539.645C652.291 537.894 650.225 536.563 647.935 535.76C645.645 534.956 643.197 534.704 640.791 535.024C638.691 535.299 636.612 535.706 634.565 536.244C631.921 536.92 629.5 538.272 627.542 540.164C626.016 541.637 624.814 543.409 624.013 545.368C623.212 547.327 622.828 549.43 622.887 551.545C622.912 552.401 622.918 553.277 622.906 554.165C622.906 554.577 622.899 554.996 622.893 555.415H629.087C629.356 555.414 629.624 555.446 629.885 555.509C630.641 555.689 631.314 556.116 631.796 556.723C632.278 557.33 632.541 558.081 632.542 558.854V587.943C632.963 588.062 633.384 588.181 633.799 588.306C633.931 588.349 634.056 588.387 634.182 588.424C634.326 588.468 634.471 588.512 634.609 588.556C635.884 588.95 637.13 589.367 638.347 589.806H640.395C640.777 589.807 641.145 589.945 641.432 590.196C641.718 590.447 641.903 590.793 641.953 591.17C642.38 591.338 642.795 591.507 643.203 591.676C644.654 592.276 646.03 592.877 647.293 593.458C648.995 594.233 650.509 594.971 651.778 595.615C652.177 595.818 652.618 595.925 653.066 595.928C653.654 595.926 654.226 595.738 654.699 595.39C654.797 595.318 654.892 595.241 654.982 595.159C655.318 594.845 655.572 594.454 655.722 594.021C655.872 593.587 655.913 593.123 655.842 592.67C655.194 587.758 655.005 582.797 655.277 577.851C655.453 573.693 655.83 569.428 656.32 565.307C656.584 563.075 656.879 560.886 657.187 558.779C657.482 556.766 657.796 554.834 658.104 553.008C658.508 550.692 658.374 548.316 657.712 546.06C657.049 543.805 655.877 541.73 654.284 539.995Z" fill="#00BFA6"/>
<path d="M628.534 540.508C628.212 540.37 627.88 540.256 627.542 540.164C625.868 539.716 624.087 539.881 622.526 540.631C620.964 541.38 619.725 542.664 619.036 544.247L614.72 554.165L614.18 555.415H629.087C629.356 555.415 629.624 555.446 629.885 555.509L630.387 554.352L632.297 549.963C633.056 548.212 633.086 546.233 632.38 544.461C631.675 542.688 630.292 541.267 628.534 540.508V540.508Z" fill="#00BFA6"/>
<path d="M641.937 530.142C650.459 530.142 657.367 523.266 657.367 514.784C657.367 506.302 650.459 499.426 641.937 499.426C633.416 499.426 626.508 506.302 626.508 514.784C626.508 523.266 633.416 530.142 641.937 530.142Z" fill="#FFB8B8"/>
<path d="M657.186 558.779L648.378 559.017L647.737 565.176L647.593 566.602L633.797 572.767L632.541 573.33V584.291L633.797 583.935L637.768 582.81H637.787L655.276 577.851L655.477 577.795C656.89 577.388 658.134 576.539 659.023 575.373C659.913 574.207 660.401 572.787 660.415 571.323L660.459 564.051L660.496 558.692L657.186 558.779Z" fill="#FFB8B8"/>
<path d="M660.052 546.599C659.994 545.656 659.75 544.734 659.334 543.885C658.918 543.036 658.338 542.278 657.627 541.652C656.191 540.388 654.31 539.744 652.398 539.861C650.485 539.978 648.697 540.847 647.428 542.275C646.159 543.704 645.511 545.577 645.629 547.48L646.59 563.088C646.616 563.499 646.732 563.899 646.931 564.259C647.13 564.62 647.406 564.933 647.74 565.176C648.271 565.57 648.925 565.763 649.586 565.72L656.321 565.308L658.363 565.183C658.734 565.164 659.099 565.071 659.434 564.909C659.768 564.747 660.066 564.519 660.31 564.238C660.364 564.179 660.414 564.116 660.461 564.051C660.86 563.519 661.056 562.863 661.013 562.2L660.052 546.599Z" fill="#00BFA6"/>
<path d="M634.609 588.556H633.798V588.475C633.384 588.531 632.963 588.587 632.542 588.65V589.806H638.346C637.128 589.369 635.882 588.952 634.609 588.556ZM634.609 588.556H633.798V588.475C633.384 588.531 632.963 588.587 632.542 588.65V589.806H638.346C637.128 589.369 635.882 588.952 634.609 588.556ZM640.395 588.556H633.798V558.854C633.796 557.837 633.462 556.849 632.847 556.037C632.232 555.225 631.369 554.634 630.387 554.352C629.965 554.226 629.527 554.162 629.087 554.165H573.176C571.927 554.166 570.73 554.661 569.846 555.54C568.963 556.419 568.466 557.611 568.465 558.854V589.494C568.465 590.737 568.962 591.93 569.845 592.809C570.729 593.689 571.927 594.183 573.176 594.184H640.395C641.09 594.182 641.762 593.926 642.28 593.463C642.798 593.001 643.126 592.365 643.203 591.676C643.215 591.574 643.222 591.472 643.222 591.37C643.22 590.624 642.922 589.909 642.392 589.381C641.862 588.854 641.144 588.557 640.395 588.556H640.395ZM641.965 591.37C641.965 591.784 641.799 592.182 641.505 592.475C641.21 592.768 640.811 592.933 640.395 592.933H573.176C572.26 592.932 571.382 592.57 570.734 591.925C570.086 591.28 569.722 590.406 569.721 589.494V558.854C569.722 557.942 570.086 557.068 570.734 556.423C571.382 555.778 572.26 555.416 573.176 555.415H629.087C629.356 555.414 629.624 555.446 629.885 555.509C630.641 555.689 631.314 556.117 631.796 556.723C632.278 557.33 632.541 558.081 632.542 558.854V589.806H640.395C640.776 589.807 641.145 589.945 641.431 590.196C641.718 590.447 641.903 590.793 641.953 591.17C641.959 591.238 641.965 591.301 641.965 591.37H641.965ZM634.609 588.556H633.798V588.475C633.384 588.531 632.963 588.587 632.542 588.65V589.806H638.346C637.128 589.369 635.882 588.952 634.609 588.556Z" fill="#D6D6D6"/>
<path d="M601.129 577.927C603.21 577.927 604.898 576.247 604.898 574.175C604.898 572.103 603.21 570.423 601.129 570.423C599.047 570.423 597.359 572.103 597.359 574.175C597.359 576.247 599.047 577.927 601.129 577.927Z" fill="#00BFA6"/>
<path d="M638.641 508.691C635.058 511.878 630.253 515.299 625.864 512.964C622.983 511.431 621.7 508.069 622.373 504.887C623.583 499.164 628.553 496.072 633.366 493.572C639.622 490.322 646.526 487.489 653.532 488.333C660.537 489.178 667.382 494.94 667.051 501.957C666.785 507.599 662.156 512.863 663.621 518.32C665.096 523.812 671.793 525.939 677.498 526.218C683.202 526.497 689.482 526.013 694.007 529.482C699.78 533.906 699.687 543.158 695.578 549.147C691.468 555.135 684.529 558.505 677.712 561.066C668.681 564.46 658.755 566.913 649.433 564.417C640.11 561.922 631.949 553.02 633.317 543.508C633.894 539.491 636.018 535.884 638.067 532.375C640.116 528.866 642.178 525.208 642.608 521.172C642.967 517.808 641.893 514.096 639.401 511.929C638.95 511.552 638.631 511.042 638.489 510.473C638.347 509.903 638.39 509.304 638.612 508.761L638.641 508.691Z" fill="#2F2E41"/>
<path d="M229 606.4V607.651C229.002 609.723 229.83 611.71 231.302 613.176C232.774 614.641 234.771 615.465 236.853 615.467H293.391C295.474 615.466 297.471 614.642 298.943 613.177C300.416 611.711 301.243 609.724 301.244 607.651V606.4C301.248 604.571 300.602 602.799 299.422 601.398C299.029 600.932 298.584 600.513 298.096 600.147C298.096 600.147 267.013 599.447 267.013 598.584H236.853C234.771 598.587 232.775 599.411 231.303 600.876C229.831 602.342 229.003 604.328 229 606.4V606.4Z" fill="#3F3D56"/>
<path d="M260.728 667.681H268.895V615.156H260.728V667.681Z" fill="#3F3D56"/>
<path d="M237.484 667.396C237.484 668.274 249.86 667.735 265.126 667.735C280.391 667.735 292.767 668.274 292.767 667.396C292.767 666.517 280.391 659.552 265.126 659.552C249.86 659.552 237.484 666.517 237.484 667.396Z" fill="#3F3D56"/>
<path d="M306.331 660.963H314.033L317.697 631.394L306.33 631.395L306.331 660.963Z" fill="#A0616A"/>
<path d="M328.887 668.081L304.681 668.082L304.681 658.773L319.534 658.772C322.015 658.772 324.393 659.753 326.147 661.498C327.901 663.244 328.887 665.612 328.887 668.081L328.887 668.081Z" fill="#2F2E41"/>
<path d="M318.356 656.685L325.704 654.389L320.306 625.085L309.461 628.473L318.356 656.685Z" fill="#A0616A"/>
<path d="M342.016 656.755L318.921 663.969L316.121 655.087L330.292 650.66C332.659 649.921 335.224 650.148 337.422 651.291C339.621 652.434 341.273 654.399 342.016 656.755L342.016 656.755Z" fill="#2F2E41"/>
<path d="M313.204 643.075L299.115 606.263C295.954 607.002 269.447 612.84 260.569 603.432C257.527 600.207 256.933 595.535 258.805 589.545L263.987 583.064L264.148 583.073C266.107 583.176 312.165 585.745 315.322 599.574C317.984 611.232 322.846 632.968 324.272 639.352C324.417 640.014 324.318 640.705 323.994 641.3C323.669 641.895 323.141 642.354 322.505 642.593L316.839 644.708C316.523 644.826 316.188 644.887 315.851 644.887C315.278 644.887 314.718 644.714 314.245 644.39C313.772 644.067 313.41 643.608 313.204 643.075V643.075Z" fill="#2F2E41"/>
<path d="M305.034 647.453L290.945 610.641C287.784 611.38 261.277 617.217 252.399 607.809C249.357 604.584 248.763 599.912 250.635 593.923L255.817 587.442L255.978 587.45C257.937 587.553 303.995 590.123 307.152 603.951C309.814 615.61 314.676 637.345 316.102 643.729C316.247 644.391 316.148 645.082 315.824 645.677C315.499 646.272 314.971 646.731 314.335 646.971L308.669 649.085C308.353 649.204 308.019 649.264 307.681 649.264C307.108 649.264 306.548 649.091 306.075 648.768C305.603 648.444 305.24 647.986 305.034 647.453V647.453Z" fill="#2F2E41"/>
<path d="M292.361 576.032C290.273 576.031 288.221 575.491 286.406 574.464C284.591 573.437 283.074 571.958 282.006 570.172L277.531 562.627L288.166 556.842L292.682 563.005L323.322 559.791C323.471 559.523 323.639 559.265 323.824 559.02C324.412 558.25 325.156 557.612 326.009 557.147C326.861 556.682 327.802 556.401 328.77 556.322C329.743 556.239 330.722 556.364 331.643 556.689C332.563 557.014 333.403 557.531 334.105 558.206C335.232 559.281 335.961 560.704 336.173 562.244C336.385 563.784 336.068 565.349 335.274 566.687C334.777 567.521 334.108 568.24 333.313 568.799C332.517 569.357 331.611 569.742 330.656 569.928C329.7 570.114 328.716 570.097 327.767 569.878C326.818 569.659 325.927 569.243 325.151 568.657C324.971 568.52 324.799 568.374 324.634 568.219L295.288 575.667C294.331 575.91 293.348 576.032 292.361 576.032V576.032Z" fill="#A0616A"/>
<path d="M250.438 595.866C250.014 595.562 249.683 595.147 249.481 594.667C249.28 594.187 249.215 593.661 249.296 593.147C251.044 581.677 249.033 565.246 247.037 553.482C246.629 551.096 246.788 548.647 247.502 546.332C248.215 544.017 249.463 541.901 251.146 540.153C252.829 538.404 254.9 537.073 257.193 536.264C259.486 535.456 261.937 535.194 264.35 535.498C266.45 535.774 268.53 536.182 270.578 536.72V536.72C273.979 537.572 276.988 539.552 279.11 542.332C281.231 545.113 282.339 548.529 282.251 552.019C281.953 563.371 284.269 577.535 285.278 583.097C285.347 583.479 285.336 583.872 285.246 584.249C285.156 584.627 284.988 584.982 284.754 585.293C284.525 585.6 284.233 585.856 283.898 586.044C283.563 586.233 283.193 586.349 282.81 586.387C271.623 587.523 259.558 592.954 253.363 596.089C252.965 596.294 252.523 596.401 252.075 596.403C251.486 596.401 250.913 596.213 250.438 595.866Z" fill="white"/>
<path d="M280.636 566.282C280.29 566.147 279.975 565.945 279.708 565.688C279.441 565.43 279.228 565.123 279.082 564.783L272.843 550.437C272.465 549.571 272.263 548.638 272.247 547.693C272.231 546.749 272.403 545.81 272.752 544.932C273.101 544.053 273.621 543.252 274.281 542.573C274.941 541.894 275.73 541.352 276.601 540.976C277.472 540.601 278.409 540.4 279.358 540.386C280.307 540.371 281.25 540.543 282.132 540.891C283.014 541.239 283.819 541.757 284.501 542.414C285.182 543.072 285.726 543.857 286.103 544.725L292.342 559.071C292.638 559.755 292.65 560.53 292.374 561.223C292.099 561.917 291.558 562.473 290.87 562.77L282.799 566.248C282.459 566.396 282.092 566.475 281.721 566.481C281.35 566.487 280.981 566.419 280.636 566.282H280.636Z" fill="white"/>
<path d="M263.201 530.618C271.722 530.618 278.63 523.742 278.63 515.26C278.63 506.778 271.722 499.902 263.201 499.902C254.679 499.902 247.771 506.778 247.771 515.26C247.771 523.742 254.679 530.618 263.201 530.618Z" fill="#A0616A"/>
<path d="M253.877 528.905C253.658 529.156 253.391 529.361 253.092 529.507C252.792 529.654 252.466 529.74 252.133 529.759C251.8 529.778 251.466 529.73 251.152 529.618C250.837 529.507 250.548 529.334 250.302 529.109C246.862 526.337 244.133 522.79 242.342 518.761C240.336 514.002 240.042 508.194 242.325 503.734C244.254 499.962 247.719 497.562 251.177 495.6C252.503 494.769 253.956 494.157 255.479 493.79C256.248 493.617 257.046 493.605 257.82 493.757C258.594 493.908 259.327 494.219 259.973 494.67C260.659 495.189 261.189 495.884 261.508 496.68C261.826 497.476 261.921 498.343 261.781 499.189C263.363 497.115 265.496 495.522 267.939 494.589C269.438 493.947 271.113 493.835 272.684 494.273C274.905 495.011 276.549 497.243 277.464 499.642C278.204 501.478 278.475 503.468 278.253 505.434C278.156 506.373 277.868 507.282 277.407 508.107C276.946 508.932 276.322 509.654 275.571 510.231C273.759 511.475 271.425 511.349 269.318 510.798C267.212 510.248 265.167 509.314 263.023 509.054C260.879 508.793 258.504 509.358 257.226 511.261C256.327 512.601 256.115 514.367 255.931 516.049L254.977 524.803C254.909 526.055 254.638 527.288 254.174 528.454C254.096 528.617 253.996 528.768 253.877 528.905V528.905Z" fill="#2F2E41"/>
<path d="M309.686 623.493H284.638C284.232 623.495 283.831 623.404 283.466 623.227C283.101 623.051 282.781 622.794 282.53 622.476C282.274 622.154 282.095 621.778 282.008 621.377C281.92 620.975 281.925 620.559 282.023 620.16C284.366 610.391 284.366 600.211 282.023 590.443C281.925 590.044 281.92 589.628 282.008 589.226C282.095 588.825 282.274 588.449 282.53 588.126C282.781 587.808 283.101 587.551 283.466 587.375C283.831 587.199 284.232 587.108 284.638 587.109H309.686C310.326 587.111 310.945 587.338 311.432 587.751C311.92 588.164 312.244 588.735 312.348 589.364C313.982 599.927 313.982 610.676 312.348 621.239C312.244 621.867 311.92 622.439 311.432 622.852C310.945 623.265 310.326 623.492 309.686 623.493V623.493Z" fill="white"/>
<path d="M290.461 600.663V599.931C290.461 599.433 290.66 598.956 291.014 598.605C291.367 598.253 291.846 598.055 292.346 598.055H305.49C305.99 598.055 306.469 598.253 306.822 598.605C307.175 598.956 307.374 599.433 307.375 599.931V600.663C307.374 601.161 307.175 601.638 306.822 601.989C306.469 602.341 305.99 602.539 305.49 602.539H292.346C291.846 602.539 291.367 602.341 291.014 601.989C290.66 601.638 290.461 601.161 290.461 600.663V600.663Z" fill="white"/>
<path d="M290.461 608.382V607.649C290.461 607.152 290.66 606.675 291.014 606.323C291.367 605.972 291.846 605.774 292.346 605.773H305.49C305.99 605.774 306.469 605.972 306.822 606.323C307.175 606.675 307.374 607.152 307.375 607.649V608.382C307.374 608.88 307.175 609.357 306.822 609.708C306.469 610.06 305.99 610.258 305.49 610.258H292.346C291.846 610.258 291.367 610.06 291.014 609.708C290.66 609.357 290.461 608.88 290.461 608.382Z" fill="white"/>
<path d="M298.542 578.314C298.282 577.986 298.1 577.604 298.011 577.196C297.921 576.787 297.927 576.364 298.026 575.959C300.408 566.03 300.408 555.682 298.026 545.753C297.927 545.348 297.921 544.925 298.011 544.517C298.1 544.109 298.282 543.726 298.542 543.398C298.797 543.075 299.122 542.814 299.493 542.635C299.864 542.456 300.272 542.364 300.684 542.365H326.144C326.794 542.366 327.423 542.597 327.919 543.017C328.414 543.437 328.744 544.018 328.849 544.657C330.51 555.393 330.51 566.319 328.849 577.055C328.744 577.694 328.414 578.275 327.919 578.695C327.423 579.115 326.794 579.346 326.144 579.347H300.684C300.272 579.348 299.864 579.256 299.493 579.077C299.122 578.898 298.796 578.637 298.542 578.314Z" fill="#00BFA6"/>
<path d="M321.23 556.01H307.818C307.319 556.01 306.84 555.812 306.486 555.46C306.133 555.109 305.934 554.632 305.934 554.134V553.338C305.934 552.84 306.133 552.364 306.486 552.012C306.84 551.66 307.319 551.462 307.818 551.462H321.23C321.73 551.462 322.209 551.66 322.562 552.012C322.915 552.364 323.114 552.84 323.115 553.338V554.134C323.114 554.632 322.915 555.109 322.562 555.46C322.209 555.812 321.73 556.01 321.23 556.01V556.01Z" fill="white"/>
<path d="M321.23 563.856H307.818C307.319 563.855 306.84 563.658 306.486 563.306C306.133 562.954 305.934 562.477 305.934 561.98V561.184C305.934 560.686 306.133 560.209 306.486 559.858C306.84 559.506 307.319 559.308 307.818 559.308H321.23C321.73 559.308 322.209 559.506 322.562 559.858C322.915 560.209 323.114 560.686 323.115 561.184V561.98C323.114 562.477 322.915 562.954 322.562 563.306C322.209 563.658 321.73 563.855 321.23 563.856V563.856Z" fill="white"/>
<path d="M286.859 592.069C285.941 591.75 285.102 591.242 284.394 590.579C283.687 589.915 283.128 589.111 282.754 588.218C282.668 588.01 282.592 587.798 282.528 587.581L249.659 578.269C248.247 577.863 247.003 577.014 246.114 575.849C245.224 574.684 244.736 573.265 244.721 571.801L244.641 559.169L256.756 559.492L257.546 567.08L285.652 579.64C285.917 579.483 286.192 579.344 286.476 579.224H286.476C287.512 578.792 288.637 578.618 289.755 578.715C290.874 578.813 291.951 579.18 292.895 579.785C293.839 580.39 294.621 581.215 295.173 582.187C295.725 583.16 296.031 584.253 296.064 585.37C296.097 586.486 295.857 587.595 295.364 588.598C294.87 589.602 294.139 590.471 293.233 591.131C292.327 591.79 291.273 592.22 290.162 592.384C289.052 592.547 287.918 592.439 286.859 592.069V592.069Z" fill="#A0616A"/>
<path d="M244.828 564.715C244.582 564.439 244.392 564.116 244.272 563.767C244.151 563.417 244.101 563.047 244.125 562.678L245.089 547.075C245.145 546.132 245.388 545.208 245.804 544.358C246.22 543.508 246.799 542.748 247.51 542.121C248.221 541.495 249.05 541.014 249.948 540.706C250.846 540.398 251.796 540.269 252.744 540.328C253.692 540.386 254.619 540.629 255.472 541.044C256.325 541.459 257.088 542.038 257.716 542.746C258.345 543.455 258.827 544.28 259.134 545.175C259.442 546.069 259.57 547.015 259.51 547.958L258.546 563.561C258.499 564.306 258.158 565.001 257.596 565.495C257.035 565.989 256.299 566.242 255.551 566.197L246.773 565.66C246.402 565.638 246.039 565.543 245.706 565.381C245.372 565.219 245.074 564.993 244.828 564.715H244.828Z" fill="white"/>
<path d="M386.112 480.907H334.599C333.1 480.905 331.663 480.311 330.603 479.256C329.543 478.201 328.947 476.771 328.945 475.279V419.628C328.947 418.136 329.543 416.705 330.603 415.65C331.663 414.595 333.1 414.002 334.599 414H386.112C387.611 414.002 389.048 414.595 390.108 415.65C391.168 416.705 391.764 418.136 391.766 419.628V475.279C391.764 476.771 391.168 478.201 390.108 479.256C389.048 480.311 387.611 480.905 386.112 480.907ZM334.599 415.251C333.433 415.252 332.316 415.713 331.491 416.534C330.667 417.355 330.203 418.467 330.202 419.628V475.279C330.203 476.439 330.667 477.552 331.491 478.373C332.316 479.193 333.433 479.655 334.599 479.656H386.112C387.278 479.655 388.396 479.193 389.22 478.373C390.045 477.552 390.508 476.439 390.51 475.279V419.628C390.508 418.467 390.045 417.355 389.22 416.534C388.396 415.713 387.278 415.252 386.112 415.251H334.599Z" fill="#D6D6D6"/>
<path d="M480.341 480.907H428.828C427.329 480.905 425.892 480.311 424.832 479.256C423.772 478.201 423.176 476.771 423.174 475.279V419.628C423.176 418.136 423.772 416.705 424.832 415.65C425.892 414.595 427.329 414.002 428.828 414H480.341C481.84 414.002 483.277 414.595 484.337 415.65C485.397 416.705 485.993 418.136 485.995 419.628V475.279C485.993 476.771 485.397 478.201 484.337 479.256C483.277 480.311 481.84 480.905 480.341 480.907V480.907ZM428.828 415.251C427.662 415.252 426.544 415.713 425.72 416.534C424.895 417.355 424.432 418.467 424.43 419.628V475.279C424.432 476.439 424.895 477.552 425.72 478.373C426.544 479.193 427.662 479.655 428.828 479.656H480.341C481.507 479.655 482.624 479.193 483.449 478.373C484.273 477.552 484.737 476.439 484.738 475.279V419.628C484.737 418.467 484.273 417.355 483.449 416.534C482.624 415.713 481.507 415.252 480.341 415.251H428.828Z" fill="#D6D6D6"/>
<path d="M476.366 458.751H432.801C432.301 458.751 431.822 458.553 431.469 458.201C431.115 457.85 430.917 457.373 430.916 456.876V456.079C430.917 455.582 431.115 455.105 431.469 454.753C431.822 454.401 432.301 454.204 432.801 454.203H476.366C476.866 454.204 477.345 454.401 477.698 454.753C478.052 455.105 478.251 455.582 478.251 456.079V456.876C478.251 457.373 478.052 457.85 477.698 458.201C477.345 458.553 476.866 458.751 476.366 458.751V458.751Z" fill="white"/>
<path d="M476.366 469.381H432.801C432.301 469.381 431.822 469.183 431.469 468.831C431.115 468.48 430.917 468.003 430.916 467.505V466.709C430.917 466.212 431.115 465.735 431.469 465.383C431.822 465.031 432.301 464.834 432.801 464.833H476.366C476.866 464.834 477.345 465.031 477.698 465.383C478.052 465.735 478.251 466.212 478.251 466.709V467.505C478.251 468.003 478.052 468.48 477.698 468.831C477.345 469.183 476.866 469.381 476.366 469.381V469.381Z" fill="white"/>
<path d="M574.573 480.907H523.06C521.561 480.905 520.124 480.311 519.064 479.256C518.004 478.201 517.408 476.771 517.406 475.279V419.628C517.408 418.136 518.004 416.705 519.064 415.65C520.124 414.595 521.561 414.002 523.06 414H574.573C576.072 414.002 577.509 414.595 578.569 415.65C579.629 416.705 580.225 418.136 580.227 419.628V475.279C580.225 476.771 579.629 478.201 578.569 479.256C577.509 480.311 576.072 480.905 574.573 480.907V480.907ZM523.06 415.251C521.894 415.252 520.776 415.713 519.952 416.534C519.128 417.355 518.664 418.467 518.663 419.628V475.279C518.664 476.439 519.128 477.552 519.952 478.373C520.776 479.193 521.894 479.655 523.06 479.656H574.573C575.739 479.655 576.857 479.193 577.681 478.373C578.506 477.552 578.969 476.439 578.971 475.279V419.628C578.969 418.467 578.506 417.355 577.681 416.534C576.857 415.713 575.739 415.252 574.573 415.251H523.06Z" fill="#D6D6D6"/>
<path d="M570.599 458.751H527.033C526.533 458.751 526.054 458.553 525.701 458.201C525.348 457.85 525.149 457.373 525.148 456.876V456.079C525.149 455.582 525.348 455.105 525.701 454.753C526.054 454.401 526.533 454.204 527.033 454.203H570.599C571.099 454.204 571.578 454.401 571.931 454.753C572.284 455.105 572.483 455.582 572.483 456.079V456.876C572.483 457.373 572.284 457.85 571.931 458.201C571.578 458.553 571.099 458.751 570.599 458.751Z" fill="white"/>
<path d="M570.599 469.381H527.033C526.533 469.381 526.054 469.183 525.701 468.831C525.348 468.48 525.149 468.003 525.148 467.505V466.709C525.149 466.212 525.348 465.735 525.701 465.383C526.054 465.031 526.533 464.834 527.033 464.833H570.599C571.099 464.834 571.578 465.031 571.931 465.383C572.284 465.735 572.483 466.212 572.483 466.709V467.505C572.483 468.003 572.284 468.48 571.931 468.831C571.578 469.183 571.099 469.381 570.599 469.381Z" fill="white"/>
<path d="M344.972 468.401H339.946C339.197 468.4 338.478 468.103 337.948 467.576C337.418 467.048 337.12 466.333 337.119 465.587V460.585C337.12 459.839 337.418 459.124 337.948 458.596C338.478 458.069 339.197 457.772 339.946 457.771H344.972C345.721 457.772 346.44 458.069 346.97 458.596C347.5 459.124 347.798 459.839 347.799 460.585V465.587C347.798 466.333 347.5 467.048 346.97 467.576C346.44 468.103 345.721 468.4 344.972 468.401V468.401Z" fill="white"/>
<path d="M381.703 465.36H358.24C357.74 465.359 357.261 465.162 356.908 464.81C356.555 464.458 356.356 463.981 356.355 463.484V462.687C356.356 462.19 356.555 461.713 356.908 461.362C357.261 461.01 357.74 460.812 358.24 460.812H381.703C382.203 460.812 382.682 461.01 383.035 461.362C383.389 461.713 383.587 462.19 383.588 462.687V463.484C383.587 463.981 383.389 464.458 383.035 464.81C382.682 465.162 382.203 465.359 381.703 465.36Z" fill="white"/>
<defs>
<linearGradient id="paint0_linear_513:7777" x1="432.5" y1="0" x2="432.5" y2="822" gradientUnits="userSpaceOnUse">
<stop stop-color="#83E8BD"/>
<stop offset="1" stop-color="#556FCB"/>
</linearGradient>
</defs>
</svg>
