<svg width="865" height="822" viewBox="0 0 865 822" fill="none" xmlns="http://www.w3.org/2000/svg">
<path d="M865 554.5C865 327.511 527.638 0 391.5 0C255.362 0 0 178.011 0 405C0 631.989 255.362 822 391.5 822C527.638 822 865 781.489 865 554.5Z" fill="url(#paint0_linear_547:7989)"/>
<path d="M469.804 448.755C469.728 449.091 469.678 449.432 469.655 449.776L442.896 465.214L436.392 461.469L429.458 470.547L440.328 478.294C441.206 478.92 442.264 479.244 443.342 479.218C444.42 479.192 445.46 478.817 446.307 478.149L473.9 456.38C475.145 456.841 476.502 456.912 477.788 456.583C479.075 456.255 480.231 455.542 481.102 454.541C481.974 453.539 482.52 452.296 482.668 450.976C482.816 449.657 482.559 448.323 481.93 447.154C481.302 445.984 480.332 445.033 479.151 444.428C477.969 443.823 476.631 443.591 475.314 443.765C473.998 443.939 472.765 444.51 471.781 445.401C470.797 446.292 470.107 447.462 469.804 448.755V448.755Z" fill="#FFB6B6"/>
<path d="M442.524 463.509C442.44 463.116 442.271 462.745 442.029 462.422C441.788 462.1 441.48 461.833 441.126 461.64L428.772 454.909C427.127 453.667 425.057 453.129 423.015 453.411C420.973 453.694 419.127 454.775 417.881 456.417C416.635 458.059 416.091 460.128 416.368 462.17C416.646 464.213 417.722 466.062 419.36 467.312L429.262 477.371C429.545 477.658 429.886 477.881 430.262 478.024C430.639 478.167 431.042 478.228 431.443 478.201C431.845 478.175 432.237 478.062 432.591 477.871C432.946 477.679 433.255 477.414 433.497 477.092L442.022 465.789C442.265 465.468 442.436 465.098 442.522 464.704C442.609 464.311 442.61 463.903 442.524 463.509V463.509Z" fill="#3F3D56"/>
<path d="M420.453 424.376C418.675 418.711 414.633 413.516 409.043 411.6C403.452 409.685 395.266 412.603 391.064 416.791C383.376 424.453 381.5 450.774 386.782 459.092C387.832 459.036 391.457 458.995 392.521 458.955L394.025 453.942V458.906C402.324 458.649 410.964 458.81 419.61 458.976C420.384 453.087 422.23 430.041 420.453 424.376Z" fill="#2F2E41"/>
<path d="M422.831 662.158H430.401L434.002 632.96L422.83 632.961L422.831 662.158Z" fill="#85340A"/>
<path d="M356.566 657.451L363.89 659.36L374.74 632.014L363.929 629.197L356.566 657.451Z" fill="#85340A"/>
<path d="M398.282 482.828L396.567 487.288L396.91 491.747L430.479 503.374L428.813 483.857L425.04 479.397L398.282 482.828Z" fill="#FFB6B6"/>
<path d="M408.895 442.698C402.274 442.698 396.906 437.33 396.906 430.708C396.906 424.087 402.274 418.719 408.895 418.719C415.517 418.719 420.885 424.087 420.885 430.708C420.885 437.33 415.517 442.698 408.895 442.698Z" fill="#85340A"/>
<path d="M417.132 415.096C414.829 413.691 412.19 412.931 409.492 412.896C406.794 412.86 404.137 413.55 401.797 414.893C399.457 416.237 397.521 418.184 396.191 420.531C394.861 422.879 394.186 425.541 394.237 428.238C400.773 429.908 407.737 430.607 415.118 428.64L416.805 424.511L417.799 428.643C420.057 430.232 422.237 430.229 424.337 428.635C424.426 425.945 423.808 423.279 422.543 420.903C421.279 418.527 419.413 416.524 417.132 415.096Z" fill="#2F2E41"/>
<path d="M419.445 676.532H424.816L425.775 671.46L428.231 676.532H442.477C443.16 676.532 443.825 676.314 444.375 675.909C444.925 675.504 445.331 674.934 445.535 674.282C445.738 673.63 445.727 672.931 445.505 672.285C445.282 671.639 444.859 671.082 444.297 670.694L432.92 662.837V657.71L420.954 658.424L419.445 676.532Z" fill="#2F2E41"/>
<path d="M348.999 670.333L354.197 671.688L356.404 667.022L357.501 672.549L371.286 676.142C371.947 676.315 372.646 676.271 373.28 676.018C373.915 675.766 374.451 675.317 374.813 674.737C375.174 674.157 375.34 673.477 375.287 672.797C375.235 672.116 374.966 671.47 374.52 670.952L365.493 660.48L366.786 655.519L355.027 653.191L348.999 670.333Z" fill="#2F2E41"/>
<path d="M357.495 639.089L379.684 593.485L386.649 537.979C381.847 529.059 390.766 510.911 390.766 510.911V503.291L425.316 509.809V509.809C432.383 529.083 435.809 549.502 435.422 570.027L434.03 643.81H434.467C435.191 643.81 435.886 644.098 436.399 644.611C436.911 645.123 437.199 645.818 437.199 646.543C437.199 647.268 436.911 647.963 436.399 648.475C435.886 648.988 435.191 649.275 434.467 649.275H420.804C420.079 649.275 419.384 648.988 418.872 648.475C418.359 647.963 418.072 647.268 418.072 646.543C418.072 645.818 418.359 645.123 418.872 644.611C419.384 644.098 420.079 643.81 420.804 643.81H421.156L411.348 549.945L399.944 596.265L372.384 638.914C373.087 638.969 373.741 639.294 374.21 639.821C374.678 640.348 374.924 641.036 374.896 641.741C374.867 642.445 374.567 643.111 374.058 643.599C373.549 644.087 372.87 644.359 372.165 644.357H358.503C357.867 644.358 357.251 644.137 356.761 643.732C356.272 643.327 355.938 642.764 355.819 642.14C355.699 641.516 355.801 640.87 356.107 640.313C356.413 639.756 356.904 639.323 357.495 639.089H357.495Z" fill="#2F2E41"/>
<path d="M387.641 515.583H387.641C387.755 515.137 388.007 514.739 388.361 514.445C388.715 514.151 389.153 513.976 389.612 513.946C390.067 508.74 393.076 475.348 393.191 474.368L393.195 474.326L394.066 455.714C394.098 455.038 394.378 454.397 394.852 453.914C395.326 453.431 395.961 453.14 396.636 453.096L401.238 452.795C401.301 452.793 401.361 452.766 401.405 452.721C401.449 452.676 401.474 452.615 401.474 452.552C401.474 452.043 401.574 451.54 401.768 451.071C401.963 450.601 402.248 450.175 402.607 449.815C402.967 449.456 403.393 449.171 403.863 448.976C404.332 448.782 404.835 448.682 405.344 448.682H418.969C419.851 448.682 420.703 449.004 421.365 449.588C422.026 450.172 422.452 450.978 422.562 451.853C422.568 451.914 422.597 451.97 422.642 452.01C422.688 452.05 422.746 452.071 422.807 452.07L422.809 452.07C424.357 452.038 425.865 452.562 427.06 453.547C428.255 454.532 429.057 455.913 429.321 457.439C431.183 468.277 434.916 492.874 433.071 506.549C432.428 511.309 432.72 518.469 432.963 522.452C432.987 522.837 432.935 523.223 432.81 523.588C432.685 523.952 432.489 524.289 432.233 524.578C432.776 524.734 433.238 525.096 433.52 525.586C433.802 526.076 433.883 526.657 433.745 527.205H433.745C433.603 527.767 433.244 528.25 432.746 528.548C432.249 528.845 431.653 528.932 431.091 528.791L389.227 518.237C388.665 518.095 388.182 517.736 387.884 517.238C387.587 516.741 387.5 516.145 387.641 515.583V515.583Z" fill="#3F3D56"/>
<path d="M424.464 452.255C424.47 451.334 424.801 450.445 425.4 449.745C426 449.045 426.827 448.58 427.736 448.432L483.675 439.247C484.211 439.158 484.76 439.182 485.287 439.318L498.396 442.708L505.918 444.655L519.799 448.244C520.637 448.461 521.379 448.951 521.909 449.636C522.439 450.32 522.726 451.162 522.727 452.027V497.875C522.722 498.768 522.414 499.634 521.851 500.328C521.289 501.023 520.506 501.505 519.633 501.694L462.656 513.817C462.388 513.875 462.115 513.903 461.842 513.902C461.443 513.903 461.047 513.842 460.666 513.723L426.815 503.033C426.016 502.783 425.319 502.283 424.826 501.606C424.334 500.929 424.073 500.112 424.083 499.275L424.464 452.255Z" fill="white"/>
<path d="M484.735 440C484.778 440 484.822 440.006 484.864 440.017L521.705 449.748C521.817 449.778 521.916 449.845 521.987 449.938C522.057 450.031 522.096 450.145 522.096 450.263L522 500C522 500.122 521.755 500.156 521.68 500.251C521.605 500.345 521.116 500.559 521 500.585L461.615 513.598C461.527 513.617 460.947 513.625 460.861 513.598L426.096 502.5C425.989 502.466 425.566 502.092 425.5 502C425.434 501.908 424.594 501.114 424.596 501L425 450.5C425.001 450.375 425.42 450.095 425.5 450C425.58 449.905 426.879 449.52 427 449.5L484.65 440.007C484.678 440.002 484.706 440 484.735 440Z" fill="#00BFA6"/>
<path d="M424.464 452.255C424.47 451.334 424.801 450.445 425.4 449.745C426 449.045 426.827 448.58 427.736 448.432L483.675 439.247C484.211 439.158 484.76 439.182 485.287 439.318L498.396 442.708L505.918 444.655L519.799 448.244C520.637 448.461 521.379 448.951 521.909 449.636C522.439 450.32 522.726 451.162 522.727 452.027V497.875C522.722 498.768 522.414 499.634 521.851 500.328C521.289 501.023 520.506 501.505 519.633 501.694L462.656 513.817C462.388 513.875 462.115 513.903 461.842 513.902C461.443 513.903 461.047 513.842 460.666 513.723L426.815 503.033C426.016 502.783 425.319 502.283 424.826 501.606C424.334 500.929 424.073 500.112 424.083 499.275L424.464 452.255ZM427.108 502.101L460.959 512.792C461.442 512.942 461.956 512.967 462.451 512.863L519.431 500.74C520.086 500.598 520.672 500.236 521.094 499.715C521.515 499.194 521.747 498.545 521.75 497.875V452.027C521.749 451.427 521.565 450.842 521.221 450.35C520.878 449.858 520.392 449.483 519.829 449.276C519.739 449.242 519.648 449.214 519.555 449.191L504.869 445.394L496.185 443.148L485.042 440.266C484.803 440.202 484.557 440.17 484.31 440.171C484.15 440.171 483.991 440.184 483.834 440.211L427.896 449.396C427.446 449.47 427.019 449.648 426.649 449.915C426.28 450.182 425.977 450.532 425.766 450.937C425.555 451.347 425.443 451.801 425.441 452.262L425.06 499.282C425.053 499.909 425.248 500.523 425.617 501.03C425.986 501.538 426.509 501.914 427.108 502.101V502.101Z" fill="#00BFA6"/>
<path d="M444.639 477.59C444.377 477.814 444.133 478.058 443.909 478.32L413.225 474.737L410.241 467.851L399.26 470.996L403.358 483.7C403.689 484.726 404.344 485.617 405.225 486.24C406.106 486.862 407.165 487.182 408.242 487.151L443.375 486.153C444.099 487.266 445.144 488.132 446.373 488.636C447.601 489.14 448.954 489.259 450.251 488.975C451.549 488.692 452.729 488.02 453.635 487.05C454.541 486.079 455.13 484.856 455.324 483.542C455.518 482.228 455.308 480.887 454.721 479.696C454.134 478.505 453.198 477.521 452.038 476.875C450.878 476.228 449.548 475.951 448.227 476.078C446.905 476.206 445.654 476.733 444.639 477.59V477.59Z" fill="#85340A"/>
<path d="M413.944 473.147C414.111 472.78 414.196 472.382 414.195 471.979C414.194 471.577 414.106 471.179 413.937 470.813L408.042 458.039C407.463 456.061 406.123 454.393 404.316 453.402C402.509 452.41 400.383 452.175 398.403 452.749C396.424 453.323 394.752 454.658 393.756 456.463C392.76 458.267 392.519 460.393 393.088 462.374L395.029 476.354C395.085 476.753 395.226 477.135 395.442 477.475C395.659 477.815 395.946 478.104 396.284 478.322C396.622 478.541 397.004 478.684 397.402 478.742C397.801 478.8 398.208 478.772 398.594 478.658L412.18 474.677C412.567 474.564 412.925 474.369 413.229 474.105C413.533 473.841 413.777 473.514 413.944 473.147V473.147Z" fill="#3F3D56"/>
<path d="M530.572 443.142C519.763 443.142 511.001 434.38 511.001 423.571C511.001 412.762 519.763 404 530.572 404C541.38 404 550.143 412.762 550.143 423.571C550.143 434.38 541.38 443.142 530.572 443.142Z" fill="#00BFA6"/>
<path d="M527.899 433.756C527.561 433.756 527.228 433.678 526.925 433.526C526.623 433.375 526.36 433.156 526.157 432.885L520.818 425.766C520.472 425.304 520.323 424.724 520.405 424.152C520.486 423.581 520.792 423.065 521.254 422.719C521.716 422.372 522.296 422.223 522.868 422.305C523.439 422.387 523.955 422.692 524.301 423.154L527.794 427.811L536.766 414.354C536.924 414.115 537.128 413.91 537.366 413.75C537.603 413.59 537.87 413.478 538.151 413.422C538.432 413.365 538.721 413.365 539.002 413.42C539.283 413.475 539.55 413.586 539.789 413.745C540.027 413.903 540.232 414.108 540.391 414.346C540.55 414.584 540.661 414.851 540.717 415.132C540.772 415.413 540.772 415.703 540.716 415.983C540.66 416.264 540.548 416.531 540.389 416.769L529.71 432.787C529.517 433.077 529.257 433.316 528.953 433.484C528.648 433.653 528.307 433.746 527.959 433.756C527.939 433.756 527.919 433.756 527.899 433.756Z" fill="white"/>
<path d="M499.499 484.505C499.56 484.505 499.62 484.498 499.68 484.485L516.621 480.659C516.833 480.611 517.017 480.481 517.133 480.297C517.249 480.114 517.287 479.891 517.24 479.679C517.192 479.468 517.062 479.283 516.878 479.167C516.695 479.051 516.473 479.012 516.261 479.06L499.319 482.885C499.122 482.93 498.949 483.045 498.832 483.209C498.715 483.374 498.663 483.575 498.685 483.776C498.707 483.976 498.802 484.161 498.953 484.296C499.103 484.43 499.297 484.505 499.499 484.505V484.505Z" fill="white"/>
<path d="M275.135 158.197C275.135 157.295 274.812 156.592 274.168 156.088C273.535 155.584 272.416 155.062 270.811 154.523C269.205 153.984 267.893 153.463 266.873 152.959C263.557 151.33 261.898 149.092 261.898 146.244C261.898 144.826 262.309 143.578 263.129 142.5C263.961 141.41 265.133 140.566 266.645 139.969C268.156 139.359 269.855 139.055 271.742 139.055C273.582 139.055 275.229 139.383 276.682 140.039C278.146 140.695 279.283 141.633 280.092 142.852C280.9 144.059 281.305 145.441 281.305 147H275.152C275.152 145.957 274.83 145.148 274.186 144.574C273.553 144 272.691 143.713 271.602 143.713C270.5 143.713 269.627 143.959 268.982 144.451C268.35 144.932 268.033 145.547 268.033 146.297C268.033 146.953 268.385 147.551 269.088 148.09C269.791 148.617 271.027 149.168 272.797 149.742C274.566 150.305 276.02 150.914 277.156 151.57C279.922 153.164 281.305 155.361 281.305 158.162C281.305 160.4 280.461 162.158 278.773 163.436C277.086 164.713 274.771 165.352 271.83 165.352C269.756 165.352 267.875 164.982 266.188 164.244C264.512 163.494 263.246 162.475 262.391 161.186C261.547 159.885 261.125 158.391 261.125 156.703H267.312C267.312 158.074 267.664 159.088 268.367 159.744C269.082 160.389 270.236 160.711 271.83 160.711C272.85 160.711 273.652 160.494 274.238 160.061C274.836 159.615 275.135 158.994 275.135 158.197ZM283.449 155.314C283.449 153.416 283.818 151.729 284.557 150.252C285.295 148.764 286.355 147.621 287.738 146.824C289.121 146.027 290.744 145.629 292.607 145.629C295.455 145.629 297.699 146.514 299.34 148.283C300.98 150.041 301.801 152.438 301.801 155.473V155.684C301.801 158.648 300.975 161.004 299.322 162.75C297.682 164.484 295.455 165.352 292.643 165.352C289.936 165.352 287.762 164.543 286.121 162.926C284.48 161.297 283.596 159.094 283.467 156.316L283.449 155.314ZM289.373 155.684C289.373 157.441 289.648 158.73 290.199 159.551C290.75 160.371 291.564 160.781 292.643 160.781C294.752 160.781 295.83 159.158 295.877 155.912V155.314C295.877 151.904 294.787 150.199 292.607 150.199C290.627 150.199 289.555 151.67 289.391 154.611L289.373 155.684ZM320.275 141.252V145.98H323.404V150.094H320.275V158.795C320.275 159.51 320.404 160.008 320.662 160.289C320.92 160.57 321.43 160.711 322.191 160.711C322.777 160.711 323.27 160.676 323.668 160.605V164.842C322.602 165.182 321.488 165.352 320.328 165.352C318.289 165.352 316.783 164.871 315.811 163.91C314.838 162.949 314.352 161.49 314.352 159.533V150.094H311.926V145.98H314.352V141.252H320.275ZM331.543 148.02C332.809 146.426 334.426 145.629 336.395 145.629C338.492 145.629 340.074 146.25 341.141 147.492C342.207 148.734 342.752 150.568 342.775 152.994V165H336.834V153.135C336.834 152.127 336.629 151.389 336.219 150.92C335.809 150.439 335.111 150.199 334.127 150.199C332.908 150.199 332.047 150.586 331.543 151.359V165H325.619V138H331.543V148.02ZM356.785 165C356.574 164.613 356.387 164.045 356.223 163.295C355.133 164.666 353.609 165.352 351.652 165.352C349.859 165.352 348.336 164.812 347.082 163.734C345.828 162.645 345.201 161.279 345.201 159.639C345.201 157.576 345.963 156.018 347.486 154.963C349.01 153.908 351.225 153.381 354.131 153.381H355.959V152.379C355.959 150.633 355.203 149.76 353.691 149.76C352.285 149.76 351.582 150.451 351.582 151.834H345.658C345.658 149.994 346.438 148.5 347.996 147.352C349.566 146.203 351.564 145.629 353.99 145.629C356.416 145.629 358.332 146.221 359.738 147.404C361.145 148.588 361.865 150.211 361.9 152.273V160.693C361.924 162.439 362.193 163.775 362.709 164.701V165H356.785ZM353.076 161.133C353.814 161.133 354.424 160.975 354.904 160.658C355.396 160.342 355.748 159.984 355.959 159.586V156.545H354.236C352.174 156.545 351.143 157.471 351.143 159.322C351.143 159.861 351.324 160.301 351.688 160.641C352.051 160.969 352.514 161.133 353.076 161.133ZM372.096 141.252V145.98H375.225V150.094H372.096V158.795C372.096 159.51 372.225 160.008 372.482 160.289C372.74 160.57 373.25 160.711 374.012 160.711C374.598 160.711 375.09 160.676 375.488 160.605V164.842C374.422 165.182 373.309 165.352 372.148 165.352C370.109 165.352 368.604 164.871 367.631 163.91C366.658 162.949 366.172 161.49 366.172 159.533V150.094H363.746V145.98H366.172V141.252H372.096ZM402.963 157.195L404.879 145.98H410.557L406.074 165H401.064L397.918 153.715L394.754 165H389.744L385.262 145.98H390.939L392.82 157.459L395.844 145.98H399.975L402.963 157.195ZM421.895 165.352C418.977 165.352 416.615 164.484 414.811 162.75C413.006 161.004 412.104 158.736 412.104 155.947V155.455C412.104 153.51 412.461 151.793 413.176 150.305C413.902 148.816 414.957 147.668 416.34 146.859C417.723 146.039 419.363 145.629 421.262 145.629C423.934 145.629 426.043 146.461 427.59 148.125C429.137 149.777 429.91 152.086 429.91 155.051V157.354H418.133C418.344 158.42 418.807 159.258 419.521 159.867C420.236 160.477 421.162 160.781 422.299 160.781C424.174 160.781 425.639 160.125 426.693 158.812L429.4 162.012C428.662 163.031 427.613 163.846 426.254 164.455C424.906 165.053 423.453 165.352 421.895 165.352ZM421.227 150.199C419.492 150.199 418.461 151.348 418.133 153.645H424.109V153.188C424.133 152.238 423.893 151.506 423.389 150.99C422.885 150.463 422.164 150.199 421.227 150.199ZM449.316 160.781C450.148 160.781 450.793 160.559 451.25 160.113C451.707 159.656 451.93 159.023 451.918 158.215H457.473C457.473 160.301 456.723 162.012 455.223 163.348C453.734 164.684 451.812 165.352 449.457 165.352C446.691 165.352 444.512 164.484 442.918 162.75C441.324 161.016 440.527 158.613 440.527 155.543V155.297C440.527 153.375 440.879 151.682 441.582 150.217C442.297 148.74 443.322 147.609 444.658 146.824C445.994 146.027 447.576 145.629 449.404 145.629C451.877 145.629 453.84 146.314 455.293 147.686C456.746 149.057 457.473 150.914 457.473 153.258H451.918C451.918 152.273 451.678 151.518 451.197 150.99C450.717 150.463 450.072 150.199 449.264 150.199C447.729 150.199 446.832 151.178 446.574 153.135C446.492 153.756 446.451 154.611 446.451 155.701C446.451 157.611 446.68 158.936 447.137 159.674C447.594 160.412 448.32 160.781 449.316 160.781ZM470.691 165C470.48 164.613 470.293 164.045 470.129 163.295C469.039 164.666 467.516 165.352 465.559 165.352C463.766 165.352 462.242 164.812 460.988 163.734C459.734 162.645 459.107 161.279 459.107 159.639C459.107 157.576 459.869 156.018 461.393 154.963C462.916 153.908 465.131 153.381 468.037 153.381H469.865V152.379C469.865 150.633 469.109 149.76 467.598 149.76C466.191 149.76 465.488 150.451 465.488 151.834H459.564C459.564 149.994 460.344 148.5 461.902 147.352C463.473 146.203 465.471 145.629 467.896 145.629C470.322 145.629 472.238 146.221 473.645 147.404C475.051 148.588 475.771 150.211 475.807 152.273V160.693C475.83 162.439 476.1 163.775 476.615 164.701V165H470.691ZM466.982 161.133C467.721 161.133 468.33 160.975 468.811 160.658C469.303 160.342 469.654 159.984 469.865 159.586V156.545H468.143C466.08 156.545 465.049 157.471 465.049 159.322C465.049 159.861 465.23 160.301 465.594 160.641C465.957 160.969 466.42 161.133 466.982 161.133ZM484.543 145.98L484.736 148.213C486.049 146.49 487.859 145.629 490.168 145.629C492.148 145.629 493.625 146.221 494.598 147.404C495.582 148.588 496.092 150.369 496.127 152.748V165H490.186V152.994C490.186 152.033 489.992 151.33 489.605 150.885C489.219 150.428 488.516 150.199 487.496 150.199C486.336 150.199 485.475 150.656 484.912 151.57V165H478.988V145.98H484.543ZM507.641 155.35C507.641 152.338 508.291 149.965 509.592 148.23C510.893 146.496 512.709 145.629 515.041 145.629C516.74 145.629 518.17 146.297 519.33 147.633V138H525.271V165H519.945L519.646 162.961C518.428 164.555 516.881 165.352 515.006 165.352C512.744 165.352 510.951 164.484 509.627 162.75C508.303 161.016 507.641 158.549 507.641 155.35ZM513.564 155.719C513.564 159.094 514.549 160.781 516.518 160.781C517.83 160.781 518.768 160.23 519.33 159.129V151.887C518.791 150.762 517.865 150.199 516.553 150.199C514.725 150.199 513.734 151.676 513.582 154.629L513.564 155.719ZM527.891 155.314C527.891 153.416 528.26 151.729 528.998 150.252C529.736 148.764 530.797 147.621 532.18 146.824C533.562 146.027 535.186 145.629 537.049 145.629C539.896 145.629 542.141 146.514 543.781 148.283C545.422 150.041 546.242 152.438 546.242 155.473V155.684C546.242 158.648 545.416 161.004 543.764 162.75C542.123 164.484 539.896 165.352 537.084 165.352C534.377 165.352 532.203 164.543 530.562 162.926C528.922 161.297 528.037 159.094 527.908 156.316L527.891 155.314ZM533.814 155.684C533.814 157.441 534.09 158.73 534.641 159.551C535.191 160.371 536.006 160.781 537.084 160.781C539.193 160.781 540.271 159.158 540.318 155.912V155.314C540.318 151.904 539.229 150.199 537.049 150.199C535.068 150.199 533.996 151.67 533.832 154.611L533.814 155.684ZM272.375 213C272.164 212.613 271.977 212.045 271.812 211.295C270.723 212.666 269.199 213.352 267.242 213.352C265.449 213.352 263.926 212.812 262.672 211.734C261.418 210.645 260.791 209.279 260.791 207.639C260.791 205.576 261.553 204.018 263.076 202.963C264.6 201.908 266.814 201.381 269.721 201.381H271.549V200.379C271.549 198.633 270.793 197.76 269.281 197.76C267.875 197.76 267.172 198.451 267.172 199.834H261.248C261.248 197.994 262.027 196.5 263.586 195.352C265.156 194.203 267.154 193.629 269.58 193.629C272.006 193.629 273.922 194.221 275.328 195.404C276.734 196.588 277.455 198.211 277.49 200.273V208.693C277.514 210.439 277.783 211.775 278.299 212.701V213H272.375ZM268.666 209.133C269.404 209.133 270.014 208.975 270.494 208.658C270.986 208.342 271.338 207.984 271.549 207.586V204.545H269.826C267.764 204.545 266.732 205.471 266.732 207.322C266.732 207.861 266.914 208.301 267.277 208.641C267.641 208.969 268.104 209.133 268.666 209.133ZM287.035 213H281.094V186H287.035V213ZM296.949 213H291.008V186H296.949V213ZM308.832 203.314C308.832 201.416 309.201 199.729 309.939 198.252C310.678 196.764 311.738 195.621 313.121 194.824C314.504 194.027 316.127 193.629 317.99 193.629C320.838 193.629 323.082 194.514 324.723 196.283C326.363 198.041 327.184 200.438 327.184 203.473V203.684C327.184 206.648 326.357 209.004 324.705 210.75C323.064 212.484 320.838 213.352 318.025 213.352C315.318 213.352 313.145 212.543 311.504 210.926C309.863 209.297 308.979 207.094 308.85 204.316L308.832 203.314ZM314.756 203.684C314.756 205.441 315.031 206.73 315.582 207.551C316.133 208.371 316.947 208.781 318.025 208.781C320.135 208.781 321.213 207.158 321.26 203.912V203.314C321.26 199.904 320.17 198.199 317.99 198.199C316.01 198.199 314.938 199.67 314.773 202.611L314.756 203.684ZM331.104 213V198.094H328.344V193.98H331.104V192.469C331.104 190.301 331.742 188.619 333.02 187.424C334.297 186.229 336.09 185.631 338.398 185.631C339.242 185.631 340.168 185.754 341.176 186L341.193 190.359C340.83 190.254 340.344 190.201 339.734 190.201C337.941 190.201 337.045 190.975 337.045 192.521V193.98H340.754V198.094H337.045V213H331.104ZM358.701 189.252V193.98H361.83V198.094H358.701V206.795C358.701 207.51 358.83 208.008 359.088 208.289C359.346 208.57 359.855 208.711 360.617 208.711C361.203 208.711 361.695 208.676 362.094 208.605V212.842C361.027 213.182 359.914 213.352 358.754 213.352C356.715 213.352 355.209 212.871 354.236 211.91C353.264 210.949 352.777 209.49 352.777 207.533V198.094H350.352V193.98H352.777V189.252H358.701ZM369.969 196.02C371.234 194.426 372.852 193.629 374.82 193.629C376.918 193.629 378.5 194.25 379.566 195.492C380.633 196.734 381.178 198.568 381.201 200.994V213H375.26V201.135C375.26 200.127 375.055 199.389 374.645 198.92C374.234 198.439 373.537 198.199 372.553 198.199C371.334 198.199 370.473 198.586 369.969 199.359V213H364.045V186H369.969V196.02ZM390.746 213H384.805V193.98H390.746V213ZM384.453 189.076C384.453 188.232 384.758 187.541 385.367 187.002C385.977 186.463 386.768 186.193 387.74 186.193C388.713 186.193 389.504 186.463 390.113 187.002C390.723 187.541 391.027 188.232 391.027 189.076C391.027 189.92 390.723 190.611 390.113 191.15C389.504 191.689 388.713 191.959 387.74 191.959C386.768 191.959 385.977 191.689 385.367 191.15C384.758 190.611 384.453 189.92 384.453 189.076ZM404.369 207.656C404.369 207.152 404.105 206.748 403.578 206.443C403.051 206.139 402.049 205.822 400.572 205.494C399.096 205.166 397.877 204.738 396.916 204.211C395.955 203.672 395.223 203.021 394.719 202.26C394.215 201.498 393.963 200.625 393.963 199.641C393.963 197.895 394.684 196.459 396.125 195.334C397.566 194.197 399.453 193.629 401.785 193.629C404.293 193.629 406.309 194.197 407.832 195.334C409.355 196.471 410.117 197.965 410.117 199.816H404.176C404.176 198.293 403.373 197.531 401.768 197.531C401.146 197.531 400.625 197.707 400.203 198.059C399.781 198.398 399.57 198.826 399.57 199.342C399.57 199.869 399.828 200.297 400.344 200.625C400.859 200.953 401.68 201.223 402.805 201.434C403.941 201.645 404.938 201.896 405.793 202.189C408.652 203.174 410.082 204.938 410.082 207.48C410.082 209.215 409.309 210.627 407.762 211.717C406.227 212.807 404.234 213.352 401.785 213.352C400.156 213.352 398.703 213.059 397.426 212.473C396.148 211.887 395.152 211.09 394.438 210.082C393.723 209.074 393.365 208.014 393.365 206.9H398.902C398.926 207.779 399.219 208.424 399.781 208.834C400.344 209.232 401.064 209.432 401.943 209.432C402.752 209.432 403.355 209.268 403.754 208.939C404.164 208.611 404.369 208.184 404.369 207.656ZM416.551 207.252C417.488 207.252 418.268 207.533 418.889 208.096C419.51 208.646 419.82 209.355 419.82 210.223C419.82 211.09 419.51 211.805 418.889 212.367C418.268 212.918 417.488 213.193 416.551 213.193C415.602 213.193 414.816 212.912 414.195 212.35C413.586 211.787 413.281 211.078 413.281 210.223C413.281 209.367 413.586 208.658 414.195 208.096C414.816 207.533 415.602 207.252 416.551 207.252ZM416.551 193.225C417.488 193.225 418.268 193.506 418.889 194.068C419.51 194.619 419.82 195.328 419.82 196.195C419.82 197.062 419.51 197.777 418.889 198.34C418.268 198.891 417.488 199.166 416.551 199.166C415.602 199.166 414.816 198.885 414.195 198.322C413.586 197.76 413.281 197.051 413.281 196.195C413.281 195.34 413.586 194.631 414.195 194.068C414.816 193.506 415.602 193.225 416.551 193.225Z" fill="white"/>
<path d="M265.66 255.621L265.988 257.871L266.469 255.844L269.844 243.938H271.742L275.035 255.844L275.504 257.906L275.867 255.609L278.516 243.938H280.777L276.641 261H274.59L271.074 248.566L270.805 247.266L270.535 248.566L266.891 261H264.84L260.715 243.938H262.965L265.66 255.621ZM287.832 261.234C286.113 261.234 284.715 260.672 283.637 259.547C282.559 258.414 282.02 256.902 282.02 255.012V254.613C282.02 253.355 282.258 252.234 282.734 251.25C283.219 250.258 283.891 249.484 284.75 248.93C285.617 248.367 286.555 248.086 287.562 248.086C289.211 248.086 290.492 248.629 291.406 249.715C292.32 250.801 292.777 252.355 292.777 254.379V255.281H284.188C284.219 256.531 284.582 257.543 285.277 258.316C285.98 259.082 286.871 259.465 287.949 259.465C288.715 259.465 289.363 259.309 289.895 258.996C290.426 258.684 290.891 258.27 291.289 257.754L292.613 258.785C291.551 260.418 289.957 261.234 287.832 261.234ZM287.562 249.867C286.688 249.867 285.953 250.188 285.359 250.828C284.766 251.461 284.398 252.352 284.258 253.5H290.609V253.336C290.547 252.234 290.25 251.383 289.719 250.781C289.188 250.172 288.469 249.867 287.562 249.867ZM294.512 248.742L293.281 247.898C294.008 246.883 294.383 245.812 294.406 244.688V243H296.551V244.523C296.543 245.305 296.348 246.086 295.965 246.867C295.59 247.641 295.105 248.266 294.512 248.742ZM301.895 261H299.727V243H301.895V261ZM307.73 261H305.562V243H307.73V261ZM316.648 254.555C316.648 252.578 317.105 251.008 318.02 249.844C318.934 248.672 320.145 248.086 321.652 248.086C323.199 248.086 324.406 248.633 325.273 249.727L325.379 248.32H327.359V260.695C327.359 262.336 326.871 263.629 325.895 264.574C324.926 265.52 323.621 265.992 321.98 265.992C321.066 265.992 320.172 265.797 319.297 265.406C318.422 265.016 317.754 264.48 317.293 263.801L318.418 262.5C319.348 263.648 320.484 264.223 321.828 264.223C322.883 264.223 323.703 263.926 324.289 263.332C324.883 262.738 325.18 261.902 325.18 260.824V259.734C324.312 260.734 323.129 261.234 321.629 261.234C320.145 261.234 318.941 260.637 318.02 259.441C317.105 258.246 316.648 256.617 316.648 254.555ZM318.828 254.801C318.828 256.23 319.121 257.355 319.707 258.176C320.293 258.988 321.113 259.395 322.168 259.395C323.535 259.395 324.539 258.773 325.18 257.531V251.742C324.516 250.531 323.52 249.926 322.191 249.926C321.137 249.926 320.312 250.336 319.719 251.156C319.125 251.977 318.828 253.191 318.828 254.801ZM335.902 261.234C334.184 261.234 332.785 260.672 331.707 259.547C330.629 258.414 330.09 256.902 330.09 255.012V254.613C330.09 253.355 330.328 252.234 330.805 251.25C331.289 250.258 331.961 249.484 332.82 248.93C333.688 248.367 334.625 248.086 335.633 248.086C337.281 248.086 338.562 248.629 339.477 249.715C340.391 250.801 340.848 252.355 340.848 254.379V255.281H332.258C332.289 256.531 332.652 257.543 333.348 258.316C334.051 259.082 334.941 259.465 336.02 259.465C336.785 259.465 337.434 259.309 337.965 258.996C338.496 258.684 338.961 258.27 339.359 257.754L340.684 258.785C339.621 260.418 338.027 261.234 335.902 261.234ZM335.633 249.867C334.758 249.867 334.023 250.188 333.43 250.828C332.836 251.461 332.469 252.352 332.328 253.5H338.68V253.336C338.617 252.234 338.32 251.383 337.789 250.781C337.258 250.172 336.539 249.867 335.633 249.867ZM346.309 245.25V248.32H348.676V249.996H346.309V257.859C346.309 258.367 346.414 258.75 346.625 259.008C346.836 259.258 347.195 259.383 347.703 259.383C347.953 259.383 348.297 259.336 348.734 259.242V261C348.164 261.156 347.609 261.234 347.07 261.234C346.102 261.234 345.371 260.941 344.879 260.355C344.387 259.77 344.141 258.938 344.141 257.859V249.996H341.832V248.32H344.141V245.25H346.309ZM359.527 261H357.359V248.32H359.527V261ZM357.184 244.957C357.184 244.605 357.289 244.309 357.5 244.066C357.719 243.824 358.039 243.703 358.461 243.703C358.883 243.703 359.203 243.824 359.422 244.066C359.641 244.309 359.75 244.605 359.75 244.957C359.75 245.309 359.641 245.602 359.422 245.836C359.203 246.07 358.883 246.188 358.461 246.188C358.039 246.188 357.719 246.07 357.5 245.836C357.289 245.602 357.184 245.309 357.184 244.957ZM365.059 248.32L365.129 249.914C366.098 248.695 367.363 248.086 368.926 248.086C371.605 248.086 372.957 249.598 372.98 252.621V261H370.812V252.609C370.805 251.695 370.594 251.02 370.18 250.582C369.773 250.145 369.137 249.926 368.27 249.926C367.566 249.926 366.949 250.113 366.418 250.488C365.887 250.863 365.473 251.355 365.176 251.965V261H363.008V248.32H365.059ZM385.145 245.25V248.32H387.512V249.996H385.145V257.859C385.145 258.367 385.25 258.75 385.461 259.008C385.672 259.258 386.031 259.383 386.539 259.383C386.789 259.383 387.133 259.336 387.57 259.242V261C387 261.156 386.445 261.234 385.906 261.234C384.938 261.234 384.207 260.941 383.715 260.355C383.223 259.77 382.977 258.938 382.977 257.859V249.996H380.668V248.32H382.977V245.25H385.145ZM389.246 254.543C389.246 253.301 389.488 252.184 389.973 251.191C390.465 250.199 391.145 249.434 392.012 248.895C392.887 248.355 393.883 248.086 395 248.086C396.727 248.086 398.121 248.684 399.184 249.879C400.254 251.074 400.789 252.664 400.789 254.648V254.801C400.789 256.035 400.551 257.145 400.074 258.129C399.605 259.105 398.93 259.867 398.047 260.414C397.172 260.961 396.164 261.234 395.023 261.234C393.305 261.234 391.91 260.637 390.84 259.441C389.777 258.246 389.246 256.664 389.246 254.695V254.543ZM391.426 254.801C391.426 256.207 391.75 257.336 392.398 258.188C393.055 259.039 393.93 259.465 395.023 259.465C396.125 259.465 397 259.035 397.648 258.176C398.297 257.309 398.621 256.098 398.621 254.543C398.621 253.152 398.289 252.027 397.625 251.168C396.969 250.301 396.094 249.867 395 249.867C393.93 249.867 393.066 250.293 392.41 251.145C391.754 251.996 391.426 253.215 391.426 254.801ZM411.336 259.746C410.492 260.738 409.254 261.234 407.621 261.234C406.27 261.234 405.238 260.844 404.527 260.062C403.824 259.273 403.469 258.109 403.461 256.57V248.32H405.629V256.512C405.629 258.434 406.41 259.395 407.973 259.395C409.629 259.395 410.73 258.777 411.277 257.543V248.32H413.445V261H411.383L411.336 259.746ZM421.836 259.465C422.609 259.465 423.285 259.23 423.863 258.762C424.441 258.293 424.762 257.707 424.824 257.004H426.875C426.836 257.73 426.586 258.422 426.125 259.078C425.664 259.734 425.047 260.258 424.273 260.648C423.508 261.039 422.695 261.234 421.836 261.234C420.109 261.234 418.734 260.66 417.711 259.512C416.695 258.355 416.188 256.777 416.188 254.777V254.414C416.188 253.18 416.414 252.082 416.867 251.121C417.32 250.16 417.969 249.414 418.812 248.883C419.664 248.352 420.668 248.086 421.824 248.086C423.246 248.086 424.426 248.512 425.363 249.363C426.309 250.215 426.812 251.32 426.875 252.68H424.824C424.762 251.859 424.449 251.188 423.887 250.664C423.332 250.133 422.645 249.867 421.824 249.867C420.723 249.867 419.867 250.266 419.258 251.062C418.656 251.852 418.355 252.996 418.355 254.496V254.906C418.355 256.367 418.656 257.492 419.258 258.281C419.859 259.07 420.719 259.465 421.836 259.465ZM431.48 249.855C432.441 248.676 433.691 248.086 435.23 248.086C437.91 248.086 439.262 249.598 439.285 252.621V261H437.117V252.609C437.109 251.695 436.898 251.02 436.484 250.582C436.078 250.145 435.441 249.926 434.574 249.926C433.871 249.926 433.254 250.113 432.723 250.488C432.191 250.863 431.777 251.355 431.48 251.965V261H429.312V243H431.48V249.855ZM459.711 258.012L462.148 248.32H464.316L460.625 261H458.867L455.785 251.391L452.785 261H451.027L447.348 248.32H449.504L452 257.812L454.953 248.32H456.699L459.711 258.012ZM468.887 261H466.719V248.32H468.887V261ZM466.543 244.957C466.543 244.605 466.648 244.309 466.859 244.066C467.078 243.824 467.398 243.703 467.82 243.703C468.242 243.703 468.562 243.824 468.781 244.066C469 244.309 469.109 244.605 469.109 244.957C469.109 245.309 469 245.602 468.781 245.836C468.562 246.07 468.242 246.188 467.82 246.188C467.398 246.188 467.078 246.07 466.859 245.836C466.648 245.602 466.543 245.309 466.543 244.957ZM475.309 245.25V248.32H477.676V249.996H475.309V257.859C475.309 258.367 475.414 258.75 475.625 259.008C475.836 259.258 476.195 259.383 476.703 259.383C476.953 259.383 477.297 259.336 477.734 259.242V261C477.164 261.156 476.609 261.234 476.07 261.234C475.102 261.234 474.371 260.941 473.879 260.355C473.387 259.77 473.141 258.938 473.141 257.859V249.996H470.832V248.32H473.141V245.25H475.309ZM482.387 249.855C483.348 248.676 484.598 248.086 486.137 248.086C488.816 248.086 490.168 249.598 490.191 252.621V261H488.023V252.609C488.016 251.695 487.805 251.02 487.391 250.582C486.984 250.145 486.348 249.926 485.48 249.926C484.777 249.926 484.16 250.113 483.629 250.488C483.098 250.863 482.684 251.355 482.387 251.965V261H480.219V243H482.387V249.855ZM503.539 257.824L506.492 248.32H508.812L503.715 262.957C502.926 265.066 501.672 266.121 499.953 266.121L499.543 266.086L498.734 265.934V264.176L499.32 264.223C500.055 264.223 500.625 264.074 501.031 263.777C501.445 263.48 501.785 262.938 502.051 262.148L502.531 260.859L498.008 248.32H500.375L503.539 257.824ZM509.996 254.543C509.996 253.301 510.238 252.184 510.723 251.191C511.215 250.199 511.895 249.434 512.762 248.895C513.637 248.355 514.633 248.086 515.75 248.086C517.477 248.086 518.871 248.684 519.934 249.879C521.004 251.074 521.539 252.664 521.539 254.648V254.801C521.539 256.035 521.301 257.145 520.824 258.129C520.355 259.105 519.68 259.867 518.797 260.414C517.922 260.961 516.914 261.234 515.773 261.234C514.055 261.234 512.66 260.637 511.59 259.441C510.527 258.246 509.996 256.664 509.996 254.695V254.543ZM512.176 254.801C512.176 256.207 512.5 257.336 513.148 258.188C513.805 259.039 514.68 259.465 515.773 259.465C516.875 259.465 517.75 259.035 518.398 258.176C519.047 257.309 519.371 256.098 519.371 254.543C519.371 253.152 519.039 252.027 518.375 251.168C517.719 250.301 516.844 249.867 515.75 249.867C514.68 249.867 513.816 250.293 513.16 251.145C512.504 251.996 512.176 253.215 512.176 254.801ZM532.086 259.746C531.242 260.738 530.004 261.234 528.371 261.234C527.02 261.234 525.988 260.844 525.277 260.062C524.574 259.273 524.219 258.109 524.211 256.57V248.32H526.379V256.512C526.379 258.434 527.16 259.395 528.723 259.395C530.379 259.395 531.48 258.777 532.027 257.543V248.32H534.195V261H532.133L532.086 259.746ZM543.629 250.266C543.301 250.211 542.945 250.184 542.562 250.184C541.141 250.184 540.176 250.789 539.668 252V261H537.5V248.32H539.609L539.645 249.785C540.355 248.652 541.363 248.086 542.668 248.086C543.09 248.086 543.41 248.141 543.629 248.25V250.266ZM269.023 281.637C269.023 281.051 268.801 280.598 268.355 280.277C267.918 279.949 267.148 279.668 266.047 279.434C264.953 279.199 264.082 278.918 263.434 278.59C262.793 278.262 262.316 277.871 262.004 277.418C261.699 276.965 261.547 276.426 261.547 275.801C261.547 274.762 261.984 273.883 262.859 273.164C263.742 272.445 264.867 272.086 266.234 272.086C267.672 272.086 268.836 272.457 269.727 273.199C270.625 273.941 271.074 274.891 271.074 276.047H268.895C268.895 275.453 268.641 274.941 268.133 274.512C267.633 274.082 267 273.867 266.234 273.867C265.445 273.867 264.828 274.039 264.383 274.383C263.938 274.727 263.715 275.176 263.715 275.73C263.715 276.254 263.922 276.648 264.336 276.914C264.75 277.18 265.496 277.434 266.574 277.676C267.66 277.918 268.539 278.207 269.211 278.543C269.883 278.879 270.379 279.285 270.699 279.762C271.027 280.23 271.191 280.805 271.191 281.484C271.191 282.617 270.738 283.527 269.832 284.215C268.926 284.895 267.75 285.234 266.305 285.234C265.289 285.234 264.391 285.055 263.609 284.695C262.828 284.336 262.215 283.836 261.77 283.195C261.332 282.547 261.113 281.848 261.113 281.098H263.281C263.32 281.824 263.609 282.402 264.148 282.832C264.695 283.254 265.414 283.465 266.305 283.465C267.125 283.465 267.781 283.301 268.273 282.973C268.773 282.637 269.023 282.191 269.023 281.637ZM281.844 283.746C281 284.738 279.762 285.234 278.129 285.234C276.777 285.234 275.746 284.844 275.035 284.062C274.332 283.273 273.977 282.109 273.969 280.57V272.32H276.137V280.512C276.137 282.434 276.918 283.395 278.48 283.395C280.137 283.395 281.238 282.777 281.785 281.543V272.32H283.953V285H281.891L281.844 283.746ZM297.969 278.801C297.969 280.73 297.527 282.285 296.645 283.465C295.762 284.645 294.566 285.234 293.059 285.234C291.52 285.234 290.309 284.746 289.426 283.77V289.875H287.258V272.32H289.238L289.344 273.727C290.227 272.633 291.453 272.086 293.023 272.086C294.547 272.086 295.75 272.66 296.633 273.809C297.523 274.957 297.969 276.555 297.969 278.602V278.801ZM295.801 278.555C295.801 277.125 295.496 275.996 294.887 275.168C294.277 274.34 293.441 273.926 292.379 273.926C291.066 273.926 290.082 274.508 289.426 275.672V281.73C290.074 282.887 291.066 283.465 292.402 283.465C293.441 283.465 294.266 283.055 294.875 282.234C295.492 281.406 295.801 280.18 295.801 278.555ZM311.445 278.801C311.445 280.73 311.004 282.285 310.121 283.465C309.238 284.645 308.043 285.234 306.535 285.234C304.996 285.234 303.785 284.746 302.902 283.77V289.875H300.734V272.32H302.715L302.82 273.727C303.703 272.633 304.93 272.086 306.5 272.086C308.023 272.086 309.227 272.66 310.109 273.809C311 274.957 311.445 276.555 311.445 278.602V278.801ZM309.277 278.555C309.277 277.125 308.973 275.996 308.363 275.168C307.754 274.34 306.918 273.926 305.855 273.926C304.543 273.926 303.559 274.508 302.902 275.672V281.73C303.551 282.887 304.543 283.465 305.879 283.465C306.918 283.465 307.742 283.055 308.352 282.234C308.969 281.406 309.277 280.18 309.277 278.555ZM316.566 285H314.398V267H316.566V285ZM322.402 285H320.234V272.32H322.402V285ZM320.059 268.957C320.059 268.605 320.164 268.309 320.375 268.066C320.594 267.824 320.914 267.703 321.336 267.703C321.758 267.703 322.078 267.824 322.297 268.066C322.516 268.309 322.625 268.605 322.625 268.957C322.625 269.309 322.516 269.602 322.297 269.836C322.078 270.07 321.758 270.188 321.336 270.188C320.914 270.188 320.594 270.07 320.375 269.836C320.164 269.602 320.059 269.309 320.059 268.957ZM331.145 285.234C329.426 285.234 328.027 284.672 326.949 283.547C325.871 282.414 325.332 280.902 325.332 279.012V278.613C325.332 277.355 325.57 276.234 326.047 275.25C326.531 274.258 327.203 273.484 328.062 272.93C328.93 272.367 329.867 272.086 330.875 272.086C332.523 272.086 333.805 272.629 334.719 273.715C335.633 274.801 336.09 276.355 336.09 278.379V279.281H327.5C327.531 280.531 327.895 281.543 328.59 282.316C329.293 283.082 330.184 283.465 331.262 283.465C332.027 283.465 332.676 283.309 333.207 282.996C333.738 282.684 334.203 282.27 334.602 281.754L335.926 282.785C334.863 284.418 333.27 285.234 331.145 285.234ZM330.875 273.867C330 273.867 329.266 274.188 328.672 274.828C328.078 275.461 327.711 276.352 327.57 277.5H333.922V277.336C333.859 276.234 333.562 275.383 333.031 274.781C332.5 274.172 331.781 273.867 330.875 273.867ZM344.738 274.266C344.41 274.211 344.055 274.184 343.672 274.184C342.25 274.184 341.285 274.789 340.777 276V285H338.609V272.32H340.719L340.754 273.785C341.465 272.652 342.473 272.086 343.777 272.086C344.199 272.086 344.52 272.141 344.738 272.25V274.266ZM345.219 288.398L343.988 287.555C344.723 286.531 345.105 285.477 345.137 284.391V282.434H347.258V284.133C347.258 284.922 347.062 285.711 346.672 286.5C346.289 287.289 345.805 287.922 345.219 288.398ZM358.309 285H356.141V272.32H358.309V285ZM355.965 268.957C355.965 268.605 356.07 268.309 356.281 268.066C356.5 267.824 356.82 267.703 357.242 267.703C357.664 267.703 357.984 267.824 358.203 268.066C358.422 268.309 358.531 268.605 358.531 268.957C358.531 269.309 358.422 269.602 358.203 269.836C357.984 270.07 357.664 270.188 357.242 270.188C356.82 270.188 356.5 270.07 356.281 269.836C356.07 269.602 355.965 269.309 355.965 268.957ZM363.84 272.32L363.91 273.914C364.879 272.695 366.145 272.086 367.707 272.086C370.387 272.086 371.738 273.598 371.762 276.621V285H369.594V276.609C369.586 275.695 369.375 275.02 368.961 274.582C368.555 274.145 367.918 273.926 367.051 273.926C366.348 273.926 365.73 274.113 365.199 274.488C364.668 274.863 364.254 275.355 363.957 275.965V285H361.789V272.32H363.84ZM382.414 281.637C382.414 281.051 382.191 280.598 381.746 280.277C381.309 279.949 380.539 279.668 379.438 279.434C378.344 279.199 377.473 278.918 376.824 278.59C376.184 278.262 375.707 277.871 375.395 277.418C375.09 276.965 374.938 276.426 374.938 275.801C374.938 274.762 375.375 273.883 376.25 273.164C377.133 272.445 378.258 272.086 379.625 272.086C381.062 272.086 382.227 272.457 383.117 273.199C384.016 273.941 384.465 274.891 384.465 276.047H382.285C382.285 275.453 382.031 274.941 381.523 274.512C381.023 274.082 380.391 273.867 379.625 273.867C378.836 273.867 378.219 274.039 377.773 274.383C377.328 274.727 377.105 275.176 377.105 275.73C377.105 276.254 377.312 276.648 377.727 276.914C378.141 277.18 378.887 277.434 379.965 277.676C381.051 277.918 381.93 278.207 382.602 278.543C383.273 278.879 383.77 279.285 384.09 279.762C384.418 280.23 384.582 280.805 384.582 281.484C384.582 282.617 384.129 283.527 383.223 284.215C382.316 284.895 381.141 285.234 379.695 285.234C378.68 285.234 377.781 285.055 377 284.695C376.219 284.336 375.605 283.836 375.16 283.195C374.723 282.547 374.504 281.848 374.504 281.098H376.672C376.711 281.824 377 282.402 377.539 282.832C378.086 283.254 378.805 283.465 379.695 283.465C380.516 283.465 381.172 283.301 381.664 282.973C382.164 282.637 382.414 282.191 382.414 281.637ZM398.117 278.801C398.117 280.73 397.676 282.285 396.793 283.465C395.91 284.645 394.715 285.234 393.207 285.234C391.668 285.234 390.457 284.746 389.574 283.77V289.875H387.406V272.32H389.387L389.492 273.727C390.375 272.633 391.602 272.086 393.172 272.086C394.695 272.086 395.898 272.66 396.781 273.809C397.672 274.957 398.117 276.555 398.117 278.602V278.801ZM395.949 278.555C395.949 277.125 395.645 275.996 395.035 275.168C394.426 274.34 393.59 273.926 392.527 273.926C391.215 273.926 390.23 274.508 389.574 275.672V281.73C390.223 282.887 391.215 283.465 392.551 283.465C393.59 283.465 394.414 283.055 395.023 282.234C395.641 281.406 395.949 280.18 395.949 278.555ZM406.145 285.234C404.426 285.234 403.027 284.672 401.949 283.547C400.871 282.414 400.332 280.902 400.332 279.012V278.613C400.332 277.355 400.57 276.234 401.047 275.25C401.531 274.258 402.203 273.484 403.062 272.93C403.93 272.367 404.867 272.086 405.875 272.086C407.523 272.086 408.805 272.629 409.719 273.715C410.633 274.801 411.09 276.355 411.09 278.379V279.281H402.5C402.531 280.531 402.895 281.543 403.59 282.316C404.293 283.082 405.184 283.465 406.262 283.465C407.027 283.465 407.676 283.309 408.207 282.996C408.738 282.684 409.203 282.27 409.602 281.754L410.926 282.785C409.863 284.418 408.27 285.234 406.145 285.234ZM405.875 273.867C405 273.867 404.266 274.188 403.672 274.828C403.078 275.461 402.711 276.352 402.57 277.5H408.922V277.336C408.859 276.234 408.562 275.383 408.031 274.781C407.5 274.172 406.781 273.867 405.875 273.867ZM418.695 283.465C419.469 283.465 420.145 283.23 420.723 282.762C421.301 282.293 421.621 281.707 421.684 281.004H423.734C423.695 281.73 423.445 282.422 422.984 283.078C422.523 283.734 421.906 284.258 421.133 284.648C420.367 285.039 419.555 285.234 418.695 285.234C416.969 285.234 415.594 284.66 414.57 283.512C413.555 282.355 413.047 280.777 413.047 278.777V278.414C413.047 277.18 413.273 276.082 413.727 275.121C414.18 274.16 414.828 273.414 415.672 272.883C416.523 272.352 417.527 272.086 418.684 272.086C420.105 272.086 421.285 272.512 422.223 273.363C423.168 274.215 423.672 275.32 423.734 276.68H421.684C421.621 275.859 421.309 275.188 420.746 274.664C420.191 274.133 419.504 273.867 418.684 273.867C417.582 273.867 416.727 274.266 416.117 275.062C415.516 275.852 415.215 276.996 415.215 278.496V278.906C415.215 280.367 415.516 281.492 416.117 282.281C416.719 283.07 417.578 283.465 418.695 283.465ZM429.113 269.25V272.32H431.48V273.996H429.113V281.859C429.113 282.367 429.219 282.75 429.43 283.008C429.641 283.258 430 283.383 430.508 283.383C430.758 283.383 431.102 283.336 431.539 283.242V285C430.969 285.156 430.414 285.234 429.875 285.234C428.906 285.234 428.176 284.941 427.684 284.355C427.191 283.77 426.945 282.938 426.945 281.859V273.996H424.637V272.32H426.945V269.25H429.113ZM442.918 269.25V272.32H445.285V273.996H442.918V281.859C442.918 282.367 443.023 282.75 443.234 283.008C443.445 283.258 443.805 283.383 444.312 283.383C444.562 283.383 444.906 283.336 445.344 283.242V285C444.773 285.156 444.219 285.234 443.68 285.234C442.711 285.234 441.98 284.941 441.488 284.355C440.996 283.77 440.75 282.938 440.75 281.859V273.996H438.441V272.32H440.75V269.25H442.918ZM449.996 273.855C450.957 272.676 452.207 272.086 453.746 272.086C456.426 272.086 457.777 273.598 457.801 276.621V285H455.633V276.609C455.625 275.695 455.414 275.02 455 274.582C454.594 274.145 453.957 273.926 453.09 273.926C452.387 273.926 451.77 274.113 451.238 274.488C450.707 274.863 450.293 275.355 449.996 275.965V285H447.828V267H449.996V273.855ZM466.309 285.234C464.59 285.234 463.191 284.672 462.113 283.547C461.035 282.414 460.496 280.902 460.496 279.012V278.613C460.496 277.355 460.734 276.234 461.211 275.25C461.695 274.258 462.367 273.484 463.227 272.93C464.094 272.367 465.031 272.086 466.039 272.086C467.688 272.086 468.969 272.629 469.883 273.715C470.797 274.801 471.254 276.355 471.254 278.379V279.281H462.664C462.695 280.531 463.059 281.543 463.754 282.316C464.457 283.082 465.348 283.465 466.426 283.465C467.191 283.465 467.84 283.309 468.371 282.996C468.902 282.684 469.367 282.27 469.766 281.754L471.09 282.785C470.027 284.418 468.434 285.234 466.309 285.234ZM466.039 273.867C465.164 273.867 464.43 274.188 463.836 274.828C463.242 275.461 462.875 276.352 462.734 277.5H469.086V277.336C469.023 276.234 468.727 275.383 468.195 274.781C467.664 274.172 466.945 273.867 466.039 273.867ZM479.211 278.555C479.211 276.578 479.668 275.008 480.582 273.844C481.496 272.672 482.707 272.086 484.215 272.086C485.762 272.086 486.969 272.633 487.836 273.727L487.941 272.32H489.922V284.695C489.922 286.336 489.434 287.629 488.457 288.574C487.488 289.52 486.184 289.992 484.543 289.992C483.629 289.992 482.734 289.797 481.859 289.406C480.984 289.016 480.316 288.48 479.855 287.801L480.98 286.5C481.91 287.648 483.047 288.223 484.391 288.223C485.445 288.223 486.266 287.926 486.852 287.332C487.445 286.738 487.742 285.902 487.742 284.824V283.734C486.875 284.734 485.691 285.234 484.191 285.234C482.707 285.234 481.504 284.637 480.582 283.441C479.668 282.246 479.211 280.617 479.211 278.555ZM481.391 278.801C481.391 280.23 481.684 281.355 482.27 282.176C482.855 282.988 483.676 283.395 484.73 283.395C486.098 283.395 487.102 282.773 487.742 281.531V275.742C487.078 274.531 486.082 273.926 484.754 273.926C483.699 273.926 482.875 274.336 482.281 275.156C481.688 275.977 481.391 277.191 481.391 278.801ZM492.629 278.543C492.629 277.301 492.871 276.184 493.355 275.191C493.848 274.199 494.527 273.434 495.395 272.895C496.27 272.355 497.266 272.086 498.383 272.086C500.109 272.086 501.504 272.684 502.566 273.879C503.637 275.074 504.172 276.664 504.172 278.648V278.801C504.172 280.035 503.934 281.145 503.457 282.129C502.988 283.105 502.312 283.867 501.43 284.414C500.555 284.961 499.547 285.234 498.406 285.234C496.688 285.234 495.293 284.637 494.223 283.441C493.16 282.246 492.629 280.664 492.629 278.695V278.543ZM494.809 278.801C494.809 280.207 495.133 281.336 495.781 282.188C496.438 283.039 497.312 283.465 498.406 283.465C499.508 283.465 500.383 283.035 501.031 282.176C501.68 281.309 502.004 280.098 502.004 278.543C502.004 277.152 501.672 276.027 501.008 275.168C500.352 274.301 499.477 273.867 498.383 273.867C497.312 273.867 496.449 274.293 495.793 275.145C495.137 275.996 494.809 277.215 494.809 278.801ZM506.316 278.543C506.316 277.301 506.559 276.184 507.043 275.191C507.535 274.199 508.215 273.434 509.082 272.895C509.957 272.355 510.953 272.086 512.07 272.086C513.797 272.086 515.191 272.684 516.254 273.879C517.324 275.074 517.859 276.664 517.859 278.648V278.801C517.859 280.035 517.621 281.145 517.145 282.129C516.676 283.105 516 283.867 515.117 284.414C514.242 284.961 513.234 285.234 512.094 285.234C510.375 285.234 508.98 284.637 507.91 283.441C506.848 282.246 506.316 280.664 506.316 278.695V278.543ZM508.496 278.801C508.496 280.207 508.82 281.336 509.469 282.188C510.125 283.039 511 283.465 512.094 283.465C513.195 283.465 514.07 283.035 514.719 282.176C515.367 281.309 515.691 280.098 515.691 278.543C515.691 277.152 515.359 276.027 514.695 275.168C514.039 274.301 513.164 273.867 512.07 273.867C511 273.867 510.137 274.293 509.48 275.145C508.824 275.996 508.496 277.215 508.496 278.801ZM520.051 278.555C520.051 276.609 520.512 275.047 521.434 273.867C522.355 272.68 523.562 272.086 525.055 272.086C526.539 272.086 527.715 272.594 528.582 273.609V267H530.75V285H528.758L528.652 283.641C527.785 284.703 526.578 285.234 525.031 285.234C523.562 285.234 522.363 284.633 521.434 283.43C520.512 282.227 520.051 280.656 520.051 278.719V278.555ZM522.219 278.801C522.219 280.238 522.516 281.363 523.109 282.176C523.703 282.988 524.523 283.395 525.57 283.395C526.945 283.395 527.949 282.777 528.582 281.543V275.719C527.934 274.523 526.938 273.926 525.594 273.926C524.531 273.926 523.703 274.336 523.109 275.156C522.516 275.977 522.219 277.191 522.219 278.801ZM541.508 281.637C541.508 281.051 541.285 280.598 540.84 280.277C540.402 279.949 539.633 279.668 538.531 279.434C537.438 279.199 536.566 278.918 535.918 278.59C535.277 278.262 534.801 277.871 534.488 277.418C534.184 276.965 534.031 276.426 534.031 275.801C534.031 274.762 534.469 273.883 535.344 273.164C536.227 272.445 537.352 272.086 538.719 272.086C540.156 272.086 541.32 272.457 542.211 273.199C543.109 273.941 543.559 274.891 543.559 276.047H541.379C541.379 275.453 541.125 274.941 540.617 274.512C540.117 274.082 539.484 273.867 538.719 273.867C537.93 273.867 537.312 274.039 536.867 274.383C536.422 274.727 536.199 275.176 536.199 275.73C536.199 276.254 536.406 276.648 536.82 276.914C537.234 277.18 537.98 277.434 539.059 277.676C540.145 277.918 541.023 278.207 541.695 278.543C542.367 278.879 542.863 279.285 543.184 279.762C543.512 280.23 543.676 280.805 543.676 281.484C543.676 282.617 543.223 283.527 542.316 284.215C541.41 284.895 540.234 285.234 538.789 285.234C537.773 285.234 536.875 285.055 536.094 284.695C535.312 284.336 534.699 283.836 534.254 283.195C533.816 282.547 533.598 281.848 533.598 281.098H535.766C535.805 281.824 536.094 282.402 536.633 282.832C537.18 283.254 537.898 283.465 538.789 283.465C539.609 283.465 540.266 283.301 540.758 282.973C541.258 282.637 541.508 282.191 541.508 281.637ZM262.707 309V297.996H260.703V296.32H262.707V295.02C262.707 293.66 263.07 292.609 263.797 291.867C264.523 291.125 265.551 290.754 266.879 290.754C267.379 290.754 267.875 290.82 268.367 290.953L268.25 292.711C267.883 292.641 267.492 292.605 267.078 292.605C266.375 292.605 265.832 292.812 265.449 293.227C265.066 293.633 264.875 294.219 264.875 294.984V296.32H267.582V297.996H264.875V309H262.707ZM269.41 302.543C269.41 301.301 269.652 300.184 270.137 299.191C270.629 298.199 271.309 297.434 272.176 296.895C273.051 296.355 274.047 296.086 275.164 296.086C276.891 296.086 278.285 296.684 279.348 297.879C280.418 299.074 280.953 300.664 280.953 302.648V302.801C280.953 304.035 280.715 305.145 280.238 306.129C279.77 307.105 279.094 307.867 278.211 308.414C277.336 308.961 276.328 309.234 275.188 309.234C273.469 309.234 272.074 308.637 271.004 307.441C269.941 306.246 269.41 304.664 269.41 302.695V302.543ZM271.59 302.801C271.59 304.207 271.914 305.336 272.562 306.188C273.219 307.039 274.094 307.465 275.188 307.465C276.289 307.465 277.164 307.035 277.812 306.176C278.461 305.309 278.785 304.098 278.785 302.543C278.785 301.152 278.453 300.027 277.789 299.168C277.133 298.301 276.258 297.867 275.164 297.867C274.094 297.867 273.23 298.293 272.574 299.145C271.918 299.996 271.59 301.215 271.59 302.801ZM289.801 298.266C289.473 298.211 289.117 298.184 288.734 298.184C287.312 298.184 286.348 298.789 285.84 300V309H283.672V296.32H285.781L285.816 297.785C286.527 296.652 287.535 296.086 288.84 296.086C289.262 296.086 289.582 296.141 289.801 296.25V298.266ZM301.906 305.824L304.859 296.32H307.18L302.082 310.957C301.293 313.066 300.039 314.121 298.32 314.121L297.91 314.086L297.102 313.934V312.176L297.688 312.223C298.422 312.223 298.992 312.074 299.398 311.777C299.812 311.48 300.152 310.938 300.418 310.148L300.898 308.859L296.375 296.32H298.742L301.906 305.824ZM308.363 302.543C308.363 301.301 308.605 300.184 309.09 299.191C309.582 298.199 310.262 297.434 311.129 296.895C312.004 296.355 313 296.086 314.117 296.086C315.844 296.086 317.238 296.684 318.301 297.879C319.371 299.074 319.906 300.664 319.906 302.648V302.801C319.906 304.035 319.668 305.145 319.191 306.129C318.723 307.105 318.047 307.867 317.164 308.414C316.289 308.961 315.281 309.234 314.141 309.234C312.422 309.234 311.027 308.637 309.957 307.441C308.895 306.246 308.363 304.664 308.363 302.695V302.543ZM310.543 302.801C310.543 304.207 310.867 305.336 311.516 306.188C312.172 307.039 313.047 307.465 314.141 307.465C315.242 307.465 316.117 307.035 316.766 306.176C317.414 305.309 317.738 304.098 317.738 302.543C317.738 301.152 317.406 300.027 316.742 299.168C316.086 298.301 315.211 297.867 314.117 297.867C313.047 297.867 312.184 298.293 311.527 299.145C310.871 299.996 310.543 301.215 310.543 302.801ZM330.453 307.746C329.609 308.738 328.371 309.234 326.738 309.234C325.387 309.234 324.355 308.844 323.645 308.062C322.941 307.273 322.586 306.109 322.578 304.57V296.32H324.746V304.512C324.746 306.434 325.527 307.395 327.09 307.395C328.746 307.395 329.848 306.777 330.395 305.543V296.32H332.562V309H330.5L330.453 307.746ZM335.797 312.398L334.566 311.555C335.301 310.531 335.684 309.477 335.715 308.391V306.434H337.836V308.133C337.836 308.922 337.641 309.711 337.25 310.5C336.867 311.289 336.383 311.922 335.797 312.398ZM354.359 309C354.234 308.75 354.133 308.305 354.055 307.664C353.047 308.711 351.844 309.234 350.445 309.234C349.195 309.234 348.168 308.883 347.363 308.18C346.566 307.469 346.168 306.57 346.168 305.484C346.168 304.164 346.668 303.141 347.668 302.414C348.676 301.68 350.09 301.312 351.91 301.312H354.02V300.316C354.02 299.559 353.793 298.957 353.34 298.512C352.887 298.059 352.219 297.832 351.336 297.832C350.562 297.832 349.914 298.027 349.391 298.418C348.867 298.809 348.605 299.281 348.605 299.836H346.426C346.426 299.203 346.648 298.594 347.094 298.008C347.547 297.414 348.156 296.945 348.922 296.602C349.695 296.258 350.543 296.086 351.465 296.086C352.926 296.086 354.07 296.453 354.898 297.188C355.727 297.914 356.156 298.918 356.188 300.199V306.035C356.188 307.199 356.336 308.125 356.633 308.812V309H354.359ZM350.762 307.348C351.441 307.348 352.086 307.172 352.695 306.82C353.305 306.469 353.746 306.012 354.02 305.449V302.848H352.32C349.664 302.848 348.336 303.625 348.336 305.18C348.336 305.859 348.562 306.391 349.016 306.773C349.469 307.156 350.051 307.348 350.762 307.348ZM361.637 296.32L361.707 297.914C362.676 296.695 363.941 296.086 365.504 296.086C368.184 296.086 369.535 297.598 369.559 300.621V309H367.391V300.609C367.383 299.695 367.172 299.02 366.758 298.582C366.352 298.145 365.715 297.926 364.848 297.926C364.145 297.926 363.527 298.113 362.996 298.488C362.465 298.863 362.051 299.355 361.754 299.965V309H359.586V296.32H361.637ZM372.301 302.555C372.301 300.609 372.762 299.047 373.684 297.867C374.605 296.68 375.812 296.086 377.305 296.086C378.789 296.086 379.965 296.594 380.832 297.609V291H383V309H381.008L380.902 307.641C380.035 308.703 378.828 309.234 377.281 309.234C375.812 309.234 374.613 308.633 373.684 307.43C372.762 306.227 372.301 304.656 372.301 302.719V302.555ZM374.469 302.801C374.469 304.238 374.766 305.363 375.359 306.176C375.953 306.988 376.773 307.395 377.82 307.395C379.195 307.395 380.199 306.777 380.832 305.543V299.719C380.184 298.523 379.188 297.926 377.844 297.926C376.781 297.926 375.953 298.336 375.359 299.156C374.766 299.977 374.469 301.191 374.469 302.801ZM403.039 302.801C403.039 304.73 402.598 306.285 401.715 307.465C400.832 308.645 399.637 309.234 398.129 309.234C396.59 309.234 395.379 308.746 394.496 307.77V313.875H392.328V296.32H394.309L394.414 297.727C395.297 296.633 396.523 296.086 398.094 296.086C399.617 296.086 400.82 296.66 401.703 297.809C402.594 298.957 403.039 300.555 403.039 302.602V302.801ZM400.871 302.555C400.871 301.125 400.566 299.996 399.957 299.168C399.348 298.34 398.512 297.926 397.449 297.926C396.137 297.926 395.152 298.508 394.496 299.672V305.73C395.145 306.887 396.137 307.465 397.473 307.465C398.512 307.465 399.336 307.055 399.945 306.234C400.562 305.406 400.871 304.18 400.871 302.555ZM413.633 309C413.508 308.75 413.406 308.305 413.328 307.664C412.32 308.711 411.117 309.234 409.719 309.234C408.469 309.234 407.441 308.883 406.637 308.18C405.84 307.469 405.441 306.57 405.441 305.484C405.441 304.164 405.941 303.141 406.941 302.414C407.949 301.68 409.363 301.312 411.184 301.312H413.293V300.316C413.293 299.559 413.066 298.957 412.613 298.512C412.16 298.059 411.492 297.832 410.609 297.832C409.836 297.832 409.188 298.027 408.664 298.418C408.141 298.809 407.879 299.281 407.879 299.836H405.699C405.699 299.203 405.922 298.594 406.367 298.008C406.82 297.414 407.43 296.945 408.195 296.602C408.969 296.258 409.816 296.086 410.738 296.086C412.199 296.086 413.344 296.453 414.172 297.188C415 297.914 415.43 298.918 415.461 300.199V306.035C415.461 307.199 415.609 308.125 415.906 308.812V309H413.633ZM410.035 307.348C410.715 307.348 411.359 307.172 411.969 306.82C412.578 306.469 413.02 306.012 413.293 305.449V302.848H411.594C408.938 302.848 407.609 303.625 407.609 305.18C407.609 305.859 407.836 306.391 408.289 306.773C408.742 307.156 409.324 307.348 410.035 307.348ZM422.82 305.824L425.773 296.32H428.094L422.996 310.957C422.207 313.066 420.953 314.121 419.234 314.121L418.824 314.086L418.016 313.934V312.176L418.602 312.223C419.336 312.223 419.906 312.074 420.312 311.777C420.727 311.48 421.066 310.938 421.332 310.148L421.812 308.859L417.289 296.32H419.656L422.82 305.824ZM438.934 293.25V296.32H441.301V297.996H438.934V305.859C438.934 306.367 439.039 306.75 439.25 307.008C439.461 307.258 439.82 307.383 440.328 307.383C440.578 307.383 440.922 307.336 441.359 307.242V309C440.789 309.156 440.234 309.234 439.695 309.234C438.727 309.234 437.996 308.941 437.504 308.355C437.012 307.77 436.766 306.938 436.766 305.859V297.996H434.457V296.32H436.766V293.25H438.934ZM446.012 297.855C446.973 296.676 448.223 296.086 449.762 296.086C452.441 296.086 453.793 297.598 453.816 300.621V309H451.648V300.609C451.641 299.695 451.43 299.02 451.016 298.582C450.609 298.145 449.973 297.926 449.105 297.926C448.402 297.926 447.785 298.113 447.254 298.488C446.723 298.863 446.309 299.355 446.012 299.965V309H443.844V291H446.012V297.855ZM462.324 309.234C460.605 309.234 459.207 308.672 458.129 307.547C457.051 306.414 456.512 304.902 456.512 303.012V302.613C456.512 301.355 456.75 300.234 457.227 299.25C457.711 298.258 458.383 297.484 459.242 296.93C460.109 296.367 461.047 296.086 462.055 296.086C463.703 296.086 464.984 296.629 465.898 297.715C466.812 298.801 467.27 300.355 467.27 302.379V303.281H458.68C458.711 304.531 459.074 305.543 459.77 306.316C460.473 307.082 461.363 307.465 462.441 307.465C463.207 307.465 463.855 307.309 464.387 306.996C464.918 306.684 465.383 306.27 465.781 305.754L467.105 306.785C466.043 308.418 464.449 309.234 462.324 309.234ZM462.055 297.867C461.18 297.867 460.445 298.188 459.852 298.828C459.258 299.461 458.891 300.352 458.75 301.5H465.102V301.336C465.039 300.234 464.742 299.383 464.211 298.781C463.68 298.172 462.961 297.867 462.055 297.867ZM471.828 296.32L471.887 297.727C472.816 296.633 474.07 296.086 475.648 296.086C477.422 296.086 478.629 296.766 479.27 298.125C479.691 297.516 480.238 297.023 480.91 296.648C481.59 296.273 482.391 296.086 483.312 296.086C486.094 296.086 487.508 297.559 487.555 300.504V309H485.387V300.633C485.387 299.727 485.18 299.051 484.766 298.605C484.352 298.152 483.656 297.926 482.68 297.926C481.875 297.926 481.207 298.168 480.676 298.652C480.145 299.129 479.836 299.773 479.75 300.586V309H477.57V300.691C477.57 298.848 476.668 297.926 474.863 297.926C473.441 297.926 472.469 298.531 471.945 299.742V309H469.777V296.32H471.828ZM503.691 309H501.512V294.551L497.141 296.156V294.188L503.352 291.855H503.691V309ZM520.742 301.723C520.742 304.262 520.309 306.148 519.441 307.383C518.574 308.617 517.219 309.234 515.375 309.234C513.555 309.234 512.207 308.633 511.332 307.43C510.457 306.219 510.004 304.414 509.973 302.016V299.121C509.973 296.613 510.406 294.75 511.273 293.531C512.141 292.312 513.5 291.703 515.352 291.703C517.188 291.703 518.539 292.293 519.406 293.473C520.273 294.645 520.719 296.457 520.742 298.91V301.723ZM518.574 298.758C518.574 296.922 518.316 295.586 517.801 294.75C517.285 293.906 516.469 293.484 515.352 293.484C514.242 293.484 513.434 293.902 512.926 294.738C512.418 295.574 512.156 296.859 512.141 298.594V302.062C512.141 303.906 512.406 305.27 512.938 306.152C513.477 307.027 514.289 307.465 515.375 307.465C516.445 307.465 517.238 307.051 517.754 306.223C518.277 305.395 518.551 304.09 518.574 302.309V298.758ZM534.219 301.723C534.219 304.262 533.785 306.148 532.918 307.383C532.051 308.617 530.695 309.234 528.852 309.234C527.031 309.234 525.684 308.633 524.809 307.43C523.934 306.219 523.48 304.414 523.449 302.016V299.121C523.449 296.613 523.883 294.75 524.75 293.531C525.617 292.312 526.977 291.703 528.828 291.703C530.664 291.703 532.016 292.293 532.883 293.473C533.75 294.645 534.195 296.457 534.219 298.91V301.723ZM532.051 298.758C532.051 296.922 531.793 295.586 531.277 294.75C530.762 293.906 529.945 293.484 528.828 293.484C527.719 293.484 526.91 293.902 526.402 294.738C525.895 295.574 525.633 296.859 525.617 298.594V302.062C525.617 303.906 525.883 305.27 526.414 306.152C526.953 307.027 527.766 307.465 528.852 307.465C529.922 307.465 530.715 307.051 531.23 306.223C531.754 305.395 532.027 304.09 532.051 302.309V298.758ZM536.809 295.219C536.809 294.195 537.133 293.352 537.781 292.688C538.438 292.023 539.277 291.691 540.301 291.691C541.34 291.691 542.18 292.027 542.82 292.699C543.469 293.363 543.793 294.227 543.793 295.289V296.121C543.793 297.152 543.465 297.996 542.809 298.652C542.16 299.301 541.332 299.625 540.324 299.625C539.309 299.625 538.469 299.301 537.805 298.652C537.141 297.996 536.809 297.125 536.809 296.039V295.219ZM538.426 296.121C538.426 296.73 538.598 297.234 538.941 297.633C539.285 298.023 539.746 298.219 540.324 298.219C540.879 298.219 541.324 298.027 541.66 297.645C542.004 297.262 542.176 296.738 542.176 296.074V295.219C542.176 294.609 542.008 294.105 541.672 293.707C541.336 293.309 540.879 293.109 540.301 293.109C539.723 293.109 539.266 293.309 538.93 293.707C538.594 294.105 538.426 294.625 538.426 295.266V296.121ZM545.117 304.816C545.117 303.793 545.441 302.953 546.09 302.297C546.746 301.633 547.586 301.301 548.609 301.301C549.633 301.301 550.473 301.629 551.129 302.285C551.785 302.941 552.113 303.812 552.113 304.898V305.73C552.113 306.754 551.785 307.598 551.129 308.262C550.48 308.918 549.648 309.246 548.633 309.246C547.617 309.246 546.777 308.922 546.113 308.273C545.449 307.617 545.117 306.746 545.117 305.66V304.816ZM546.734 305.73C546.734 306.348 546.906 306.855 547.25 307.254C547.594 307.645 548.055 307.84 548.633 307.84C549.195 307.84 549.645 307.648 549.98 307.266C550.316 306.875 550.484 306.348 550.484 305.684V304.816C550.484 304.199 550.312 303.695 549.969 303.305C549.633 302.914 549.18 302.719 548.609 302.719C548.055 302.719 547.602 302.914 547.25 303.305C546.906 303.688 546.734 304.207 546.734 304.863V305.73ZM540.816 307.711L539.586 306.938L547.918 293.602L549.148 294.375L540.816 307.711ZM261.066 326.543C261.066 325.301 261.309 324.184 261.793 323.191C262.285 322.199 262.965 321.434 263.832 320.895C264.707 320.355 265.703 320.086 266.82 320.086C268.547 320.086 269.941 320.684 271.004 321.879C272.074 323.074 272.609 324.664 272.609 326.648V326.801C272.609 328.035 272.371 329.145 271.895 330.129C271.426 331.105 270.75 331.867 269.867 332.414C268.992 332.961 267.984 333.234 266.844 333.234C265.125 333.234 263.73 332.637 262.66 331.441C261.598 330.246 261.066 328.664 261.066 326.695V326.543ZM263.246 326.801C263.246 328.207 263.57 329.336 264.219 330.188C264.875 331.039 265.75 331.465 266.844 331.465C267.945 331.465 268.82 331.035 269.469 330.176C270.117 329.309 270.441 328.098 270.441 326.543C270.441 325.152 270.109 324.027 269.445 323.168C268.789 322.301 267.914 321.867 266.82 321.867C265.75 321.867 264.887 322.293 264.23 323.145C263.574 323.996 263.246 325.215 263.246 326.801ZM276.395 333V321.996H274.391V320.32H276.395V319.02C276.395 317.66 276.758 316.609 277.484 315.867C278.211 315.125 279.238 314.754 280.566 314.754C281.066 314.754 281.562 314.82 282.055 314.953L281.938 316.711C281.57 316.641 281.18 316.605 280.766 316.605C280.062 316.605 279.52 316.812 279.137 317.227C278.754 317.633 278.562 318.219 278.562 318.984V320.32H281.27V321.996H278.562V333H276.395ZM292.566 317.25V320.32H294.934V321.996H292.566V329.859C292.566 330.367 292.672 330.75 292.883 331.008C293.094 331.258 293.453 331.383 293.961 331.383C294.211 331.383 294.555 331.336 294.992 331.242V333C294.422 333.156 293.867 333.234 293.328 333.234C292.359 333.234 291.629 332.941 291.137 332.355C290.645 331.77 290.398 330.938 290.398 329.859V321.996H288.09V320.32H290.398V317.25H292.566ZM299.645 321.855C300.605 320.676 301.855 320.086 303.395 320.086C306.074 320.086 307.426 321.598 307.449 324.621V333H305.281V324.609C305.273 323.695 305.062 323.02 304.648 322.582C304.242 322.145 303.605 321.926 302.738 321.926C302.035 321.926 301.418 322.113 300.887 322.488C300.355 322.863 299.941 323.355 299.645 323.965V333H297.477V315H299.645V321.855ZM315.957 333.234C314.238 333.234 312.84 332.672 311.762 331.547C310.684 330.414 310.145 328.902 310.145 327.012V326.613C310.145 325.355 310.383 324.234 310.859 323.25C311.344 322.258 312.016 321.484 312.875 320.93C313.742 320.367 314.68 320.086 315.688 320.086C317.336 320.086 318.617 320.629 319.531 321.715C320.445 322.801 320.902 324.355 320.902 326.379V327.281H312.312C312.344 328.531 312.707 329.543 313.402 330.316C314.105 331.082 314.996 331.465 316.074 331.465C316.84 331.465 317.488 331.309 318.02 330.996C318.551 330.684 319.016 330.27 319.414 329.754L320.738 330.785C319.676 332.418 318.082 333.234 315.957 333.234ZM315.688 321.867C314.812 321.867 314.078 322.188 313.484 322.828C312.891 323.461 312.523 324.352 312.383 325.5H318.734V325.336C318.672 324.234 318.375 323.383 317.844 322.781C317.312 322.172 316.594 321.867 315.688 321.867ZM325.777 333H323.609V320.32H325.777V333ZM323.434 316.957C323.434 316.605 323.539 316.309 323.75 316.066C323.969 315.824 324.289 315.703 324.711 315.703C325.133 315.703 325.453 315.824 325.672 316.066C325.891 316.309 326 316.605 326 316.957C326 317.309 325.891 317.602 325.672 317.836C325.453 318.07 325.133 318.188 324.711 318.188C324.289 318.188 323.969 318.07 323.75 317.836C323.539 317.602 323.434 317.309 323.434 316.957ZM335.387 322.266C335.059 322.211 334.703 322.184 334.32 322.184C332.898 322.184 331.934 322.789 331.426 324V333H329.258V320.32H331.367L331.402 321.785C332.113 320.652 333.121 320.086 334.426 320.086C334.848 320.086 335.168 320.141 335.387 320.25V322.266ZM345.699 333H343.531V320.32H345.699V333ZM343.355 316.957C343.355 316.605 343.461 316.309 343.672 316.066C343.891 315.824 344.211 315.703 344.633 315.703C345.055 315.703 345.375 315.824 345.594 316.066C345.812 316.309 345.922 316.605 345.922 316.957C345.922 317.309 345.812 317.602 345.594 317.836C345.375 318.07 345.055 318.188 344.633 318.188C344.211 318.188 343.891 318.07 343.672 317.836C343.461 317.602 343.355 317.309 343.355 316.957ZM351.23 320.32L351.301 321.914C352.27 320.695 353.535 320.086 355.098 320.086C357.777 320.086 359.129 321.598 359.152 324.621V333H356.984V324.609C356.977 323.695 356.766 323.02 356.352 322.582C355.945 322.145 355.309 321.926 354.441 321.926C353.738 321.926 353.121 322.113 352.59 322.488C352.059 322.863 351.645 323.355 351.348 323.965V333H349.18V320.32H351.23ZM366.605 330.059L369.746 320.32H371.961L367.414 333H365.762L361.168 320.32H363.383L366.605 330.059ZM373.285 326.543C373.285 325.301 373.527 324.184 374.012 323.191C374.504 322.199 375.184 321.434 376.051 320.895C376.926 320.355 377.922 320.086 379.039 320.086C380.766 320.086 382.16 320.684 383.223 321.879C384.293 323.074 384.828 324.664 384.828 326.648V326.801C384.828 328.035 384.59 329.145 384.113 330.129C383.645 331.105 382.969 331.867 382.086 332.414C381.211 332.961 380.203 333.234 379.062 333.234C377.344 333.234 375.949 332.637 374.879 331.441C373.816 330.246 373.285 328.664 373.285 326.695V326.543ZM375.465 326.801C375.465 328.207 375.789 329.336 376.438 330.188C377.094 331.039 377.969 331.465 379.062 331.465C380.164 331.465 381.039 331.035 381.688 330.176C382.336 329.309 382.66 328.098 382.66 326.543C382.66 325.152 382.328 324.027 381.664 323.168C381.008 322.301 380.133 321.867 379.039 321.867C377.969 321.867 377.105 322.293 376.449 323.145C375.793 323.996 375.465 325.215 375.465 326.801ZM389.902 333H387.734V320.32H389.902V333ZM387.559 316.957C387.559 316.605 387.664 316.309 387.875 316.066C388.094 315.824 388.414 315.703 388.836 315.703C389.258 315.703 389.578 315.824 389.797 316.066C390.016 316.309 390.125 316.605 390.125 316.957C390.125 317.309 390.016 317.602 389.797 317.836C389.578 318.07 389.258 318.188 388.836 318.188C388.414 318.188 388.094 318.07 387.875 317.836C387.664 317.602 387.559 317.309 387.559 316.957ZM398.469 331.465C399.242 331.465 399.918 331.23 400.496 330.762C401.074 330.293 401.395 329.707 401.457 329.004H403.508C403.469 329.73 403.219 330.422 402.758 331.078C402.297 331.734 401.68 332.258 400.906 332.648C400.141 333.039 399.328 333.234 398.469 333.234C396.742 333.234 395.367 332.66 394.344 331.512C393.328 330.355 392.82 328.777 392.82 326.777V326.414C392.82 325.18 393.047 324.082 393.5 323.121C393.953 322.16 394.602 321.414 395.445 320.883C396.297 320.352 397.301 320.086 398.457 320.086C399.879 320.086 401.059 320.512 401.996 321.363C402.941 322.215 403.445 323.32 403.508 324.68H401.457C401.395 323.859 401.082 323.188 400.52 322.664C399.965 322.133 399.277 321.867 398.457 321.867C397.355 321.867 396.5 322.266 395.891 323.062C395.289 323.852 394.988 324.996 394.988 326.496V326.906C394.988 328.367 395.289 329.492 395.891 330.281C396.492 331.07 397.352 331.465 398.469 331.465ZM411.207 333.234C409.488 333.234 408.09 332.672 407.012 331.547C405.934 330.414 405.395 328.902 405.395 327.012V326.613C405.395 325.355 405.633 324.234 406.109 323.25C406.594 322.258 407.266 321.484 408.125 320.93C408.992 320.367 409.93 320.086 410.938 320.086C412.586 320.086 413.867 320.629 414.781 321.715C415.695 322.801 416.152 324.355 416.152 326.379V327.281H407.562C407.594 328.531 407.957 329.543 408.652 330.316C409.355 331.082 410.246 331.465 411.324 331.465C412.09 331.465 412.738 331.309 413.27 330.996C413.801 330.684 414.266 330.27 414.664 329.754L415.988 330.785C414.926 332.418 413.332 333.234 411.207 333.234ZM410.938 321.867C410.062 321.867 409.328 322.188 408.734 322.828C408.141 323.461 407.773 324.352 407.633 325.5H413.984V325.336C413.922 324.234 413.625 323.383 413.094 322.781C412.562 322.172 411.844 321.867 410.938 321.867Z" fill="#F3F3F3"/>
<defs>
<linearGradient id="paint0_linear_547:7989" x1="432.5" y1="0" x2="432.5" y2="822" gradientUnits="userSpaceOnUse">
<stop stop-color="#D699D0"/>
<stop offset="1" stop-color="#556FCB"/>
</linearGradient>
</defs>
</svg>
