<svg width="866" height="859" viewBox="0 0 866 859" fill="none" xmlns="http://www.w3.org/2000/svg">
<path d="M0.660156 286.5C0.660156 513.489 338.022 841 474.16 841C610.298 841 865.66 662.989 865.66 436C865.66 209.011 610.298 19 474.16 19C338.022 19 0.660156 59.511 0.660156 286.5Z" fill="url(#paint0_linear_513:7676)"/>
<path d="M172.104 168.254H182.844V173H165.934V147.406H172.104V168.254ZM194.375 173.352C191.457 173.352 189.096 172.484 187.291 170.75C185.486 169.004 184.584 166.736 184.584 163.947V163.455C184.584 161.51 184.941 159.793 185.656 158.305C186.383 156.816 187.438 155.668 188.82 154.859C190.203 154.039 191.844 153.629 193.742 153.629C196.414 153.629 198.523 154.461 200.07 156.125C201.617 157.777 202.391 160.086 202.391 163.051V165.354H190.613C190.824 166.42 191.287 167.258 192.002 167.867C192.717 168.477 193.643 168.781 194.779 168.781C196.654 168.781 198.119 168.125 199.174 166.812L201.881 170.012C201.143 171.031 200.094 171.846 198.734 172.455C197.387 173.053 195.934 173.352 194.375 173.352ZM193.707 158.199C191.973 158.199 190.941 159.348 190.613 161.645H196.59V161.188C196.613 160.238 196.373 159.506 195.869 158.99C195.365 158.463 194.645 158.199 193.707 158.199ZM211.689 149.252V153.98H214.818V158.094H211.689V166.795C211.689 167.51 211.818 168.008 212.076 168.289C212.334 168.57 212.844 168.711 213.605 168.711C214.191 168.711 214.684 168.676 215.082 168.605V172.842C214.016 173.182 212.902 173.352 211.742 173.352C209.703 173.352 208.197 172.871 207.225 171.91C206.252 170.949 205.766 169.49 205.766 167.533V158.094H203.34V153.98H205.766V149.252H211.689ZM219.688 155.422L217.086 154.016C218.059 152.328 218.557 150.676 218.58 149.059V146H222.904V148.865C222.904 149.955 222.588 151.121 221.955 152.363C221.334 153.594 220.578 154.613 219.688 155.422ZM232.221 167.656C232.221 167.152 231.957 166.748 231.43 166.443C230.902 166.139 229.9 165.822 228.424 165.494C226.947 165.166 225.729 164.738 224.768 164.211C223.807 163.672 223.074 163.021 222.57 162.26C222.066 161.498 221.814 160.625 221.814 159.641C221.814 157.895 222.535 156.459 223.977 155.334C225.418 154.197 227.305 153.629 229.637 153.629C232.145 153.629 234.16 154.197 235.684 155.334C237.207 156.471 237.969 157.965 237.969 159.816H232.027C232.027 158.293 231.225 157.531 229.619 157.531C228.998 157.531 228.477 157.707 228.055 158.059C227.633 158.398 227.422 158.826 227.422 159.342C227.422 159.869 227.68 160.297 228.195 160.625C228.711 160.953 229.531 161.223 230.656 161.434C231.793 161.645 232.789 161.896 233.645 162.189C236.504 163.174 237.934 164.938 237.934 167.48C237.934 169.215 237.16 170.627 235.613 171.717C234.078 172.807 232.086 173.352 229.637 173.352C228.008 173.352 226.555 173.059 225.277 172.473C224 171.887 223.004 171.09 222.289 170.082C221.574 169.074 221.217 168.014 221.217 166.9H226.754C226.777 167.779 227.07 168.424 227.633 168.834C228.195 169.232 228.916 169.432 229.795 169.432C230.604 169.432 231.207 169.268 231.605 168.939C232.016 168.611 232.221 168.184 232.221 167.656ZM248.99 163.35C248.99 161.428 249.307 159.729 249.939 158.252C250.572 156.775 251.48 155.639 252.664 154.842C253.848 154.033 255.225 153.629 256.795 153.629C258.775 153.629 260.322 154.297 261.436 155.633L261.646 153.98H267.025V172.279C267.025 173.955 266.633 175.408 265.848 176.639C265.074 177.881 263.949 178.83 262.473 179.486C260.996 180.154 259.285 180.488 257.34 180.488C255.945 180.488 254.592 180.225 253.279 179.697C251.979 179.17 250.982 178.484 250.291 177.641L252.77 174.16C253.871 175.461 255.324 176.111 257.129 176.111C259.754 176.111 261.066 174.764 261.066 172.068V171.471C259.93 172.725 258.494 173.352 256.76 173.352C254.439 173.352 252.564 172.467 251.135 170.697C249.705 168.916 248.99 166.537 248.99 163.561V163.35ZM254.932 163.719C254.932 165.277 255.225 166.514 255.811 167.428C256.396 168.33 257.217 168.781 258.271 168.781C259.549 168.781 260.48 168.354 261.066 167.498V159.5C260.492 158.633 259.572 158.199 258.307 158.199C257.252 158.199 256.426 158.674 255.828 159.623C255.23 160.561 254.932 161.926 254.932 163.719ZM279.594 173.352C276.676 173.352 274.314 172.484 272.51 170.75C270.705 169.004 269.803 166.736 269.803 163.947V163.455C269.803 161.51 270.16 159.793 270.875 158.305C271.602 156.816 272.656 155.668 274.039 154.859C275.422 154.039 277.062 153.629 278.961 153.629C281.633 153.629 283.742 154.461 285.289 156.125C286.836 157.777 287.609 160.086 287.609 163.051V165.354H275.832C276.043 166.42 276.506 167.258 277.221 167.867C277.936 168.477 278.861 168.781 279.998 168.781C281.873 168.781 283.338 168.125 284.393 166.812L287.1 170.012C286.361 171.031 285.312 171.846 283.953 172.455C282.605 173.053 281.152 173.352 279.594 173.352ZM278.926 158.199C277.191 158.199 276.16 159.348 275.832 161.645H281.809V161.188C281.832 160.238 281.592 159.506 281.088 158.99C280.584 158.463 279.863 158.199 278.926 158.199ZM296.908 149.252V153.98H300.037V158.094H296.908V166.795C296.908 167.51 297.037 168.008 297.295 168.289C297.553 168.57 298.062 168.711 298.824 168.711C299.41 168.711 299.902 168.676 300.301 168.605V172.842C299.234 173.182 298.121 173.352 296.961 173.352C294.922 173.352 293.416 172.871 292.443 171.91C291.471 170.949 290.984 169.49 290.984 167.533V158.094H288.559V153.98H290.984V149.252H296.908ZM318.248 149.252V153.98H321.377V158.094H318.248V166.795C318.248 167.51 318.377 168.008 318.635 168.289C318.893 168.57 319.402 168.711 320.164 168.711C320.75 168.711 321.242 168.676 321.641 168.605V172.842C320.574 173.182 319.461 173.352 318.301 173.352C316.262 173.352 314.756 172.871 313.783 171.91C312.811 170.949 312.324 169.49 312.324 167.533V158.094H309.898V153.98H312.324V149.252H318.248ZM322.449 163.314C322.449 161.416 322.818 159.729 323.557 158.252C324.295 156.764 325.355 155.621 326.738 154.824C328.121 154.027 329.744 153.629 331.607 153.629C334.455 153.629 336.699 154.514 338.34 156.283C339.98 158.041 340.801 160.438 340.801 163.473V163.684C340.801 166.648 339.975 169.004 338.322 170.75C336.682 172.484 334.455 173.352 331.643 173.352C328.936 173.352 326.762 172.543 325.121 170.926C323.48 169.297 322.596 167.094 322.467 164.316L322.449 163.314ZM328.373 163.684C328.373 165.441 328.648 166.73 329.199 167.551C329.75 168.371 330.564 168.781 331.643 168.781C333.752 168.781 334.83 167.158 334.877 163.912V163.314C334.877 159.904 333.787 158.199 331.607 158.199C329.627 158.199 328.555 159.67 328.391 162.611L328.373 163.684ZM360.014 165.916L358.344 167.586V173H352.42V145.982H358.344V160.326L358.941 159.535L363.406 153.98H370.508L363.846 161.803L370.947 173H364.162L360.014 165.916ZM377.504 153.98L377.697 156.213C379.01 154.49 380.82 153.629 383.129 153.629C385.109 153.629 386.586 154.221 387.559 155.404C388.543 156.588 389.053 158.369 389.088 160.748V173H383.146V160.994C383.146 160.033 382.953 159.33 382.566 158.885C382.18 158.428 381.477 158.199 380.457 158.199C379.297 158.199 378.436 158.656 377.873 159.57V173H371.949V153.98H377.504ZM391.637 163.314C391.637 161.416 392.006 159.729 392.744 158.252C393.482 156.764 394.543 155.621 395.926 154.824C397.309 154.027 398.932 153.629 400.795 153.629C403.643 153.629 405.887 154.514 407.527 156.283C409.168 158.041 409.988 160.438 409.988 163.473V163.684C409.988 166.648 409.162 169.004 407.51 170.75C405.869 172.484 403.643 173.352 400.83 173.352C398.123 173.352 395.949 172.543 394.309 170.926C392.668 169.297 391.783 167.094 391.654 164.316L391.637 163.314ZM397.561 163.684C397.561 165.441 397.836 166.73 398.387 167.551C398.938 168.371 399.752 168.781 400.83 168.781C402.939 168.781 404.018 167.158 404.064 163.912V163.314C404.064 159.904 402.975 158.199 400.795 158.199C398.814 158.199 397.742 159.67 397.578 162.611L397.561 163.684ZM429.025 165.195L430.941 153.98H436.619L432.137 173H427.127L423.98 161.715L420.816 173H415.807L411.324 153.98H417.002L418.883 165.459L421.906 153.98H426.037L429.025 165.195ZM456.922 173.352C454.004 173.352 451.643 172.484 449.838 170.75C448.033 169.004 447.131 166.736 447.131 163.947V163.455C447.131 161.51 447.488 159.793 448.203 158.305C448.93 156.816 449.984 155.668 451.367 154.859C452.75 154.039 454.391 153.629 456.289 153.629C458.961 153.629 461.07 154.461 462.617 156.125C464.164 157.777 464.938 160.086 464.938 163.051V165.354H453.16C453.371 166.42 453.834 167.258 454.549 167.867C455.264 168.477 456.189 168.781 457.326 168.781C459.201 168.781 460.666 168.125 461.721 166.812L464.428 170.012C463.689 171.031 462.641 171.846 461.281 172.455C459.934 173.053 458.48 173.352 456.922 173.352ZM456.254 158.199C454.52 158.199 453.488 159.348 453.16 161.645H459.137V161.188C459.16 160.238 458.92 159.506 458.416 158.99C457.912 158.463 457.191 158.199 456.254 158.199ZM478.051 173C477.84 172.613 477.652 172.045 477.488 171.295C476.398 172.666 474.875 173.352 472.918 173.352C471.125 173.352 469.602 172.812 468.348 171.734C467.094 170.645 466.467 169.279 466.467 167.639C466.467 165.576 467.229 164.018 468.752 162.963C470.275 161.908 472.49 161.381 475.396 161.381H477.225V160.379C477.225 158.633 476.469 157.76 474.957 157.76C473.551 157.76 472.848 158.451 472.848 159.834H466.924C466.924 157.994 467.703 156.5 469.262 155.352C470.832 154.203 472.83 153.629 475.256 153.629C477.682 153.629 479.598 154.221 481.004 155.404C482.41 156.588 483.131 158.211 483.166 160.273V168.693C483.189 170.439 483.459 171.775 483.975 172.701V173H478.051ZM474.342 169.133C475.08 169.133 475.689 168.975 476.17 168.658C476.662 168.342 477.014 167.984 477.225 167.586V164.545H475.502C473.439 164.545 472.408 165.471 472.408 167.322C472.408 167.861 472.59 168.301 472.953 168.641C473.316 168.969 473.779 169.133 474.342 169.133ZM494.504 168.781C495.336 168.781 495.98 168.559 496.438 168.113C496.895 167.656 497.117 167.023 497.105 166.215H502.66C502.66 168.301 501.91 170.012 500.41 171.348C498.922 172.684 497 173.352 494.645 173.352C491.879 173.352 489.699 172.484 488.105 170.75C486.512 169.016 485.715 166.613 485.715 163.543V163.297C485.715 161.375 486.066 159.682 486.77 158.217C487.484 156.74 488.51 155.609 489.846 154.824C491.182 154.027 492.764 153.629 494.592 153.629C497.064 153.629 499.027 154.314 500.48 155.686C501.934 157.057 502.66 158.914 502.66 161.258H497.105C497.105 160.273 496.865 159.518 496.385 158.99C495.904 158.463 495.26 158.199 494.451 158.199C492.916 158.199 492.02 159.178 491.762 161.135C491.68 161.756 491.639 162.611 491.639 163.701C491.639 165.611 491.867 166.936 492.324 167.674C492.781 168.412 493.508 168.781 494.504 168.781ZM510.957 156.02C512.223 154.426 513.84 153.629 515.809 153.629C517.906 153.629 519.488 154.25 520.555 155.492C521.621 156.734 522.166 158.568 522.189 160.994V173H516.248V161.135C516.248 160.127 516.043 159.389 515.633 158.92C515.223 158.439 514.525 158.199 513.541 158.199C512.322 158.199 511.461 158.586 510.957 159.359V173H505.033V146H510.957V156.02ZM164.914 213.314C164.914 211.416 165.283 209.729 166.021 208.252C166.76 206.764 167.82 205.621 169.203 204.824C170.586 204.027 172.209 203.629 174.072 203.629C176.92 203.629 179.164 204.514 180.805 206.283C182.445 208.041 183.266 210.438 183.266 213.473V213.684C183.266 216.648 182.439 219.004 180.787 220.75C179.146 222.484 176.92 223.352 174.107 223.352C171.4 223.352 169.227 222.543 167.586 220.926C165.945 219.297 165.061 217.094 164.932 214.316L164.914 213.314ZM170.838 213.684C170.838 215.441 171.113 216.73 171.664 217.551C172.215 218.371 173.029 218.781 174.107 218.781C176.217 218.781 177.295 217.158 177.342 213.912V213.314C177.342 209.904 176.252 208.199 174.072 208.199C172.092 208.199 171.02 209.67 170.855 212.611L170.838 213.684ZM192.775 199.252V203.98H195.904V208.094H192.775V216.795C192.775 217.51 192.904 218.008 193.162 218.289C193.42 218.57 193.93 218.711 194.691 218.711C195.277 218.711 195.77 218.676 196.168 218.605V222.842C195.102 223.182 193.988 223.352 192.828 223.352C190.789 223.352 189.283 222.871 188.311 221.91C187.338 220.949 186.852 219.49 186.852 217.533V208.094H184.426V203.98H186.852V199.252H192.775ZM204.043 206.02C205.309 204.426 206.926 203.629 208.895 203.629C210.992 203.629 212.574 204.25 213.641 205.492C214.707 206.734 215.252 208.568 215.275 210.994V223H209.334V211.135C209.334 210.127 209.129 209.389 208.719 208.92C208.309 208.439 207.611 208.199 206.627 208.199C205.408 208.199 204.547 208.586 204.043 209.359V223H198.119V196H204.043V206.02ZM227.773 223.352C224.855 223.352 222.494 222.484 220.689 220.75C218.885 219.004 217.982 216.736 217.982 213.947V213.455C217.982 211.51 218.34 209.793 219.055 208.305C219.781 206.816 220.836 205.668 222.219 204.859C223.602 204.039 225.242 203.629 227.141 203.629C229.812 203.629 231.922 204.461 233.469 206.125C235.016 207.777 235.789 210.086 235.789 213.051V215.354H224.012C224.223 216.42 224.686 217.258 225.4 217.867C226.115 218.477 227.041 218.781 228.178 218.781C230.053 218.781 231.518 218.125 232.572 216.812L235.279 220.012C234.541 221.031 233.492 221.846 232.133 222.455C230.785 223.053 229.332 223.352 227.773 223.352ZM227.105 208.199C225.371 208.199 224.34 209.348 224.012 211.645H229.988V211.188C230.012 210.238 229.771 209.506 229.268 208.99C228.764 208.463 228.043 208.199 227.105 208.199ZM249.693 209.342L247.742 209.201C245.879 209.201 244.684 209.787 244.156 210.959V223H238.232V203.98H243.787L243.98 206.424C244.977 204.561 246.365 203.629 248.146 203.629C248.779 203.629 249.33 203.699 249.799 203.84L249.693 209.342ZM252.436 217.252C253.373 217.252 254.152 217.533 254.773 218.096C255.395 218.646 255.705 219.355 255.705 220.223C255.705 221.09 255.395 221.805 254.773 222.367C254.152 222.918 253.373 223.193 252.436 223.193C251.486 223.193 250.701 222.912 250.08 222.35C249.471 221.787 249.166 221.078 249.166 220.223C249.166 219.367 249.471 218.658 250.08 218.096C250.701 217.533 251.486 217.252 252.436 217.252ZM263.334 217.252C264.271 217.252 265.051 217.533 265.672 218.096C266.293 218.646 266.604 219.355 266.604 220.223C266.604 221.09 266.293 221.805 265.672 222.367C265.051 222.918 264.271 223.193 263.334 223.193C262.385 223.193 261.6 222.912 260.979 222.35C260.369 221.787 260.064 221.078 260.064 220.223C260.064 219.367 260.369 218.658 260.979 218.096C261.6 217.533 262.385 217.252 263.334 217.252ZM274.232 217.252C275.17 217.252 275.949 217.533 276.57 218.096C277.191 218.646 277.502 219.355 277.502 220.223C277.502 221.09 277.191 221.805 276.57 222.367C275.949 222.918 275.17 223.193 274.232 223.193C273.283 223.193 272.498 222.912 271.877 222.35C271.268 221.787 270.963 221.078 270.963 220.223C270.963 219.367 271.268 218.658 271.877 218.096C272.498 217.533 273.283 217.252 274.232 217.252Z" fill="white"/>
<path d="M169.66 267.621L169.988 269.871L170.469 267.844L173.844 255.938H175.742L179.035 267.844L179.504 269.906L179.867 267.609L182.516 255.938H184.777L180.641 273H178.59L175.074 260.566L174.805 259.266L174.535 260.566L170.891 273H168.84L164.715 255.938H166.965L169.66 267.621ZM191.832 273.234C190.113 273.234 188.715 272.672 187.637 271.547C186.559 270.414 186.02 268.902 186.02 267.012V266.613C186.02 265.355 186.258 264.234 186.734 263.25C187.219 262.258 187.891 261.484 188.75 260.93C189.617 260.367 190.555 260.086 191.562 260.086C193.211 260.086 194.492 260.629 195.406 261.715C196.32 262.801 196.777 264.355 196.777 266.379V267.281H188.188C188.219 268.531 188.582 269.543 189.277 270.316C189.98 271.082 190.871 271.465 191.949 271.465C192.715 271.465 193.363 271.309 193.895 270.996C194.426 270.684 194.891 270.27 195.289 269.754L196.613 270.785C195.551 272.418 193.957 273.234 191.832 273.234ZM191.562 261.867C190.688 261.867 189.953 262.188 189.359 262.828C188.766 263.461 188.398 264.352 188.258 265.5H194.609V265.336C194.547 264.234 194.25 263.383 193.719 262.781C193.188 262.172 192.469 261.867 191.562 261.867ZM198.512 260.742L197.281 259.898C198.008 258.883 198.383 257.812 198.406 256.688V255H200.551V256.523C200.543 257.305 200.348 258.086 199.965 258.867C199.59 259.641 199.105 260.266 198.512 260.742ZM205.895 273H203.727V255H205.895V273ZM211.73 273H209.562V255H211.73V273ZM220.648 266.555C220.648 264.578 221.105 263.008 222.02 261.844C222.934 260.672 224.145 260.086 225.652 260.086C227.199 260.086 228.406 260.633 229.273 261.727L229.379 260.32H231.359V272.695C231.359 274.336 230.871 275.629 229.895 276.574C228.926 277.52 227.621 277.992 225.98 277.992C225.066 277.992 224.172 277.797 223.297 277.406C222.422 277.016 221.754 276.48 221.293 275.801L222.418 274.5C223.348 275.648 224.484 276.223 225.828 276.223C226.883 276.223 227.703 275.926 228.289 275.332C228.883 274.738 229.18 273.902 229.18 272.824V271.734C228.312 272.734 227.129 273.234 225.629 273.234C224.145 273.234 222.941 272.637 222.02 271.441C221.105 270.246 220.648 268.617 220.648 266.555ZM222.828 266.801C222.828 268.23 223.121 269.355 223.707 270.176C224.293 270.988 225.113 271.395 226.168 271.395C227.535 271.395 228.539 270.773 229.18 269.531V263.742C228.516 262.531 227.52 261.926 226.191 261.926C225.137 261.926 224.312 262.336 223.719 263.156C223.125 263.977 222.828 265.191 222.828 266.801ZM239.902 273.234C238.184 273.234 236.785 272.672 235.707 271.547C234.629 270.414 234.09 268.902 234.09 267.012V266.613C234.09 265.355 234.328 264.234 234.805 263.25C235.289 262.258 235.961 261.484 236.82 260.93C237.688 260.367 238.625 260.086 239.633 260.086C241.281 260.086 242.562 260.629 243.477 261.715C244.391 262.801 244.848 264.355 244.848 266.379V267.281H236.258C236.289 268.531 236.652 269.543 237.348 270.316C238.051 271.082 238.941 271.465 240.02 271.465C240.785 271.465 241.434 271.309 241.965 270.996C242.496 270.684 242.961 270.27 243.359 269.754L244.684 270.785C243.621 272.418 242.027 273.234 239.902 273.234ZM239.633 261.867C238.758 261.867 238.023 262.188 237.43 262.828C236.836 263.461 236.469 264.352 236.328 265.5H242.68V265.336C242.617 264.234 242.32 263.383 241.789 262.781C241.258 262.172 240.539 261.867 239.633 261.867ZM250.309 257.25V260.32H252.676V261.996H250.309V269.859C250.309 270.367 250.414 270.75 250.625 271.008C250.836 271.258 251.195 271.383 251.703 271.383C251.953 271.383 252.297 271.336 252.734 271.242V273C252.164 273.156 251.609 273.234 251.07 273.234C250.102 273.234 249.371 272.941 248.879 272.355C248.387 271.77 248.141 270.938 248.141 269.859V261.996H245.832V260.32H248.141V257.25H250.309ZM264.113 257.25V260.32H266.48V261.996H264.113V269.859C264.113 270.367 264.219 270.75 264.43 271.008C264.641 271.258 265 271.383 265.508 271.383C265.758 271.383 266.102 271.336 266.539 271.242V273C265.969 273.156 265.414 273.234 264.875 273.234C263.906 273.234 263.176 272.941 262.684 272.355C262.191 271.77 261.945 270.938 261.945 269.859V261.996H259.637V260.32H261.945V257.25H264.113ZM268.215 266.543C268.215 265.301 268.457 264.184 268.941 263.191C269.434 262.199 270.113 261.434 270.98 260.895C271.855 260.355 272.852 260.086 273.969 260.086C275.695 260.086 277.09 260.684 278.152 261.879C279.223 263.074 279.758 264.664 279.758 266.648V266.801C279.758 268.035 279.52 269.145 279.043 270.129C278.574 271.105 277.898 271.867 277.016 272.414C276.141 272.961 275.133 273.234 273.992 273.234C272.273 273.234 270.879 272.637 269.809 271.441C268.746 270.246 268.215 268.664 268.215 266.695V266.543ZM270.395 266.801C270.395 268.207 270.719 269.336 271.367 270.188C272.023 271.039 272.898 271.465 273.992 271.465C275.094 271.465 275.969 271.035 276.617 270.176C277.266 269.309 277.59 268.098 277.59 266.543C277.59 265.152 277.258 264.027 276.594 263.168C275.938 262.301 275.062 261.867 273.969 261.867C272.898 261.867 272.035 262.293 271.379 263.145C270.723 263.996 270.395 265.215 270.395 266.801ZM291.969 267.129L290.609 268.547V273H288.441V255H290.609V265.887L291.77 264.492L295.719 260.32H298.355L293.422 265.617L298.93 273H296.387L291.969 267.129ZM302.645 260.32L302.715 261.914C303.684 260.695 304.949 260.086 306.512 260.086C309.191 260.086 310.543 261.598 310.566 264.621V273H308.398V264.609C308.391 263.695 308.18 263.02 307.766 262.582C307.359 262.145 306.723 261.926 305.855 261.926C305.152 261.926 304.535 262.113 304.004 262.488C303.473 262.863 303.059 263.355 302.762 263.965V273H300.594V260.32H302.645ZM313.262 266.543C313.262 265.301 313.504 264.184 313.988 263.191C314.48 262.199 315.16 261.434 316.027 260.895C316.902 260.355 317.898 260.086 319.016 260.086C320.742 260.086 322.137 260.684 323.199 261.879C324.27 263.074 324.805 264.664 324.805 266.648V266.801C324.805 268.035 324.566 269.145 324.09 270.129C323.621 271.105 322.945 271.867 322.062 272.414C321.188 272.961 320.18 273.234 319.039 273.234C317.32 273.234 315.926 272.637 314.855 271.441C313.793 270.246 313.262 268.664 313.262 266.695V266.543ZM315.441 266.801C315.441 268.207 315.766 269.336 316.414 270.188C317.07 271.039 317.945 271.465 319.039 271.465C320.141 271.465 321.016 271.035 321.664 270.176C322.312 269.309 322.637 268.098 322.637 266.543C322.637 265.152 322.305 264.027 321.641 263.168C320.984 262.301 320.109 261.867 319.016 261.867C317.945 261.867 317.082 262.293 316.426 263.145C315.77 263.996 315.441 265.215 315.441 266.801ZM338.75 270.012L341.188 260.32H343.355L339.664 273H337.906L334.824 263.391L331.824 273H330.066L326.387 260.32H328.543L331.039 269.812L333.992 260.32H335.738L338.75 270.012ZM355.672 269.824L358.625 260.32H360.945L355.848 274.957C355.059 277.066 353.805 278.121 352.086 278.121L351.676 278.086L350.867 277.934V276.176L351.453 276.223C352.188 276.223 352.758 276.074 353.164 275.777C353.578 275.48 353.918 274.938 354.184 274.148L354.664 272.859L350.141 260.32H352.508L355.672 269.824ZM362.129 266.543C362.129 265.301 362.371 264.184 362.855 263.191C363.348 262.199 364.027 261.434 364.895 260.895C365.77 260.355 366.766 260.086 367.883 260.086C369.609 260.086 371.004 260.684 372.066 261.879C373.137 263.074 373.672 264.664 373.672 266.648V266.801C373.672 268.035 373.434 269.145 372.957 270.129C372.488 271.105 371.812 271.867 370.93 272.414C370.055 272.961 369.047 273.234 367.906 273.234C366.188 273.234 364.793 272.637 363.723 271.441C362.66 270.246 362.129 268.664 362.129 266.695V266.543ZM364.309 266.801C364.309 268.207 364.633 269.336 365.281 270.188C365.938 271.039 366.812 271.465 367.906 271.465C369.008 271.465 369.883 271.035 370.531 270.176C371.18 269.309 371.504 268.098 371.504 266.543C371.504 265.152 371.172 264.027 370.508 263.168C369.852 262.301 368.977 261.867 367.883 261.867C366.812 261.867 365.949 262.293 365.293 263.145C364.637 263.996 364.309 265.215 364.309 266.801ZM384.219 271.746C383.375 272.738 382.137 273.234 380.504 273.234C379.152 273.234 378.121 272.844 377.41 272.062C376.707 271.273 376.352 270.109 376.344 268.57V260.32H378.512V268.512C378.512 270.434 379.293 271.395 380.855 271.395C382.512 271.395 383.613 270.777 384.16 269.543V260.32H386.328V273H384.266L384.219 271.746ZM403.414 273C403.289 272.75 403.188 272.305 403.109 271.664C402.102 272.711 400.898 273.234 399.5 273.234C398.25 273.234 397.223 272.883 396.418 272.18C395.621 271.469 395.223 270.57 395.223 269.484C395.223 268.164 395.723 267.141 396.723 266.414C397.73 265.68 399.145 265.312 400.965 265.312H403.074V264.316C403.074 263.559 402.848 262.957 402.395 262.512C401.941 262.059 401.273 261.832 400.391 261.832C399.617 261.832 398.969 262.027 398.445 262.418C397.922 262.809 397.66 263.281 397.66 263.836H395.48C395.48 263.203 395.703 262.594 396.148 262.008C396.602 261.414 397.211 260.945 397.977 260.602C398.75 260.258 399.598 260.086 400.52 260.086C401.98 260.086 403.125 260.453 403.953 261.188C404.781 261.914 405.211 262.918 405.242 264.199V270.035C405.242 271.199 405.391 272.125 405.688 272.812V273H403.414ZM399.816 271.348C400.496 271.348 401.141 271.172 401.75 270.82C402.359 270.469 402.801 270.012 403.074 269.449V266.848H401.375C398.719 266.848 397.391 267.625 397.391 269.18C397.391 269.859 397.617 270.391 398.07 270.773C398.523 271.156 399.105 271.348 399.816 271.348ZM410.691 260.32L410.762 261.914C411.73 260.695 412.996 260.086 414.559 260.086C417.238 260.086 418.59 261.598 418.613 264.621V273H416.445V264.609C416.438 263.695 416.227 263.02 415.812 262.582C415.406 262.145 414.77 261.926 413.902 261.926C413.199 261.926 412.582 262.113 412.051 262.488C411.52 262.863 411.105 263.355 410.809 263.965V273H408.641V260.32H410.691ZM421.355 266.555C421.355 264.609 421.816 263.047 422.738 261.867C423.66 260.68 424.867 260.086 426.359 260.086C427.844 260.086 429.02 260.594 429.887 261.609V255H432.055V273H430.062L429.957 271.641C429.09 272.703 427.883 273.234 426.336 273.234C424.867 273.234 423.668 272.633 422.738 271.43C421.816 270.227 421.355 268.656 421.355 266.719V266.555ZM423.523 266.801C423.523 268.238 423.82 269.363 424.414 270.176C425.008 270.988 425.828 271.395 426.875 271.395C428.25 271.395 429.254 270.777 429.887 269.543V263.719C429.238 262.523 428.242 261.926 426.898 261.926C425.836 261.926 425.008 262.336 424.414 263.156C423.82 263.977 423.523 265.191 423.523 266.801ZM445.531 269.824L448.484 260.32H450.805L445.707 274.957C444.918 277.066 443.664 278.121 441.945 278.121L441.535 278.086L440.727 277.934V276.176L441.312 276.223C442.047 276.223 442.617 276.074 443.023 275.777C443.438 275.48 443.777 274.938 444.043 274.148L444.523 272.859L440 260.32H442.367L445.531 269.824ZM451.988 266.543C451.988 265.301 452.23 264.184 452.715 263.191C453.207 262.199 453.887 261.434 454.754 260.895C455.629 260.355 456.625 260.086 457.742 260.086C459.469 260.086 460.863 260.684 461.926 261.879C462.996 263.074 463.531 264.664 463.531 266.648V266.801C463.531 268.035 463.293 269.145 462.816 270.129C462.348 271.105 461.672 271.867 460.789 272.414C459.914 272.961 458.906 273.234 457.766 273.234C456.047 273.234 454.652 272.637 453.582 271.441C452.52 270.246 451.988 268.664 451.988 266.695V266.543ZM454.168 266.801C454.168 268.207 454.492 269.336 455.141 270.188C455.797 271.039 456.672 271.465 457.766 271.465C458.867 271.465 459.742 271.035 460.391 270.176C461.039 269.309 461.363 268.098 461.363 266.543C461.363 265.152 461.031 264.027 460.367 263.168C459.711 262.301 458.836 261.867 457.742 261.867C456.672 261.867 455.809 262.293 455.152 263.145C454.496 263.996 454.168 265.215 454.168 266.801ZM474.078 271.746C473.234 272.738 471.996 273.234 470.363 273.234C469.012 273.234 467.98 272.844 467.27 272.062C466.566 271.273 466.211 270.109 466.203 268.57V260.32H468.371V268.512C468.371 270.434 469.152 271.395 470.715 271.395C472.371 271.395 473.473 270.777 474.02 269.543V260.32H476.188V273H474.125L474.078 271.746ZM485.621 262.266C485.293 262.211 484.938 262.184 484.555 262.184C483.133 262.184 482.168 262.789 481.66 264V273H479.492V260.32H481.602L481.637 261.785C482.348 260.652 483.355 260.086 484.66 260.086C485.082 260.086 485.402 260.141 485.621 260.25V262.266ZM170.727 295.465C171.5 295.465 172.176 295.23 172.754 294.762C173.332 294.293 173.652 293.707 173.715 293.004H175.766C175.727 293.73 175.477 294.422 175.016 295.078C174.555 295.734 173.938 296.258 173.164 296.648C172.398 297.039 171.586 297.234 170.727 297.234C169 297.234 167.625 296.66 166.602 295.512C165.586 294.355 165.078 292.777 165.078 290.777V290.414C165.078 289.18 165.305 288.082 165.758 287.121C166.211 286.16 166.859 285.414 167.703 284.883C168.555 284.352 169.559 284.086 170.715 284.086C172.137 284.086 173.316 284.512 174.254 285.363C175.199 286.215 175.703 287.32 175.766 288.68H173.715C173.652 287.859 173.34 287.188 172.777 286.664C172.223 286.133 171.535 285.867 170.715 285.867C169.613 285.867 168.758 286.266 168.148 287.062C167.547 287.852 167.246 288.996 167.246 290.496V290.906C167.246 292.367 167.547 293.492 168.148 294.281C168.75 295.07 169.609 295.465 170.727 295.465ZM177.629 290.543C177.629 289.301 177.871 288.184 178.355 287.191C178.848 286.199 179.527 285.434 180.395 284.895C181.27 284.355 182.266 284.086 183.383 284.086C185.109 284.086 186.504 284.684 187.566 285.879C188.637 287.074 189.172 288.664 189.172 290.648V290.801C189.172 292.035 188.934 293.145 188.457 294.129C187.988 295.105 187.312 295.867 186.43 296.414C185.555 296.961 184.547 297.234 183.406 297.234C181.688 297.234 180.293 296.637 179.223 295.441C178.16 294.246 177.629 292.664 177.629 290.695V290.543ZM179.809 290.801C179.809 292.207 180.133 293.336 180.781 294.188C181.438 295.039 182.312 295.465 183.406 295.465C184.508 295.465 185.383 295.035 186.031 294.176C186.68 293.309 187.004 292.098 187.004 290.543C187.004 289.152 186.672 288.027 186.008 287.168C185.352 286.301 184.477 285.867 183.383 285.867C182.312 285.867 181.449 286.293 180.793 287.145C180.137 287.996 179.809 289.215 179.809 290.801ZM193.93 284.32L193.988 285.727C194.918 284.633 196.172 284.086 197.75 284.086C199.523 284.086 200.73 284.766 201.371 286.125C201.793 285.516 202.34 285.023 203.012 284.648C203.691 284.273 204.492 284.086 205.414 284.086C208.195 284.086 209.609 285.559 209.656 288.504V297H207.488V288.633C207.488 287.727 207.281 287.051 206.867 286.605C206.453 286.152 205.758 285.926 204.781 285.926C203.977 285.926 203.309 286.168 202.777 286.652C202.246 287.129 201.938 287.773 201.852 288.586V297H199.672V288.691C199.672 286.848 198.77 285.926 196.965 285.926C195.543 285.926 194.57 286.531 194.047 287.742V297H191.879V284.32H193.93ZM223.648 290.801C223.648 292.73 223.207 294.285 222.324 295.465C221.441 296.645 220.246 297.234 218.738 297.234C217.199 297.234 215.988 296.746 215.105 295.77V301.875H212.938V284.32H214.918L215.023 285.727C215.906 284.633 217.133 284.086 218.703 284.086C220.227 284.086 221.43 284.66 222.312 285.809C223.203 286.957 223.648 288.555 223.648 290.602V290.801ZM221.48 290.555C221.48 289.125 221.176 287.996 220.566 287.168C219.957 286.34 219.121 285.926 218.059 285.926C216.746 285.926 215.762 286.508 215.105 287.672V293.73C215.754 294.887 216.746 295.465 218.082 295.465C219.121 295.465 219.945 295.055 220.555 294.234C221.172 293.406 221.48 292.18 221.48 290.555ZM234.242 297C234.117 296.75 234.016 296.305 233.938 295.664C232.93 296.711 231.727 297.234 230.328 297.234C229.078 297.234 228.051 296.883 227.246 296.18C226.449 295.469 226.051 294.57 226.051 293.484C226.051 292.164 226.551 291.141 227.551 290.414C228.559 289.68 229.973 289.312 231.793 289.312H233.902V288.316C233.902 287.559 233.676 286.957 233.223 286.512C232.77 286.059 232.102 285.832 231.219 285.832C230.445 285.832 229.797 286.027 229.273 286.418C228.75 286.809 228.488 287.281 228.488 287.836H226.309C226.309 287.203 226.531 286.594 226.977 286.008C227.43 285.414 228.039 284.945 228.805 284.602C229.578 284.258 230.426 284.086 231.348 284.086C232.809 284.086 233.953 284.453 234.781 285.188C235.609 285.914 236.039 286.918 236.07 288.199V294.035C236.07 295.199 236.219 296.125 236.516 296.812V297H234.242ZM230.645 295.348C231.324 295.348 231.969 295.172 232.578 294.82C233.188 294.469 233.629 294.012 233.902 293.449V290.848H232.203C229.547 290.848 228.219 291.625 228.219 293.18C228.219 293.859 228.445 294.391 228.898 294.773C229.352 295.156 229.934 295.348 230.645 295.348ZM241.52 284.32L241.59 285.914C242.559 284.695 243.824 284.086 245.387 284.086C248.066 284.086 249.418 285.598 249.441 288.621V297H247.273V288.609C247.266 287.695 247.055 287.02 246.641 286.582C246.234 286.145 245.598 285.926 244.73 285.926C244.027 285.926 243.41 286.113 242.879 286.488C242.348 286.863 241.934 287.355 241.637 287.965V297H239.469V284.32H241.52ZM256.859 293.824L259.812 284.32H262.133L257.035 298.957C256.246 301.066 254.992 302.121 253.273 302.121L252.863 302.086L252.055 301.934V300.176L252.641 300.223C253.375 300.223 253.945 300.074 254.352 299.777C254.766 299.48 255.105 298.938 255.371 298.148L255.852 296.859L251.328 284.32H253.695L256.859 293.824ZM262.742 300.398L261.512 299.555C262.246 298.531 262.629 297.477 262.66 296.391V294.434H264.781V296.133C264.781 296.922 264.586 297.711 264.195 298.5C263.812 299.289 263.328 299.922 262.742 300.398ZM277.625 293.824L280.578 284.32H282.898L277.801 298.957C277.012 301.066 275.758 302.121 274.039 302.121L273.629 302.086L272.82 301.934V300.176L273.406 300.223C274.141 300.223 274.711 300.074 275.117 299.777C275.531 299.48 275.871 298.938 276.137 298.148L276.617 296.859L272.094 284.32H274.461L277.625 293.824ZM284.082 290.543C284.082 289.301 284.324 288.184 284.809 287.191C285.301 286.199 285.98 285.434 286.848 284.895C287.723 284.355 288.719 284.086 289.836 284.086C291.562 284.086 292.957 284.684 294.02 285.879C295.09 287.074 295.625 288.664 295.625 290.648V290.801C295.625 292.035 295.387 293.145 294.91 294.129C294.441 295.105 293.766 295.867 292.883 296.414C292.008 296.961 291 297.234 289.859 297.234C288.141 297.234 286.746 296.637 285.676 295.441C284.613 294.246 284.082 292.664 284.082 290.695V290.543ZM286.262 290.801C286.262 292.207 286.586 293.336 287.234 294.188C287.891 295.039 288.766 295.465 289.859 295.465C290.961 295.465 291.836 295.035 292.484 294.176C293.133 293.309 293.457 292.098 293.457 290.543C293.457 289.152 293.125 288.027 292.461 287.168C291.805 286.301 290.93 285.867 289.836 285.867C288.766 285.867 287.902 286.293 287.246 287.145C286.59 287.996 286.262 289.215 286.262 290.801ZM306.172 295.746C305.328 296.738 304.09 297.234 302.457 297.234C301.105 297.234 300.074 296.844 299.363 296.062C298.66 295.273 298.305 294.109 298.297 292.57V284.32H300.465V292.512C300.465 294.434 301.246 295.395 302.809 295.395C304.465 295.395 305.566 294.777 306.113 293.543V284.32H308.281V297H306.219L306.172 295.746ZM328.25 290.801C328.25 292.73 327.809 294.285 326.926 295.465C326.043 296.645 324.848 297.234 323.34 297.234C321.801 297.234 320.59 296.746 319.707 295.77V301.875H317.539V284.32H319.52L319.625 285.727C320.508 284.633 321.734 284.086 323.305 284.086C324.828 284.086 326.031 284.66 326.914 285.809C327.805 286.957 328.25 288.555 328.25 290.602V290.801ZM326.082 290.555C326.082 289.125 325.777 287.996 325.168 287.168C324.559 286.34 323.723 285.926 322.66 285.926C321.348 285.926 320.363 286.508 319.707 287.672V293.73C320.355 294.887 321.348 295.465 322.684 295.465C323.723 295.465 324.547 295.055 325.156 294.234C325.773 293.406 326.082 292.18 326.082 290.555ZM338.844 297C338.719 296.75 338.617 296.305 338.539 295.664C337.531 296.711 336.328 297.234 334.93 297.234C333.68 297.234 332.652 296.883 331.848 296.18C331.051 295.469 330.652 294.57 330.652 293.484C330.652 292.164 331.152 291.141 332.152 290.414C333.16 289.68 334.574 289.312 336.395 289.312H338.504V288.316C338.504 287.559 338.277 286.957 337.824 286.512C337.371 286.059 336.703 285.832 335.82 285.832C335.047 285.832 334.398 286.027 333.875 286.418C333.352 286.809 333.09 287.281 333.09 287.836H330.91C330.91 287.203 331.133 286.594 331.578 286.008C332.031 285.414 332.641 284.945 333.406 284.602C334.18 284.258 335.027 284.086 335.949 284.086C337.41 284.086 338.555 284.453 339.383 285.188C340.211 285.914 340.641 286.918 340.672 288.199V294.035C340.672 295.199 340.82 296.125 341.117 296.812V297H338.844ZM335.246 295.348C335.926 295.348 336.57 295.172 337.18 294.82C337.789 294.469 338.23 294.012 338.504 293.449V290.848H336.805C334.148 290.848 332.82 291.625 332.82 293.18C332.82 293.859 333.047 294.391 333.5 294.773C333.953 295.156 334.535 295.348 335.246 295.348ZM348.031 293.824L350.984 284.32H353.305L348.207 298.957C347.418 301.066 346.164 302.121 344.445 302.121L344.035 302.086L343.227 301.934V300.176L343.812 300.223C344.547 300.223 345.117 300.074 345.523 299.777C345.938 299.48 346.277 298.938 346.543 298.148L347.023 296.859L342.5 284.32H344.867L348.031 293.824ZM364.145 281.25V284.32H366.512V285.996H364.145V293.859C364.145 294.367 364.25 294.75 364.461 295.008C364.672 295.258 365.031 295.383 365.539 295.383C365.789 295.383 366.133 295.336 366.57 295.242V297C366 297.156 365.445 297.234 364.906 297.234C363.938 297.234 363.207 296.941 362.715 296.355C362.223 295.77 361.977 294.938 361.977 293.859V285.996H359.668V284.32H361.977V281.25H364.145ZM371.223 285.855C372.184 284.676 373.434 284.086 374.973 284.086C377.652 284.086 379.004 285.598 379.027 288.621V297H376.859V288.609C376.852 287.695 376.641 287.02 376.227 286.582C375.82 286.145 375.184 285.926 374.316 285.926C373.613 285.926 372.996 286.113 372.465 286.488C371.934 286.863 371.52 287.355 371.223 287.965V297H369.055V279H371.223V285.855ZM387.535 297.234C385.816 297.234 384.418 296.672 383.34 295.547C382.262 294.414 381.723 292.902 381.723 291.012V290.613C381.723 289.355 381.961 288.234 382.438 287.25C382.922 286.258 383.594 285.484 384.453 284.93C385.32 284.367 386.258 284.086 387.266 284.086C388.914 284.086 390.195 284.629 391.109 285.715C392.023 286.801 392.48 288.355 392.48 290.379V291.281H383.891C383.922 292.531 384.285 293.543 384.98 294.316C385.684 295.082 386.574 295.465 387.652 295.465C388.418 295.465 389.066 295.309 389.598 294.996C390.129 294.684 390.594 294.27 390.992 293.754L392.316 294.785C391.254 296.418 389.66 297.234 387.535 297.234ZM387.266 285.867C386.391 285.867 385.656 286.188 385.062 286.828C384.469 287.461 384.102 288.352 383.961 289.5H390.312V289.336C390.25 288.234 389.953 287.383 389.422 286.781C388.891 286.172 388.172 285.867 387.266 285.867ZM408.781 297C408.656 296.75 408.555 296.305 408.477 295.664C407.469 296.711 406.266 297.234 404.867 297.234C403.617 297.234 402.59 296.883 401.785 296.18C400.988 295.469 400.59 294.57 400.59 293.484C400.59 292.164 401.09 291.141 402.09 290.414C403.098 289.68 404.512 289.312 406.332 289.312H408.441V288.316C408.441 287.559 408.215 286.957 407.762 286.512C407.309 286.059 406.641 285.832 405.758 285.832C404.984 285.832 404.336 286.027 403.812 286.418C403.289 286.809 403.027 287.281 403.027 287.836H400.848C400.848 287.203 401.07 286.594 401.516 286.008C401.969 285.414 402.578 284.945 403.344 284.602C404.117 284.258 404.965 284.086 405.887 284.086C407.348 284.086 408.492 284.453 409.32 285.188C410.148 285.914 410.578 286.918 410.609 288.199V294.035C410.609 295.199 410.758 296.125 411.055 296.812V297H408.781ZM405.184 295.348C405.863 295.348 406.508 295.172 407.117 294.82C407.727 294.469 408.168 294.012 408.441 293.449V290.848H406.742C404.086 290.848 402.758 291.625 402.758 293.18C402.758 293.859 402.984 294.391 403.438 294.773C403.891 295.156 404.473 295.348 405.184 295.348ZM413.48 290.555C413.48 288.609 413.941 287.047 414.863 285.867C415.785 284.68 416.992 284.086 418.484 284.086C419.969 284.086 421.145 284.594 422.012 285.609V279H424.18V297H422.188L422.082 295.641C421.215 296.703 420.008 297.234 418.461 297.234C416.992 297.234 415.793 296.633 414.863 295.43C413.941 294.227 413.48 292.656 413.48 290.719V290.555ZM415.648 290.801C415.648 292.238 415.945 293.363 416.539 294.176C417.133 294.988 417.953 295.395 419 295.395C420.375 295.395 421.379 294.777 422.012 293.543V287.719C421.363 286.523 420.367 285.926 419.023 285.926C417.961 285.926 417.133 286.336 416.539 287.156C415.945 287.977 415.648 289.191 415.648 290.801ZM429.594 284.32L429.652 285.727C430.582 284.633 431.836 284.086 433.414 284.086C435.188 284.086 436.395 284.766 437.035 286.125C437.457 285.516 438.004 285.023 438.676 284.648C439.355 284.273 440.156 284.086 441.078 284.086C443.859 284.086 445.273 285.559 445.32 288.504V297H443.152V288.633C443.152 287.727 442.945 287.051 442.531 286.605C442.117 286.152 441.422 285.926 440.445 285.926C439.641 285.926 438.973 286.168 438.441 286.652C437.91 287.129 437.602 287.773 437.516 288.586V297H435.336V288.691C435.336 286.848 434.434 285.926 432.629 285.926C431.207 285.926 430.234 286.531 429.711 287.742V297H427.543V284.32H429.594ZM450.957 297H448.789V284.32H450.957V297ZM448.613 280.957C448.613 280.605 448.719 280.309 448.93 280.066C449.148 279.824 449.469 279.703 449.891 279.703C450.312 279.703 450.633 279.824 450.852 280.066C451.07 280.309 451.18 280.605 451.18 280.957C451.18 281.309 451.07 281.602 450.852 281.836C450.633 282.07 450.312 282.188 449.891 282.188C449.469 282.188 449.148 282.07 448.93 281.836C448.719 281.602 448.613 281.309 448.613 280.957ZM456.488 284.32L456.559 285.914C457.527 284.695 458.793 284.086 460.355 284.086C463.035 284.086 464.387 285.598 464.41 288.621V297H462.242V288.609C462.234 287.695 462.023 287.02 461.609 286.582C461.203 286.145 460.566 285.926 459.699 285.926C458.996 285.926 458.379 286.113 457.848 286.488C457.316 286.863 456.902 287.355 456.605 287.965V297H454.438V284.32H456.488ZM470.035 297H467.867V284.32H470.035V297ZM467.691 280.957C467.691 280.605 467.797 280.309 468.008 280.066C468.227 279.824 468.547 279.703 468.969 279.703C469.391 279.703 469.711 279.824 469.93 280.066C470.148 280.309 470.258 280.605 470.258 280.957C470.258 281.309 470.148 281.602 469.93 281.836C469.711 282.07 469.391 282.188 468.969 282.188C468.547 282.188 468.227 282.07 468.008 281.836C467.797 281.602 467.691 281.309 467.691 280.957ZM480.898 293.637C480.898 293.051 480.676 292.598 480.23 292.277C479.793 291.949 479.023 291.668 477.922 291.434C476.828 291.199 475.957 290.918 475.309 290.59C474.668 290.262 474.191 289.871 473.879 289.418C473.574 288.965 473.422 288.426 473.422 287.801C473.422 286.762 473.859 285.883 474.734 285.164C475.617 284.445 476.742 284.086 478.109 284.086C479.547 284.086 480.711 284.457 481.602 285.199C482.5 285.941 482.949 286.891 482.949 288.047H480.77C480.77 287.453 480.516 286.941 480.008 286.512C479.508 286.082 478.875 285.867 478.109 285.867C477.32 285.867 476.703 286.039 476.258 286.383C475.812 286.727 475.59 287.176 475.59 287.73C475.59 288.254 475.797 288.648 476.211 288.914C476.625 289.18 477.371 289.434 478.449 289.676C479.535 289.918 480.414 290.207 481.086 290.543C481.758 290.879 482.254 291.285 482.574 291.762C482.902 292.23 483.066 292.805 483.066 293.484C483.066 294.617 482.613 295.527 481.707 296.215C480.801 296.895 479.625 297.234 478.18 297.234C477.164 297.234 476.266 297.055 475.484 296.695C474.703 296.336 474.09 295.836 473.645 295.195C473.207 294.547 472.988 293.848 472.988 293.098H475.156C475.195 293.824 475.484 294.402 476.023 294.832C476.57 295.254 477.289 295.465 478.18 295.465C479 295.465 479.656 295.301 480.148 294.973C480.648 294.637 480.898 294.191 480.898 293.637ZM488.832 281.25V284.32H491.199V285.996H488.832V293.859C488.832 294.367 488.938 294.75 489.148 295.008C489.359 295.258 489.719 295.383 490.227 295.383C490.477 295.383 490.82 295.336 491.258 295.242V297C490.688 297.156 490.133 297.234 489.594 297.234C488.625 297.234 487.895 296.941 487.402 296.355C486.91 295.77 486.664 294.938 486.664 293.859V285.996H484.355V284.32H486.664V281.25H488.832ZM499.871 286.266C499.543 286.211 499.188 286.184 498.805 286.184C497.383 286.184 496.418 286.789 495.91 288V297H493.742V284.32H495.852L495.887 285.785C496.598 284.652 497.605 284.086 498.91 284.086C499.332 284.086 499.652 284.141 499.871 284.25V286.266ZM509.234 297C509.109 296.75 509.008 296.305 508.93 295.664C507.922 296.711 506.719 297.234 505.32 297.234C504.07 297.234 503.043 296.883 502.238 296.18C501.441 295.469 501.043 294.57 501.043 293.484C501.043 292.164 501.543 291.141 502.543 290.414C503.551 289.68 504.965 289.312 506.785 289.312H508.895V288.316C508.895 287.559 508.668 286.957 508.215 286.512C507.762 286.059 507.094 285.832 506.211 285.832C505.438 285.832 504.789 286.027 504.266 286.418C503.742 286.809 503.48 287.281 503.48 287.836H501.301C501.301 287.203 501.523 286.594 501.969 286.008C502.422 285.414 503.031 284.945 503.797 284.602C504.57 284.258 505.418 284.086 506.34 284.086C507.801 284.086 508.945 284.453 509.773 285.188C510.602 285.914 511.031 286.918 511.062 288.199V294.035C511.062 295.199 511.211 296.125 511.508 296.812V297H509.234ZM505.637 295.348C506.316 295.348 506.961 295.172 507.57 294.82C508.18 294.469 508.621 294.012 508.895 293.449V290.848H507.195C504.539 290.848 503.211 291.625 503.211 293.18C503.211 293.859 503.438 294.391 503.891 294.773C504.344 295.156 504.926 295.348 505.637 295.348ZM517.402 281.25V284.32H519.77V285.996H517.402V293.859C517.402 294.367 517.508 294.75 517.719 295.008C517.93 295.258 518.289 295.383 518.797 295.383C519.047 295.383 519.391 295.336 519.828 295.242V297C519.258 297.156 518.703 297.234 518.164 297.234C517.195 297.234 516.465 296.941 515.973 296.355C515.48 295.77 515.234 294.938 515.234 293.859V285.996H512.926V284.32H515.234V281.25H517.402ZM524.668 297H522.5V284.32H524.668V297ZM522.324 280.957C522.324 280.605 522.43 280.309 522.641 280.066C522.859 279.824 523.18 279.703 523.602 279.703C524.023 279.703 524.344 279.824 524.562 280.066C524.781 280.309 524.891 280.605 524.891 280.957C524.891 281.309 524.781 281.602 524.562 281.836C524.344 282.07 524.023 282.188 523.602 282.188C523.18 282.188 522.859 282.07 522.641 281.836C522.43 281.602 522.324 281.309 522.324 280.957ZM527.574 290.543C527.574 289.301 527.816 288.184 528.301 287.191C528.793 286.199 529.473 285.434 530.34 284.895C531.215 284.355 532.211 284.086 533.328 284.086C535.055 284.086 536.449 284.684 537.512 285.879C538.582 287.074 539.117 288.664 539.117 290.648V290.801C539.117 292.035 538.879 293.145 538.402 294.129C537.934 295.105 537.258 295.867 536.375 296.414C535.5 296.961 534.492 297.234 533.352 297.234C531.633 297.234 530.238 296.637 529.168 295.441C528.105 294.246 527.574 292.664 527.574 290.695V290.543ZM529.754 290.801C529.754 292.207 530.078 293.336 530.727 294.188C531.383 295.039 532.258 295.465 533.352 295.465C534.453 295.465 535.328 295.035 535.977 294.176C536.625 293.309 536.949 292.098 536.949 290.543C536.949 289.152 536.617 288.027 535.953 287.168C535.297 286.301 534.422 285.867 533.328 285.867C532.258 285.867 531.395 286.293 530.738 287.145C530.082 287.996 529.754 289.215 529.754 290.801ZM543.887 284.32L543.957 285.914C544.926 284.695 546.191 284.086 547.754 284.086C550.434 284.086 551.785 285.598 551.809 288.621V297H549.641V288.609C549.633 287.695 549.422 287.02 549.008 286.582C548.602 286.145 547.965 285.926 547.098 285.926C546.395 285.926 545.777 286.113 545.246 286.488C544.715 286.863 544.301 287.355 544.004 287.965V297H541.836V284.32H543.887ZM166.707 321V309.996H164.703V308.32H166.707V307.02C166.707 305.66 167.07 304.609 167.797 303.867C168.523 303.125 169.551 302.754 170.879 302.754C171.379 302.754 171.875 302.82 172.367 302.953L172.25 304.711C171.883 304.641 171.492 304.605 171.078 304.605C170.375 304.605 169.832 304.812 169.449 305.227C169.066 305.633 168.875 306.219 168.875 306.984V308.32H171.582V309.996H168.875V321H166.707ZM178.965 321.234C177.246 321.234 175.848 320.672 174.77 319.547C173.691 318.414 173.152 316.902 173.152 315.012V314.613C173.152 313.355 173.391 312.234 173.867 311.25C174.352 310.258 175.023 309.484 175.883 308.93C176.75 308.367 177.688 308.086 178.695 308.086C180.344 308.086 181.625 308.629 182.539 309.715C183.453 310.801 183.91 312.355 183.91 314.379V315.281H175.32C175.352 316.531 175.715 317.543 176.41 318.316C177.113 319.082 178.004 319.465 179.082 319.465C179.848 319.465 180.496 319.309 181.027 318.996C181.559 318.684 182.023 318.27 182.422 317.754L183.746 318.785C182.684 320.418 181.09 321.234 178.965 321.234ZM178.695 309.867C177.82 309.867 177.086 310.188 176.492 310.828C175.898 311.461 175.531 312.352 175.391 313.5H181.742V313.336C181.68 312.234 181.383 311.383 180.852 310.781C180.32 310.172 179.602 309.867 178.695 309.867ZM191.691 321.234C189.973 321.234 188.574 320.672 187.496 319.547C186.418 318.414 185.879 316.902 185.879 315.012V314.613C185.879 313.355 186.117 312.234 186.594 311.25C187.078 310.258 187.75 309.484 188.609 308.93C189.477 308.367 190.414 308.086 191.422 308.086C193.07 308.086 194.352 308.629 195.266 309.715C196.18 310.801 196.637 312.355 196.637 314.379V315.281H188.047C188.078 316.531 188.441 317.543 189.137 318.316C189.84 319.082 190.73 319.465 191.809 319.465C192.574 319.465 193.223 319.309 193.754 318.996C194.285 318.684 194.75 318.27 195.148 317.754L196.473 318.785C195.41 320.418 193.816 321.234 191.691 321.234ZM191.422 309.867C190.547 309.867 189.812 310.188 189.219 310.828C188.625 311.461 188.258 312.352 188.117 313.5H194.469V313.336C194.406 312.234 194.109 311.383 193.578 310.781C193.047 310.172 192.328 309.867 191.422 309.867ZM206.539 317.637C206.539 317.051 206.316 316.598 205.871 316.277C205.434 315.949 204.664 315.668 203.562 315.434C202.469 315.199 201.598 314.918 200.949 314.59C200.309 314.262 199.832 313.871 199.52 313.418C199.215 312.965 199.062 312.426 199.062 311.801C199.062 310.762 199.5 309.883 200.375 309.164C201.258 308.445 202.383 308.086 203.75 308.086C205.188 308.086 206.352 308.457 207.242 309.199C208.141 309.941 208.59 310.891 208.59 312.047H206.41C206.41 311.453 206.156 310.941 205.648 310.512C205.148 310.082 204.516 309.867 203.75 309.867C202.961 309.867 202.344 310.039 201.898 310.383C201.453 310.727 201.23 311.176 201.23 311.73C201.23 312.254 201.438 312.648 201.852 312.914C202.266 313.18 203.012 313.434 204.09 313.676C205.176 313.918 206.055 314.207 206.727 314.543C207.398 314.879 207.895 315.285 208.215 315.762C208.543 316.23 208.707 316.805 208.707 317.484C208.707 318.617 208.254 319.527 207.348 320.215C206.441 320.895 205.266 321.234 203.82 321.234C202.805 321.234 201.906 321.055 201.125 320.695C200.344 320.336 199.73 319.836 199.285 319.195C198.848 318.547 198.629 317.848 198.629 317.098H200.797C200.836 317.824 201.125 318.402 201.664 318.832C202.211 319.254 202.93 319.465 203.82 319.465C204.641 319.465 205.297 319.301 205.789 318.973C206.289 318.637 206.539 318.191 206.539 317.637Z" fill="#F2F2F2"/>
<path d="M576.454 524.591L423.725 613.442C423.191 613.752 422.554 613.838 421.956 613.682C421.357 613.526 420.845 613.139 420.533 612.608L322.318 445.345C322.006 444.813 321.919 444.18 322.076 443.584C322.233 442.988 322.621 442.479 323.155 442.167L475.884 353.316C476.419 353.006 477.055 352.92 477.653 353.076C478.252 353.232 478.764 353.618 479.077 354.15L577.291 521.413C577.603 521.945 577.69 522.578 577.533 523.174C577.376 523.77 576.988 524.279 576.454 524.591Z" fill="white"/>
<path d="M576.454 524.591L423.725 613.442C423.191 613.752 422.554 613.838 421.956 613.682C421.357 613.526 420.845 613.139 420.533 612.608L322.318 445.345C322.006 444.813 321.919 444.18 322.076 443.584C322.233 442.988 322.621 442.479 323.155 442.167L475.884 353.316C476.419 353.006 477.055 352.92 477.653 353.076C478.252 353.232 478.764 353.618 479.077 354.15L577.291 521.413C577.603 521.945 577.69 522.578 577.533 523.174C577.376 523.77 576.988 524.279 576.454 524.591ZM323.626 442.969C323.306 443.156 323.073 443.462 322.979 443.819C322.885 444.177 322.937 444.557 323.124 444.876L421.339 612.139C421.526 612.458 421.833 612.69 422.192 612.784C422.552 612.877 422.933 612.825 423.254 612.639L575.983 523.788C576.303 523.602 576.536 523.296 576.63 522.939C576.724 522.581 576.672 522.201 576.485 521.882L478.271 354.619C478.083 354.3 477.776 354.068 477.417 353.974C477.058 353.881 476.676 353.933 476.355 354.119L323.626 442.969Z" fill="#3F3D56"/>
<path d="M421.798 459.627L383.918 481.664C383.383 481.974 382.747 482.061 382.148 481.904C381.55 481.748 381.038 481.362 380.725 480.831L358.586 443.126C358.274 442.594 358.187 441.961 358.344 441.365C358.501 440.769 358.889 440.26 359.423 439.949L397.303 417.912C397.837 417.602 398.474 417.515 399.072 417.671C399.671 417.828 400.182 418.214 400.495 418.745L422.635 456.449C422.946 456.982 423.033 457.615 422.876 458.211C422.719 458.806 422.331 459.316 421.798 459.627V459.627ZM359.894 440.751C359.574 440.938 359.341 441.243 359.247 441.601C359.152 441.958 359.204 442.338 359.391 442.657L381.531 480.362C381.719 480.681 382.026 480.912 382.385 481.006C382.744 481.1 383.126 481.048 383.446 480.862L421.326 458.825C421.647 458.638 421.88 458.332 421.974 457.975C422.068 457.618 422.016 457.238 421.829 456.918L399.689 419.214C399.502 418.895 399.195 418.663 398.835 418.57C398.476 418.476 398.095 418.528 397.774 418.714L359.894 440.751Z" fill="#F2F2F2"/>
<path d="M413.628 470.569L375.748 492.606C375.267 492.885 374.694 492.963 374.156 492.823C373.617 492.682 373.156 492.335 372.875 491.856L350.735 454.152C350.455 453.673 350.377 453.103 350.518 452.567C350.659 452.031 351.008 451.572 351.489 451.292L389.369 429.255C389.85 428.976 390.423 428.898 390.961 429.039C391.5 429.179 391.961 429.527 392.242 430.005L414.382 467.709C414.662 468.188 414.74 468.758 414.599 469.295C414.458 469.831 414.109 470.289 413.628 470.569V470.569Z" fill="#00BFA6"/>
<path d="M505.056 442.133L386.58 511.057C386.099 511.337 385.526 511.415 384.988 511.274C384.449 511.133 383.988 510.786 383.707 510.307C383.426 509.828 383.347 509.258 383.489 508.721C383.63 508.185 383.98 507.727 384.46 507.447L502.936 438.523C503.174 438.384 503.438 438.294 503.711 438.257C503.984 438.219 504.262 438.236 504.529 438.306C504.796 438.375 505.046 438.497 505.266 438.663C505.486 438.829 505.67 439.036 505.809 439.273C505.949 439.51 506.04 439.772 506.077 440.044C506.114 440.316 506.098 440.593 506.028 440.858C505.958 441.124 505.836 441.373 505.669 441.592C505.502 441.811 505.294 441.994 505.056 442.133V442.133Z" fill="#A0A0A0"/>
<path d="M483.747 471.213L393.883 523.492C393.645 523.631 393.382 523.721 393.108 523.758C392.835 523.796 392.557 523.779 392.29 523.709C391.751 523.569 391.291 523.221 391.01 522.742C390.729 522.263 390.65 521.693 390.791 521.157C390.933 520.62 391.282 520.162 391.763 519.882L481.627 467.603C481.866 467.465 482.129 467.374 482.402 467.337C482.675 467.299 482.953 467.316 483.22 467.386C483.487 467.455 483.737 467.577 483.957 467.743C484.177 467.909 484.362 468.116 484.501 468.353C484.64 468.59 484.731 468.852 484.768 469.124C484.806 469.396 484.789 469.673 484.719 469.938C484.649 470.204 484.527 470.453 484.36 470.672C484.194 470.891 483.985 471.075 483.747 471.213V471.213Z" fill="#A0A0A0"/>
<path d="M477.805 396.641L425.418 427.117C424.937 427.397 424.364 427.475 423.825 427.335C423.287 427.194 422.826 426.846 422.545 426.367C422.264 425.889 422.185 425.318 422.327 424.782C422.468 424.246 422.817 423.787 423.298 423.507L475.686 393.031C476.167 392.751 476.739 392.673 477.278 392.814C477.545 392.883 477.795 393.004 478.015 393.17C478.235 393.336 478.42 393.544 478.559 393.781C478.698 394.018 478.789 394.28 478.826 394.552C478.864 394.824 478.847 395.101 478.777 395.366C478.707 395.632 478.585 395.881 478.419 396.1C478.252 396.318 478.043 396.502 477.805 396.641Z" fill="#A0A0A0"/>
<path d="M472.032 416.682L432.719 439.552C432.481 439.691 432.218 439.781 431.944 439.819C431.671 439.856 431.393 439.839 431.126 439.77C430.859 439.7 430.609 439.579 430.389 439.413C430.17 439.247 429.985 439.039 429.846 438.802C429.706 438.565 429.616 438.303 429.578 438.031C429.541 437.759 429.557 437.483 429.627 437.217C429.697 436.952 429.819 436.702 429.986 436.484C430.153 436.265 430.361 436.081 430.599 435.942L469.912 413.072C470.393 412.792 470.966 412.714 471.505 412.855C472.044 412.995 472.504 413.343 472.786 413.822C473.067 414.301 473.145 414.871 473.004 415.407C472.863 415.944 472.513 416.402 472.032 416.682Z" fill="#A0A0A0"/>
<path d="M519.661 467.002L401.186 535.926C400.705 536.206 400.132 536.284 399.593 536.143C399.054 536.003 398.594 535.655 398.312 535.176C398.031 534.697 397.953 534.127 398.094 533.591C398.235 533.054 398.585 532.596 399.066 532.316L517.542 463.392C518.023 463.112 518.595 463.034 519.134 463.175C519.673 463.316 520.134 463.663 520.415 464.142C520.696 464.621 520.775 465.191 520.633 465.727C520.492 466.264 520.142 466.722 519.661 467.002V467.002Z" fill="#A0A0A0"/>
<path d="M498.349 496.081L408.485 548.36C408.246 548.499 407.983 548.589 407.71 548.627C407.437 548.664 407.159 548.647 406.892 548.578C406.625 548.508 406.375 548.387 406.155 548.221C405.935 548.055 405.75 547.847 405.611 547.61C405.472 547.373 405.381 547.111 405.344 546.839C405.306 546.567 405.323 546.29 405.393 546.025C405.463 545.759 405.585 545.51 405.751 545.291C405.918 545.073 406.127 544.889 406.365 544.75L496.229 492.471C496.467 492.333 496.73 492.242 497.004 492.205C497.277 492.168 497.555 492.184 497.822 492.254C498.088 492.324 498.339 492.445 498.559 492.611C498.778 492.777 498.963 492.984 499.102 493.221C499.241 493.458 499.332 493.72 499.37 493.992C499.407 494.264 499.391 494.541 499.321 494.807C499.251 495.072 499.129 495.321 498.962 495.54C498.795 495.759 498.587 495.943 498.349 496.081V496.081Z" fill="#A0A0A0"/>
<path d="M534.261 491.871L415.785 560.795C415.547 560.933 415.284 561.024 415.011 561.061C414.737 561.098 414.459 561.082 414.193 561.012C413.926 560.942 413.675 560.821 413.456 560.655C413.236 560.489 413.051 560.282 412.912 560.045C412.773 559.808 412.682 559.546 412.644 559.274C412.607 559.002 412.624 558.725 412.694 558.459C412.764 558.194 412.886 557.944 413.052 557.726C413.219 557.507 413.427 557.323 413.666 557.185L532.141 488.261C532.379 488.122 532.643 488.032 532.916 487.994C533.189 487.957 533.467 487.974 533.734 488.043C534.001 488.113 534.251 488.234 534.471 488.4C534.691 488.566 534.875 488.774 535.015 489.011C535.154 489.248 535.245 489.51 535.282 489.782C535.32 490.054 535.303 490.331 535.233 490.596C535.163 490.862 535.041 491.111 534.874 491.33C534.708 491.548 534.499 491.732 534.261 491.871V491.871Z" fill="#A0A0A0"/>
<path d="M541.564 504.305L423.088 573.229C422.85 573.368 422.587 573.458 422.313 573.496C422.04 573.533 421.762 573.516 421.495 573.447C421.229 573.377 420.978 573.256 420.758 573.09C420.539 572.924 420.354 572.716 420.215 572.479C420.076 572.242 419.985 571.98 419.947 571.708C419.91 571.436 419.926 571.159 419.996 570.894C420.066 570.628 420.188 570.379 420.355 570.16C420.522 569.942 420.73 569.758 420.968 569.619L539.444 500.695C539.682 500.557 539.945 500.466 540.219 500.429C540.492 500.392 540.77 500.408 541.037 500.478C541.303 500.548 541.554 500.669 541.774 500.835C541.993 501.001 542.178 501.208 542.317 501.445C542.456 501.682 542.547 501.944 542.585 502.216C542.622 502.488 542.606 502.765 542.536 503.031C542.466 503.296 542.344 503.546 542.177 503.764C542.01 503.983 541.802 504.167 541.564 504.305V504.305Z" fill="#A0A0A0"/>
<path d="M503.25 552.711C504.897 550.782 506.378 548.719 507.68 546.545C508.847 544.583 509.993 542.486 510.25 540.185C510.382 539.206 510.279 538.209 509.951 537.276C509.623 536.343 509.078 535.501 508.361 534.817C507.667 534.181 506.789 533.781 505.852 533.675C504.916 533.57 503.97 533.763 503.151 534.228C502.322 534.701 501.638 535.389 501.17 536.218C500.702 537.047 500.467 537.986 500.492 538.937C500.559 539.984 500.863 541.002 501.381 541.915C501.898 542.829 502.617 543.614 503.482 544.213C506.984 546.738 512.453 546.606 516.185 544.684C520.389 542.52 522.561 536.856 519.258 532.98C518.571 532.173 517.428 533.074 517.6 533.944C517.819 535.119 518.479 536.167 519.447 536.873C520.416 537.579 521.618 537.891 522.81 537.745C524.001 537.598 525.091 537.004 525.857 536.085C526.624 535.165 527.008 533.989 526.933 532.796L525.448 533.66C527.268 534.463 529.269 534.774 531.248 534.563C533.228 534.351 535.117 533.625 536.724 532.456C537.52 531.881 538.23 531.197 538.835 530.426C539.561 529.482 540.782 528.872 541.771 528.193L548.895 523.293C549.943 522.572 548.946 520.855 547.89 521.581L541.438 526.019C540.363 526.758 539.28 527.489 538.212 528.237C537.448 528.773 536.978 529.637 536.283 530.273C534.967 531.451 533.341 532.233 531.596 532.526C529.851 532.82 528.057 532.614 526.425 531.932C526.273 531.851 526.103 531.81 525.93 531.813C525.758 531.816 525.589 531.863 525.44 531.95C525.291 532.037 525.166 532.16 525.079 532.308C524.992 532.456 524.944 532.624 524.941 532.796C525.019 533.508 524.812 534.221 524.365 534.782C523.917 535.342 523.265 535.704 522.551 535.788C521.837 535.872 521.118 535.672 520.552 535.231C519.985 534.791 519.616 534.145 519.526 533.435L517.868 534.399C519.998 536.9 518.579 540.736 516.125 542.414C513.38 544.291 509.323 544.616 506.229 543.45C505.47 543.19 504.773 542.777 504.181 542.237C503.59 541.697 503.117 541.041 502.791 540.31C502.49 539.651 502.404 538.913 502.545 538.202C502.687 537.491 503.049 536.842 503.581 536.347C504.042 535.894 504.661 535.636 505.309 535.63C505.957 535.623 506.582 535.867 507.052 536.31C507.564 536.831 507.94 537.469 508.147 538.168C508.353 538.867 508.383 539.606 508.235 540.32C507.916 542.306 506.813 544.137 505.787 545.834C504.615 547.767 503.29 549.604 501.824 551.326C501.003 552.294 502.42 553.689 503.25 552.711L503.25 552.711Z" fill="#00BFA6"/>
<path d="M520.936 599.847C521.107 600.023 521.265 600.212 521.407 600.412L543.468 599.875L546.042 595.193L553.647 598.136L549.9 606.864C549.598 607.569 549.073 608.158 548.406 608.541C547.739 608.924 546.965 609.082 546.2 608.99L521.274 605.992C520.686 606.733 519.885 607.279 518.979 607.555C518.072 607.832 517.102 607.828 516.197 607.543C515.293 607.257 514.498 606.705 513.917 605.959C513.336 605.212 512.996 604.308 512.945 603.365C512.893 602.422 513.13 601.486 513.626 600.681C514.122 599.876 514.852 599.24 515.719 598.858C516.587 598.476 517.55 598.367 518.482 598.543C519.414 598.72 520.27 599.174 520.936 599.847V599.847Z" fill="#FFB7B7"/>
<path d="M592.852 733.209H585.598L582.146 705.358L592.853 705.359L592.852 733.209Z" fill="#FFB7B7"/>
<path d="M594.703 740.209L571.312 740.208V739.913C571.313 737.51 572.272 735.205 573.979 733.506C575.687 731.806 578.002 730.852 580.417 730.852H580.417L594.703 730.852L594.703 740.209Z" fill="#2F2E41"/>
<path d="M526.983 733.049L520.312 730.212L528.13 703.251L537.976 707.438L526.983 733.049Z" fill="#FFB7B7"/>
<path d="M525.924 740.209L504.414 731.062L504.53 730.791C505.479 728.581 507.271 726.837 509.511 725.942C511.752 725.047 514.258 725.074 516.479 726.018L516.479 726.018L529.617 731.604L525.924 740.209Z" fill="#2F2E41"/>
<path d="M557.593 605.88L557.068 614.341L572.402 615.974L588.446 617.683L583.723 604.835L557.593 605.88Z" fill="#FFB7B7"/>
<path d="M556.588 614.45L550.631 573.116L560.955 569.748L563.988 565.609L578.745 566.478L580.911 571.309L588.78 575.009L587.571 597.363L588.453 616.063L556.588 614.45Z" fill="#2F2E41"/>
<path d="M552.836 603.373L542.334 599.191L542.379 599.005C542.424 598.817 546.894 580.226 547.487 577.238C548.105 574.125 550.364 573.265 550.46 573.23L550.53 573.204L554.686 574.463L556.511 588.739L552.836 603.373Z" fill="#2F2E41"/>
<path d="M532.386 728.154L518.406 725.299L540.75 663.932L548.396 643.001C548.396 643.001 553.247 626.218 555.438 619.723L556.76 611.009L588.065 614.458C588.065 614.458 596.808 627.239 594.152 648.07L595.353 726.37L581.374 727.083L569.664 648.115L549.113 691.405C549.113 691.405 542.636 709.878 538.001 713.882L532.386 728.154Z" fill="#2F2E41"/>
<path d="M575.511 617.364C575.757 617.358 576.004 617.372 576.248 617.405L590.852 600.936L589.153 595.875L596.492 592.325L600.374 600.994C600.688 601.694 600.765 602.477 600.594 603.225C600.422 603.972 600.012 604.644 599.424 605.14L580.269 621.296C580.415 622.228 580.272 623.183 579.86 624.034C579.447 624.884 578.784 625.589 577.959 626.055C577.134 626.521 576.186 626.726 575.242 626.643C574.297 626.56 573.4 626.192 572.67 625.589C571.94 624.986 571.412 624.176 571.156 623.267C570.9 622.358 570.928 621.392 571.236 620.5C571.545 619.607 572.119 618.829 572.883 618.268C573.646 617.708 574.563 617.393 575.511 617.364V617.364Z" fill="#FFB7B7"/>
<path d="M589.686 602.539L583.594 588.275L585.97 578.34L588.53 575.121C588.717 575.041 588.92 575.001 589.123 575.003C589.327 575.004 589.529 575.048 589.715 575.132C590.659 575.51 591.463 576.669 592.105 578.577L597.814 594.764L589.686 602.539Z" fill="#2F2E41"/>
<path d="M558.078 560.324V549.57C558.078 545.749 559.603 542.083 562.318 539.381C565.033 536.679 568.715 535.161 572.555 535.161C576.394 535.161 580.076 536.679 582.791 539.381C585.506 542.083 587.032 545.749 587.032 549.57V560.324C587.031 560.837 586.826 561.329 586.461 561.692C586.097 562.055 585.602 562.259 585.087 562.259H560.023C559.507 562.259 559.013 562.055 558.648 561.692C558.284 561.329 558.079 560.837 558.078 560.324V560.324Z" fill="#2F2E41"/>
<path d="M569.581 562.009C575.442 562.009 580.194 557.279 580.194 551.444C580.194 545.61 575.442 540.88 569.581 540.88C563.719 540.88 558.967 545.61 558.967 551.444C558.967 557.279 563.719 562.009 569.581 562.009Z" fill="#FFB7B7"/>
<path d="M554.652 550.43C554.656 547.408 555.863 544.511 558.01 542.374C560.157 540.237 563.068 539.035 566.104 539.032H568.265C571.301 539.035 574.212 540.237 576.359 542.374C578.505 544.511 579.713 547.408 579.716 550.43V550.645H575.15L573.593 546.305L573.281 550.645H570.921L570.136 548.455L569.978 550.645H554.652L554.652 550.43Z" fill="#2F2E41"/>
<path d="M568.535 563.469C568.32 563.18 568.192 562.836 568.166 562.478C568.139 562.12 568.214 561.761 568.383 561.444C570.672 557.109 573.878 549.099 569.623 544.159L569.317 543.804H581.671V562.266L570.448 564.237C570.335 564.257 570.22 564.267 570.104 564.267C569.798 564.267 569.496 564.194 569.223 564.056C568.95 563.917 568.714 563.716 568.535 563.469V563.469Z" fill="#2F2E41"/>
<path d="M424.426 727.126L430.981 729.458L443.138 705.398L433.463 701.957L424.426 727.126Z" fill="#9F616A"/>
<path d="M420.482 732.857L423.519 724.401L436.429 728.994C438.61 729.772 440.391 731.38 441.382 733.464C442.374 735.548 442.494 737.938 441.717 740.11L441.621 740.376L420.482 732.857Z" fill="#2F2E41"/>
<path d="M467.058 733.58L474.019 733.579L477.332 706.851L467.057 706.852L467.058 733.58Z" fill="#9F616A"/>
<path d="M465.281 731.317L478.992 731.317H478.992C480.14 731.317 481.276 731.542 482.336 731.979C483.396 732.416 484.359 733.056 485.17 733.864C485.982 734.672 486.625 735.63 487.065 736.685C487.504 737.741 487.73 738.872 487.73 740.014V740.296L465.282 740.297L465.281 731.317Z" fill="#2F2E41"/>
<path d="M451.189 562.819L454.217 556.864C454.217 556.864 465.496 559.677 466.522 566.183L451.189 562.819Z" fill="#F1F1F1"/>
<path d="M438.699 630.91L446.933 676.644L425.07 715.129L438.131 720.216L460.278 682.911L463.117 672.737L464.821 725.868L476.6 725.512L482 675.9L473.338 629.779L438.699 630.91Z" fill="#2F2E41"/>
<path d="M454.328 641.721C442.232 641.721 434.552 639.418 434.38 639.382L434.102 639.323L440.402 610.247L440.686 583.427C440.686 572.062 448.201 563.683 449.243 562.91C449.419 562.22 449.744 561.576 450.195 561.024C450.646 560.472 451.213 560.025 451.856 559.714C454.363 558.582 457.426 559.94 457.555 559.999L466.749 563.43L466.792 563.557C466.903 563.882 479.013 603.453 479.013 603.453C479.013 603.453 478.28 638.028 478.025 639.16C478.025 639.16 461.049 641.721 454.328 641.721Z" fill="#3F3D56"/>
<path d="M463.622 554.989C470.485 554.989 476.048 549.451 476.048 542.62C476.048 535.789 470.485 530.251 463.622 530.251C456.759 530.251 451.195 535.789 451.195 542.62C451.195 549.451 456.759 554.989 463.622 554.989Z" fill="#9F616A"/>
<path opacity="0.2" d="M449.764 585.621L471.504 615.812L474.714 601.713L449.764 585.621Z" fill="black"/>
<path d="M517.926 606.164C517.315 606.645 516.605 606.987 515.846 607.166C515.087 607.345 514.299 607.356 513.535 607.198C512.772 607.041 512.052 606.718 511.428 606.254C510.803 605.79 510.288 605.195 509.919 604.511L491.207 607.493L495.261 598.56L512.409 597.098C513.604 596.558 514.957 596.472 516.211 596.858C517.465 597.244 518.533 598.074 519.213 599.192C519.893 600.309 520.137 601.636 519.9 602.921C519.663 604.206 518.961 605.36 517.926 606.164H517.926Z" fill="#9F616A"/>
<path d="M496.225 598.051L502.948 597.395L504.811 606.731L496.351 606.88L496.225 598.051Z" fill="#F1F1F1"/>
<path d="M501.735 609.984L468.806 607.066L452.179 580.745L452.128 580.513C451.656 578.362 451.986 576.115 453.057 574.19C454.128 572.264 455.867 570.793 457.948 570.05C460.029 569.307 462.311 569.343 464.367 570.152C466.424 570.961 468.114 572.487 469.122 574.445L478.883 593.396L498.581 596.36L501.735 609.984Z" fill="#3F3D56"/>
<path d="M453.039 553.359L463.353 553.727C463.982 553.75 465.688 546.996 465.912 545.595C466.088 544.683 466.592 543.866 467.33 543.297C468.067 542.728 468.988 542.445 469.919 542.502C470.691 542.575 472.638 541.139 474.647 539.439C478.461 536.211 478.263 530.149 474.073 527.422C473.958 527.348 473.846 527.28 473.736 527.218C471.093 525.745 468.001 525.251 464.972 525.213C462.226 525.179 459.403 525.523 456.984 526.817C452.647 529.136 450.339 534.203 450.137 539.099C449.934 543.995 451.511 548.782 453.3 553.347" fill="#2F2E41"/>
<defs>
<linearGradient id="paint0_linear_513:7676" x1="433.16" y1="19" x2="433.16" y2="841" gradientUnits="userSpaceOnUse">
<stop offset="0.0001" stop-color="#F0C24B"/>
<stop offset="1" stop-color="#FFB0C3"/>
</linearGradient>
</defs>
</svg>
