<svg width="865" height="822" viewBox="0 0 865 822" fill="none" xmlns="http://www.w3.org/2000/svg">
<path d="M865 554.5C865 327.511 527.638 0 391.5 0C255.362 0 0 178.011 0 405C0 631.989 255.362 822 391.5 822C527.638 822 865 781.489 865 554.5Z" fill="url(#paint0_linear_547:7992)"/>
<path d="M177.336 202.316V211H171.166V185.406H181.379C183.336 185.406 185.064 185.77 186.564 186.496C188.076 187.211 189.242 188.236 190.062 189.572C190.895 190.896 191.311 192.402 191.311 194.09C191.311 196.586 190.414 198.584 188.621 200.084C186.84 201.572 184.391 202.316 181.273 202.316H177.336ZM177.336 197.553H181.379C182.574 197.553 183.482 197.254 184.104 196.656C184.736 196.059 185.053 195.215 185.053 194.125C185.053 192.93 184.73 191.975 184.086 191.26C183.441 190.545 182.562 190.182 181.449 190.17H177.336V197.553ZM204.846 211C204.635 210.613 204.447 210.045 204.283 209.295C203.193 210.666 201.67 211.352 199.713 211.352C197.92 211.352 196.396 210.812 195.143 209.734C193.889 208.645 193.262 207.279 193.262 205.639C193.262 203.576 194.023 202.018 195.547 200.963C197.07 199.908 199.285 199.381 202.191 199.381H204.02V198.379C204.02 196.633 203.264 195.76 201.752 195.76C200.346 195.76 199.643 196.451 199.643 197.834H193.719C193.719 195.994 194.498 194.5 196.057 193.352C197.627 192.203 199.625 191.629 202.051 191.629C204.477 191.629 206.393 192.221 207.799 193.404C209.205 194.588 209.926 196.211 209.961 198.273V206.693C209.984 208.439 210.254 209.775 210.77 210.701V211H204.846ZM201.137 207.133C201.875 207.133 202.484 206.975 202.965 206.658C203.457 206.342 203.809 205.984 204.02 205.586V202.545H202.297C200.234 202.545 199.203 203.471 199.203 205.322C199.203 205.861 199.385 206.301 199.748 206.641C200.111 206.969 200.574 207.133 201.137 207.133ZM220.578 202.703L223.742 191.98H230.088L222.336 214.182L222.002 214.99C220.9 217.451 218.955 218.682 216.166 218.682C215.393 218.682 214.578 218.564 213.723 218.33V214.094H214.496C215.328 214.094 215.961 213.971 216.395 213.725C216.84 213.49 217.168 213.062 217.379 212.441L217.854 211.176L211.244 191.98H217.572L220.578 202.703ZM247.508 187.252V191.98H250.637V196.094H247.508V204.795C247.508 205.51 247.637 206.008 247.895 206.289C248.152 206.57 248.662 206.711 249.424 206.711C250.01 206.711 250.502 206.676 250.9 206.605V210.842C249.834 211.182 248.721 211.352 247.561 211.352C245.521 211.352 244.016 210.871 243.043 209.91C242.07 208.949 241.584 207.49 241.584 205.533V196.094H239.158V191.98H241.584V187.252H247.508ZM258.775 194.02C260.041 192.426 261.658 191.629 263.627 191.629C265.725 191.629 267.307 192.25 268.373 193.492C269.439 194.734 269.984 196.568 270.008 198.994V211H264.066V199.135C264.066 198.127 263.861 197.389 263.451 196.92C263.041 196.439 262.344 196.199 261.359 196.199C260.141 196.199 259.279 196.586 258.775 197.359V211H252.852V184H258.775V194.02ZM282.506 211.352C279.588 211.352 277.227 210.484 275.422 208.75C273.617 207.004 272.715 204.736 272.715 201.947V201.455C272.715 199.51 273.072 197.793 273.787 196.305C274.514 194.816 275.568 193.668 276.951 192.859C278.334 192.039 279.975 191.629 281.873 191.629C284.545 191.629 286.654 192.461 288.201 194.125C289.748 195.777 290.521 198.086 290.521 201.051V203.354H278.744C278.955 204.42 279.418 205.258 280.133 205.867C280.848 206.477 281.773 206.781 282.91 206.781C284.785 206.781 286.25 206.125 287.305 204.812L290.012 208.012C289.273 209.031 288.225 209.846 286.865 210.455C285.518 211.053 284.064 211.352 282.506 211.352ZM281.838 196.199C280.104 196.199 279.072 197.348 278.744 199.645H284.721V199.188C284.744 198.238 284.504 197.506 284 196.99C283.496 196.463 282.775 196.199 281.838 196.199ZM313.391 197.342L311.439 197.201C309.576 197.201 308.381 197.787 307.854 198.959V211H301.93V191.98H307.484L307.678 194.424C308.674 192.561 310.062 191.629 311.844 191.629C312.477 191.629 313.027 191.699 313.496 191.84L313.391 197.342ZM324.377 211.352C321.459 211.352 319.098 210.484 317.293 208.75C315.488 207.004 314.586 204.736 314.586 201.947V201.455C314.586 199.51 314.943 197.793 315.658 196.305C316.385 194.816 317.439 193.668 318.822 192.859C320.205 192.039 321.846 191.629 323.744 191.629C326.416 191.629 328.525 192.461 330.072 194.125C331.619 195.777 332.393 198.086 332.393 201.051V203.354H320.615C320.826 204.42 321.289 205.258 322.004 205.867C322.719 206.477 323.645 206.781 324.781 206.781C326.656 206.781 328.121 206.125 329.176 204.812L331.883 208.012C331.145 209.031 330.096 209.846 328.736 210.455C327.389 211.053 325.936 211.352 324.377 211.352ZM323.709 196.199C321.975 196.199 320.943 197.348 320.615 199.645H326.592V199.188C326.615 198.238 326.375 197.506 325.871 196.99C325.367 196.463 324.646 196.199 323.709 196.199ZM344.75 205.656C344.75 205.152 344.486 204.748 343.959 204.443C343.432 204.139 342.43 203.822 340.953 203.494C339.477 203.166 338.258 202.738 337.297 202.211C336.336 201.672 335.604 201.021 335.1 200.26C334.596 199.498 334.344 198.625 334.344 197.641C334.344 195.895 335.064 194.459 336.506 193.334C337.947 192.197 339.834 191.629 342.166 191.629C344.674 191.629 346.689 192.197 348.213 193.334C349.736 194.471 350.498 195.965 350.498 197.816H344.557C344.557 196.293 343.754 195.531 342.148 195.531C341.527 195.531 341.006 195.707 340.584 196.059C340.162 196.398 339.951 196.826 339.951 197.342C339.951 197.869 340.209 198.297 340.725 198.625C341.24 198.953 342.061 199.223 343.186 199.434C344.322 199.645 345.318 199.896 346.174 200.189C349.033 201.174 350.463 202.938 350.463 205.48C350.463 207.215 349.689 208.627 348.143 209.717C346.607 210.807 344.615 211.352 342.166 211.352C340.537 211.352 339.084 211.059 337.807 210.473C336.529 209.887 335.533 209.09 334.818 208.082C334.104 207.074 333.746 206.014 333.746 204.9H339.283C339.307 205.779 339.6 206.424 340.162 206.834C340.725 207.232 341.445 207.432 342.324 207.432C343.133 207.432 343.736 207.268 344.135 206.939C344.545 206.611 344.75 206.184 344.75 205.656ZM360.148 187.252V191.98H363.277V196.094H360.148V204.795C360.148 205.51 360.277 206.008 360.535 206.289C360.793 206.57 361.303 206.711 362.064 206.711C362.65 206.711 363.143 206.676 363.541 206.605V210.842C362.475 211.182 361.361 211.352 360.201 211.352C358.162 211.352 356.656 210.871 355.684 209.91C354.711 208.949 354.225 207.49 354.225 205.533V196.094H351.799V191.98H354.225V187.252H360.148ZM373.842 201.314C373.842 199.416 374.211 197.729 374.949 196.252C375.688 194.764 376.748 193.621 378.131 192.824C379.514 192.027 381.137 191.629 383 191.629C385.848 191.629 388.092 192.514 389.732 194.283C391.373 196.041 392.193 198.438 392.193 201.473V201.684C392.193 204.648 391.367 207.004 389.715 208.75C388.074 210.484 385.848 211.352 383.035 211.352C380.328 211.352 378.154 210.543 376.514 208.926C374.873 207.297 373.988 205.094 373.859 202.316L373.842 201.314ZM379.766 201.684C379.766 203.441 380.041 204.73 380.592 205.551C381.143 206.371 381.957 206.781 383.035 206.781C385.145 206.781 386.223 205.158 386.27 201.912V201.314C386.27 197.904 385.18 196.199 383 196.199C381.02 196.199 379.947 197.67 379.783 200.611L379.766 201.684ZM396.113 211V196.094H393.354V191.98H396.113V190.469C396.113 188.301 396.752 186.619 398.029 185.424C399.307 184.229 401.1 183.631 403.408 183.631C404.252 183.631 405.178 183.754 406.186 184L406.203 188.359C405.84 188.254 405.354 188.201 404.744 188.201C402.951 188.201 402.055 188.975 402.055 190.521V191.98H405.764V196.094H402.055V211H396.113ZM424.414 202.703L427.578 191.98H433.924L426.172 214.182L425.838 214.99C424.736 217.451 422.791 218.682 420.002 218.682C419.229 218.682 418.414 218.564 417.559 218.33V214.094H418.332C419.164 214.094 419.797 213.971 420.23 213.725C420.676 213.49 421.004 213.062 421.215 212.441L421.689 211.176L415.08 191.98H421.408L424.414 202.703ZM434.451 201.314C434.451 199.416 434.82 197.729 435.559 196.252C436.297 194.764 437.357 193.621 438.74 192.824C440.123 192.027 441.746 191.629 443.609 191.629C446.457 191.629 448.701 192.514 450.342 194.283C451.982 196.041 452.803 198.438 452.803 201.473V201.684C452.803 204.648 451.977 207.004 450.324 208.75C448.684 210.484 446.457 211.352 443.645 211.352C440.938 211.352 438.764 210.543 437.123 208.926C435.482 207.297 434.598 205.094 434.469 202.316L434.451 201.314ZM440.375 201.684C440.375 203.441 440.65 204.73 441.201 205.551C441.752 206.371 442.566 206.781 443.645 206.781C445.754 206.781 446.832 205.158 446.879 201.912V201.314C446.879 197.904 445.789 196.199 443.609 196.199C441.629 196.199 440.557 197.67 440.393 200.611L440.375 201.684ZM466.742 208.943C465.488 210.549 463.795 211.352 461.662 211.352C459.576 211.352 457.994 210.748 456.916 209.541C455.85 208.322 455.316 206.576 455.316 204.303V191.98H461.24V204.338C461.24 205.967 462.031 206.781 463.613 206.781C464.973 206.781 465.939 206.295 466.514 205.322V191.98H472.473V211H466.918L466.742 208.943ZM487.238 197.342L485.287 197.201C483.424 197.201 482.229 197.787 481.701 198.959V211H475.777V191.98H481.332L481.525 194.424C482.521 192.561 483.91 191.629 485.691 191.629C486.324 191.629 486.875 191.699 487.344 191.84L487.238 197.342ZM515.996 201.648C515.996 204.766 515.352 207.162 514.062 208.838C512.773 210.514 510.957 211.352 508.613 211.352C506.68 211.352 505.121 210.584 503.938 209.049L503.691 211H498.383V184H504.307V193.51C505.408 192.256 506.832 191.629 508.578 191.629C510.945 191.629 512.773 192.479 514.062 194.178C515.352 195.877 515.996 198.268 515.996 201.35V201.648ZM510.055 201.279C510.055 199.451 509.809 198.15 509.316 197.377C508.836 196.592 508.092 196.199 507.084 196.199C505.748 196.199 504.822 196.709 504.307 197.729V205.287C504.811 206.295 505.748 206.799 507.119 206.799C508.514 206.799 509.398 206.119 509.773 204.76C509.961 204.092 510.055 202.932 510.055 201.279ZM529.338 211C529.127 210.613 528.939 210.045 528.775 209.295C527.686 210.666 526.162 211.352 524.205 211.352C522.412 211.352 520.889 210.812 519.635 209.734C518.381 208.645 517.754 207.279 517.754 205.639C517.754 203.576 518.516 202.018 520.039 200.963C521.562 199.908 523.777 199.381 526.684 199.381H528.512V198.379C528.512 196.633 527.756 195.76 526.244 195.76C524.838 195.76 524.135 196.451 524.135 197.834H518.211C518.211 195.994 518.99 194.5 520.549 193.352C522.119 192.203 524.117 191.629 526.543 191.629C528.969 191.629 530.885 192.221 532.291 193.404C533.697 194.588 534.418 196.211 534.453 198.273V206.693C534.477 208.439 534.746 209.775 535.262 210.701V211H529.338ZM525.629 207.133C526.367 207.133 526.977 206.975 527.457 206.658C527.949 206.342 528.301 205.984 528.512 205.586V202.545H526.789C524.727 202.545 523.695 203.471 523.695 205.322C523.695 205.861 523.877 206.301 524.24 206.641C524.604 206.969 525.066 207.133 525.629 207.133ZM543.998 211H538.057V184H543.998V211ZM558.377 211C558.166 210.613 557.979 210.045 557.814 209.295C556.725 210.666 555.201 211.352 553.244 211.352C551.451 211.352 549.928 210.812 548.674 209.734C547.42 208.645 546.793 207.279 546.793 205.639C546.793 203.576 547.555 202.018 549.078 200.963C550.602 199.908 552.816 199.381 555.723 199.381H557.551V198.379C557.551 196.633 556.795 195.76 555.283 195.76C553.877 195.76 553.174 196.451 553.174 197.834H547.25C547.25 195.994 548.029 194.5 549.588 193.352C551.158 192.203 553.156 191.629 555.582 191.629C558.008 191.629 559.924 192.221 561.33 193.404C562.736 194.588 563.457 196.211 563.492 198.273V206.693C563.516 208.439 563.785 209.775 564.301 210.701V211H558.377ZM554.668 207.133C555.406 207.133 556.016 206.975 556.496 206.658C556.988 206.342 557.34 205.984 557.551 205.586V202.545H555.828C553.766 202.545 552.734 203.471 552.734 205.322C552.734 205.861 552.916 206.301 553.279 206.641C553.643 206.969 554.105 207.133 554.668 207.133ZM572.229 191.98L572.422 194.213C573.734 192.49 575.545 191.629 577.854 191.629C579.834 191.629 581.311 192.221 582.283 193.404C583.268 194.588 583.777 196.369 583.812 198.748V211H577.871V198.994C577.871 198.033 577.678 197.33 577.291 196.885C576.904 196.428 576.201 196.199 575.182 196.199C574.021 196.199 573.16 196.656 572.598 197.57V211H566.674V191.98H572.229ZM595.15 206.781C595.982 206.781 596.627 206.559 597.084 206.113C597.541 205.656 597.764 205.023 597.752 204.215H603.307C603.307 206.301 602.557 208.012 601.057 209.348C599.568 210.684 597.646 211.352 595.291 211.352C592.525 211.352 590.346 210.484 588.752 208.75C587.158 207.016 586.361 204.613 586.361 201.543V201.297C586.361 199.375 586.713 197.682 587.416 196.217C588.131 194.74 589.156 193.609 590.492 192.824C591.828 192.027 593.41 191.629 595.238 191.629C597.711 191.629 599.674 192.314 601.127 193.686C602.58 195.057 603.307 196.914 603.307 199.258H597.752C597.752 198.273 597.512 197.518 597.031 196.99C596.551 196.463 595.906 196.199 595.098 196.199C593.562 196.199 592.666 197.178 592.408 199.135C592.326 199.756 592.285 200.611 592.285 201.701C592.285 203.611 592.514 204.936 592.971 205.674C593.428 206.412 594.154 206.781 595.15 206.781ZM615.014 211.352C612.096 211.352 609.734 210.484 607.93 208.75C606.125 207.004 605.223 204.736 605.223 201.947V201.455C605.223 199.51 605.58 197.793 606.295 196.305C607.021 194.816 608.076 193.668 609.459 192.859C610.842 192.039 612.482 191.629 614.381 191.629C617.053 191.629 619.162 192.461 620.709 194.125C622.256 195.777 623.029 198.086 623.029 201.051V203.354H611.252C611.463 204.42 611.926 205.258 612.641 205.867C613.355 206.477 614.281 206.781 615.418 206.781C617.293 206.781 618.758 206.125 619.812 204.812L622.52 208.012C621.781 209.031 620.732 209.846 619.373 210.455C618.025 211.053 616.572 211.352 615.014 211.352ZM614.346 196.199C612.611 196.199 611.58 197.348 611.252 199.645H617.229V199.188C617.252 198.238 617.012 197.506 616.508 196.99C616.004 196.463 615.283 196.199 614.346 196.199ZM300.646 235.195L302.562 223.98H308.24L303.758 243H298.748L295.602 231.715L292.438 243H287.428L282.945 223.98H288.623L290.504 235.459L293.527 223.98H297.658L300.646 235.195ZM316.625 243H310.684V223.98H316.625V243ZM310.332 219.076C310.332 218.232 310.637 217.541 311.246 217.002C311.855 216.463 312.646 216.193 313.619 216.193C314.592 216.193 315.383 216.463 315.992 217.002C316.602 217.541 316.906 218.232 316.906 219.076C316.906 219.92 316.602 220.611 315.992 221.15C315.383 221.689 314.592 221.959 313.619 221.959C312.646 221.959 311.855 221.689 311.246 221.15C310.637 220.611 310.332 219.92 310.332 219.076ZM327.189 219.252V223.98H330.318V228.094H327.189V236.795C327.189 237.51 327.318 238.008 327.576 238.289C327.834 238.57 328.344 238.711 329.105 238.711C329.691 238.711 330.184 238.676 330.582 238.605V242.842C329.516 243.182 328.402 243.352 327.242 243.352C325.203 243.352 323.697 242.871 322.725 241.91C321.752 240.949 321.266 239.49 321.266 237.533V228.094H318.84V223.98H321.266V219.252H327.189ZM338.457 226.02C339.723 224.426 341.34 223.629 343.309 223.629C345.406 223.629 346.988 224.25 348.055 225.492C349.121 226.734 349.666 228.568 349.689 230.994V243H343.748V231.135C343.748 230.127 343.543 229.389 343.133 228.92C342.723 228.439 342.025 228.199 341.041 228.199C339.822 228.199 338.961 228.586 338.457 229.359V243H332.533V216H338.457V226.02ZM367.391 223.98L367.584 226.213C368.896 224.49 370.707 223.629 373.016 223.629C374.996 223.629 376.473 224.221 377.445 225.404C378.43 226.588 378.939 228.369 378.975 230.748V243H373.033V230.994C373.033 230.033 372.84 229.33 372.453 228.885C372.066 228.428 371.363 228.199 370.344 228.199C369.184 228.199 368.322 228.656 367.76 229.57V243H361.836V223.98H367.391ZM381.523 233.314C381.523 231.416 381.893 229.729 382.631 228.252C383.369 226.764 384.43 225.621 385.812 224.824C387.195 224.027 388.818 223.629 390.682 223.629C393.529 223.629 395.773 224.514 397.414 226.283C399.055 228.041 399.875 230.438 399.875 233.473V233.684C399.875 236.648 399.049 239.004 397.396 240.75C395.756 242.484 393.529 243.352 390.717 243.352C388.01 243.352 385.836 242.543 384.195 240.926C382.555 239.297 381.67 237.094 381.541 234.316L381.523 233.314ZM387.447 233.684C387.447 235.441 387.723 236.73 388.273 237.551C388.824 238.371 389.639 238.781 390.717 238.781C392.826 238.781 393.904 237.158 393.951 233.912V233.314C393.951 229.904 392.861 228.199 390.682 228.199C388.701 228.199 387.629 229.67 387.465 232.611L387.447 233.684ZM421.408 237.656C421.408 237.152 421.145 236.748 420.617 236.443C420.09 236.139 419.088 235.822 417.611 235.494C416.135 235.166 414.916 234.738 413.955 234.211C412.994 233.672 412.262 233.021 411.758 232.26C411.254 231.498 411.002 230.625 411.002 229.641C411.002 227.895 411.723 226.459 413.164 225.334C414.605 224.197 416.492 223.629 418.824 223.629C421.332 223.629 423.348 224.197 424.871 225.334C426.395 226.471 427.156 227.965 427.156 229.816H421.215C421.215 228.293 420.412 227.531 418.807 227.531C418.186 227.531 417.664 227.707 417.242 228.059C416.82 228.398 416.609 228.826 416.609 229.342C416.609 229.869 416.867 230.297 417.383 230.625C417.898 230.953 418.719 231.223 419.844 231.434C420.98 231.645 421.977 231.896 422.832 232.189C425.691 233.174 427.121 234.938 427.121 237.48C427.121 239.215 426.348 240.627 424.801 241.717C423.266 242.807 421.273 243.352 418.824 243.352C417.195 243.352 415.742 243.059 414.465 242.473C413.188 241.887 412.191 241.09 411.477 240.082C410.762 239.074 410.404 238.014 410.404 236.9H415.941C415.965 237.779 416.258 238.424 416.82 238.834C417.383 239.232 418.104 239.432 418.982 239.432C419.791 239.432 420.395 239.268 420.793 238.939C421.203 238.611 421.408 238.184 421.408 237.656ZM436.807 219.252V223.98H439.936V228.094H436.807V236.795C436.807 237.51 436.936 238.008 437.193 238.289C437.451 238.57 437.961 238.711 438.723 238.711C439.309 238.711 439.801 238.676 440.199 238.605V242.842C439.133 243.182 438.02 243.352 436.859 243.352C434.82 243.352 433.314 242.871 432.342 241.91C431.369 240.949 430.883 239.49 430.883 237.533V228.094H428.457V223.98H430.883V219.252H436.807ZM453.787 229.342L451.836 229.201C449.973 229.201 448.777 229.787 448.25 230.959V243H442.326V223.98H447.881L448.074 226.424C449.07 224.561 450.459 223.629 452.24 223.629C452.873 223.629 453.424 223.699 453.893 223.84L453.787 229.342ZM464.773 243.352C461.855 243.352 459.494 242.484 457.689 240.75C455.885 239.004 454.982 236.736 454.982 233.947V233.455C454.982 231.51 455.34 229.793 456.055 228.305C456.781 226.816 457.836 225.668 459.219 224.859C460.602 224.039 462.242 223.629 464.141 223.629C466.812 223.629 468.922 224.461 470.469 226.125C472.016 227.777 472.789 230.086 472.789 233.051V235.354H461.012C461.223 236.42 461.686 237.258 462.4 237.867C463.115 238.477 464.041 238.781 465.178 238.781C467.053 238.781 468.518 238.125 469.572 236.812L472.279 240.012C471.541 241.031 470.492 241.846 469.133 242.455C467.785 243.053 466.332 243.352 464.773 243.352ZM464.105 228.199C462.371 228.199 461.34 229.348 461.012 231.645H466.988V231.188C467.012 230.238 466.771 229.506 466.268 228.99C465.764 228.463 465.043 228.199 464.105 228.199ZM485.146 237.656C485.146 237.152 484.883 236.748 484.355 236.443C483.828 236.139 482.826 235.822 481.35 235.494C479.873 235.166 478.654 234.738 477.693 234.211C476.732 233.672 476 233.021 475.496 232.26C474.992 231.498 474.74 230.625 474.74 229.641C474.74 227.895 475.461 226.459 476.902 225.334C478.344 224.197 480.23 223.629 482.562 223.629C485.07 223.629 487.086 224.197 488.609 225.334C490.133 226.471 490.895 227.965 490.895 229.816H484.953C484.953 228.293 484.15 227.531 482.545 227.531C481.924 227.531 481.402 227.707 480.98 228.059C480.559 228.398 480.348 228.826 480.348 229.342C480.348 229.869 480.605 230.297 481.121 230.625C481.637 230.953 482.457 231.223 483.582 231.434C484.719 231.645 485.715 231.896 486.57 232.189C489.43 233.174 490.859 234.938 490.859 237.48C490.859 239.215 490.086 240.627 488.539 241.717C487.004 242.807 485.012 243.352 482.562 243.352C480.934 243.352 479.48 243.059 478.203 242.473C476.926 241.887 475.93 241.09 475.215 240.082C474.5 239.074 474.143 238.014 474.143 236.9H479.68C479.703 237.779 479.996 238.424 480.559 238.834C481.121 239.232 481.842 239.432 482.721 239.432C483.529 239.432 484.133 239.268 484.531 238.939C484.941 238.611 485.146 238.184 485.146 237.656ZM503.604 237.656C503.604 237.152 503.34 236.748 502.812 236.443C502.285 236.139 501.283 235.822 499.807 235.494C498.33 235.166 497.111 234.738 496.15 234.211C495.189 233.672 494.457 233.021 493.953 232.26C493.449 231.498 493.197 230.625 493.197 229.641C493.197 227.895 493.918 226.459 495.359 225.334C496.801 224.197 498.688 223.629 501.02 223.629C503.527 223.629 505.543 224.197 507.066 225.334C508.59 226.471 509.352 227.965 509.352 229.816H503.41C503.41 228.293 502.607 227.531 501.002 227.531C500.381 227.531 499.859 227.707 499.438 228.059C499.016 228.398 498.805 228.826 498.805 229.342C498.805 229.869 499.062 230.297 499.578 230.625C500.094 230.953 500.914 231.223 502.039 231.434C503.176 231.645 504.172 231.896 505.027 232.189C507.887 233.174 509.316 234.938 509.316 237.48C509.316 239.215 508.543 240.627 506.996 241.717C505.461 242.807 503.469 243.352 501.02 243.352C499.391 243.352 497.938 243.059 496.66 242.473C495.383 241.887 494.387 241.09 493.672 240.082C492.957 239.074 492.6 238.014 492.6 236.9H498.137C498.16 237.779 498.453 238.424 499.016 238.834C499.578 239.232 500.299 239.432 501.178 239.432C501.986 239.432 502.59 239.268 502.988 238.939C503.398 238.611 503.604 238.184 503.604 237.656Z" fill="white"/>
<path d="M159.43 291.504L163.883 282.938H166.438L160.555 293.637V300H158.305V293.637L152.422 282.938H155L159.43 291.504ZM166.953 293.543C166.953 292.301 167.195 291.184 167.68 290.191C168.172 289.199 168.852 288.434 169.719 287.895C170.594 287.355 171.59 287.086 172.707 287.086C174.434 287.086 175.828 287.684 176.891 288.879C177.961 290.074 178.496 291.664 178.496 293.648V293.801C178.496 295.035 178.258 296.145 177.781 297.129C177.312 298.105 176.637 298.867 175.754 299.414C174.879 299.961 173.871 300.234 172.73 300.234C171.012 300.234 169.617 299.637 168.547 298.441C167.484 297.246 166.953 295.664 166.953 293.695V293.543ZM169.133 293.801C169.133 295.207 169.457 296.336 170.105 297.188C170.762 298.039 171.637 298.465 172.73 298.465C173.832 298.465 174.707 298.035 175.355 297.176C176.004 296.309 176.328 295.098 176.328 293.543C176.328 292.152 175.996 291.027 175.332 290.168C174.676 289.301 173.801 288.867 172.707 288.867C171.637 288.867 170.773 289.293 170.117 290.145C169.461 290.996 169.133 292.215 169.133 293.801ZM189.043 298.746C188.199 299.738 186.961 300.234 185.328 300.234C183.977 300.234 182.945 299.844 182.234 299.062C181.531 298.273 181.176 297.109 181.168 295.57V287.32H183.336V295.512C183.336 297.434 184.117 298.395 185.68 298.395C187.336 298.395 188.438 297.777 188.984 296.543V287.32H191.152V300H189.09L189.043 298.746ZM211.121 293.801C211.121 295.73 210.68 297.285 209.797 298.465C208.914 299.645 207.719 300.234 206.211 300.234C204.672 300.234 203.461 299.746 202.578 298.77V304.875H200.41V287.32H202.391L202.496 288.727C203.379 287.633 204.605 287.086 206.176 287.086C207.699 287.086 208.902 287.66 209.785 288.809C210.676 289.957 211.121 291.555 211.121 293.602V293.801ZM208.953 293.555C208.953 292.125 208.648 290.996 208.039 290.168C207.43 289.34 206.594 288.926 205.531 288.926C204.219 288.926 203.234 289.508 202.578 290.672V296.73C203.227 297.887 204.219 298.465 205.555 298.465C206.594 298.465 207.418 298.055 208.027 297.234C208.645 296.406 208.953 295.18 208.953 293.555ZM221.715 300C221.59 299.75 221.488 299.305 221.41 298.664C220.402 299.711 219.199 300.234 217.801 300.234C216.551 300.234 215.523 299.883 214.719 299.18C213.922 298.469 213.523 297.57 213.523 296.484C213.523 295.164 214.023 294.141 215.023 293.414C216.031 292.68 217.445 292.312 219.266 292.312H221.375V291.316C221.375 290.559 221.148 289.957 220.695 289.512C220.242 289.059 219.574 288.832 218.691 288.832C217.918 288.832 217.27 289.027 216.746 289.418C216.223 289.809 215.961 290.281 215.961 290.836H213.781C213.781 290.203 214.004 289.594 214.449 289.008C214.902 288.414 215.512 287.945 216.277 287.602C217.051 287.258 217.898 287.086 218.82 287.086C220.281 287.086 221.426 287.453 222.254 288.188C223.082 288.914 223.512 289.918 223.543 291.199V297.035C223.543 298.199 223.691 299.125 223.988 299.812V300H221.715ZM218.117 298.348C218.797 298.348 219.441 298.172 220.051 297.82C220.66 297.469 221.102 297.012 221.375 296.449V293.848H219.676C217.02 293.848 215.691 294.625 215.691 296.18C215.691 296.859 215.918 297.391 216.371 297.773C216.824 298.156 217.406 298.348 218.117 298.348ZM230.902 296.824L233.855 287.32H236.176L231.078 301.957C230.289 304.066 229.035 305.121 227.316 305.121L226.906 305.086L226.098 304.934V303.176L226.684 303.223C227.418 303.223 227.988 303.074 228.395 302.777C228.809 302.48 229.148 301.938 229.414 301.148L229.895 299.859L225.371 287.32H227.738L230.902 296.824ZM247.016 284.25V287.32H249.383V288.996H247.016V296.859C247.016 297.367 247.121 297.75 247.332 298.008C247.543 298.258 247.902 298.383 248.41 298.383C248.66 298.383 249.004 298.336 249.441 298.242V300C248.871 300.156 248.316 300.234 247.777 300.234C246.809 300.234 246.078 299.941 245.586 299.355C245.094 298.77 244.848 297.938 244.848 296.859V288.996H242.539V287.32H244.848V284.25H247.016ZM254.094 288.855C255.055 287.676 256.305 287.086 257.844 287.086C260.523 287.086 261.875 288.598 261.898 291.621V300H259.73V291.609C259.723 290.695 259.512 290.02 259.098 289.582C258.691 289.145 258.055 288.926 257.188 288.926C256.484 288.926 255.867 289.113 255.336 289.488C254.805 289.863 254.391 290.355 254.094 290.965V300H251.926V282H254.094V288.855ZM270.406 300.234C268.688 300.234 267.289 299.672 266.211 298.547C265.133 297.414 264.594 295.902 264.594 294.012V293.613C264.594 292.355 264.832 291.234 265.309 290.25C265.793 289.258 266.465 288.484 267.324 287.93C268.191 287.367 269.129 287.086 270.137 287.086C271.785 287.086 273.066 287.629 273.98 288.715C274.895 289.801 275.352 291.355 275.352 293.379V294.281H266.762C266.793 295.531 267.156 296.543 267.852 297.316C268.555 298.082 269.445 298.465 270.523 298.465C271.289 298.465 271.938 298.309 272.469 297.996C273 297.684 273.465 297.27 273.863 296.754L275.188 297.785C274.125 299.418 272.531 300.234 270.406 300.234ZM270.137 288.867C269.262 288.867 268.527 289.188 267.934 289.828C267.34 290.461 266.973 291.352 266.832 292.5H273.184V292.336C273.121 291.234 272.824 290.383 272.293 289.781C271.762 289.172 271.043 288.867 270.137 288.867ZM289.953 289.266C289.625 289.211 289.27 289.184 288.887 289.184C287.465 289.184 286.5 289.789 285.992 291V300H283.824V287.32H285.934L285.969 288.785C286.68 287.652 287.688 287.086 288.992 287.086C289.414 287.086 289.734 287.141 289.953 287.25V289.266ZM296.984 300.234C295.266 300.234 293.867 299.672 292.789 298.547C291.711 297.414 291.172 295.902 291.172 294.012V293.613C291.172 292.355 291.41 291.234 291.887 290.25C292.371 289.258 293.043 288.484 293.902 287.93C294.77 287.367 295.707 287.086 296.715 287.086C298.363 287.086 299.645 287.629 300.559 288.715C301.473 289.801 301.93 291.355 301.93 293.379V294.281H293.34C293.371 295.531 293.734 296.543 294.43 297.316C295.133 298.082 296.023 298.465 297.102 298.465C297.867 298.465 298.516 298.309 299.047 297.996C299.578 297.684 300.043 297.27 300.441 296.754L301.766 297.785C300.703 299.418 299.109 300.234 296.984 300.234ZM296.715 288.867C295.84 288.867 295.105 289.188 294.512 289.828C293.918 290.461 293.551 291.352 293.41 292.5H299.762V292.336C299.699 291.234 299.402 290.383 298.871 289.781C298.34 289.172 297.621 288.867 296.715 288.867ZM306.488 287.32L306.547 288.727C307.477 287.633 308.73 287.086 310.309 287.086C312.082 287.086 313.289 287.766 313.93 289.125C314.352 288.516 314.898 288.023 315.57 287.648C316.25 287.273 317.051 287.086 317.973 287.086C320.754 287.086 322.168 288.559 322.215 291.504V300H320.047V291.633C320.047 290.727 319.84 290.051 319.426 289.605C319.012 289.152 318.316 288.926 317.34 288.926C316.535 288.926 315.867 289.168 315.336 289.652C314.805 290.129 314.496 290.773 314.41 291.586V300H312.23V291.691C312.23 289.848 311.328 288.926 309.523 288.926C308.102 288.926 307.129 289.531 306.605 290.742V300H304.438V287.32H306.488ZM333.324 300C333.199 299.75 333.098 299.305 333.02 298.664C332.012 299.711 330.809 300.234 329.41 300.234C328.16 300.234 327.133 299.883 326.328 299.18C325.531 298.469 325.133 297.57 325.133 296.484C325.133 295.164 325.633 294.141 326.633 293.414C327.641 292.68 329.055 292.312 330.875 292.312H332.984V291.316C332.984 290.559 332.758 289.957 332.305 289.512C331.852 289.059 331.184 288.832 330.301 288.832C329.527 288.832 328.879 289.027 328.355 289.418C327.832 289.809 327.57 290.281 327.57 290.836H325.391C325.391 290.203 325.613 289.594 326.059 289.008C326.512 288.414 327.121 287.945 327.887 287.602C328.66 287.258 329.508 287.086 330.43 287.086C331.891 287.086 333.035 287.453 333.863 288.188C334.691 288.914 335.121 289.918 335.152 291.199V297.035C335.152 298.199 335.301 299.125 335.598 299.812V300H333.324ZM329.727 298.348C330.406 298.348 331.051 298.172 331.66 297.82C332.27 297.469 332.711 297.012 332.984 296.449V293.848H331.285C328.629 293.848 327.301 294.625 327.301 296.18C327.301 296.859 327.527 297.391 327.98 297.773C328.434 298.156 329.016 298.348 329.727 298.348ZM340.906 300H338.738V287.32H340.906V300ZM338.562 283.957C338.562 283.605 338.668 283.309 338.879 283.066C339.098 282.824 339.418 282.703 339.84 282.703C340.262 282.703 340.582 282.824 340.801 283.066C341.02 283.309 341.129 283.605 341.129 283.957C341.129 284.309 341.02 284.602 340.801 284.836C340.582 285.07 340.262 285.188 339.84 285.188C339.418 285.188 339.098 285.07 338.879 284.836C338.668 284.602 338.562 284.309 338.562 283.957ZM346.438 287.32L346.508 288.914C347.477 287.695 348.742 287.086 350.305 287.086C352.984 287.086 354.336 288.598 354.359 291.621V300H352.191V291.609C352.184 290.695 351.973 290.02 351.559 289.582C351.152 289.145 350.516 288.926 349.648 288.926C348.945 288.926 348.328 289.113 347.797 289.488C347.266 289.863 346.852 290.355 346.555 290.965V300H344.387V287.32H346.438ZM359.984 300H357.816V287.32H359.984V300ZM357.641 283.957C357.641 283.605 357.746 283.309 357.957 283.066C358.176 282.824 358.496 282.703 358.918 282.703C359.34 282.703 359.66 282.824 359.879 283.066C360.098 283.309 360.207 283.605 360.207 283.957C360.207 284.309 360.098 284.602 359.879 284.836C359.66 285.07 359.34 285.188 358.918 285.188C358.496 285.188 358.176 285.07 357.957 284.836C357.746 284.602 357.641 284.309 357.641 283.957ZM365.516 287.32L365.586 288.914C366.555 287.695 367.82 287.086 369.383 287.086C372.062 287.086 373.414 288.598 373.438 291.621V300H371.27V291.609C371.262 290.695 371.051 290.02 370.637 289.582C370.23 289.145 369.594 288.926 368.727 288.926C368.023 288.926 367.406 289.113 366.875 289.488C366.344 289.863 365.93 290.355 365.633 290.965V300H363.465V287.32H365.516ZM376.191 293.555C376.191 291.578 376.648 290.008 377.562 288.844C378.477 287.672 379.688 287.086 381.195 287.086C382.742 287.086 383.949 287.633 384.816 288.727L384.922 287.32H386.902V299.695C386.902 301.336 386.414 302.629 385.438 303.574C384.469 304.52 383.164 304.992 381.523 304.992C380.609 304.992 379.715 304.797 378.84 304.406C377.965 304.016 377.297 303.48 376.836 302.801L377.961 301.5C378.891 302.648 380.027 303.223 381.371 303.223C382.426 303.223 383.246 302.926 383.832 302.332C384.426 301.738 384.723 300.902 384.723 299.824V298.734C383.855 299.734 382.672 300.234 381.172 300.234C379.688 300.234 378.484 299.637 377.562 298.441C376.648 297.246 376.191 295.617 376.191 293.555ZM378.371 293.801C378.371 295.23 378.664 296.355 379.25 297.176C379.836 297.988 380.656 298.395 381.711 298.395C383.078 298.395 384.082 297.773 384.723 296.531V290.742C384.059 289.531 383.062 288.926 381.734 288.926C380.68 288.926 379.855 289.336 379.262 290.156C378.668 290.977 378.371 292.191 378.371 293.801ZM406.93 284.156L399.863 300H397.59L404.633 284.719H395.398V282.938H406.93V284.156ZM410.387 291.445L411.254 282.938H419.996V284.941H413.094L412.578 289.594C413.414 289.102 414.363 288.855 415.426 288.855C416.98 288.855 418.215 289.371 419.129 290.402C420.043 291.426 420.5 292.812 420.5 294.562C420.5 296.32 420.023 297.707 419.07 298.723C418.125 299.73 416.801 300.234 415.098 300.234C413.59 300.234 412.359 299.816 411.406 298.98C410.453 298.145 409.91 296.988 409.777 295.512H411.828C411.961 296.488 412.309 297.227 412.871 297.727C413.434 298.219 414.176 298.465 415.098 298.465C416.105 298.465 416.895 298.121 417.465 297.434C418.043 296.746 418.332 295.797 418.332 294.586C418.332 293.445 418.02 292.531 417.395 291.844C416.777 291.148 415.953 290.801 414.922 290.801C413.977 290.801 413.234 291.008 412.695 291.422L412.121 291.891L410.387 291.445ZM422.68 286.219C422.68 285.195 423.004 284.352 423.652 283.688C424.309 283.023 425.148 282.691 426.172 282.691C427.211 282.691 428.051 283.027 428.691 283.699C429.34 284.363 429.664 285.227 429.664 286.289V287.121C429.664 288.152 429.336 288.996 428.68 289.652C428.031 290.301 427.203 290.625 426.195 290.625C425.18 290.625 424.34 290.301 423.676 289.652C423.012 288.996 422.68 288.125 422.68 287.039V286.219ZM424.297 287.121C424.297 287.73 424.469 288.234 424.812 288.633C425.156 289.023 425.617 289.219 426.195 289.219C426.75 289.219 427.195 289.027 427.531 288.645C427.875 288.262 428.047 287.738 428.047 287.074V286.219C428.047 285.609 427.879 285.105 427.543 284.707C427.207 284.309 426.75 284.109 426.172 284.109C425.594 284.109 425.137 284.309 424.801 284.707C424.465 285.105 424.297 285.625 424.297 286.266V287.121ZM430.988 295.816C430.988 294.793 431.312 293.953 431.961 293.297C432.617 292.633 433.457 292.301 434.48 292.301C435.504 292.301 436.344 292.629 437 293.285C437.656 293.941 437.984 294.812 437.984 295.898V296.73C437.984 297.754 437.656 298.598 437 299.262C436.352 299.918 435.52 300.246 434.504 300.246C433.488 300.246 432.648 299.922 431.984 299.273C431.32 298.617 430.988 297.746 430.988 296.66V295.816ZM432.605 296.73C432.605 297.348 432.777 297.855 433.121 298.254C433.465 298.645 433.926 298.84 434.504 298.84C435.066 298.84 435.516 298.648 435.852 298.266C436.188 297.875 436.355 297.348 436.355 296.684V295.816C436.355 295.199 436.184 294.695 435.84 294.305C435.504 293.914 435.051 293.719 434.48 293.719C433.926 293.719 433.473 293.914 433.121 294.305C432.777 294.688 432.605 295.207 432.605 295.863V296.73ZM426.688 298.711L425.457 297.938L433.789 284.602L435.02 285.375L426.688 298.711ZM448.977 300H446.809V287.32H448.977V300ZM446.633 283.957C446.633 283.605 446.738 283.309 446.949 283.066C447.168 282.824 447.488 282.703 447.91 282.703C448.332 282.703 448.652 282.824 448.871 283.066C449.09 283.309 449.199 283.605 449.199 283.957C449.199 284.309 449.09 284.602 448.871 284.836C448.652 285.07 448.332 285.188 447.91 285.188C447.488 285.188 447.168 285.07 446.949 284.836C446.738 284.602 446.633 284.309 446.633 283.957ZM454.508 287.32L454.578 288.914C455.547 287.695 456.812 287.086 458.375 287.086C461.055 287.086 462.406 288.598 462.43 291.621V300H460.262V291.609C460.254 290.695 460.043 290.02 459.629 289.582C459.223 289.145 458.586 288.926 457.719 288.926C457.016 288.926 456.398 289.113 455.867 289.488C455.336 289.863 454.922 290.355 454.625 290.965V300H452.457V287.32H454.508ZM474.594 284.25V287.32H476.961V288.996H474.594V296.859C474.594 297.367 474.699 297.75 474.91 298.008C475.121 298.258 475.48 298.383 475.988 298.383C476.238 298.383 476.582 298.336 477.02 298.242V300C476.449 300.156 475.895 300.234 475.355 300.234C474.387 300.234 473.656 299.941 473.164 299.355C472.672 298.77 472.426 297.938 472.426 296.859V288.996H470.117V287.32H472.426V284.25H474.594ZM481.672 288.855C482.633 287.676 483.883 287.086 485.422 287.086C488.102 287.086 489.453 288.598 489.477 291.621V300H487.309V291.609C487.301 290.695 487.09 290.02 486.676 289.582C486.27 289.145 485.633 288.926 484.766 288.926C484.062 288.926 483.445 289.113 482.914 289.488C482.383 289.863 481.969 290.355 481.672 290.965V300H479.504V282H481.672V288.855ZM497.984 300.234C496.266 300.234 494.867 299.672 493.789 298.547C492.711 297.414 492.172 295.902 492.172 294.012V293.613C492.172 292.355 492.41 291.234 492.887 290.25C493.371 289.258 494.043 288.484 494.902 287.93C495.77 287.367 496.707 287.086 497.715 287.086C499.363 287.086 500.645 287.629 501.559 288.715C502.473 289.801 502.93 291.355 502.93 293.379V294.281H494.34C494.371 295.531 494.734 296.543 495.43 297.316C496.133 298.082 497.023 298.465 498.102 298.465C498.867 298.465 499.516 298.309 500.047 297.996C500.578 297.684 501.043 297.27 501.441 296.754L502.766 297.785C501.703 299.418 500.109 300.234 497.984 300.234ZM497.715 288.867C496.84 288.867 496.105 289.188 495.512 289.828C494.918 290.461 494.551 291.352 494.41 292.5H500.762V292.336C500.699 291.234 500.402 290.383 499.871 289.781C499.34 289.172 498.621 288.867 497.715 288.867ZM519.488 292.5C519.035 293.039 518.492 293.473 517.859 293.801C517.234 294.129 516.547 294.293 515.797 294.293C514.812 294.293 513.953 294.051 513.219 293.566C512.492 293.082 511.93 292.402 511.531 291.527C511.133 290.645 510.934 289.672 510.934 288.609C510.934 287.469 511.148 286.441 511.578 285.527C512.016 284.613 512.633 283.914 513.43 283.43C514.227 282.945 515.156 282.703 516.219 282.703C517.906 282.703 519.234 283.336 520.203 284.602C521.18 285.859 521.668 287.578 521.668 289.758V290.391C521.668 293.711 521.012 296.137 519.699 297.668C518.387 299.191 516.406 299.973 513.758 300.012H513.336V298.184H513.793C515.582 298.152 516.957 297.688 517.918 296.789C518.879 295.883 519.402 294.453 519.488 292.5ZM516.148 292.5C516.875 292.5 517.543 292.277 518.152 291.832C518.77 291.387 519.219 290.836 519.5 290.18V289.312C519.5 287.891 519.191 286.734 518.574 285.844C517.957 284.953 517.176 284.508 516.23 284.508C515.277 284.508 514.512 284.875 513.934 285.609C513.355 286.336 513.066 287.297 513.066 288.492C513.066 289.656 513.344 290.617 513.898 291.375C514.461 292.125 515.211 292.5 516.148 292.5ZM535.355 292.723C535.355 295.262 534.922 297.148 534.055 298.383C533.188 299.617 531.832 300.234 529.988 300.234C528.168 300.234 526.82 299.633 525.945 298.43C525.07 297.219 524.617 295.414 524.586 293.016V290.121C524.586 287.613 525.02 285.75 525.887 284.531C526.754 283.312 528.113 282.703 529.965 282.703C531.801 282.703 533.152 283.293 534.02 284.473C534.887 285.645 535.332 287.457 535.355 289.91V292.723ZM533.188 289.758C533.188 287.922 532.93 286.586 532.414 285.75C531.898 284.906 531.082 284.484 529.965 284.484C528.855 284.484 528.047 284.902 527.539 285.738C527.031 286.574 526.77 287.859 526.754 289.594V293.062C526.754 294.906 527.02 296.27 527.551 297.152C528.09 298.027 528.902 298.465 529.988 298.465C531.059 298.465 531.852 298.051 532.367 297.223C532.891 296.395 533.164 295.09 533.188 293.309V289.758ZM543.781 293.555C543.781 291.609 544.242 290.047 545.164 288.867C546.086 287.68 547.293 287.086 548.785 287.086C550.27 287.086 551.445 287.594 552.312 288.609V282H554.48V300H552.488L552.383 298.641C551.516 299.703 550.309 300.234 548.762 300.234C547.293 300.234 546.094 299.633 545.164 298.43C544.242 297.227 543.781 295.656 543.781 293.719V293.555ZM545.949 293.801C545.949 295.238 546.246 296.363 546.84 297.176C547.434 297.988 548.254 298.395 549.301 298.395C550.676 298.395 551.68 297.777 552.312 296.543V290.719C551.664 289.523 550.668 288.926 549.324 288.926C548.262 288.926 547.434 289.336 546.84 290.156C546.246 290.977 545.949 292.191 545.949 293.801ZM565.684 300C565.559 299.75 565.457 299.305 565.379 298.664C564.371 299.711 563.168 300.234 561.77 300.234C560.52 300.234 559.492 299.883 558.688 299.18C557.891 298.469 557.492 297.57 557.492 296.484C557.492 295.164 557.992 294.141 558.992 293.414C560 292.68 561.414 292.312 563.234 292.312H565.344V291.316C565.344 290.559 565.117 289.957 564.664 289.512C564.211 289.059 563.543 288.832 562.66 288.832C561.887 288.832 561.238 289.027 560.715 289.418C560.191 289.809 559.93 290.281 559.93 290.836H557.75C557.75 290.203 557.973 289.594 558.418 289.008C558.871 288.414 559.48 287.945 560.246 287.602C561.02 287.258 561.867 287.086 562.789 287.086C564.25 287.086 565.395 287.453 566.223 288.188C567.051 288.914 567.48 289.918 567.512 291.199V297.035C567.512 298.199 567.66 299.125 567.957 299.812V300H565.684ZM562.086 298.348C562.766 298.348 563.41 298.172 564.02 297.82C564.629 297.469 565.07 297.012 565.344 296.449V293.848H563.645C560.988 293.848 559.66 294.625 559.66 296.18C559.66 296.859 559.887 297.391 560.34 297.773C560.793 298.156 561.375 298.348 562.086 298.348ZM574.871 296.824L577.824 287.32H580.145L575.047 301.957C574.258 304.066 573.004 305.121 571.285 305.121L570.875 305.086L570.066 304.934V303.176L570.652 303.223C571.387 303.223 571.957 303.074 572.363 302.777C572.777 302.48 573.117 301.938 573.383 301.148L573.863 299.859L569.34 287.32H571.707L574.871 296.824ZM589.473 296.637C589.473 296.051 589.25 295.598 588.805 295.277C588.367 294.949 587.598 294.668 586.496 294.434C585.402 294.199 584.531 293.918 583.883 293.59C583.242 293.262 582.766 292.871 582.453 292.418C582.148 291.965 581.996 291.426 581.996 290.801C581.996 289.762 582.434 288.883 583.309 288.164C584.191 287.445 585.316 287.086 586.684 287.086C588.121 287.086 589.285 287.457 590.176 288.199C591.074 288.941 591.523 289.891 591.523 291.047H589.344C589.344 290.453 589.09 289.941 588.582 289.512C588.082 289.082 587.449 288.867 586.684 288.867C585.895 288.867 585.277 289.039 584.832 289.383C584.387 289.727 584.164 290.176 584.164 290.73C584.164 291.254 584.371 291.648 584.785 291.914C585.199 292.18 585.945 292.434 587.023 292.676C588.109 292.918 588.988 293.207 589.66 293.543C590.332 293.879 590.828 294.285 591.148 294.762C591.477 295.23 591.641 295.805 591.641 296.484C591.641 297.617 591.188 298.527 590.281 299.215C589.375 299.895 588.199 300.234 586.754 300.234C585.738 300.234 584.84 300.055 584.059 299.695C583.277 299.336 582.664 298.836 582.219 298.195C581.781 297.547 581.562 296.848 581.562 296.098H583.73C583.77 296.824 584.059 297.402 584.598 297.832C585.145 298.254 585.863 298.465 586.754 298.465C587.574 298.465 588.23 298.301 588.723 297.973C589.223 297.637 589.473 297.191 589.473 296.637ZM603.359 284.25V287.32H605.727V288.996H603.359V296.859C603.359 297.367 603.465 297.75 603.676 298.008C603.887 298.258 604.246 298.383 604.754 298.383C605.004 298.383 605.348 298.336 605.785 298.242V300C605.215 300.156 604.66 300.234 604.121 300.234C603.152 300.234 602.422 299.941 601.93 299.355C601.438 298.77 601.191 297.938 601.191 296.859V288.996H598.883V287.32H601.191V284.25H603.359ZM610.438 288.855C611.398 287.676 612.648 287.086 614.188 287.086C616.867 287.086 618.219 288.598 618.242 291.621V300H616.074V291.609C616.066 290.695 615.855 290.02 615.441 289.582C615.035 289.145 614.398 288.926 613.531 288.926C612.828 288.926 612.211 289.113 611.68 289.488C611.148 289.863 610.734 290.355 610.438 290.965V300H608.27V282H610.438V288.855ZM629.316 300C629.191 299.75 629.09 299.305 629.012 298.664C628.004 299.711 626.801 300.234 625.402 300.234C624.152 300.234 623.125 299.883 622.32 299.18C621.523 298.469 621.125 297.57 621.125 296.484C621.125 295.164 621.625 294.141 622.625 293.414C623.633 292.68 625.047 292.312 626.867 292.312H628.977V291.316C628.977 290.559 628.75 289.957 628.297 289.512C627.844 289.059 627.176 288.832 626.293 288.832C625.52 288.832 624.871 289.027 624.348 289.418C623.824 289.809 623.562 290.281 623.562 290.836H621.383C621.383 290.203 621.605 289.594 622.051 289.008C622.504 288.414 623.113 287.945 623.879 287.602C624.652 287.258 625.5 287.086 626.422 287.086C627.883 287.086 629.027 287.453 629.855 288.188C630.684 288.914 631.113 289.918 631.145 291.199V297.035C631.145 298.199 631.293 299.125 631.59 299.812V300H629.316ZM625.719 298.348C626.398 298.348 627.043 298.172 627.652 297.82C628.262 297.469 628.703 297.012 628.977 296.449V293.848H627.277C624.621 293.848 623.293 294.625 623.293 296.18C623.293 296.859 623.52 297.391 623.973 297.773C624.426 298.156 625.008 298.348 625.719 298.348ZM637.484 284.25V287.32H639.852V288.996H637.484V296.859C637.484 297.367 637.59 297.75 637.801 298.008C638.012 298.258 638.371 298.383 638.879 298.383C639.129 298.383 639.473 298.336 639.91 298.242V300C639.34 300.156 638.785 300.234 638.246 300.234C637.277 300.234 636.547 299.941 636.055 299.355C635.562 298.77 635.316 297.938 635.316 296.859V288.996H633.008V287.32H635.316V284.25H637.484ZM226.262 329V317.996H224.258V316.32H226.262V315.02C226.262 313.66 226.625 312.609 227.352 311.867C228.078 311.125 229.105 310.754 230.434 310.754C230.934 310.754 231.43 310.82 231.922 310.953L231.805 312.711C231.438 312.641 231.047 312.605 230.633 312.605C229.93 312.605 229.387 312.812 229.004 313.227C228.621 313.633 228.43 314.219 228.43 314.984V316.32H231.137V317.996H228.43V329H226.262ZM232.965 322.543C232.965 321.301 233.207 320.184 233.691 319.191C234.184 318.199 234.863 317.434 235.73 316.895C236.605 316.355 237.602 316.086 238.719 316.086C240.445 316.086 241.84 316.684 242.902 317.879C243.973 319.074 244.508 320.664 244.508 322.648V322.801C244.508 324.035 244.27 325.145 243.793 326.129C243.324 327.105 242.648 327.867 241.766 328.414C240.891 328.961 239.883 329.234 238.742 329.234C237.023 329.234 235.629 328.637 234.559 327.441C233.496 326.246 232.965 324.664 232.965 322.695V322.543ZM235.145 322.801C235.145 324.207 235.469 325.336 236.117 326.188C236.773 327.039 237.648 327.465 238.742 327.465C239.844 327.465 240.719 327.035 241.367 326.176C242.016 325.309 242.34 324.098 242.34 322.543C242.34 321.152 242.008 320.027 241.344 319.168C240.688 318.301 239.812 317.867 238.719 317.867C237.648 317.867 236.785 318.293 236.129 319.145C235.473 319.996 235.145 321.215 235.145 322.801ZM249.582 329H247.414V311H249.582V329ZM255.418 329H253.25V311H255.418V329ZM258.324 322.543C258.324 321.301 258.566 320.184 259.051 319.191C259.543 318.199 260.223 317.434 261.09 316.895C261.965 316.355 262.961 316.086 264.078 316.086C265.805 316.086 267.199 316.684 268.262 317.879C269.332 319.074 269.867 320.664 269.867 322.648V322.801C269.867 324.035 269.629 325.145 269.152 326.129C268.684 327.105 268.008 327.867 267.125 328.414C266.25 328.961 265.242 329.234 264.102 329.234C262.383 329.234 260.988 328.637 259.918 327.441C258.855 326.246 258.324 324.664 258.324 322.695V322.543ZM260.504 322.801C260.504 324.207 260.828 325.336 261.477 326.188C262.133 327.039 263.008 327.465 264.102 327.465C265.203 327.465 266.078 327.035 266.727 326.176C267.375 325.309 267.699 324.098 267.699 322.543C267.699 321.152 267.367 320.027 266.703 319.168C266.047 318.301 265.172 317.867 264.078 317.867C263.008 317.867 262.145 318.293 261.488 319.145C260.832 319.996 260.504 321.215 260.504 322.801ZM283.812 326.012L286.25 316.32H288.418L284.727 329H282.969L279.887 319.391L276.887 329H275.129L271.449 316.32H273.605L276.102 325.812L279.055 316.32H280.801L283.812 326.012ZM299.527 313.25V316.32H301.895V317.996H299.527V325.859C299.527 326.367 299.633 326.75 299.844 327.008C300.055 327.258 300.414 327.383 300.922 327.383C301.172 327.383 301.516 327.336 301.953 327.242V329C301.383 329.156 300.828 329.234 300.289 329.234C299.32 329.234 298.59 328.941 298.098 328.355C297.605 327.77 297.359 326.938 297.359 325.859V317.996H295.051V316.32H297.359V313.25H299.527ZM306.605 317.855C307.566 316.676 308.816 316.086 310.355 316.086C313.035 316.086 314.387 317.598 314.41 320.621V329H312.242V320.609C312.234 319.695 312.023 319.02 311.609 318.582C311.203 318.145 310.566 317.926 309.699 317.926C308.996 317.926 308.379 318.113 307.848 318.488C307.316 318.863 306.902 319.355 306.605 319.965V329H304.438V311H306.605V317.855ZM322.918 329.234C321.199 329.234 319.801 328.672 318.723 327.547C317.645 326.414 317.105 324.902 317.105 323.012V322.613C317.105 321.355 317.344 320.234 317.82 319.25C318.305 318.258 318.977 317.484 319.836 316.93C320.703 316.367 321.641 316.086 322.648 316.086C324.297 316.086 325.578 316.629 326.492 317.715C327.406 318.801 327.863 320.355 327.863 322.379V323.281H319.273C319.305 324.531 319.668 325.543 320.363 326.316C321.066 327.082 321.957 327.465 323.035 327.465C323.801 327.465 324.449 327.309 324.98 326.996C325.512 326.684 325.977 326.27 326.375 325.754L327.699 326.785C326.637 328.418 325.043 329.234 322.918 329.234ZM322.648 317.867C321.773 317.867 321.039 318.188 320.445 318.828C319.852 319.461 319.484 320.352 319.344 321.5H325.695V321.336C325.633 320.234 325.336 319.383 324.805 318.781C324.273 318.172 323.555 317.867 322.648 317.867ZM335.809 322.555C335.809 320.609 336.27 319.047 337.191 317.867C338.113 316.68 339.32 316.086 340.812 316.086C342.297 316.086 343.473 316.594 344.34 317.609V311H346.508V329H344.516L344.41 327.641C343.543 328.703 342.336 329.234 340.789 329.234C339.32 329.234 338.121 328.633 337.191 327.43C336.27 326.227 335.809 324.656 335.809 322.719V322.555ZM337.977 322.801C337.977 324.238 338.273 325.363 338.867 326.176C339.461 326.988 340.281 327.395 341.328 327.395C342.703 327.395 343.707 326.777 344.34 325.543V319.719C343.691 318.523 342.695 317.926 341.352 317.926C340.289 317.926 339.461 318.336 338.867 319.156C338.273 319.977 337.977 321.191 337.977 322.801ZM355.145 329.234C353.426 329.234 352.027 328.672 350.949 327.547C349.871 326.414 349.332 324.902 349.332 323.012V322.613C349.332 321.355 349.57 320.234 350.047 319.25C350.531 318.258 351.203 317.484 352.062 316.93C352.93 316.367 353.867 316.086 354.875 316.086C356.523 316.086 357.805 316.629 358.719 317.715C359.633 318.801 360.09 320.355 360.09 322.379V323.281H351.5C351.531 324.531 351.895 325.543 352.59 326.316C353.293 327.082 354.184 327.465 355.262 327.465C356.027 327.465 356.676 327.309 357.207 326.996C357.738 326.684 358.203 326.27 358.602 325.754L359.926 326.785C358.863 328.418 357.27 329.234 355.145 329.234ZM354.875 317.867C354 317.867 353.266 318.188 352.672 318.828C352.078 319.461 351.711 320.352 351.57 321.5H357.922V321.336C357.859 320.234 357.562 319.383 357.031 318.781C356.5 318.172 355.781 317.867 354.875 317.867ZM364.965 329H362.797V311H364.965V329ZM370.801 329H368.633V316.32H370.801V329ZM368.457 312.957C368.457 312.605 368.562 312.309 368.773 312.066C368.992 311.824 369.312 311.703 369.734 311.703C370.156 311.703 370.477 311.824 370.695 312.066C370.914 312.309 371.023 312.605 371.023 312.957C371.023 313.309 370.914 313.602 370.695 313.836C370.477 314.07 370.156 314.188 369.734 314.188C369.312 314.188 368.992 314.07 368.773 313.836C368.562 313.602 368.457 313.309 368.457 312.957ZM378.465 326.059L381.605 316.32H383.82L379.273 329H377.621L373.027 316.32H375.242L378.465 326.059ZM391.004 329.234C389.285 329.234 387.887 328.672 386.809 327.547C385.73 326.414 385.191 324.902 385.191 323.012V322.613C385.191 321.355 385.43 320.234 385.906 319.25C386.391 318.258 387.062 317.484 387.922 316.93C388.789 316.367 389.727 316.086 390.734 316.086C392.383 316.086 393.664 316.629 394.578 317.715C395.492 318.801 395.949 320.355 395.949 322.379V323.281H387.359C387.391 324.531 387.754 325.543 388.449 326.316C389.152 327.082 390.043 327.465 391.121 327.465C391.887 327.465 392.535 327.309 393.066 326.996C393.598 326.684 394.062 326.27 394.461 325.754L395.785 326.785C394.723 328.418 393.129 329.234 391.004 329.234ZM390.734 317.867C389.859 317.867 389.125 318.188 388.531 318.828C387.938 319.461 387.57 320.352 387.43 321.5H393.781V321.336C393.719 320.234 393.422 319.383 392.891 318.781C392.359 318.172 391.641 317.867 390.734 317.867ZM404.598 318.266C404.27 318.211 403.914 318.184 403.531 318.184C402.109 318.184 401.145 318.789 400.637 320V329H398.469V316.32H400.578L400.613 317.785C401.324 316.652 402.332 316.086 403.637 316.086C404.059 316.086 404.379 316.141 404.598 316.25V318.266ZM410.961 325.824L413.914 316.32H416.234L411.137 330.957C410.348 333.066 409.094 334.121 407.375 334.121L406.965 334.086L406.156 333.934V332.176L406.742 332.223C407.477 332.223 408.047 332.074 408.453 331.777C408.867 331.48 409.207 330.938 409.473 330.148L409.953 328.859L405.43 316.32H407.797L410.961 325.824ZM423.559 322.543C423.559 321.301 423.801 320.184 424.285 319.191C424.777 318.199 425.457 317.434 426.324 316.895C427.199 316.355 428.195 316.086 429.312 316.086C431.039 316.086 432.434 316.684 433.496 317.879C434.566 319.074 435.102 320.664 435.102 322.648V322.801C435.102 324.035 434.863 325.145 434.387 326.129C433.918 327.105 433.242 327.867 432.359 328.414C431.484 328.961 430.477 329.234 429.336 329.234C427.617 329.234 426.223 328.637 425.152 327.441C424.09 326.246 423.559 324.664 423.559 322.695V322.543ZM425.738 322.801C425.738 324.207 426.062 325.336 426.711 326.188C427.367 327.039 428.242 327.465 429.336 327.465C430.438 327.465 431.312 327.035 431.961 326.176C432.609 325.309 432.934 324.098 432.934 322.543C432.934 321.152 432.602 320.027 431.938 319.168C431.281 318.301 430.406 317.867 429.312 317.867C428.242 317.867 427.379 318.293 426.723 319.145C426.066 319.996 425.738 321.215 425.738 322.801ZM438.887 329V317.996H436.883V316.32H438.887V315.02C438.887 313.66 439.25 312.609 439.977 311.867C440.703 311.125 441.73 310.754 443.059 310.754C443.559 310.754 444.055 310.82 444.547 310.953L444.43 312.711C444.062 312.641 443.672 312.605 443.258 312.605C442.555 312.605 442.012 312.812 441.629 313.227C441.246 313.633 441.055 314.219 441.055 314.984V316.32H443.762V317.996H441.055V329H438.887ZM456.266 325.824L459.219 316.32H461.539L456.441 330.957C455.652 333.066 454.398 334.121 452.68 334.121L452.27 334.086L451.461 333.934V332.176L452.047 332.223C452.781 332.223 453.352 332.074 453.758 331.777C454.172 331.48 454.512 330.938 454.777 330.148L455.258 328.859L450.734 316.32H453.102L456.266 325.824ZM462.723 322.543C462.723 321.301 462.965 320.184 463.449 319.191C463.941 318.199 464.621 317.434 465.488 316.895C466.363 316.355 467.359 316.086 468.477 316.086C470.203 316.086 471.598 316.684 472.66 317.879C473.73 319.074 474.266 320.664 474.266 322.648V322.801C474.266 324.035 474.027 325.145 473.551 326.129C473.082 327.105 472.406 327.867 471.523 328.414C470.648 328.961 469.641 329.234 468.5 329.234C466.781 329.234 465.387 328.637 464.316 327.441C463.254 326.246 462.723 324.664 462.723 322.695V322.543ZM464.902 322.801C464.902 324.207 465.227 325.336 465.875 326.188C466.531 327.039 467.406 327.465 468.5 327.465C469.602 327.465 470.477 327.035 471.125 326.176C471.773 325.309 472.098 324.098 472.098 322.543C472.098 321.152 471.766 320.027 471.102 319.168C470.445 318.301 469.57 317.867 468.477 317.867C467.406 317.867 466.543 318.293 465.887 319.145C465.23 319.996 464.902 321.215 464.902 322.801ZM484.812 327.746C483.969 328.738 482.73 329.234 481.098 329.234C479.746 329.234 478.715 328.844 478.004 328.062C477.301 327.273 476.945 326.109 476.938 324.57V316.32H479.105V324.512C479.105 326.434 479.887 327.395 481.449 327.395C483.105 327.395 484.207 326.777 484.754 325.543V316.32H486.922V329H484.859L484.812 327.746ZM496.355 318.266C496.027 318.211 495.672 318.184 495.289 318.184C493.867 318.184 492.902 318.789 492.395 320V329H490.227V316.32H492.336L492.371 317.785C493.082 316.652 494.09 316.086 495.395 316.086C495.816 316.086 496.137 316.141 496.355 316.25V318.266ZM503.797 322.555C503.797 320.578 504.254 319.008 505.168 317.844C506.082 316.672 507.293 316.086 508.801 316.086C510.348 316.086 511.555 316.633 512.422 317.727L512.527 316.32H514.508V328.695C514.508 330.336 514.02 331.629 513.043 332.574C512.074 333.52 510.77 333.992 509.129 333.992C508.215 333.992 507.32 333.797 506.445 333.406C505.57 333.016 504.902 332.48 504.441 331.801L505.566 330.5C506.496 331.648 507.633 332.223 508.977 332.223C510.031 332.223 510.852 331.926 511.438 331.332C512.031 330.738 512.328 329.902 512.328 328.824V327.734C511.461 328.734 510.277 329.234 508.777 329.234C507.293 329.234 506.09 328.637 505.168 327.441C504.254 326.246 503.797 324.617 503.797 322.555ZM505.977 322.801C505.977 324.23 506.27 325.355 506.855 326.176C507.441 326.988 508.262 327.395 509.316 327.395C510.684 327.395 511.688 326.773 512.328 325.531V319.742C511.664 318.531 510.668 317.926 509.34 317.926C508.285 317.926 507.461 318.336 506.867 319.156C506.273 319.977 505.977 321.191 505.977 322.801ZM517.215 322.543C517.215 321.301 517.457 320.184 517.941 319.191C518.434 318.199 519.113 317.434 519.98 316.895C520.855 316.355 521.852 316.086 522.969 316.086C524.695 316.086 526.09 316.684 527.152 317.879C528.223 319.074 528.758 320.664 528.758 322.648V322.801C528.758 324.035 528.52 325.145 528.043 326.129C527.574 327.105 526.898 327.867 526.016 328.414C525.141 328.961 524.133 329.234 522.992 329.234C521.273 329.234 519.879 328.637 518.809 327.441C517.746 326.246 517.215 324.664 517.215 322.695V322.543ZM519.395 322.801C519.395 324.207 519.719 325.336 520.367 326.188C521.023 327.039 521.898 327.465 522.992 327.465C524.094 327.465 524.969 327.035 525.617 326.176C526.266 325.309 526.59 324.098 526.59 322.543C526.59 321.152 526.258 320.027 525.594 319.168C524.938 318.301 524.062 317.867 522.969 317.867C521.898 317.867 521.035 318.293 520.379 319.145C519.723 319.996 519.395 321.215 519.395 322.801ZM530.902 322.543C530.902 321.301 531.145 320.184 531.629 319.191C532.121 318.199 532.801 317.434 533.668 316.895C534.543 316.355 535.539 316.086 536.656 316.086C538.383 316.086 539.777 316.684 540.84 317.879C541.91 319.074 542.445 320.664 542.445 322.648V322.801C542.445 324.035 542.207 325.145 541.73 326.129C541.262 327.105 540.586 327.867 539.703 328.414C538.828 328.961 537.82 329.234 536.68 329.234C534.961 329.234 533.566 328.637 532.496 327.441C531.434 326.246 530.902 324.664 530.902 322.695V322.543ZM533.082 322.801C533.082 324.207 533.406 325.336 534.055 326.188C534.711 327.039 535.586 327.465 536.68 327.465C537.781 327.465 538.656 327.035 539.305 326.176C539.953 325.309 540.277 324.098 540.277 322.543C540.277 321.152 539.945 320.027 539.281 319.168C538.625 318.301 537.75 317.867 536.656 317.867C535.586 317.867 534.723 318.293 534.066 319.145C533.41 319.996 533.082 321.215 533.082 322.801ZM544.637 322.555C544.637 320.609 545.098 319.047 546.02 317.867C546.941 316.68 548.148 316.086 549.641 316.086C551.125 316.086 552.301 316.594 553.168 317.609V311H555.336V329H553.344L553.238 327.641C552.371 328.703 551.164 329.234 549.617 329.234C548.148 329.234 546.949 328.633 546.02 327.43C545.098 326.227 544.637 324.656 544.637 322.719V322.555ZM546.805 322.801C546.805 324.238 547.102 325.363 547.695 326.176C548.289 326.988 549.109 327.395 550.156 327.395C551.531 327.395 552.535 326.777 553.168 325.543V319.719C552.52 318.523 551.523 317.926 550.18 317.926C549.117 317.926 548.289 318.336 547.695 319.156C547.102 319.977 546.805 321.191 546.805 322.801ZM566.094 325.637C566.094 325.051 565.871 324.598 565.426 324.277C564.988 323.949 564.219 323.668 563.117 323.434C562.023 323.199 561.152 322.918 560.504 322.59C559.863 322.262 559.387 321.871 559.074 321.418C558.77 320.965 558.617 320.426 558.617 319.801C558.617 318.762 559.055 317.883 559.93 317.164C560.812 316.445 561.938 316.086 563.305 316.086C564.742 316.086 565.906 316.457 566.797 317.199C567.695 317.941 568.145 318.891 568.145 320.047H565.965C565.965 319.453 565.711 318.941 565.203 318.512C564.703 318.082 564.07 317.867 563.305 317.867C562.516 317.867 561.898 318.039 561.453 318.383C561.008 318.727 560.785 319.176 560.785 319.73C560.785 320.254 560.992 320.648 561.406 320.914C561.82 321.18 562.566 321.434 563.645 321.676C564.73 321.918 565.609 322.207 566.281 322.543C566.953 322.879 567.449 323.285 567.77 323.762C568.098 324.23 568.262 324.805 568.262 325.484C568.262 326.617 567.809 327.527 566.902 328.215C565.996 328.895 564.82 329.234 563.375 329.234C562.359 329.234 561.461 329.055 560.68 328.695C559.898 328.336 559.285 327.836 558.84 327.195C558.402 326.547 558.184 325.848 558.184 325.098H560.352C560.391 325.824 560.68 326.402 561.219 326.832C561.766 327.254 562.484 327.465 563.375 327.465C564.195 327.465 564.852 327.301 565.344 326.973C565.844 326.637 566.094 326.191 566.094 325.637Z" fill="#F1F1F1"/>
<path d="M401.668 489.412C407.681 489.412 412.555 484.537 412.555 478.525C412.555 472.512 407.681 467.638 401.668 467.638C395.655 467.638 390.781 472.512 390.781 478.525C390.781 484.537 395.655 489.412 401.668 489.412Z" fill="#00BFA6"/>
<path d="M407.256 473.988C407.092 473.831 406.874 473.744 406.648 473.744C406.422 473.744 406.204 473.831 406.04 473.988C403.73 475.83 401.655 477.949 399.862 480.298C399.422 479.446 398.982 478.594 398.542 477.743C398.034 476.76 396.55 477.628 397.057 478.61C397.701 479.856 398.345 481.102 398.989 482.348C399.067 482.475 399.176 482.58 399.306 482.653C399.436 482.726 399.582 482.764 399.731 482.764C399.88 482.764 400.027 482.726 400.157 482.653C400.286 482.58 400.396 482.475 400.473 482.348C402.384 479.657 404.668 477.251 407.256 475.203C407.416 475.041 407.505 474.823 407.505 474.595C407.505 474.368 407.416 474.149 407.256 473.988V473.988Z" fill="white"/>
<path d="M352.954 509.395L336.537 483.613L355.548 473.432L360.537 493.102L395.694 512.1C397.082 511.6 398.585 511.516 400.021 511.856C401.456 512.196 402.761 512.946 403.778 514.015C404.794 515.085 405.477 516.426 405.744 517.877C406.011 519.328 405.85 520.825 405.281 522.186C404.711 523.547 403.758 524.713 402.538 525.541C401.318 526.37 399.882 526.826 398.408 526.853C396.933 526.88 395.482 526.477 394.232 525.694C392.982 524.911 391.987 523.781 391.368 522.442L352.954 509.395Z" fill="#A0616A"/>
<path d="M324.542 452.69C319.384 460.264 337.715 487.793 337.715 487.793C338.608 485.868 347.145 507.485 348.575 506.208C352.639 502.579 359 492.47 362.536 492.019C364.558 491.761 357.846 477.42 357.846 477.42C357.846 477.42 354.778 468.951 350.616 458.134C349.496 455.053 347.615 452.307 345.147 450.149C342.68 447.992 339.707 446.493 336.505 445.794C336.505 445.794 329.7 445.116 324.542 452.69Z" fill="#3F3D56"/>
<path d="M324.795 699.441L332.591 699.441L336.3 669.367L324.793 669.368L324.795 699.441Z" fill="#A0616A"/>
<path d="M322.805 696.897L324.999 696.897L333.567 693.412L338.16 696.896H338.16C340.755 696.896 343.244 697.927 345.079 699.762C346.914 701.597 347.945 704.086 347.946 706.681V706.999L322.805 707L322.805 696.897Z" fill="#2F2E41"/>
<path d="M361.017 699.441L368.814 699.441L372.523 669.367L361.016 669.368L361.017 699.441Z" fill="#A0616A"/>
<path d="M359.029 696.897L361.224 696.897L369.792 693.412L374.384 696.896H374.385C376.98 696.896 379.469 697.927 381.304 699.762C383.139 701.597 384.17 704.086 384.17 706.681V706.999L359.03 707L359.029 696.897Z" fill="#2F2E41"/>
<path d="M364.391 535.027L313.677 536.295C304.045 541.527 303.899 552.849 307.055 566.293C307.055 566.293 305.989 574.283 308.12 576.414C310.251 578.545 311.316 578.545 310.251 582.274C309.186 586.002 314.814 592.093 314.131 592.776C313.447 593.46 311.849 597.189 311.849 597.189L317.176 627.552C317.176 627.552 320.905 680.288 321.97 681.354C323.035 682.419 324.101 681.354 323.035 684.017C321.97 686.681 320.905 685.615 321.97 686.681C322.914 687.698 323.803 688.765 324.634 689.877H337.512C337.512 689.877 338.483 684.55 338.483 684.017C338.483 683.485 339.549 680.288 339.549 679.756C339.549 679.223 338.607 678.281 338.607 678.281C338.282 677.199 338.062 676.087 337.951 674.961C337.951 673.896 334.755 632.879 334.755 632.879L341.147 579.61L356.595 631.814C356.595 631.814 356.595 677.625 357.66 678.69C358.726 679.756 358.726 679.223 358.193 681.354C357.66 683.485 355.529 682.952 357.128 684.55C358.726 686.148 359.258 683.485 358.726 686.148L358.193 688.811L374.174 689.04C374.174 689.04 376.304 684.55 375.239 682.952C374.174 681.354 374.238 681.79 375.537 679.175C376.837 676.56 377.37 676.027 376.837 675.494C376.304 674.962 376.304 672.128 376.304 672.128L373.641 621.16C373.641 621.16 373.108 567.358 373.108 565.76C373.068 564.938 373.22 564.118 373.551 563.364V561.195L371.51 553.508L364.391 535.027Z" fill="#2F2E41"/>
<path d="M333.927 429.575C342.63 429.575 349.684 422.52 349.684 413.818C349.684 405.115 342.63 398.061 333.927 398.061C325.225 398.061 318.17 405.115 318.17 413.818C318.17 422.52 325.225 429.575 333.927 429.575Z" fill="#A0616A"/>
<path d="M341.806 439.99C345.201 442.008 347.231 445.716 348.397 449.489C350.555 456.475 351.854 463.698 352.265 470.998L353.497 492.852L368.746 539.388C355.53 550.57 305.854 541.929 305.854 541.929C305.854 541.929 304.329 541.421 305.854 539.896C307.379 538.371 308.863 539.722 307.338 538.197C305.814 536.672 306.865 538.371 307.373 536.846C307.881 535.321 307.373 536.338 306.865 535.83C306.356 535.321 310.8 530.747 310.8 530.747L306.733 504.035L301.65 450.155C307.75 442.531 320.017 438.036 320.017 438.036L323.187 432.331L339.035 433.599L341.806 439.99Z" fill="#3F3D56"/>
<path d="M346.917 405.446C348.141 406.359 349.049 407.634 349.511 409.09C349.688 406.71 349.7 404.321 349.545 401.94C349.359 400.266 348.181 399.89 346.817 399.454C345.585 399.06 344.192 398.615 343.817 396.99C338.863 392.172 330.241 392.415 324.34 394.096C321.093 395.02 319.225 396.209 319.058 396.905L319.023 397.048L318.891 397.114C316.388 398.366 315.901 402.317 315.933 405.412C315.994 411.243 318.007 417.865 319.141 418.403C319.201 418.432 319.217 418.42 319.243 418.399C320.95 417.034 323.034 418.502 323.949 419.301C324.489 415.677 326.228 412.338 328.888 409.819C331.548 407.299 334.976 405.743 338.624 405.4C339.815 405.285 340.997 405.087 342.16 404.807C342.751 404.654 343.357 404.575 343.967 404.57C345.017 404.554 346.046 404.86 346.917 405.446V405.446Z" fill="#2F2E41"/>
<path d="M444.734 547.583L475.045 516.802L483.031 492.184L470.179 486.986C463.813 493.408 457.26 513.066 457.26 513.066L436.572 540.833C436.406 540.894 436.242 540.959 436.079 541.036C435.127 541.485 434.306 542.173 433.697 543.033C433.088 543.892 432.712 544.894 432.603 545.942C432.494 546.99 432.658 548.048 433.078 549.014C433.498 549.98 434.159 550.821 434.999 551.457C435.839 552.092 436.829 552.5 437.873 552.641C438.917 552.782 439.98 552.652 440.958 552.262C441.937 551.873 442.798 551.238 443.46 550.418C444.121 549.598 444.56 548.621 444.734 547.583Z" fill="#FFB8B8"/>
<path d="M466.676 489.802L482.928 494.504L482.988 494.492C488.962 493.332 493.688 483.404 496.6 475.28C497.558 472.601 497.463 469.657 496.334 467.045C495.205 464.433 493.126 462.347 490.518 461.209V461.209C488.588 460.382 486.466 460.112 484.39 460.428C482.315 460.745 480.37 461.635 478.774 463L470.671 469.977L466.676 489.802Z" fill="#00BFA6"/>
<path d="M452.771 698.528L444.031 698.528L439.873 664.815L452.772 664.816L452.771 698.528Z" fill="#FFB8B8"/>
<path d="M455.001 695.674L452.541 695.674L442.936 691.768L437.788 695.673H437.788C434.879 695.673 432.089 696.829 430.031 698.886C427.974 700.943 426.819 703.733 426.818 706.642V706.999L455.001 707L455.001 695.674Z" fill="#2F2E41"/>
<path d="M491.552 698.528L482.812 698.528L478.654 664.815L491.554 664.816L491.552 698.528Z" fill="#FFB8B8"/>
<path d="M493.782 695.674L491.322 695.674L481.718 691.768L476.57 695.673H476.569C473.66 695.673 470.87 696.829 468.813 698.886C466.756 700.943 465.6 703.733 465.6 706.642V706.999L493.782 707L493.782 695.674Z" fill="#2F2E41"/>
<path d="M504.881 553.316C504.881 553.316 505.902 565.563 503.351 577.3C500.799 589.037 500.799 622.091 500.799 622.091L495.186 686.502L478.346 684.972L473.754 577.3L457.424 613.531L458.955 618.634L456.916 619.909C456.916 619.909 458.445 629.86 457.424 629.86C456.404 629.86 453.852 631.391 453.852 631.391L455.893 683.951L438.543 683.441L432.42 609.448L439.054 567.094L439.564 558.929L441.86 559.024L443.03 555.613L445.177 549.744L504.881 553.316Z" fill="#2F2E41"/>
<path d="M505.762 555.888L505.853 555.76C510.71 548.96 503.405 532.619 502.303 530.251L506.944 528.745L505.899 519.862L505.403 515.901L508.95 512.355L508.96 512.266L511.001 494.406L513.969 482.543C515.088 478.059 514.992 473.358 513.693 468.922C512.394 464.487 509.938 460.477 506.577 457.304L499.717 450.836L491.38 438.5H477.936L473.326 447.207C468.857 448.24 464.891 450.808 462.121 454.464C459.35 458.12 457.95 462.632 458.164 467.214L459.209 490.051L455.119 518.485L455.116 523.631L450.513 528.746L451.519 533.772L448.016 535.273L446.469 542.491C445.829 543.335 441.604 548.969 441.604 550.509C441.604 550.74 441.774 550.964 442.14 551.212C445.02 553.161 460.935 557.136 467.978 554.318C475.481 551.318 505.306 555.818 505.607 555.864L505.762 555.888Z" fill="#00BFA6"/>
<path d="M482.921 434.518C492.754 434.518 500.726 426.547 500.726 416.713C500.726 406.879 492.754 398.907 482.921 398.907C473.087 398.907 465.115 406.879 465.115 416.713C465.115 426.547 473.087 434.518 482.921 434.518Z" fill="#FFB8B8"/>
<path d="M481.215 434.806C483.973 434.778 486.723 434.514 489.436 434.018C492.121 433.399 498.046 428.817 499.661 426.111C500.861 424.1 501.581 420.989 501.974 418.734C502.504 415.749 502.402 412.687 501.674 409.744C500.945 406.801 499.607 404.045 497.745 401.652C497.028 400.65 496.053 399.86 494.923 399.367C494.823 399.33 494.721 399.299 494.617 399.272C492.98 398.886 491.495 398.02 490.354 396.784C490.132 396.534 489.893 396.3 489.638 396.084C488.357 395.059 486.853 394.351 485.246 394.019C482.652 393.396 478.94 394.177 474.214 396.342C471.84 397.43 469.205 397.127 467.174 396.741C467.06 396.722 466.944 396.733 466.835 396.773C466.727 396.813 466.631 396.881 466.558 396.97C465.719 397.799 464.598 398.279 463.42 398.316C462.699 398.366 461.967 399.385 461.085 400.712C460.885 401.013 460.652 401.365 460.482 401.579L460.448 401.176L460.052 401.637C459.428 402.361 458.998 403.231 458.801 404.166C458.604 405.102 458.647 406.071 458.926 406.985C459.205 407.899 459.711 408.728 460.396 409.394C461.081 410.06 461.924 410.541 462.846 410.794C463.577 410.968 464.324 411.068 465.075 411.091C465.531 411.12 466.002 411.15 466.454 411.216C467.908 411.475 469.269 412.106 470.406 413.048C471.543 413.99 472.415 415.211 472.94 416.591C473.063 416.91 473.259 417.196 473.511 417.428C473.763 417.659 474.064 417.83 474.393 417.926C474.721 418.022 475.067 418.042 475.404 417.983C475.741 417.925 476.06 417.789 476.336 417.588C476.796 417.21 477.341 416.95 477.923 416.828C478.505 416.706 479.109 416.727 479.681 416.889C480.179 417.149 480.572 417.573 480.795 418.089C481.064 418.663 481.498 419.143 482.042 419.47C483.896 420.366 484.13 424.541 483.563 428.041C483.016 431.415 481.827 433.876 480.67 434.026C479.78 434.142 479.68 434.208 479.619 434.367L479.565 434.51L479.669 434.64C480.167 434.806 480.694 434.862 481.215 434.806V434.806Z" fill="#2F2E41"/>
<path d="M466.445 491.707L457.886 480.802C449.168 483.202 433.699 496.99 433.699 496.99L401.931 510.776C400.871 510.598 399.783 510.702 398.775 511.079C397.768 511.455 396.878 512.09 396.194 512.92C395.51 513.749 395.057 514.745 394.88 515.805C394.703 516.866 394.809 517.954 395.186 518.961C395.564 519.967 396.2 520.857 397.03 521.54C397.861 522.223 398.857 522.674 399.917 522.85C400.978 523.026 402.066 522.919 403.073 522.54C404.079 522.162 404.968 521.524 405.65 520.693L447.265 509.083L466.445 491.707Z" fill="#FFB8B8"/>
<path d="M464.392 494.2L477.897 479.146L478.647 468.479C478.786 466.384 478.337 464.292 477.35 462.44C476.363 460.587 474.878 459.047 473.062 457.994V457.994C470.59 456.583 467.675 456.164 464.906 456.82C462.137 457.477 459.721 459.16 458.145 461.53C453.374 468.722 448.24 478.445 450.882 483.927L450.908 483.982L464.392 494.2Z" fill="#00BFA6"/>
<path d="M339.925 550.784L304.826 532.808C302.33 531.529 301.503 528.138 302.983 525.248L325.868 480.564C327.348 477.674 330.583 476.363 333.08 477.641L368.178 495.617C370.675 496.896 371.502 500.287 370.022 503.177L347.137 547.861C345.657 550.751 342.421 552.062 339.925 550.784Z" fill="#E6E6E6"/>
<path d="M333.927 542.52L310.081 530.307C307.743 529.11 306.968 525.933 308.354 523.227L327.367 486.104C328.753 483.397 331.783 482.17 334.121 483.367L362.923 498.118C365.261 499.315 366.035 502.491 364.649 505.198L354.32 525.365C348.146 537.421 344.342 547.854 333.927 542.52Z" fill="white"/>
<path d="M345.717 522.247L324.595 511.43C324.337 511.246 324.154 510.975 324.079 510.667C324.003 510.359 324.042 510.034 324.186 509.752C324.331 509.47 324.572 509.249 324.866 509.13C325.16 509.011 325.487 509.001 325.787 509.103L346.908 519.921C347.167 520.105 347.35 520.376 347.425 520.684C347.5 520.992 347.462 521.317 347.318 521.599C347.173 521.881 346.932 522.102 346.638 522.221C346.344 522.34 346.017 522.349 345.717 522.247V522.247Z" fill="#00BFA6"/>
<path d="M327.062 518.495L322.242 516.027C321.984 515.843 321.8 515.572 321.725 515.264C321.65 514.956 321.688 514.631 321.833 514.349C321.977 514.067 322.219 513.846 322.512 513.727C322.806 513.607 323.133 513.598 323.434 513.7L328.254 516.169C328.512 516.353 328.695 516.624 328.771 516.932C328.846 517.24 328.807 517.565 328.663 517.847C328.518 518.129 328.277 518.35 327.983 518.469C327.689 518.588 327.362 518.597 327.062 518.495V518.495Z" fill="#00BFA6"/>
<path d="M333.244 527.464L319.886 520.624C319.628 520.439 319.445 520.169 319.37 519.861C319.295 519.553 319.333 519.228 319.477 518.945C319.622 518.663 319.863 518.442 320.157 518.323C320.451 518.204 320.778 518.195 321.078 518.297L334.435 525.138C334.694 525.322 334.877 525.592 334.952 525.901C335.027 526.209 334.989 526.533 334.844 526.816C334.7 527.098 334.459 527.319 334.165 527.438C333.871 527.557 333.544 527.566 333.244 527.464V527.464Z" fill="#00BFA6"/>
<path d="M354.076 505.927L332.955 495.11C332.697 494.926 332.513 494.655 332.438 494.347C332.363 494.039 332.401 493.714 332.546 493.432C332.69 493.149 332.931 492.929 333.225 492.81C333.519 492.69 333.846 492.681 334.146 492.783L355.268 503.6C355.526 503.784 355.71 504.055 355.785 504.363C355.86 504.671 355.822 504.996 355.677 505.278C355.533 505.561 355.291 505.782 354.997 505.901C354.703 506.02 354.377 506.029 354.076 505.927V505.927Z" fill="#00BFA6"/>
<path d="M335.419 502.175L330.599 499.707C330.341 499.522 330.158 499.252 330.083 498.944C330.007 498.636 330.046 498.311 330.19 498.028C330.335 497.746 330.576 497.525 330.87 497.406C331.164 497.287 331.491 497.278 331.791 497.38L336.611 499.848C336.869 500.032 337.053 500.303 337.128 500.611C337.203 500.919 337.165 501.244 337.02 501.526C336.876 501.809 336.634 502.03 336.341 502.149C336.047 502.268 335.72 502.277 335.419 502.175V502.175Z" fill="#00BFA6"/>
<path d="M341.603 511.144L328.246 504.303C327.988 504.119 327.804 503.848 327.729 503.54C327.654 503.232 327.692 502.907 327.837 502.625C327.981 502.343 328.222 502.122 328.516 502.003C328.81 501.884 329.137 501.874 329.437 501.976L342.795 508.817C343.053 509.001 343.236 509.272 343.311 509.58C343.387 509.888 343.348 510.213 343.204 510.495C343.059 510.778 342.818 510.998 342.524 511.118C342.23 511.237 341.903 511.246 341.603 511.144L341.603 511.144Z" fill="#00BFA6"/>
<path d="M310.839 511.882L302.91 482.363L324.099 478.352L322.96 498.613L350.8 527.28C352.274 527.22 353.734 527.59 355.001 528.345C356.268 529.1 357.289 530.207 357.938 531.532C358.586 532.856 358.836 534.341 358.655 535.805C358.475 537.269 357.872 538.649 356.921 539.777C355.97 540.904 354.711 541.731 353.298 542.155C351.886 542.58 350.38 542.584 348.965 542.167C347.55 541.751 346.286 540.932 345.329 539.81C344.371 538.688 343.761 537.311 343.572 535.848L310.839 511.882Z" fill="#A0616A"/>
<path d="M300.742 449.265C293.55 454.943 302.781 486.703 302.781 486.703C304.21 485.135 305.871 508.316 307.618 507.527C312.583 505.284 321.683 497.548 325.192 498.178C327.198 498.539 325.096 482.845 325.096 482.845C325.096 482.845 324.71 473.846 323.983 462.278C323.838 459.003 322.867 455.819 321.161 453.021C319.454 450.223 317.067 447.902 314.223 446.274C314.223 446.274 307.934 443.587 300.742 449.265Z" fill="#3F3D56"/>
<path d="M420.416 577.402L401.263 568.358C400.854 568.165 400.493 567.883 400.208 567.531C399.923 567.179 399.722 566.768 399.619 566.327C399.515 565.896 399.51 565.447 399.605 565.014C399.699 564.581 399.89 564.175 400.164 563.826C405.712 556.735 409.522 548.443 411.288 539.615C411.421 538.939 411.785 538.33 412.317 537.892C412.849 537.454 413.517 537.215 414.206 537.214C423.974 537.247 431.275 540.814 435.904 547.814C436.148 548.178 436.31 548.591 436.378 549.024C436.446 549.457 436.419 549.9 436.298 550.321C433.618 559.56 429.539 568.334 424.203 576.339C423.807 576.944 423.206 577.385 422.509 577.581C421.813 577.776 421.069 577.713 420.416 577.402Z" fill="#80ABD8"/>
<path d="M428.326 559.899L413.681 552.984C413.317 552.812 413.036 552.502 412.9 552.123C412.764 551.743 412.784 551.326 412.956 550.961C413.128 550.597 413.438 550.316 413.817 550.18C414.196 550.044 414.614 550.064 414.978 550.236L429.623 557.152C429.987 557.324 430.269 557.633 430.405 558.013C430.54 558.392 430.52 558.81 430.348 559.174C430.176 559.538 429.866 559.82 429.487 559.955C429.108 560.091 428.69 560.071 428.326 559.899V559.899Z" fill="white"/>
<defs>
<linearGradient id="paint0_linear_547:7992" x1="432.5" y1="0" x2="432.5" y2="822" gradientUnits="userSpaceOnUse">
<stop stop-color="#C3CC5D"/>
<stop offset="1" stop-color="#D34F46"/>
</linearGradient>
</defs>
</svg>
